<svg id="b0c8bb1b-5f00-4de3-ac22-447b17e4a94f" data-name="Layer 1" xmlns="http://www.w3.org/2000/svg" viewBox="0 0 173.18 41.59"><title>bg-tab3-active</title><g id="38d9f5c3-b319-4a72-876f-7e48269e4515" data-name="Layer 1"><path d="M261.22,175.36a19.92,19.92,0,0,1-2.4-1.8A13.92,13.92,0,0,1,255,169c-2.62-5.68-5.65-11.17-8.4-16.8-1.36-2.79-2.78-5.58-4.08-8.4a42.72,42.72,0,0,0-2.16-4.08,9.2,9.2,0,0,0-4.08-3.24H108.1a8.31,8.31,0,0,0-2.4,1.56,5.12,5.12,0,0,0-1.2,2.28,28.38,28.38,0,0,0-1,4.44,14,14,0,0,1-.48,2.16,6.23,6.23,0,0,0-.24,1c0,0.16,0,.32,0,0.48a4.49,4.49,0,0,1-.24.48c-0.22,1.4-.51,2.68-0.72,4.08s-0.76,2.72-1,4.08-0.53,2.57-.72,4a13.21,13.21,0,0,1-.48,2c-0.22.65-.28,1.38-0.48,2-0.4,1.3-.53,2.68-1,4a22.43,22.43,0,0,1-1,2.16,10.68,10.68,0,0,1-1.2,1.92,13.81,13.81,0,0,1-1.92,2,5.82,5.82,0,0,0-1.68,1.44H263.62A14,14,0,0,0,261.22,175.36Z" transform="translate(-91.74 -135.98)" fill="#ede6dd"/><path d="M261.22,175.36a19.92,19.92,0,0,1-2.4-1.8A13.92,13.92,0,0,1,255,169c-2.62-5.68-5.65-11.17-8.4-16.8-1.36-2.79-2.78-5.58-4.08-8.4a42.72,42.72,0,0,0-2.16-4.08,9.2,9.2,0,0,0-4.08-3.24H108.1a8.31,8.31,0,0,0-2.4,1.56,5.12,5.12,0,0,0-1.2,2.28,28.38,28.38,0,0,0-1,4.44,14,14,0,0,1-.48,2.16,6.23,6.23,0,0,0-.24,1c0,0.16,0,.32,0,0.48a4.49,4.49,0,0,1-.24.48c-0.22,1.4-.51,2.68-0.72,4.08s-0.76,2.72-1,4.08-0.53,2.57-.72,4a13.21,13.21,0,0,1-.48,2c-0.22.65-.28,1.38-0.48,2-0.4,1.3-.53,2.68-1,4a22.43,22.43,0,0,1-1,2.16,10.68,10.68,0,0,1-1.2,1.92,13.81,13.81,0,0,1-1.92,2,5.82,5.82,0,0,0-1.68,1.44H263.62A14,14,0,0,0,261.22,175.36Z" transform="translate(-91.74 -135.98)" fill="none" stroke="#ba9155" stroke-miterlimit="10"/></g><polygon points="167.26 38.49 3.96 38.51 2.01 40.1 1.28 41.21 171.56 41.59 173.17 41.57 173.11 41.11 171.39 41.09 167.26 38.49" fill="#ede6dd"/></svg>