<?xml version="1.0" encoding="utf-8"?>
<!-- Generator: Adobe Illustrator 19.1.0, SVG Export Plug-In . SVG Version: 6.00 Build 0)  -->
<svg version="1.1" id="Layer_1" xmlns="http://www.w3.org/2000/svg" xmlns:xlink="http://www.w3.org/1999/xlink" x="0px" y="0px"
	 viewBox="0 0 172 40" style="enable-background:new 0 0 172 40;" xml:space="preserve">
<style type="text/css">
	.st0{fill:#7E141B;}
	.st1{fill:#BA9155;}
</style>
<g id="XMLID_3168_">
	<g>
		<path class="st0" d="M163,32L148.8,3.6c-1-2-3.6-3.6-5.8-3.6H18c-2.2,0-4.4,1.7-5,3.9c0,0-5.4,26.2-6,28.1c-1.9,5.8-6,8-6,8h171
			C172,40,166.3,38.5,163,32z"/>
	</g>
	<g>
		<path class="st1" d="M162,32L147.8,3.6c-1-2-3.6-3.6-5.8-3.6H17c-2.2,0-4.4,1.7-5,3.9c0,0-5.4,26.2-6,28.1c-1.9,5.8-6,8-6,8h171
			C171,40,165.3,38.5,162,32z"/>
	</g>
</g>
</svg>
