<svg xmlns="http://www.w3.org/2000/svg" viewBox="0 0 33 33"><title>chip-denom-2</title><g style="isolation:isolate"><g id="f227c599-cd58-47d6-a9d9-cf25a20470bb" data-name="Screens"><g id="65683314-1374-437a-a60e-bc1c1309fd23" data-name="&lt;Group&gt;"><g id="bbf60f06-ed96-4795-83bd-3a40e9048dd0" data-name="&lt;Group&gt;" opacity="0.65" style="mix-blend-mode:multiply"><circle id="8a9bb3eb-e25d-4185-a659-3572f7aa7653" data-name="&lt;Path&gt;" cx="17" cy="17" r="16" fill="#bb9156"/></g><g id="db25c042-27fa-45bf-a3a7-37c09a1a3aec" data-name="&lt;Group&gt;"><circle id="b51a634f-c9d1-47f6-9702-658df14a4a9e" data-name="&lt;Path&gt;" cx="16" cy="16" r="16" fill="#fff"/></g></g><g id="cb8c08c0-b625-4c5d-876e-55eba07deb96" data-name="&lt;Group&gt;"><g id="71c668b8-7f03-432b-b841-5dd046484a3b" data-name="&lt;Group&gt;"><path id="52002464-6d66-4245-959e-7c3ca60663f0" data-name="&lt;Compound Path&gt;" d="M3179,1860a12,12,0,1,1-12,12,12,12,0,0,1,12-12m0-2a14,14,0,1,0,14,14,14,14,0,0,0-14-14h0Z" transform="translate(-3163 -1856)" fill="#f15a24"/></g><g id="10c7755c-5827-44e7-8eb5-7e21a5a638fa" data-name="&lt;Group&gt;"><path id="bdc9dd23-edf9-43ad-b51f-802926367415" data-name="&lt;Compound Path&gt;" d="M3179,1865a7,7,0,1,1-7,7,7,7,0,0,1,7-7m0-2a9,9,0,1,0,9,9,9,9,0,0,0-9-9h0Z" transform="translate(-3163 -1856)" fill="#f15a24"/></g><line id="b92462ef-113a-4133-9370-01d8904320fe" data-name="&lt;Path&gt;" x1="16" y1="3" x2="16" y2="8" fill="none" stroke="#f15a24" stroke-miterlimit="10" stroke-width="2"/><line id="f1dba6c6-b502-4765-a633-f0b5ddf9b934" data-name="&lt;Path&gt;" x1="16" y1="24" x2="16" y2="29" fill="none" stroke="#f15a24" stroke-miterlimit="10" stroke-width="2"/><line id="9f3041e2-8b49-4651-b172-9184f6c46cc6" data-name="&lt;Path&gt;" x1="24" y1="16" x2="29" y2="16" fill="none" stroke="#f15a24" stroke-miterlimit="10" stroke-width="2"/><line id="4022fbc8-b9ea-4a13-85da-b7265b37ca84" data-name="&lt;Path&gt;" x1="3" y1="16" x2="8" y2="16" fill="none" stroke="#f15a24" stroke-miterlimit="10" stroke-width="2"/><line id="6dfe8679-6fad-4be3-94ca-0700cd678314" data-name="&lt;Path&gt;" x1="25.6" y1="6.4" x2="21.25" y2="10.75" fill="none" stroke="#f15a24" stroke-miterlimit="10" stroke-width="2"/><line id="bfcb1ccf-4c66-49f8-b380-adb373d88505" data-name="&lt;Path&gt;" x1="10.61" y1="21.39" x2="6.54" y2="25.46" fill="none" stroke="#f15a24" stroke-miterlimit="10" stroke-width="2"/><line id="7bb08d11-1f78-4dc2-9549-6f7cca93d472" data-name="&lt;Path&gt;" x1="21.22" y1="21.22" x2="25.63" y2="25.62" fill="none" stroke="#f15a24" stroke-miterlimit="10" stroke-width="2"/><line id="44a44e77-e48b-46a2-bb43-7c9c7ff46f88" data-name="&lt;Path&gt;" x1="6.4" y1="6.4" x2="10.75" y2="10.75" fill="none" stroke="#f15a24" stroke-miterlimit="10" stroke-width="2"/></g></g></g></svg>