<?xml version="1.0" encoding="utf-8"?>
<!-- Generator: Adobe Illustrator 19.1.0, SVG Export Plug-In . SVG Version: 6.00 Build 0)  -->
<svg version="1.1" id="Layer_1" xmlns="http://www.w3.org/2000/svg" xmlns:xlink="http://www.w3.org/1999/xlink" x="0px" y="0px"
	 viewBox="0 0 232 50" style="enable-background:new 0 0 232 50;" xml:space="preserve">
<style type="text/css">
	.st0{fill:none;stroke:#989898;stroke-width:4;stroke-linecap:round;stroke-miterlimit:10;}
</style>
<g id="XMLID_730_">
	<g id="XMLID_731_">
		<path class="st0" d="M6.1,25l4.4,17.2c0.8,3.2,4.2,5.8,7.5,5.8h195c3.3,0,6.7-2.6,7.5-5.8L225,25"/>
	</g>
	<line id="XMLID_732_" class="st0" x1="2" y1="25" x2="229" y2="25"/>
	<line id="XMLID_734_" class="st0" x1="212" y1="33" x2="228" y2="7"/>
	<circle id="XMLID_737_" class="st0" cx="228" cy="7" r="2"/>
	<line id="XMLID_738_" class="st0" x1="20" y1="33" x2="4" y2="7"/>
	<circle id="XMLID_741_" class="st0" cx="4" cy="7" r="2"/>
	<path id="XMLID_744_" class="st0" d="M36,25c-1.9-1.6-3-4.1-3-6.8c0-5,4-9,9-9c5,0,9,4,9,9c0,2.7-1.2,5.1-3,6.8"/>
	<path id="XMLID_745_" class="st0" d="M56.4,25c1-2.1,1.6-4.5,1.6-7c0-8.8-7.2-16-16-16S26,9.2,26,18c0,2.5,0.6,4.9,1.6,7"/>
	<line id="XMLID_2848_" class="st0" x1="42" y1="9" x2="42" y2="3"/>
	<line id="XMLID_746_" class="st0" x1="33" y1="19" x2="26" y2="19"/>
	<line id="XMLID_748_" class="st0" x1="36" y1="11.5" x2="31" y2="6.5"/>
	<line id="XMLID_749_" class="st0" x1="49" y1="11.5" x2="53.8" y2="6.8"/>
	<line id="XMLID_2871_" class="st0" x1="58" y1="19" x2="51" y2="19"/>
	<path id="XMLID_2868_" class="st0" d="M73,25c-1.9-1.6-3-4.1-3-6.8c0-5,4-9,9-9c5,0,9,4,9,9c0,2.7-1.2,5.1-3,6.8"/>
	<path id="XMLID_2867_" class="st0" d="M93.4,25c1-2.1,1.6-4.5,1.6-7c0-8.8-7.2-16-16-16S63,9.2,63,18c0,2.5,0.6,4.9,1.6,7"/>
	<line id="XMLID_2866_" class="st0" x1="79" y1="9" x2="79" y2="3"/>
	<line id="XMLID_750_" class="st0" x1="70" y1="19" x2="63" y2="19"/>
	<line id="XMLID_755_" class="st0" x1="73" y1="11.5" x2="68" y2="6.5"/>
	<line id="XMLID_2863_" class="st0" x1="86" y1="11.5" x2="90.5" y2="7"/>
	<line id="XMLID_2859_" class="st0" x1="95" y1="19" x2="88" y2="19"/>
	<path id="XMLID_758_" class="st0" d="M110,25c-1.9-1.6-3-4.1-3-6.8c0-5,4-9,9-9c5,0,9,4,9,9c0,2.7-1.2,5.1-3,6.8"/>
	<path id="XMLID_2880_" class="st0" d="M130.4,25c1-2.1,1.6-4.5,1.6-7c0-8.8-7.2-16-16-16s-16,7.2-16,16c0,2.5,0.6,4.9,1.6,7"/>
	<line id="XMLID_760_" class="st0" x1="116" y1="9" x2="116" y2="3"/>
	<line id="XMLID_761_" class="st0" x1="107" y1="19" x2="100" y2="19"/>
	<line id="XMLID_2875_" class="st0" x1="110" y1="11.5" x2="105" y2="6.5"/>
	<line id="XMLID_2874_" class="st0" x1="123" y1="11.5" x2="127.8" y2="6.8"/>
	<line id="XMLID_2869_" class="st0" x1="132" y1="19" x2="125" y2="19"/>
	<path id="XMLID_767_" class="st0" d="M147,25c-1.9-1.6-3-4.1-3-6.8c0-5,4-9,9-9c5,0,9,4,9,9c0,2.7-1.2,5.1-3,6.8"/>
	<path id="XMLID_777_" class="st0" d="M167.4,25c1-2.1,1.6-4.5,1.6-7c0-8.8-7.2-16-16-16s-16,7.2-16,16c0,2.5,0.6,4.9,1.6,7"/>
	<line id="XMLID_2886_" class="st0" x1="153" y1="9" x2="153" y2="3"/>
	<line id="XMLID_781_" class="st0" x1="144" y1="19" x2="137" y2="19"/>
	<line id="XMLID_782_" class="st0" x1="147" y1="11.5" x2="142" y2="6.5"/>
	<line id="XMLID_2883_" class="st0" x1="160" y1="11.5" x2="164.8" y2="6.8"/>
	<line id="XMLID_783_" class="st0" x1="169" y1="19" x2="162" y2="19"/>
	<path id="XMLID_786_" class="st0" d="M184,25c-1.9-1.6-3-4.1-3-6.8c0-5,4-9,9-9c5,0,9,4,9,9c0,2.7-1.2,5.1-3,6.8"/>
	<path id="XMLID_2894_" class="st0" d="M204.4,25c1-2.1,1.6-4.5,1.6-7c0-8.8-7.2-16-16-16s-16,7.2-16,16c0,2.5,0.6,4.9,1.6,7"/>
	<line id="XMLID_2893_" class="st0" x1="190" y1="9" x2="190" y2="3"/>
	<line id="XMLID_2892_" class="st0" x1="181" y1="19" x2="174" y2="19"/>
	<line id="XMLID_2891_" class="st0" x1="184" y1="11.5" x2="179" y2="6.5"/>
	<line id="XMLID_787_" class="st0" x1="197" y1="11.5" x2="201.2" y2="7.3"/>
	<line id="XMLID_788_" class="st0" x1="206" y1="19" x2="199" y2="19"/>
</g>
</svg>
