<svg xmlns="http://www.w3.org/2000/svg" viewBox="0 0 33 33"><title>chip-denom-7</title><g style="isolation:isolate"><g id="9498e7e1-96da-4d6b-9df5-ecd7174f8091" data-name="Screens"><g id="45a3e778-5cb3-4287-9106-4134f4043299" data-name="&lt;Group&gt;"><g id="b1e1740d-addc-41dd-827d-712d08876778" data-name="&lt;Group&gt;"><g id="6816e0c1-6c5c-41fa-b47b-8a14624fd418" data-name="&lt;Group&gt;" opacity="0.65" style="mix-blend-mode:multiply"><circle id="de9ed509-2c15-4753-8c54-19016bba2435" data-name="&lt;Path&gt;" cx="17" cy="17" r="16" fill="#bb9156"/></g><g id="28672760-94b4-4216-a09b-e2e0a6b8ef75" data-name="&lt;Group&gt;"><circle id="3708ee98-c040-4291-9712-fbb6cadc77aa" data-name="&lt;Path&gt;" cx="16" cy="16" r="16" fill="#fff"/></g></g><g id="616d7bef-bca8-4404-9ca7-c8ffd790df9d" data-name="&lt;Group&gt;"><g id="9d4ff603-946d-4050-972e-376a5f8071c7" data-name="&lt;Group&gt;"><path id="69b02ac2-b0ad-4d8a-a995-847bb5b308bb" data-name="&lt;Compound Path&gt;" d="M3179,2160a12,12,0,1,1-12,12,12,12,0,0,1,12-12m0-2a14,14,0,1,0,14,14,14,14,0,0,0-14-14h0Z" transform="translate(-3163 -2156)" fill="#ed1e79"/></g><g id="4ee115d8-c52e-477a-923f-6dcfb024cd57" data-name="&lt;Group&gt;"><path id="b8774198-e420-40ff-be08-7d79b5889407" data-name="&lt;Compound Path&gt;" d="M3179,2165a7,7,0,1,1-7,7,7,7,0,0,1,7-7m0-2a9,9,0,1,0,9,9,9,9,0,0,0-9-9h0Z" transform="translate(-3163 -2156)" fill="#ed1e79"/></g><line id="1653fa14-0327-4f44-aa13-6610c19f5c7c" data-name="&lt;Path&gt;" x1="16" y1="3" x2="16" y2="8" fill="none" stroke="#ed1e79" stroke-miterlimit="10" stroke-width="2"/><line id="22ca091c-3a47-4bf7-938a-2353160d4b5e" data-name="&lt;Path&gt;" x1="16" y1="24" x2="16" y2="29" fill="none" stroke="#ed1e79" stroke-miterlimit="10" stroke-width="2"/><line id="35bd3145-0c3b-4d1d-88c8-253a936f82f7" data-name="&lt;Path&gt;" x1="24" y1="16" x2="29" y2="16" fill="none" stroke="#ed1e79" stroke-miterlimit="10" stroke-width="2"/><line id="5ffebaee-63dc-465d-ad28-bb5b03df50b3" data-name="&lt;Path&gt;" x1="3" y1="16" x2="8" y2="16" fill="none" stroke="#ed1e79" stroke-miterlimit="10" stroke-width="2"/><line id="5fa27227-a4b1-4667-bc98-fccae05ef895" data-name="&lt;Path&gt;" x1="25.6" y1="6.4" x2="21.25" y2="10.75" fill="none" stroke="#ed1e79" stroke-miterlimit="10" stroke-width="2"/><line id="c3d8f799-f1cf-47a4-b287-dfb8245e50a7" data-name="&lt;Path&gt;" x1="10.61" y1="21.39" x2="6.54" y2="25.46" fill="none" stroke="#ed1e79" stroke-miterlimit="10" stroke-width="2"/><line id="57e134a0-0931-48ab-9fde-2df305bca44f" data-name="&lt;Path&gt;" x1="21.22" y1="21.22" x2="25.63" y2="25.62" fill="none" stroke="#ed1e79" stroke-miterlimit="10" stroke-width="2"/><line id="b29d2154-f92c-43b2-a766-b32f32aeee61" data-name="&lt;Path&gt;" x1="6.4" y1="6.4" x2="10.75" y2="10.75" fill="none" stroke="#ed1e79" stroke-miterlimit="10" stroke-width="2"/></g></g></g></g></svg>