<svg xmlns="http://www.w3.org/2000/svg" viewBox="0 0 33 33"><title>chip-denom-4</title><g style="isolation:isolate"><g id="03b34939-3efb-4ae4-922f-1301b0c9c9c9" data-name="Screens"><g id="763d82da-4d61-4bc0-a01d-561f94c43fc5" data-name="&lt;Group&gt;"><g id="23a678df-3614-4e9d-b945-c3a1ad8d00a6" data-name="&lt;Group&gt;" opacity="0.65" style="mix-blend-mode:multiply"><circle id="76b94e45-5950-4920-9cbf-a54f382f9d9e" data-name="&lt;Path&gt;" cx="17" cy="17" r="16" fill="#bb9156"/></g><g id="fdf3db56-bb2f-41b4-95bc-d6b181f12f42" data-name="&lt;Group&gt;"><circle id="019d7886-ba70-4c88-9b00-86f236eeaf49" data-name="&lt;Path&gt;" cx="16" cy="16" r="16" fill="#fff"/></g></g><g id="a53958d2-2aa9-4160-8905-e484f6a05792" data-name="&lt;Group&gt;"><g id="0ba277aa-7aca-4ecd-bfa7-93ba8ab223bd" data-name="&lt;Group&gt;"><path id="6952c203-868b-4e72-90a1-d3cb5ef69056" data-name="&lt;Compound Path&gt;" d="M3179,1980a12,12,0,1,1-12,12,12,12,0,0,1,12-12m0-2a14,14,0,1,0,14,14,14,14,0,0,0-14-14h0Z" transform="translate(-3163 -1976)" fill="#603813"/></g><g id="4ceb055e-7317-48a0-a81b-0ae5144bf7ea" data-name="&lt;Group&gt;"><path id="a1ca9eb0-2c41-4420-8f15-20eef46a0b2b" data-name="&lt;Compound Path&gt;" d="M3179,1985a7,7,0,1,1-7,7,7,7,0,0,1,7-7m0-2a9,9,0,1,0,9,9,9,9,0,0,0-9-9h0Z" transform="translate(-3163 -1976)" fill="#603813"/></g><line id="088fb30f-367f-4d2c-b144-720c66889fd6" data-name="&lt;Path&gt;" x1="16" y1="3" x2="16" y2="8" fill="none" stroke="#603813" stroke-miterlimit="10" stroke-width="2"/><line id="d2ce245f-96f0-42df-bd64-d60c20953090" data-name="&lt;Path&gt;" x1="16" y1="24" x2="16" y2="29" fill="none" stroke="#603813" stroke-miterlimit="10" stroke-width="2"/><line id="b37569d2-de26-4787-8d92-524b20d76d14" data-name="&lt;Path&gt;" x1="24" y1="16" x2="29" y2="16" fill="none" stroke="#603813" stroke-miterlimit="10" stroke-width="2"/><line id="60fce006-12ae-4a95-803b-2c7daefd2e0c" data-name="&lt;Path&gt;" x1="3" y1="16" x2="8" y2="16" fill="none" stroke="#603813" stroke-miterlimit="10" stroke-width="2"/><line id="d85c040a-343f-4234-8131-722355d7bbe1" data-name="&lt;Path&gt;" x1="25.6" y1="6.4" x2="21.25" y2="10.75" fill="none" stroke="#603813" stroke-miterlimit="10" stroke-width="2"/><line id="76e37220-25bb-4fa8-8b8e-ff5dd3b984e1" data-name="&lt;Path&gt;" x1="10.61" y1="21.39" x2="6.54" y2="25.46" fill="none" stroke="#603813" stroke-miterlimit="10" stroke-width="2"/><line id="0e770170-3315-424a-8108-d5185cf4127e" data-name="&lt;Path&gt;" x1="21.22" y1="21.22" x2="25.63" y2="25.62" fill="none" stroke="#603813" stroke-miterlimit="10" stroke-width="2"/><line id="2bc319a2-2ee2-48c9-b7df-bebe2211a75d" data-name="&lt;Path&gt;" x1="6.4" y1="6.4" x2="10.75" y2="10.75" fill="none" stroke="#603813" stroke-miterlimit="10" stroke-width="2"/></g></g></g></svg>