<svg xmlns="http://www.w3.org/2000/svg" viewBox="0 0 33 33"><title>chip-denom-6</title><g style="isolation:isolate"><g id="e1735a32-56cd-40a7-9408-223c556f12ae" data-name="Screens"><g id="ccddac51-cff4-494c-b36b-3a92637fb4d8" data-name="&lt;Group&gt;"><g id="a50b54ca-23c0-4d48-a8a3-ddab6e0e44b5" data-name="&lt;Group&gt;" opacity="0.65" style="mix-blend-mode:multiply"><circle id="cb3c2025-c3b7-44d0-976a-09f98c2ce869" data-name="&lt;Path&gt;" cx="17" cy="17" r="16" fill="#bb9156"/></g><g id="b608693a-dbd6-4b77-91f8-e292c1b8faee" data-name="&lt;Group&gt;"><circle id="f44888e0-c359-40cc-b591-85d4aad2ba83" data-name="&lt;Path&gt;" cx="16" cy="16" r="16" fill="#fff"/></g></g><g id="1523ba51-1bc8-4563-9637-03bd815a3506" data-name="&lt;Group&gt;"><g id="17ad1bc4-27b6-4a27-be78-9383b489ba09" data-name="&lt;Group&gt;"><path id="f1853475-9dbc-4380-bffa-7d980e30f51c" data-name="&lt;Compound Path&gt;" d="M3179,2100a12,12,0,1,1-12,12,12,12,0,0,1,12-12m0-2a14,14,0,1,0,14,14,14,14,0,0,0-14-14h0Z" transform="translate(-3163 -2096)" fill="#fbb03b"/></g><g id="77c51745-89ff-430b-9df6-49ae13adfd7e" data-name="&lt;Group&gt;"><path id="f261f8c9-9d05-46e5-8309-9e8fa2e63541" data-name="&lt;Compound Path&gt;" d="M3179,2105a7,7,0,1,1-7,7,7,7,0,0,1,7-7m0-2a9,9,0,1,0,9,9,9,9,0,0,0-9-9h0Z" transform="translate(-3163 -2096)" fill="#fbb03b"/></g><line id="bd4ed12e-f6e6-47ab-9c50-bb6c98635310" data-name="&lt;Path&gt;" x1="16" y1="3" x2="16" y2="8" fill="none" stroke="#fbb03b" stroke-miterlimit="10" stroke-width="2"/><line id="8b1b65e9-194e-402a-ae85-9036ac3cf645" data-name="&lt;Path&gt;" x1="16" y1="24" x2="16" y2="29" fill="none" stroke="#fbb03b" stroke-miterlimit="10" stroke-width="2"/><line id="8af4b045-2b63-4800-b564-35b1885f0eae" data-name="&lt;Path&gt;" x1="24" y1="16" x2="29" y2="16" fill="none" stroke="#fbb03b" stroke-miterlimit="10" stroke-width="2"/><line id="9b43322d-559d-441a-8f3f-67ead5caf494" data-name="&lt;Path&gt;" x1="3" y1="16" x2="8" y2="16" fill="none" stroke="#fbb03b" stroke-miterlimit="10" stroke-width="2"/><line id="34c32319-2e5b-49e0-8640-1729bc790e97" data-name="&lt;Path&gt;" x1="25.6" y1="6.4" x2="21.25" y2="10.75" fill="none" stroke="#fbb03b" stroke-miterlimit="10" stroke-width="2"/><line id="d516a948-e4e4-4117-87d7-e6299bc819ea" data-name="&lt;Path&gt;" x1="10.61" y1="21.39" x2="6.54" y2="25.46" fill="none" stroke="#fbb03b" stroke-miterlimit="10" stroke-width="2"/><line id="258ef7aa-6da0-43e7-adfd-161a460d1bdc" data-name="&lt;Path&gt;" x1="21.22" y1="21.22" x2="25.63" y2="25.62" fill="none" stroke="#fbb03b" stroke-miterlimit="10" stroke-width="2"/><line id="a4625535-cb20-4ef8-b8c3-bba8c776d843" data-name="&lt;Path&gt;" x1="6.4" y1="6.4" x2="10.75" y2="10.75" fill="none" stroke="#fbb03b" stroke-miterlimit="10" stroke-width="2"/></g></g></g></svg>