<svg xmlns="http://www.w3.org/2000/svg" viewBox="0 0 33 33"><title>chip-denom-5</title><g style="isolation:isolate"><g id="88aa94dc-c655-4211-8913-5326890c05aa" data-name="Screens"><g id="ae6426d1-2672-4ae6-b6bd-69229835c92f" data-name="&lt;Group&gt;"><g id="6d68982c-bd8c-4f32-b316-fe5e2965bcdb" data-name="&lt;Group&gt;" opacity="0.65" style="mix-blend-mode:multiply"><circle id="69e06d45-aea1-4661-9205-4abbf64d85d5" data-name="&lt;Path&gt;" cx="17" cy="17" r="16" fill="#bb9156"/></g><g id="165cc0d2-2456-4ff9-9d2f-d10cbb641710" data-name="&lt;Group&gt;"><circle id="004d5b98-555a-4cae-847f-52c0e66b350a" data-name="&lt;Path&gt;" cx="16" cy="16" r="16" fill="#fff"/></g></g><g id="f29f64f5-17ec-4c4f-b2b2-369a7cc91ec7" data-name="&lt;Group&gt;"><g id="2fb178d6-d10f-46ba-92a7-fbd69c4b2d8d" data-name="&lt;Group&gt;"><path id="e763325f-a764-44d5-b72d-b2162a867582" data-name="&lt;Compound Path&gt;" d="M3179,2040a12,12,0,1,1-12,12,12,12,0,0,1,12-12m0-2a14,14,0,1,0,14,14,14,14,0,0,0-14-14h0Z" transform="translate(-3163 -2036)" fill="#c1272d"/></g><g id="d5e7b351-fa5a-46dd-af62-9d5a2936594b" data-name="&lt;Group&gt;"><path id="306158c2-1020-4e9c-8736-55dd9c5b3e8d" data-name="&lt;Compound Path&gt;" d="M3179,2045a7,7,0,1,1-7,7,7,7,0,0,1,7-7m0-2a9,9,0,1,0,9,9,9,9,0,0,0-9-9h0Z" transform="translate(-3163 -2036)" fill="#c1272d"/></g><line id="db4698e5-4fa9-4184-ac9e-701f16c1371f" data-name="&lt;Path&gt;" x1="16" y1="3" x2="16" y2="8" fill="none" stroke="#c1272d" stroke-miterlimit="10" stroke-width="2"/><line id="a03a54e5-57f8-4c48-94ff-f897cab1b228" data-name="&lt;Path&gt;" x1="16" y1="24" x2="16" y2="29" fill="none" stroke="#c1272d" stroke-miterlimit="10" stroke-width="2"/><line id="faabfee2-608c-4778-b22f-659720b68fd5" data-name="&lt;Path&gt;" x1="24" y1="16" x2="29" y2="16" fill="none" stroke="#c1272d" stroke-miterlimit="10" stroke-width="2"/><line id="c8ac591e-b734-4385-bb27-f030352c66b9" data-name="&lt;Path&gt;" x1="3" y1="16" x2="8" y2="16" fill="none" stroke="#c1272d" stroke-miterlimit="10" stroke-width="2"/><line id="9b206376-0104-4a82-a224-d4aa02eced82" data-name="&lt;Path&gt;" x1="25.6" y1="6.4" x2="21.25" y2="10.75" fill="none" stroke="#c1272d" stroke-miterlimit="10" stroke-width="2"/><line id="dfde7273-d121-4dfc-8c5d-ce8fa2241e79" data-name="&lt;Path&gt;" x1="10.61" y1="21.39" x2="6.54" y2="25.46" fill="none" stroke="#c1272d" stroke-miterlimit="10" stroke-width="2"/><line id="a5bbde34-f40b-4811-8328-d0e99aa0a75d" data-name="&lt;Path&gt;" x1="21.22" y1="21.22" x2="25.63" y2="25.62" fill="none" stroke="#c1272d" stroke-miterlimit="10" stroke-width="2"/><line id="c4f8e211-999c-440e-ac7c-7cf1d017679d" data-name="&lt;Path&gt;" x1="6.4" y1="6.4" x2="10.75" y2="10.75" fill="none" stroke="#c1272d" stroke-miterlimit="10" stroke-width="2"/></g></g></g></svg>