<svg xmlns="http://www.w3.org/2000/svg" viewBox="0 0 33 33"><title>chip-denom-3</title><g style="isolation:isolate"><g id="ae151659-fd88-4a6b-aeae-6e52a7f8a174" data-name="Screens"><g id="b6827a5d-c5ee-45de-86c6-efec81f4770c" data-name="&lt;Group&gt;"><g opacity="0.65" style="mix-blend-mode:multiply"><circle cx="17" cy="17" r="16" fill="#bb9156"/></g><circle cx="16" cy="16" r="16" fill="#fff"/></g><g id="cf86d2c9-a54b-41b7-becc-05a4d306a7ed" data-name="&lt;Group&gt;"><g id="d36fa878-405c-44db-a90c-e4fb687269c7" data-name="&lt;Group&gt;"><path d="M3179,1920a12,12,0,1,1-12,12,12,12,0,0,1,12-12m0-2a14,14,0,1,0,14,14,14,14,0,0,0-14-14h0Z" transform="translate(-3163 -1916)" fill="#0071bc"/></g><g id="ba637432-d6a5-4736-b067-385aa31abc9d" data-name="&lt;Group&gt;"><path d="M3179,1925a7,7,0,1,1-7,7,7,7,0,0,1,7-7m0-2a9,9,0,1,0,9,9,9,9,0,0,0-9-9h0Z" transform="translate(-3163 -1916)" fill="#0071bc"/></g><line id="cae5704f-14b6-48e9-a73b-726ca671ddd9" data-name="&lt;Path&gt;" x1="16" y1="3" x2="16" y2="8" fill="none" stroke="#0071bc" stroke-miterlimit="10" stroke-width="2"/><line id="1fc020ca-9577-4417-a784-f91f2c8e8ffa" data-name="&lt;Path&gt;" x1="16" y1="24" x2="16" y2="29" fill="none" stroke="#0071bc" stroke-miterlimit="10" stroke-width="2"/><line id="f820fa26-7dc2-4377-9598-2f9b7a39e2a7" data-name="&lt;Path&gt;" x1="24" y1="16" x2="29" y2="16" fill="none" stroke="#0071bc" stroke-miterlimit="10" stroke-width="2"/><line id="55b4133a-0f9d-42b0-a7cf-9918c0d228f7" data-name="&lt;Path&gt;" x1="3" y1="16" x2="8" y2="16" fill="none" stroke="#0071bc" stroke-miterlimit="10" stroke-width="2"/><line id="ea503a22-1479-49c3-97a2-3cec063bb08b" data-name="&lt;Path&gt;" x1="25.6" y1="6.4" x2="21.25" y2="10.75" fill="none" stroke="#0071bc" stroke-miterlimit="10" stroke-width="2"/><line id="a8b8a7bc-c36d-4622-8627-d6094ff8ae40" data-name="&lt;Path&gt;" x1="10.61" y1="21.39" x2="6.54" y2="25.46" fill="none" stroke="#0071bc" stroke-miterlimit="10" stroke-width="2"/><line id="cfe74acb-dd23-4e4a-b39c-91daa80e1706" data-name="&lt;Path&gt;" x1="21.22" y1="21.22" x2="25.63" y2="25.62" fill="none" stroke="#0071bc" stroke-miterlimit="10" stroke-width="2"/><line id="9c0e5374-8ba2-438b-b9ca-c009889c645e" data-name="&lt;Path&gt;" x1="6.4" y1="6.4" x2="10.75" y2="10.75" fill="none" stroke="#0071bc" stroke-miterlimit="10" stroke-width="2"/></g></g></g></svg>