<svg xmlns="http://www.w3.org/2000/svg" viewBox="0 0 33 33"><title>chip-denom-1</title><g style="isolation:isolate"><g id="192421e6-f396-4e62-aec3-69679b474c33" data-name="Screens"><g id="6198e77f-f1ae-416b-bc46-5cec687660a0" data-name="&lt;Group&gt;"><g id="984d545f-eefb-481a-b75d-b4aba65f3c31" data-name="&lt;Group&gt;"><g id="4a41cb76-aa69-480c-ba88-024f81911db1" data-name="&lt;Group&gt;" opacity="0.65" style="mix-blend-mode:multiply"><circle id="56e232ae-6ba5-4fc0-a638-59aaf25d3d3d" data-name="&lt;Path&gt;" cx="17" cy="17" r="16" fill="#bb9156"/></g><g id="b334e845-8347-491a-8fd3-266bfcc5889c" data-name="&lt;Group&gt;"><circle id="545a0e15-130c-492a-abc4-02c58df5b935" data-name="&lt;Path&gt;" cx="16" cy="16" r="16" fill="#fff"/></g></g><g id="d2af2f02-387b-4868-af64-9ddc0a3579bc" data-name="&lt;Group&gt;"><g id="1d9f5ff8-7590-48dd-a36b-a1f18a9d5dfb" data-name="&lt;Group&gt;"><path id="44ba5fdb-e859-402d-a709-27743707b7f9" data-name="&lt;Compound Path&gt;" d="M3179,1800a12,12,0,1,1-12,12,12,12,0,0,1,12-12m0-2a14,14,0,1,0,14,14,14,14,0,0,0-14-14h0Z" transform="translate(-3163 -1796)" fill="#02843d"/></g><g id="36d928f8-b1a4-4b5b-8453-369489e5e7c0" data-name="&lt;Group&gt;"><path id="3b8a849a-dfaf-438f-be83-905bce767927" data-name="&lt;Compound Path&gt;" d="M3179,1805a7,7,0,1,1-7,7,7,7,0,0,1,7-7m0-2a9,9,0,1,0,9,9,9,9,0,0,0-9-9h0Z" transform="translate(-3163 -1796)" fill="#02843d"/></g><line id="3f1591c2-abff-4c7a-85e8-22c257d19b89" data-name="&lt;Path&gt;" x1="16" y1="3" x2="16" y2="8" fill="none" stroke="#02843d" stroke-miterlimit="10" stroke-width="2"/><line id="800e8a22-53f3-478f-be5f-3d9a6cb98823" data-name="&lt;Path&gt;" x1="16" y1="24" x2="16" y2="29" fill="none" stroke="#02843d" stroke-miterlimit="10" stroke-width="2"/><line id="678d244f-b88f-42b2-95bf-f595db3cb404" data-name="&lt;Path&gt;" x1="24" y1="16" x2="29" y2="16" fill="none" stroke="#02843d" stroke-miterlimit="10" stroke-width="2"/><line id="51f30a13-00da-4f03-87b8-6b91c7c51367" data-name="&lt;Path&gt;" x1="3" y1="16" x2="8" y2="16" fill="none" stroke="#02843d" stroke-miterlimit="10" stroke-width="2"/><line id="5c9594bf-492b-4d8f-9f1f-3d275a2ad2e3" data-name="&lt;Path&gt;" x1="25.6" y1="6.4" x2="21.25" y2="10.75" fill="none" stroke="#02843d" stroke-miterlimit="10" stroke-width="2"/><line id="16e3e135-1169-4e04-87ce-a5bc71f06f98" data-name="&lt;Path&gt;" x1="10.61" y1="21.39" x2="6.54" y2="25.46" fill="none" stroke="#02843d" stroke-miterlimit="10" stroke-width="2"/><line id="831465b8-b8e1-41a3-8673-bb8ff6bd1c03" data-name="&lt;Path&gt;" x1="21.22" y1="21.22" x2="25.63" y2="25.62" fill="none" stroke="#02843d" stroke-miterlimit="10" stroke-width="2"/><line id="67dcd8c4-fc1d-4c24-8850-c3ca9c2a1769" data-name="&lt;Path&gt;" x1="6.4" y1="6.4" x2="10.75" y2="10.75" fill="none" stroke="#02843d" stroke-miterlimit="10" stroke-width="2"/></g></g></g></g></svg>