<?xml version="1.0" encoding="utf-8"?>
<!-- Generator: Adobe Illustrator 19.1.0, SVG Export Plug-In . SVG Version: 6.00 Build 0)  -->
<svg version="1.1" id="Layer_1" xmlns="http://www.w3.org/2000/svg" xmlns:xlink="http://www.w3.org/1999/xlink" x="0px" y="0px"
	 viewBox="0 0 56 56" style="enable-background:new 0 0 56 56;" xml:space="preserve">
<style type="text/css">
	.st0{fill:#D8CA9E;}
	.st1{fill:#333333;}
</style>
<g id="XMLID_2426_">
	<circle id="XMLID_2429_" class="st0" cx="28" cy="28" r="28"/>
	<path id="XMLID_2427_" class="st1" d="M38.9,44.2c-6.2-1.2-6.4-3.1-6.4-4.3v-0.7c0-1.3,2.8-3.2,3.4-5.4c0,0,0.1,0,0.1,0
		c1.9,0,2.4-3.9,2.4-4.5c0-0.6,0.1-2.9-1.8-2.9c4.1-11.1-6.7-15.6-14.9-9.9c-3.4,0-3.6,4.9-2.4,9.9c-1.9,0-1.8,3-1.8,3.5
		c0,0.6,0.4,5.1,2.3,5.1c0,0,0,0,0,0c0.6,1,2.7,2.9,2.7,4.2v0.7c0,1.2,0.3,3.2-5.9,4.3c-3,0.5-4.7,2.2-5.7,3.8
		c4.5,3.9,10.5,6.3,17,6.3c6.5,0,12.3-2.4,16.9-6.3C43.8,46.5,41.9,44.8,38.9,44.2z"/>
</g>
</svg>
