<?xml version="1.0" encoding="utf-8"?>
<!-- Generator: Adobe Illustrator 19.0.0, SVG Export Plug-In . SVG Version: 6.00 Build 0)  -->
<svg version="1.1" id="Layer_1" xmlns="http://www.w3.org/2000/svg" xmlns:xlink="http://www.w3.org/1999/xlink" x="0px" y="0px"
	 viewBox="0 0 68 68" style="enable-background:new 0 0 68 68;" xml:space="preserve">
<style type="text/css">
	.st0{clip-path:url(#XMLID_4_);}
	.st1{fill:#FFFFFF;}
	.st2{fill:#EEE7DD;}
</style>
<g id="XMLID_2_">
	<defs>
		<rect id="XMLID_1_" width="68" height="68"/>
	</defs>
	<clipPath id="XMLID_4_">
		<use xlink:href="#XMLID_1_"  style="overflow:visible;"/>
	</clipPath>
	<g id="XMLID_6443_" class="st0">
		<circle id="XMLID_6447_" class="st1" cx="34" cy="34" r="34"/>
		<path id="XMLID_6446_" class="st2" d="M47.5,53.7C40,52.3,40,50,40,48.5v-0.9c1-1.6,3.2-3.9,3.9-6.6c0,0,0,0,0,0
			c2.3,0,2.8-4.7,2.8-5.5c0-0.7,0.1-3.5-2.2-3.5c5-13.5-8.2-18.9-18.1-12c-4.1,0-4.4,6-2.9,12c-2.3,0-2.2,2.8-2.2,3.5
			c0,0.7,0.5,5.5,2.8,5.5c0,0,0,0,0,0c0.7,2.7,2.9,5,3.9,6.6v0.9c0,1.5,0,3.9-7.5,5.2c-3.7,0.7-5.8,2.7-7.1,4.6
			C18.9,63.1,26.1,66,34,66c7.9,0,15.1-2.9,20.6-7.7C53.3,56.5,51.1,54.4,47.5,53.7z"/>
	</g>
</g>
</svg>
