<?xml version="1.0" encoding="utf-8"?>
<!-- Generator: Adobe Illustrator 19.1.0, SVG Export Plug-In . SVG Version: 6.00 Build 0)  -->
<svg version="1.1" id="Layer_1" xmlns="http://www.w3.org/2000/svg" xmlns:xlink="http://www.w3.org/1999/xlink" x="0px" y="0px"
	 viewBox="0 0 56 56" style="enable-background:new 0 0 56 56;" xml:space="preserve">
<style type="text/css">
	.st0{fill:#D8CA9E;}
	.st1{fill:#333333;}
	.st2{fill:#21B573;}
	.st3{fill:none;stroke:#FFFFFF;stroke-width:2;stroke-linecap:round;stroke-miterlimit:10;}
</style>
<g id="XMLID_544_">
	<circle id="XMLID_6531_" class="st0" cx="28" cy="28" r="28"/>
	<path id="XMLID_6529_" class="st1" d="M39.1,44.2C33,43.1,33,41.2,33,39.9v-0.7c0-1.3,2.6-3.2,3.2-5.4c0,0,0,0,0,0
		c1.9,0,2.3-3.9,2.3-4.5c0-0.6,0-2.9-1.9-2.9c4.1-11.1-6.8-15.6-14.9-9.9c-3.4,0-3.6,4.9-2.4,9.9c-1.9,0-1.8,3-1.8,3.5
		c0,0.6,0.4,5.1,2.3,5.1c0,0,0,0,0,0c0.6,1,3.1,2.9,3.1,4.2v0.7c0,1.2,0,3.2-6.1,4.3c-3,0.5-4.8,2.2-5.8,3.8
		c4.5,3.9,10.5,6.3,17,6.3c6.5,0,12.4-2.4,17-6.3C43.9,46.5,42.1,44.8,39.1,44.2z"/>
	<circle id="XMLID_553_" class="st2" cx="47" cy="47" r="9"/>
	<line id="XMLID_551_" class="st3" x1="43" y1="47" x2="51" y2="47"/>
	<line id="XMLID_548_" class="st3" x1="47" y1="51" x2="47" y2="43"/>
</g>
</svg>
