<?xml version="1.0" encoding="utf-8"?>
<!-- Generator: Adobe Illustrator 19.0.0, SVG Export Plug-In . SVG Version: 6.00 Build 0)  -->
<svg version="1.1" id="Layer_1" xmlns="http://www.w3.org/2000/svg" xmlns:xlink="http://www.w3.org/1999/xlink" x="0px" y="0px"
	 viewBox="0 0 100 50" style="enable-background:new 0 0 100 50;" xml:space="preserve">
<style type="text/css">
	.st0{fill:#BB9156;}
</style>
<g id="XMLID_930_">
	<g id="XMLID_1949_">
		<rect id="XMLID_1950_" x="3.3" y="35.8" class="st0" width="92.9" height="0.4"/>
	</g>
	<g id="XMLID_1943_">
		<path id="XMLID_1944_" class="st0" d="M96.4,48c0-0.5,0.3-0.8,0.8-0.8c0.4,0,0.8,0.3,0.8,0.8c0,0.5-0.3,0.8-0.8,0.8
			C96.7,48.8,96.4,48.5,96.4,48z M97.1,49c0.5,0,1-0.4,1-1c0-0.5-0.4-1-1-1c-0.5,0-1,0.4-1,1C96.2,48.6,96.6,49,97.1,49z M96.9,48.1
			h0.2l0.3,0.5h0.2l-0.3-0.5c0.2,0,0.3-0.1,0.3-0.3c0-0.2-0.1-0.3-0.4-0.3h-0.4v1.1h0.2V48.1z M96.9,48v-0.3h0.2
			c0.1,0,0.2,0,0.2,0.2c0,0.2-0.1,0.2-0.3,0.2H96.9z"/>
	</g>
	<g id="XMLID_1937_">
		<path id="XMLID_1938_" class="st0" d="M83.1,33.4c0-0.5,0.3-0.8,0.8-0.8c0.4,0,0.8,0.3,0.8,0.8c0,0.5-0.3,0.8-0.8,0.8
			C83.4,34.2,83.1,33.9,83.1,33.4z M83.8,34.4c0.5,0,1-0.4,1-1c0-0.5-0.4-1-1-1c-0.5,0-1,0.4-1,1C82.9,34,83.3,34.4,83.8,34.4z
			 M83.6,33.5h0.2l0.3,0.5h0.2L84,33.5c0.2,0,0.3-0.1,0.3-0.3c0-0.2-0.1-0.3-0.4-0.3h-0.4V34h0.2V33.5z M83.6,33.3V33h0.2
			c0.1,0,0.2,0,0.2,0.2c0,0.2-0.1,0.2-0.3,0.2H83.6z"/>
	</g>
	<g id="XMLID_1887_">
		<g id="XMLID_1934_">
			<path id="XMLID_1935_" class="st0" d="M4.3,38.8c0-0.2,0.1-0.3,0.2-0.3c0.1,0,0.2,0.1,0.3,0.4l3.5,7.2l3.5-7.3
				c0.1-0.2,0.2-0.3,0.3-0.3c0.1,0,0.2,0.1,0.2,0.4l1.2,7.9c0.1,0.8,0.2,1.2,0.6,1.3c0.4,0.1,0.6,0.1,0.8,0.1c0.1,0,0.2,0,0.2,0.1
				c0,0.1-0.2,0.1-0.3,0.1c-0.3,0-2.1,0-2.6-0.1c-0.3,0-0.4-0.1-0.4-0.1c0-0.1,0.1-0.1,0.1-0.1c0.1,0,0.1-0.2,0.1-0.5l-0.8-5.6h-0.1
				l-2.8,5.8c-0.3,0.6-0.4,0.7-0.5,0.7c-0.1,0-0.2-0.3-0.4-0.6c-0.3-0.6-1.3-2.5-1.5-2.9C5.9,44.6,5.1,43,4.7,42H4.6L4,47.1
				c0,0.2,0,0.4,0,0.6c0,0.2,0.2,0.4,0.4,0.4c0.2,0.1,0.4,0.1,0.5,0.1c0.1,0,0.2,0,0.2,0.1c0,0.1-0.1,0.1-0.3,0.1
				c-0.5,0-1.1,0-1.3,0c-0.2,0-0.9,0-1.3,0c-0.1,0-0.2,0-0.2-0.1c0-0.1,0.1-0.1,0.2-0.1c0.1,0,0.2,0,0.4,0c0.4-0.1,0.5-0.6,0.5-1
				L4.3,38.8z"/>
		</g>
		<g id="XMLID_1924_">
			<path id="XMLID_1926_" class="st0" d="M24.8,47.6c0,0.3,0,0.4-0.2,0.5c-0.8,0.4-2.1,0.6-3.1,0.6c-3.1,0-5.9-1.5-5.9-5
				c0-2.1,1.1-3.5,2.2-4.2c1.2-0.7,2.4-0.8,3.4-0.8c0.9,0,2,0.2,2.3,0.2c0.3,0.1,0.7,0.1,1,0.1c0.2,0,0.2,0.1,0.2,0.2
				c0,0.1-0.1,0.5-0.1,2.1c0,0.2,0,0.3-0.1,0.3c-0.1,0-0.1-0.1-0.1-0.2c0-0.3-0.1-0.7-0.4-1.1c-0.4-0.4-1.4-1-2.9-1
				c-0.7,0-1.6,0.1-2.5,0.8c-0.7,0.6-1.2,1.6-1.2,3.1c0,2.8,1.8,4.8,4.5,4.8c0.3,0,0.8,0,1.1-0.1c0.2-0.1,0.2-0.3,0.2-0.5v-1.2
				c0-0.6,0-1.1,0-1.5c0-0.4-0.1-0.6-0.6-0.7c-0.1,0-0.3,0-0.5,0c-0.1,0-0.2,0-0.2-0.1c0-0.1,0.1-0.1,0.3-0.1c0.7,0,1.5,0,1.9,0
				c0.4,0,1.1,0,1.5,0c0.2,0,0.3,0,0.3,0.1c0,0.1-0.1,0.1-0.2,0.1c-0.1,0-0.2,0-0.3,0c-0.3,0.1-0.5,0.3-0.5,0.7c0,0.4,0,0.9,0,1.5
				V47.6z"/>
		</g>
		<g id="XMLID_1920_">
			<path id="XMLID_1921_" class="st0" d="M28.9,38.8c0-0.2,0.1-0.3,0.2-0.3c0.1,0,0.2,0.1,0.3,0.4l3.5,7.2l3.5-7.3
				c0.1-0.2,0.2-0.3,0.3-0.3c0.1,0,0.2,0.1,0.2,0.4l1.2,7.9c0.1,0.8,0.2,1.2,0.6,1.3c0.4,0.1,0.6,0.1,0.8,0.1c0.1,0,0.2,0,0.2,0.1
				c0,0.1-0.2,0.1-0.3,0.1c-0.3,0-2.1,0-2.6-0.1c-0.3,0-0.4-0.1-0.4-0.1c0-0.1,0.1-0.1,0.1-0.1c0.1,0,0.1-0.2,0.1-0.5l-0.8-5.6h-0.1
				l-2.8,5.8c-0.3,0.6-0.4,0.7-0.5,0.7c-0.1,0-0.2-0.3-0.4-0.6c-0.3-0.6-1.3-2.5-1.5-2.9c-0.1-0.3-0.9-1.9-1.3-2.8h-0.1l-0.7,5.1
				c0,0.2,0,0.4,0,0.6c0,0.2,0.2,0.4,0.4,0.4c0.2,0.1,0.4,0.1,0.5,0.1c0.1,0,0.2,0,0.2,0.1c0,0.1-0.1,0.1-0.3,0.1
				c-0.5,0-1.1,0-1.3,0c-0.2,0-0.9,0-1.3,0c-0.1,0-0.2,0-0.2-0.1c0-0.1,0.1-0.1,0.2-0.1c0.1,0,0.2,0,0.4,0c0.4-0.1,0.5-0.6,0.5-1
				L28.9,38.8z"/>
		</g>
		<g id="XMLID_1916_">
			<path id="XMLID_1917_" class="st0" d="M53.5,47.6c0,0.3,0,0.4-0.2,0.5c-0.8,0.4-2.1,0.6-3.1,0.6c-3.1,0-5.9-1.5-5.9-5
				c0-2.1,1.1-3.5,2.2-4.2c1.2-0.7,2.4-0.8,3.4-0.8c0.9,0,2,0.2,2.3,0.2c0.3,0.1,0.7,0.1,1,0.1c0.2,0,0.2,0.1,0.2,0.2
				c0,0.1-0.1,0.5-0.1,2.1c0,0.2,0,0.3-0.1,0.3c-0.1,0-0.1-0.1-0.1-0.2c0-0.3-0.1-0.7-0.4-1.1c-0.4-0.4-1.4-1-2.9-1
				c-0.7,0-1.6,0.1-2.5,0.8c-0.7,0.6-1.2,1.6-1.2,3.1c0,2.8,1.8,4.8,4.5,4.8c0.3,0,0.8,0,1.1-0.1c0.2-0.1,0.2-0.3,0.2-0.5v-1.2
				c0-0.6,0-1.1,0-1.5c0-0.4-0.1-0.6-0.6-0.7c-0.1,0-0.3,0-0.5,0c-0.1,0-0.2,0-0.2-0.1c0-0.1,0.1-0.1,0.3-0.1c0.7,0,1.5,0,1.9,0
				c0.4,0,1.1,0,1.5,0c0.2,0,0.3,0,0.3,0.1c0,0.1-0.1,0.1-0.2,0.1c-0.1,0-0.2,0-0.3,0c-0.3,0.1-0.5,0.3-0.5,0.7c0,0.4,0,0.9,0,1.5
				V47.6z"/>
		</g>
		<g id="XMLID_1901_">
			<path id="XMLID_1903_" class="st0" d="M58.3,39.6c0-0.1,0-0.2,0.1-0.2c0.1,0,0.4-0.1,0.7-0.1c0.8,0,2,0.5,2,2.3
				c0,1.1-0.4,1.6-0.8,1.9c-0.2,0.2-0.4,0.2-0.9,0.2c-0.3,0-0.7,0-1-0.1c-0.1,0-0.1-0.1-0.1-0.2V39.6z M56.8,44.7
				c0,1.2,0,2.2-0.1,2.7c-0.1,0.4-0.1,0.7-0.4,0.7c-0.1,0-0.3,0.1-0.5,0.1c-0.2,0-0.2,0-0.2,0.1c0,0.1,0.1,0.1,0.3,0.1
				c0.5,0,1.3,0,1.6,0c0.2,0,1.1,0,1.9,0c0.2,0,0.3,0,0.3-0.1c0-0.1-0.1-0.1-0.2-0.1c-0.2,0-0.4,0-0.6-0.1c-0.4-0.1-0.5-0.3-0.5-0.7
				c-0.1-0.5-0.1-1.5-0.1-2.7v-0.2c0-0.1,0-0.1,0.1-0.1l1.1,0c0.1,0,0.2,0,0.2,0.1c0.2,0.2,0.8,1.1,1.3,1.8c0.7,1,1.2,1.6,1.8,1.9
				c0.3,0.2,0.7,0.2,1.4,0.2h2.4c0.2,0,0.2,0,0.2-0.1c0-0.1-0.1-0.1-0.2-0.1c-0.1,0-1.4,0-1.5,0c-0.2,0-0.7-0.1-1.4-0.9
				c-0.8-0.8-1.6-1.9-2.8-3.4c1.3-1.1,1.7-1.9,1.7-2.9c0-0.9-0.5-1.5-0.9-1.8c-0.7-0.5-1.6-0.6-2.4-0.6c-0.4,0-1.4,0-1.8,0
				c-0.3,0-1.1,0-1.8,0c-0.2,0-0.3,0-0.3,0.1c0,0.1,0.1,0.1,0.2,0.1c0.2,0,0.4,0,0.5,0c0.4,0.1,0.5,0.3,0.6,0.7c0,0.4,0,0.8,0,2.7
				V44.7z"/>
		</g>
		<g id="XMLID_1897_">
			<path id="XMLID_1898_" class="st0" d="M67.2,44.5C67.2,44.5,67.2,44.4,67.2,44.5l1.1-3.2c0-0.1,0-0.1,0.1-0.1s0.1,0.1,0.1,0.1
				l1.2,3.2c0,0,0,0.1-0.1,0.1H67.2z M69.8,45.1c0.1,0,0.1,0,0.1,0.1l1,2.7c0.1,0.2,0,0.3-0.1,0.3c-0.1,0-0.2,0-0.2,0.1
				c0,0.1,0.2,0.1,0.4,0.1c1,0,2,0,2.4,0c0.5,0,0.6,0,0.6-0.1c0-0.1-0.1-0.1-0.2-0.1c-0.2,0-0.3,0-0.5-0.1c-0.3-0.1-0.6-0.2-1.1-1.4
				c-0.8-1.9-2.9-7.2-3.2-7.9c-0.1-0.3-0.2-0.4-0.3-0.4c-0.1,0-0.2,0.1-0.4,0.5l-3.2,8c-0.3,0.6-0.5,1.1-1.1,1.2c-0.1,0-0.3,0-0.4,0
				c-0.1,0-0.2,0-0.2,0.1c0,0.1,0.1,0.1,0.3,0.1c0.7,0,1.4,0,1.5,0c0.4,0,0.9,0,1.4,0c0.1,0,0.2,0,0.2-0.1c0-0.1,0-0.1-0.2-0.1h-0.2
				c-0.4,0-0.5-0.2-0.5-0.4c0-0.2,0.1-0.5,0.2-0.8l0.7-1.8c0-0.1,0.1-0.1,0.1-0.1H69.8z"/>
		</g>
		<g id="XMLID_1894_">
			<path id="XMLID_1895_" class="st0" d="M76.2,46.7c0,1,0.2,1.3,0.4,1.4c0.2,0.1,0.5,0.1,0.7,0.1c0.1,0,0.2,0,0.2,0.1
				c0,0.1-0.1,0.1-0.3,0.1c-0.8,0-1.3,0-1.6,0c-0.1,0-0.7,0-1.4,0c-0.2,0-0.3,0-0.3-0.1c0-0.1,0.1-0.1,0.2-0.1c0.2,0,0.4,0,0.6-0.1
				c0.3-0.1,0.4-0.5,0.4-1.6l0.1-7.6c0-0.3,0-0.4,0.2-0.4c0.1,0,0.3,0.2,0.5,0.4c0.2,0.2,2.1,2.3,4,4.1c0.9,0.9,2.6,2.7,2.8,2.9h0.1
				l-0.1-5.8c0-0.8-0.1-1-0.4-1.2C82,39,81.7,39,81.5,39c-0.2,0-0.2,0-0.2-0.1c0-0.1,0.1-0.1,0.3-0.1c0.7,0,1.3,0,1.6,0
				c0.1,0,0.6,0,1.3,0c0.2,0,0.3,0,0.3,0.1c0,0.1-0.1,0.1-0.2,0.1c-0.1,0-0.2,0-0.4,0c-0.4,0.1-0.5,0.4-0.5,1.1l-0.1,8.1
				c0,0.3-0.1,0.4-0.2,0.4c-0.1,0-0.3-0.1-0.4-0.3c-0.8-0.8-2.4-2.4-3.8-3.8c-1.4-1.4-2.8-3-3.1-3.2h0L76.2,46.7z"/>
		</g>
		<g id="XMLID_1888_">
			<path id="XMLID_1889_" class="st0" d="M88.7,42.3c0-1,0-2.1,0-2.6c0-0.1,0-0.2,0.2-0.3c0.1-0.1,0.6-0.1,0.8-0.1
				c1,0,2.5,0.2,3.6,1.3c0.6,0.5,1.2,1.6,1.2,3.2c0,1.3-0.3,2.5-1.1,3.2c-0.8,0.7-1.6,0.9-2.9,0.9c-1,0-1.5-0.3-1.7-0.5
				c-0.1-0.1-0.1-0.7-0.1-1c0-0.2,0-1.2,0-2.6V42.3z M87.1,44.7c0,1.2,0,2.2-0.1,2.7c-0.1,0.4-0.1,0.7-0.4,0.7
				c-0.1,0-0.3,0.1-0.5,0.1c-0.2,0-0.2,0-0.2,0.1c0,0.1,0.1,0.1,0.3,0.1c0.5,0,1.3,0,1.6,0c0.6,0,1.8,0.2,2.7,0.2
				c2.4,0,3.7-0.9,4.3-1.5c0.7-0.7,1.4-2,1.4-3.6c0-1.5-0.6-2.6-1.2-3.3c-1.4-1.5-3.5-1.5-5.1-1.5c-0.8,0-1.6,0-2,0
				c-0.4,0-1.2,0-1.8,0c-0.2,0-0.3,0-0.3,0.1c0,0.1,0.1,0.1,0.2,0.1c0.2,0,0.4,0,0.5,0c0.4,0.1,0.5,0.3,0.6,0.7c0,0.4,0,0.8,0,2.7
				V44.7z"/>
		</g>
	</g>
	<g id="XMLID_1882_">
		<polygon id="XMLID_1886_" class="st0" points="20.7,10.4 20.7,10.4 20.7,10.4 		"/>
	</g>
	<g id="XMLID_1879_">
		<path id="XMLID_1881_" class="st0" d="M21,11.8L21,11.8L21,11.8z"/>
	</g>
	<g id="XMLID_1842_">
		<g id="XMLID_1847_">
			<path id="XMLID_1851_" class="st0" d="M29.7,1.3c0.2,0.2,0.3,0.4,0.4,0.7l0,0.1c-0.5,0.3-1,0.8-1.2,1.4l0,0
				c1.2-1.5,3-2.2,4.9-2.1c1.4,0.2,2.4,1.3,3.3,2.3c1.8-0.1,3.3,1,4.2,2.5l0.4,0.5c-0.6-0.1-1.3-0.1-1.9,0.1
				c0.7,0.2,1.5,0.1,2.1,0.4c1.3,0.3,2.3,1.2,3.2,2.2c0.8,0.6,2,0.3,2.9,0.6c0.6,0.1,1.1,0.3,1.7,0.2c1.7-0.4,3.5-0.8,5.4-0.8
				c4-0.1,7.7,1.2,11.2,2.5c1.5,0.6,3,1.6,4,3c1.8,2.3,4,4.9,6.8,5.6c0.7,0.1,1.5,0,2.1-0.3c0.8-0.6,1-1.7,0.8-2.7
				c-0.2-0.7-0.6-1.3-1.1-1.8c-0.9-0.8-2.3-1.5-2.1-2.9c0.4-1.1,1.3-2,2-3l0.1,0c0,0.7,0.2,1.3,0.5,1.8c0.1-0.1,0.1-0.4,0.1-0.5
				c0.1-0.3,0.2-0.6,0.5-0.8c0.2,0.4,0.3,0.9,0.4,1.4c0.1,0.6,0.1,1.4,0,2c0,0,0,0.1,0.1,0.1c0.2-0.3,0.4-0.6,0.7-0.7
				c-1,2,0.6,4,0,6.1c-0.2,0.9-1,1.8-1.9,2c-0.6,0.2-1.2,0.3-1.8,0.2c-1.8-0.2-3.5-1-5.1-1.9c-0.2-0.1-0.3-0.3-0.5-0.3
				c0.4,0.7,1,1.3,1.6,1.9c1.4,1.2,3.1,2.2,5,2.5c1,0.2,2.1,0.1,2.7,0.8c0.4,0.7,0.2,1.6,0.3,2.4c0.1,1.3,0.8,2.4,1.3,3.6
				c0.1,0.4-0.2,0.7-0.5,1c-0.7,0.3-0.8,1.1-1.3,1.5c-0.5,0-1.1,0-1.6,0c0-0.2,0.1-0.5,0.2-0.7c0.2-0.3,0.5-0.3,0.6-0.5
				c-0.4,0.1-1,0.2-1.1,0.7L79,32.8c-0.4,0-0.9,0-1.3,0c0-0.2,0.2-0.4,0.3-0.6c0.1-0.4,0.6-0.3,0.9-0.6c-0.2-0.1-0.3,0.1-0.4,0.1
				c-0.3,0.1-0.5,0.1-0.7,0.3c-0.1,0.3-0.4,0.6-0.5,0.9c-0.3,0-0.6,0-0.9,0c-0.1,0-0.1-0.2-0.1-0.3c0.3-0.4,0.4-0.8,0.7-1.1
				c0.4-0.2,1,0,1.5-0.3c0.4-0.2,0.9-0.4,1.1-0.9c0.1-1-0.4-1.8-0.8-2.6c-0.6-0.7-1.4-1.1-2.2-1.2c-2-0.3-4.3-0.3-6.2-0.9
				c-2-0.6-3.9-1.7-5.5-3.2c-1.1-1.1-2.2-2.4-3.7-2.9c-1.3-0.2-2.6,0.4-3.8,0.9c-2.1,1-4.2,2.3-6.5,2.8c-1.5,0.5-3.2,0.4-4.9,0.4
				c-0.5-1.3,0.5-3.2-0.9-4.1c-1-0.6-2.1-1.4-2.5-2.4c0,0,0,0.1,0,0.1l0-0.1l0,0c0.2,1.2,1.3,2.2,2.2,2.9c1.1,1,0.2,2.9,1.1,3.9
				c-0.3,0.1-0.5-0.2-0.7-0.4l-0.1,0.1c-0.1,0.6,0,1.2,0.3,1.7c-0.2-0.1-0.4-0.3-0.6-0.5c0,0.6,0.2,1.3,0.4,1.9
				c0.4,1.4,1.1,2.7,1.2,4.2c0,1-1.1,1-1.6,1.6c-0.1,0.1-0.2,0.3-0.4,0.3c-0.7,0-1.5,0.1-2.2,0c-0.1-0.1,0-0.3,0-0.5
				c0.1-0.5,0.6-0.6,0.9-0.8c-0.4,0-1,0.1-1.2,0.5c-0.1,0.3-0.1,0.5-0.3,0.7c-0.3,0-0.7,0-1,0c-0.1-0.2,0.1-0.3,0.2-0.5
				c0.2-0.4,0.7-0.7,1.1-0.9c0,0,0-0.1,0.1-0.1c-0.3,0-0.6,0.1-0.9,0.2c-0.3,0.3-0.6,0.6-0.8,0.9c-0.1,0.1,0,0.3-0.1,0.3h-0.7
				c-0.1-0.3,0.2-0.6,0.4-0.8c0.3-0.3,0.5-0.8,1-0.9c0.8,0,1.8,0.1,2.2-0.7c0.3-0.7-0.2-1.2-0.4-1.8c-1.1-2.4-3.4-3.9-5.3-5.8
				c-1.1-1.3-2-2.7-2-4.4c-0.1-1,0.2-2,0-3c0,0-0.1-0.1-0.1-0.1c0,0.3,0,0.6,0,1c-0.1,1.4-0.6,2.9-0.1,4.2c0.3,0.9,1.2,2,1.8,2.7
				c-1.1-0.4-2.1-0.6-2.8-1.7c-0.1-0.3-0.3-0.9-0.1-1.2c0.1-0.1,0.2-0.1,0.3-0.3c-0.8-0.6-1.1-1.6-1.1-2.6v0c-0.1,0.3,0,0.5-0.1,0.8
				c0,0.7,0.2,1.3,0.7,1.8c-0.3,0.3-0.5,0.9-0.4,1.3c0.2,0.7,0.8,1.2,1.6,1.5c0.4,0.2,0.8,0.3,1.2,0.4c-0.9,0.1-2,0.4-2.8-0.1
				c-0.8-0.3-1.4-1-1.5-1.8c-0.1-0.7-0.2-1.5-0.8-2c0.4,0.1,0.8,0.6,1.1,0.8c0,0,0-0.1,0-0.1c-0.4-0.8-1.2-1.1-1.7-1.7
				c-0.7-1.1-0.4-2.1-0.3-3.3c0.1-0.6,0.3-1.1,0.4-1.6c-0.1,0-0.1,0.1-0.1,0.1c-0.5,1.2-0.9,2.4-0.8,3.8c0.1,0.7,0.6,1.6,1.2,2.1
				c0.7,0.7,0.4,1.7,0.9,2.5c0.5,0.9,1.5,1.4,2.3,2v0.1c-0.6-0.2-1.3-0.3-2-0.3c0.1,0.8,0.3,1.7,0,2.5c-0.6-1.3-1.8-2.2-2.9-3.1
				c-0.9-0.9-1.1-2.3-0.6-3.5c0.3,1.2,1.3,2.2,2.1,3.1c0.2,0.3,0.4,0.6,0.5,0.9c0-1.1-0.7-1.7-1.4-2.6c-0.4-0.6-0.9-1.4-1-2.2
				c0-0.1-0.1-0.3-0.1-0.4l0,0.1l0,0c-0.1,0.2-0.1,0.3-0.1,0.5c-0.6,1-1.4,1.5-0.3,3.5c-1.2-0.9-2-2.2-2.1-3.7c0-0.4,0-0.7,0.1-1.1
				c0.2,0.1,0.3,0.3,0.5,0.4l0-0.1c-0.4-1.8-0.1-3.6,0.3-5.7l0,0c-0.2,0.4-0.3,0.8-0.5,1.2c0,0.2-0.1,0.4-0.1,0.6h0
				c-0.1,0.1-0.1,0.3-0.1,0.4c-0.1,0.9-0.2,1.9-0.1,2.8c-0.6-0.9-0.8-2-0.7-3.1l0.1-0.6c-0.2,0-0.3,0.3-0.4,0.3
				c0.1-0.6,0.3-1.5-0.3-1.9c-0.4,0-0.6,0.4-0.8,0.7c-0.2,0.6-0.8,1-1.4,1.1c-0.3,0.1-0.4,0.4-0.4,0.7c-0.4-0.1-0.9-0.4-1-0.9
				c-0.1-0.3-0.3-0.6-0.4-0.8c0-0.1-0.1-0.3-0.1-0.4c0.1-0.1,0-0.4,0.2-0.4c0.5,0,0.9,0.4,1.4,0.6c0.3,0,0.6-0.2,0.7-0.4l0.1-0.2
				c-0.1,0-0.1-0.1-0.2-0.2c-0.6-0.6-1.5-0.2-2.2-0.3c-0.6-0.1-0.7-0.8-1-1.2c-0.1-0.2-0.4-0.3-0.4-0.6c0.1-0.1,0.4,0,0.7-0.1
				c0.2-0.1,0.4-0.1,0.6-0.2c-0.1,0.1,0,0.3-0.1,0.3v0c-0.1,0.1-0.3-0.1-0.4,0c-0.2,0.1-0.2,0.3-0.2,0.5c0.1,0,0.1,0,0.2-0.1
				c0.1-0.2,0.4-0.2,0.6-0.4C21,9.6,21.2,9.3,21,9.1c-0.3,0.3-0.8,0.2-1.1,0.2c0.2-0.4,0.6-0.8,1-1.1c0.5-0.4,1-0.8,1.3-1.4l0.6-0.5
				C22.9,5.6,23.3,5,24,4.9c0.3-0.1,0.6-0.1,0.9-0.3c0.9-0.9,2.2-1.2,2.9-2.3c0.4-0.6,0.6-1.2,0.8-1.8C29,0.5,29.4,1,29.7,1.3z
				 M32.6,2.3c-0.3,0.1-0.6,0.2-0.9,0.3c-1.1,0.5-1.7,1.7-1.6,2.8c0,0.7,0.3,1.2,0.4,1.8c-0.4-0.7-0.8-1.5-1-2.2
				c-0.1,0.4,0.1,0.7,0.2,1.1h0c-0.6-0.3-1.2-0.8-1.5-1.5c0,0.1,0,0.3,0.1,0.4c0.3,0.7,0.8,1.3,1.5,1.6l0.8,1
				c0.6,1.1,0.3,2.4-0.4,3.2c-0.4,0.5-0.8,1.1-1.3,1.6c0.2-0.6,0.3-1.3,0.4-1.9c-0.1,0.1-0.1,0.1-0.1,0.2c-0.4,1.3-0.9,2.4-1.5,3.8
				c0-0.8,0.3-1.7,0.2-2.4c-0.5,1.3-0.8,3.1-0.4,4.5h0c0,0,0-0.1,0.1-0.1c-0.1-1,0.6-2,1-2.8c0.6-1.3,1.9-2.2,2.4-3.5
				c0.6-1.7-0.4-3.2-0.3-4.9c0-1.1,0.5-2.1,1.6-2.5l0,0c-0.1,0.4-0.3,0.8-0.4,1.2c-0.1,0.7,0,1.6-0.2,2.3c0,0.2-0.2,0.4-0.2,0.6
				c0.5-0.9,0.9-1.8,0.9-2.9c0-0.6,0.3-1.2,0.4-1.7C32.7,2.4,32.7,2.4,32.6,2.3z M33.2,4.5c-0.3,0.3-0.5,0.7-0.5,1.1
				c-0.6,1.7,0.9,3,0.5,4.6c0,0.1,0,0.1,0,0.2h0C33.7,9.2,33.3,8,33,6.9C32.8,6.1,32.7,5.2,33.2,4.5L33.2,4.5z M23.7,5.6
				c-0.2,0.2-0.2,0.4-0.2,0.6c0.1,0.1,0.1-0.1,0.2,0c0,0,0.1,0.1,0.1,0.1c-0.4,0.1-0.6,0.4-1,0.4c-0.1,0-0.1,0-0.1,0.1
				c0.2,0,0.5,0,0.7-0.1c0.7-0.3,1.3-0.6,2-0.7c-0.1,0,0.1-0.1,0-0.1c-0.1,0,0-0.1-0.1-0.1C24.7,5.8,24.1,6,23.7,5.6z M37.8,5.9
				c-0.1,0.7-0.7,1.2-1.2,1.7c-0.7,0.7-1.3,1.8-1.3,2.7c-0.1,1.7,1.3,2.7,1,4.4l0,0c-0.5-1.5-1.9-2.3-1.8-4c0-1.2,0.6-2.3,1.4-3.2
				c0.1-0.2,0.3-0.5,0.2-0.8c-0.2,0.5-0.5,0.9-0.9,1.3c-0.6,0.6-1.2,1.6-1.3,2.4c-0.2,1.7,1.2,2.7,1.9,4.1c0.2,0.4,0.3,0.8,0.3,1.2
				c0.1,0.1,0,0.3,0.1,0.4c0.3-0.9,0.5-1.8,0.4-2.8c-0.2-1.1-0.7-2.1-0.6-3.4c0-0.4,0.1-0.8,0.3-1.1c-0.2,1-0.2,1.4,0.4,2.6
				c0.1,0.1,0,0.2,0.1,0.2c0.2-0.3,0.4-0.6,0.6-1c0.7-1,1.7-1.9,2.9-1.9c-1.6-0.4-2.7,1-3.6,2.1c-0.3-0.6,0-1.6,0.1-2.3
				c0.3-0.8,0.8-1.3,1.1-2.1C37.8,6.3,37.9,6.1,37.8,5.9z M28.2,6.6c-1.4-0.3-2.5,0.9-3.7,1.3C24.3,8,24,7.9,24,8
				c1.3,0.3,2.2-0.8,3.4-1c0.4-0.1,0.8,0.1,1,0.4c0.3,0.7,0,1.3-0.3,1.9c-0.4,0.9-1.4,1.7-1.8,2.6c-0.2,0.4-0.4,1-0.2,1.4h0
				c0-1,0.7-1.8,1.4-2.5c0.9-0.9,1.8-2.2,1.2-3.5C28.7,7,28.4,6.8,28.2,6.6z M32,7.3c-0.2,0.4-0.2,1-0.1,1.4
				c0.1,0.4,0.4,0.7,0.6,1.1C32.4,8.9,32,8.1,32,7.3L32,7.3z M23.6,9.2c-0.1,0.1-0.4,0-0.3,0.3c1.1-0.1,2-0.4,2.9-1
				C25.3,8.6,24.5,9,23.6,9.2z M22.5,9.1c-0.1,0.4,0.1,0.8,0,1.2c0,0.3-0.3,0.6-0.3,0.9c0.1-0.1,0.2-0.1,0.2-0.1
				C23,10.4,22.9,9.6,22.5,9.1z M23.4,9.9c0,0.1,0,0.1,0,0.2l0.5,0c0.8,0,1.5-0.2,2.2-0.6C25.2,9.6,24.3,9.8,23.4,9.9z M23.7,10.5
				c-0.1,0-0.4-0.1-0.4,0.1l0.6,0.2c0.6,0.1,1,0.1,1.4,0.1C24.8,10.7,24.2,10.6,23.7,10.5z M56.4,10.8c-0.9-0.2-2.5-0.4-3.4-0.3
				c0.8,0.1,1.8,0.3,2.6,0.5c1.7,0.5,3.2,0.9,4.6,1.9c-2.4-0.4-4.7-0.3-6.9,0.3c-2.6,0.8-5.1,1.9-7.5,3.4c1.6-0.6,3.3-1.2,4.9-1.9
				c4.6-1.4,6-1.9,9.5-1.7c0.1,0,0.3,0.1,0.4,0.1c0-0.1-0.2-0.3-0.3-0.4C59,11.9,58,11.3,56.4,10.8z M68.8,15.5
				c-0.1-0.1-0.2-0.2-0.3-0.2c1,0.8,1.5,1.9,1.8,3.1c0.3,0.9,0.6,1.9,1.1,2.7c0.8,1,1.4,1.9,1.4,3.1l0,0.1c-1.7,0.1-3.1-0.3-4.5-0.9
				c-1.9-0.9-3.4-2.4-4.9-3.9c-0.5-0.4-1.1-0.7-1.7-0.9c0,0,0.1,0.1,0.1,0.1c1.8,1.1,2.8,3.2,4.6,4.3c1.8,1.3,4.3,1.9,6.6,1.5
				c0-1-0.2-1.7-0.6-2.5c-0.5-1.3-1.7-2.5-2-4C70.3,16.9,69.7,16.2,68.8,15.5z M59.5,16.1c-0.6,0.2-1.2,0.4-1.8,0.7
				c-3,1.6-5.5,4.5-8.8,5.4c0.2,0,0.5,0,0.7-0.1c1.6-0.5,3.2-1.2,4.5-2.2c1.8-1.4,3.4-3.1,5.5-3.9L59.5,16.1z M36.8,19.3
				c-0.1,0.3,0,0.7,0.1,1c-0.3-0.2-0.4-0.4-0.5-0.7c-0.1,0,0-0.1-0.1-0.1c0,0.6,0.5,1.3,1,1.7c1,0.8,2.3,0.9,3.4,1.7l-0.1-0.1
				c-0.5-0.8-1.7-0.9-1.9-2h0c0,0.3,0.1,0.6,0.3,0.8c-0.7-0.1-1-0.9-1.1-1.4c-0.1,0.1,0,0.3,0,0.4c0,0.2,0.1,0.3,0.1,0.5
				C37.3,20.6,36.9,19.9,36.8,19.3L36.8,19.3z M41.2,20.1c0.2,1,1,1.8,1.9,2.1c0.5,0.6,0.5,1.6,0.6,2.1c0.3,1.8,0.9,2.6,1.5,4.3
				c0.2,0.6,0.1,1.1,0.2,1.7l0,0c0.5-1.2-0.1-2.4-0.5-3.5c-0.4-1-0.5-2.1-0.6-3.2c-0.1-0.7-0.1-1.5-0.7-2
				C42.6,21.5,41.8,21,41.2,20.1z M74.8,24.4l0.1,0.1c0.4,0.3,1,0.3,1.5,0.4c1.4,0.3,2.3,0.1,3.6,1.5c0.5,1,0.9,1.7,1.4,2.6l0.1,0
				c-0.4-0.9-0.7-1.8-1-2.7c-0.2-0.8-1-1.4-1.7-1.5C77.4,24.8,76,24.7,74.8,24.4z"/>
		</g>
		<g id="XMLID_1845_">
			<path id="XMLID_1846_" class="st0" d="M63.7,21.7L63.7,21.7c-1.5,1.5-3.3,2.9-4.4,4.6c-0.2,0.3-0.3,0.7-0.5,1
				c0.2-2.1,0.7-3.1,1.2-4.6c-1,1.4-1.6,3-1.6,4.8c0,0.8,0.1,1.5,0.2,2.2c0,0.6-0.7,0.9-1.1,1.1c-0.3,0.1-0.6,0.3-0.9,0.4
				c0.2-0.4,0.5-0.6,0.7-1.5c0.1-1-0.2-1.8,0.1-2.7c0-0.1,0-0.1,0-0.2c-0.2,0.2-0.3,0.5-0.3,0.8c-0.3,1.3-0.1,2.9-1.2,3.9
				c-0.6,0.5-1.3,0.8-1.9,1.3l-0.5,0.1l-1.7,0c0.1-0.3,0.2-0.7,0.5-0.8c0.2-0.1,0.4-0.1,0.6-0.4c-0.1-0.1-0.2,0.1-0.3,0.1
				c-0.5,0.1-1,0.4-1.1,0.9c0,0.3-0.5,0.1-0.7,0.2c-0.2,0-0.4,0-0.5-0.1c0-0.4,0.5-0.6,0.6-1c0.2-0.2,0.5-0.2,0.6-0.4
				c-0.4,0.1-1,0.1-1.1,0.6c-0.1,0.3-0.5,0.5-0.5,0.8c-0.3,0.1-0.5,0-0.8,0c-0.1-0.1-0.1-0.2-0.1-0.3c0.1-0.3,0.3-0.5,0.5-0.7l0,0
				c0.2-0.4,0.6-0.7,1.1-0.8c0.8,0.1,1.6,0,2.2-0.4c1-0.6,2.3-1.3,2.6-2.5c0.3-1.3-0.1-2.7-0.2-4.1c-0.1-0.6-0.1-1.3-0.1-2l0.1-0.1
				c1.7-0.9,3.4-2,5.4-2.2C61.8,19.7,62.7,20.8,63.7,21.7z"/>
		</g>
		<g id="XMLID_1843_">
			<path id="XMLID_1844_" class="st0" d="M31.1,25.5c-0.2,0.2-0.5,0.3-0.8,0.4c-1.3,0.9-2.6,1.9-3.6,3.2c-0.7,0.9-1.6,1.7-2.5,2.2
				l0,0c0.9-1.6,0.7-3.6,1.9-5.1c0.3-0.3,0.6-0.5,0.8-0.9c-0.9,0.5-1.8,1.3-2.1,2.2c-0.5,1.2-0.4,2.8-1.2,3.9
				c-0.3,0.3-0.7,0.6-1.1,0.7c-0.5,0-0.9,0.3-1.1,0.6l-0.3,0.1c-0.6,0-1.1,0.1-1.6,0v0c0.1-0.3,0.3-0.6,0.6-0.8l0,0
				c0.1-0.1,0.4-0.2,0.5-0.3c0,0,0-0.1-0.1-0.1c-0.1,0-0.1,0.1-0.2,0c-0.3,0.1-0.7,0.3-0.9,0.5c0,0,0,0,0,0.1l0.1-0.1
				c-0.1,0.2-0.3,0.5-0.4,0.7c-0.3,0.1-0.6,0-0.9,0l0-0.1h0c0-0.1,0.1-0.1,0.1-0.3c0.2-0.2,0.3-0.4,0.4-0.5c0.1,0,0.1-0.1,0.1-0.2
				c0.1,0,0.1-0.2,0.2-0.2c0.1-0.2,0.4-0.2,0.6-0.3c-0.1-0.1-0.3,0-0.4,0v0c0,0-0.1,0-0.1,0c-0.1,0-0.2,0.1-0.3,0.1
				c-0.3,0.2-0.4,0.6-0.6,0.8c-0.2,0.1-0.3,0.4-0.4,0.6c-0.3,0.1-0.6,0-0.8,0c-0.1-0.2,0.1-0.4,0.2-0.6c0.4-0.4,0.8-1.1,1.5-1.4
				c0.9,0,1.9,0.2,2.6-0.4c0.8-0.5,1.1-1.5,1.7-2.2c0-0.2,0.2-0.3,0.3-0.4c0.7-0.9,1.4-1.8,2-2.8c0.7-1.1,1.4-2.2,1.8-3.5
				C28.1,23.2,29.7,24.2,31.1,25.5z"/>
		</g>
	</g>
	<g id="XMLID_1835_">
		<path id="XMLID_1836_" class="st0" d="M53.8,41.6L53.8,41.6C53.7,41.6,53.7,41.5,53.8,41.6l0-2.4c0,0,0-0.1,0.1-0.1h0
			c0,0,0.1,0,0.1,0.1L53.8,41.6C53.8,41.5,53.8,41.6,53.8,41.6z"/>
	</g>
	<g id="XMLID_1821_">
		<path id="XMLID_1831_" class="st0" d="M54,47.9C53.9,47.9,53.9,47.9,54,47.9c-0.1-0.6-0.2-3.2,0-3.5c0.1-0.2,0.6-0.2,0.6-0.2
			c0,0,0.1,0,0.1,0.1c0,0,0,0.1-0.1,0.1c-0.1,0-0.4,0-0.5,0.1C54,44.7,54,46.7,54,47.9C54,47.9,54,47.9,54,47.9L54,47.9z"/>
	</g>
	<g id="XMLID_1810_">
		<path id="XMLID_1811_" class="st0" d="M67.7,44.2C67.7,44.2,67.7,44.2,67.7,44.2c-0.1,0-0.1-0.1-0.1-0.1l0.7-2c0,0,0.1-0.1,0.1,0
			c0,0,0.1,0.1,0,0.1L67.7,44.2C67.8,44.2,67.8,44.2,67.7,44.2z"/>
	</g>
	<g id="XMLID_945_">
		<g id="XMLID_1794_">
			<path id="XMLID_1795_" class="st0" d="M8.4,45C8.3,45,8.3,45,8.4,45l-3.3-6.5c0,0,0-0.1,0-0.1c0,0,0.1,0,0.1,0l3.2,6.5
				C8.4,44.9,8.4,45,8.4,45C8.4,45,8.4,45,8.4,45z"/>
		</g>
		<g id="XMLID_1792_">
			<path id="XMLID_1793_" class="st0" d="M15,47.8c-0.1,0-0.3,0-0.6-0.1c-0.2-0.1-0.3-0.3-0.4-0.7c-0.1-0.4-1.3-8.1-1.3-8.4
				c0,0,0-0.1,0.1-0.1c0,0,0.1,0,0.1,0.1c0,0.1,1.2,7.9,1.3,8.4c0.1,0.3,0.2,0.5,0.3,0.6c0.3,0.1,0.5,0.1,0.5,0.1
				c0.1,0,0.1,0,0.1,0.1C15.1,47.8,15.1,47.8,15,47.8C15,47.8,15,47.8,15,47.8z"/>
		</g>
		<g id="XMLID_1788_">
			<path id="XMLID_1789_" class="st0" d="M22.1,47.6c-0.5,0-1.4-0.3-2-0.5c-0.6-0.3-1.1-0.7-1.5-1.3c-0.4-0.6-0.7-1.7-0.8-2.5
				c0-1,0.2-2.1,0.7-2.7c0.6-0.9,1.8-1.1,2.4-1.1c0.6,0,1.5,0.2,1.5,0.2c0,0,0.1,0.1,0.1,0.1c0,0-0.1,0.1-0.1,0.1
				c0,0-0.9-0.2-1.5-0.2c-0.6,0-1.7,0.3-2.3,1.1c-0.4,0.6-0.7,1.6-0.7,2.6c0,0.8,0.3,1.8,0.7,2.4c0.4,0.6,0.9,1,1.4,1.2
				c0.5,0.2,1.4,0.5,1.9,0.5C22.1,47.5,22.2,47.5,22.1,47.6C22.2,47.6,22.1,47.6,22.1,47.6z"/>
		</g>
		<g id="XMLID_1786_">
			<path id="XMLID_1787_" class="st0" d="M25.2,41.5L25.2,41.5C25.1,41.5,25.1,41.5,25.2,41.5l0-2.4c0,0,0-0.1,0.1-0.1
				c0,0,0.1,0,0.1,0.1L25.2,41.5C25.2,41.5,25.2,41.5,25.2,41.5z"/>
		</g>
		<g id="XMLID_1782_">
			<path id="XMLID_1785_" class="st0" d="M25.3,47.9C25.3,47.9,25.3,47.9,25.3,47.9c-0.1-0.8-0.2-3.3,0-3.5c0.2-0.2,0.5-0.1,0.5-0.1
				c0,0,0.1,0.1,0.1,0.1c0,0-0.1,0.1-0.1,0.1c-0.1,0-0.3,0-0.3,0.1C25.4,44.6,25.4,46.3,25.3,47.9C25.4,47.9,25.4,47.9,25.3,47.9
				L25.3,47.9z"/>
		</g>
		<g id="XMLID_1778_">
			<path id="XMLID_1779_" class="st0" d="M50.7,47.7c-0.5,0-1.2-0.2-1.8-0.4c-0.6-0.3-1.2-0.8-1.6-1.4c-0.4-0.6-0.7-1.7-0.8-2.5
				c0-1,0.2-2.1,0.7-2.7c0.6-0.8,1.7-1.1,2.4-1.1c0.6,0,1.5,0.2,1.5,0.2c0,0,0.1,0.1,0.1,0.1c0,0,0,0.1-0.1,0.1c0,0-0.9-0.2-1.5-0.2
				c-0.6,0-1.7,0.3-2.3,1.1c-0.4,0.6-0.7,1.6-0.7,2.6c0,0.8,0.3,1.8,0.7,2.4c0.4,0.5,0.9,1,1.5,1.3c0.6,0.3,1.3,0.4,1.8,0.4
				C50.7,47.5,50.8,47.6,50.7,47.7C50.8,47.6,50.7,47.7,50.7,47.7z"/>
		</g>
		<g id="XMLID_1776_">
			<path id="XMLID_1777_" class="st0" d="M58.8,43.4L58.8,43.4C58.7,43.4,58.7,43.4,58.8,43.4l-0.1-3.7c0,0,0-0.1,0.1-0.1l0,0
				c0,0,0.1,0,0.1,0.1L58.8,43.4C58.9,43.4,58.8,43.4,58.8,43.4z"/>
		</g>
		<g id="XMLID_1774_">
			<path id="XMLID_1775_" class="st0" d="M59.5,47.9c-0.1,0-0.4,0-0.6-0.2c-0.3-0.2-0.3-2.2-0.2-2.8c0,0,0-0.1,0.1-0.1h0
				c0,0,0.1,0,0.1,0.1c0,1.2,0,2.6,0.2,2.7c0.2,0.2,0.6,0.1,0.6,0.1c0,0,0.1,0,0.1,0.1c0,0,0,0.1-0.1,0.1
				C59.6,47.9,59.6,47.9,59.5,47.9z"/>
		</g>
		<g id="XMLID_1767_">
			<path id="XMLID_1768_" class="st0" d="M64.5,47.5C64.5,47.5,64.5,47.5,64.5,47.5c-0.4-0.1-1.3-1.2-1.9-1.9
				c-0.3-0.4-1.3-1.6-1.3-1.6l-0.1-0.1l0.1,0c0,0,1.6-1,1.6-2.7c0-0.7-0.2-1.1-0.3-1.3l0.1,0l-0.1,0c0-0.1-0.2-0.5-0.7-0.8
				c0,0,0-0.1,0-0.1c0,0,0.1,0,0.1,0c0.4,0.3,0.7,0.7,0.8,0.9c0.2,0.3,0.3,0.7,0.3,1.4c0,1.6-1.3,2.6-1.6,2.8
				c0.2,0.3,0.9,1.2,1.2,1.5c0.7,0.9,1.5,1.8,1.8,1.8C64.6,47.3,64.6,47.4,64.5,47.5C64.6,47.5,64.5,47.5,64.5,47.5z"/>
		</g>
		<g id="XMLID_1760_">
			<path id="XMLID_1761_" class="st0" d="M74,47.9c-0.1,0-0.3,0-0.4,0c-0.3,0-0.4-0.1-0.5-0.4c-0.4-0.5-3.6-8.7-3.7-9
				c0,0,0-0.1,0-0.1c0,0,0.1,0,0.1,0c1.2,2.9,3.4,8.6,3.7,9c0.1,0.2,0.2,0.3,0.4,0.3c0.4,0,0.8,0,0.8,0c0,0,0.1,0,0.1,0.1
				c0,0,0,0.1-0.1,0.1C74.5,47.9,74.3,47.9,74,47.9z"/>
		</g>
		<g id="XMLID_1753_">
			<path id="XMLID_1754_" class="st0" d="M66.9,47.9c0,0-0.2,0-0.4-0.1c-0.1,0-0.1-0.1-0.1-0.1c-0.1-0.1,0-0.3,0.1-0.5
				c0.1-0.2,0.6-1.7,0.6-1.7c0,0,0.1-0.1,0.1-0.1c0,0,0.1,0.1,0.1,0.1c0,0.1-0.5,1.5-0.6,1.7c0,0.1-0.1,0.3-0.1,0.4c0,0,0,0,0,0
				c0.1,0,0.3,0.1,0.3,0.1C67,47.7,67,47.8,66.9,47.9C67,47.8,67,47.9,66.9,47.9z"/>
		</g>
		<g id="XMLID_1746_">
			<path id="XMLID_1747_" class="st0" d="M77.4,47.9L77.4,47.9c0,0-0.3,0-0.5-0.1c-0.2-0.1-0.3-0.3-0.3-0.6c0-0.1,0-0.1,0-0.2
				c0-0.3-0.2-4.4-0.2-4.6c0,0,0-0.1,0.1-0.1h0c0,0,0.1,0,0.1,0.1c0,0,0.1,4.3,0.2,4.6c0,0.1,0,0.1,0,0.2c0,0.3,0.1,0.5,0.2,0.5
				c0.2,0.1,0.5,0.1,0.5,0.1C77.4,47.7,77.5,47.8,77.4,47.9C77.5,47.9,77.4,47.9,77.4,47.9z"/>
		</g>
		<g id="XMLID_1723_">
			<path id="XMLID_1740_" class="st0" d="M82.3,44.9C82.2,44.9,82.2,44.9,82.3,44.9l-6-6.2c0,0,0-0.1,0-0.1c0,0,0.1,0,0.1,0l6,6.2
				C82.3,44.8,82.3,44.9,82.3,44.9C82.3,44.9,82.3,44.9,82.3,44.9z"/>
		</g>
		<g id="XMLID_1647_">
			<path id="XMLID_1674_" class="st0" d="M83.9,48.7L83.9,48.7C83.9,48.7,83.9,48.6,83.9,48.7c-0.1-0.4,0.1-8.4,0.1-8.8
				c0.1-0.3,0.3-0.5,0.6-0.5c0,0,0.1,0,0.1,0.1s0,0.1-0.1,0.1c-0.2,0-0.4,0.2-0.5,0.4C84.2,40.2,84.1,45.7,83.9,48.7
				C84,48.6,84,48.7,83.9,48.7z"/>
		</g>
		<g id="XMLID_1637_">
			<path id="XMLID_1638_" class="st0" d="M89.3,47.4C89.2,47.4,89.2,47.3,89.3,47.4L89.2,40c0,0,0-0.1,0.1-0.1h0c0,0,0.1,0,0.1,0.1
				L89.3,47.4C89.4,47.3,89.3,47.4,89.3,47.4L89.3,47.4z"/>
		</g>
		<g id="XMLID_1630_">
			<path id="XMLID_1631_" class="st0" d="M94.2,48.4C94.2,48.4,94.1,48.4,94.2,48.4c-0.1-0.1-0.1-0.1,0-0.2c0.7-0.4,1-0.6,1.3-1
				c0.4-0.5,0.9-1.3,1.1-2c0.2-0.6,0.3-1.2,0.3-1.7c0-0.7-0.2-1.5-0.4-2.1c-0.2-0.5-0.6-1.1-1-1.6c-0.2-0.2-0.8-0.7-1.2-0.9
				c0,0-0.1-0.1-0.1-0.1c0,0,0.1-0.1,0.1-0.1c0.4,0.1,1,0.7,1.2,0.9c0.4,0.4,0.8,1.1,1.1,1.6c0.2,0.6,0.4,1.5,0.4,2.1
				c0,0.6-0.1,1.2-0.3,1.8c-0.2,0.7-0.7,1.6-1.1,2C95.2,47.8,95,48,94.2,48.4C94.2,48.4,94.2,48.4,94.2,48.4z"/>
		</g>
		<g id="XMLID_1625_">
			<path id="XMLID_1628_" class="st0" d="M4.9,47.9c-0.2,0-0.5,0-0.5-0.2c-0.1-0.2,0.4-3.6,0.5-4.2c0,0,0-0.1,0.1-0.1
				c0,0,0.1,0,0.1,0.1c-0.2,1.6-0.5,4-0.5,4.2c0,0.1,0.3,0.1,0.5,0.1c0.1,0,0.1,0,0.1,0.1c0,0,0,0.1-0.1,0.1
				C5,47.9,4.9,47.9,4.9,47.9z"/>
		</g>
		<g id="XMLID_1480_">
			<path id="XMLID_1554_" class="st0" d="M8.6,48.5C8.6,48.5,8.6,48.5,8.6,48.5c-0.1,0-0.1-0.1-0.1-0.1l2.5-5.3c0,0,0.1-0.1,0.1,0
				c0,0,0.1,0.1,0,0.1L8.6,48.5C8.7,48.5,8.6,48.5,8.6,48.5z"/>
		</g>
		<g id="XMLID_1433_">
			<path id="XMLID_1445_" class="st0" d="M33.1,45C33,45,33,45,33.1,45l-3.2-6.5c0,0,0-0.1,0-0.1c0,0,0.1,0,0.1,0l3.2,6.5
				C33.2,44.9,33.1,45,33.1,45C33.1,45,33.1,45,33.1,45z"/>
		</g>
		<g id="XMLID_1415_">
			<path id="XMLID_1416_" class="st0" d="M39.7,47.8c-0.1,0-0.3,0-0.6-0.1c-0.2-0.1-0.3-0.3-0.4-0.7c-0.1-0.4-1.3-8.1-1.3-8.4
				c0,0,0-0.1,0.1-0.1c0,0,0.1,0,0.1,0.1c0,0.1,1.2,7.9,1.3,8.4c0.1,0.3,0.2,0.5,0.3,0.6c0.3,0.1,0.5,0.1,0.5,0.1
				c0.1,0,0.1,0,0.1,0.1C39.8,47.8,39.8,47.8,39.7,47.8C39.7,47.8,39.7,47.8,39.7,47.8z"/>
		</g>
		<g id="XMLID_976_">
			<path id="XMLID_1080_" class="st0" d="M29.6,47.9c-0.2,0-0.4,0-0.5-0.2c-0.1-0.2,0.4-3.6,0.5-4.2c0,0,0-0.1,0.1-0.1
				c0,0,0.1,0,0.1,0.1c-0.2,1.6-0.5,4-0.5,4.2c0,0.1,0.3,0.1,0.5,0.1c0.1,0,0.1,0,0.1,0.1c0,0,0,0.1-0.1,0.1
				C29.7,47.9,29.6,47.9,29.6,47.9z"/>
		</g>
		<g id="XMLID_948_">
			<path id="XMLID_967_" class="st0" d="M33.3,48.5C33.3,48.5,33.3,48.5,33.3,48.5c-0.1,0-0.1-0.1-0.1-0.1l2.5-5.3
				c0,0,0.1-0.1,0.1,0c0,0,0.1,0.1,0,0.1L33.3,48.5C33.4,48.5,33.3,48.5,33.3,48.5z"/>
		</g>
	</g>
</g>
</svg>
