<?xml version="1.0" standalone="no"?>
<!DOCTYPE svg PUBLIC "-//W3C//DTD SVG 20010904//EN"
 "http://www.w3.org/TR/2001/REC-SVG-20010904/DTD/svg10.dtd">
<svg version="1.0" xmlns="http://www.w3.org/2000/svg"
 width="1772.000000pt" height="1659.000000pt" viewBox="0 0 1772.000000 1659.000000"
 preserveAspectRatio="xMidYMid meet">
<metadata>
Created by potrace 1.13, written by Peter Selinger 2001-2015
</metadata>
<g transform="translate(0.000000,1659.000000) scale(0.100000,-0.100000)"
fill="#000000" stroke="none">
<path d="M4740 16072 c0 -6 9 -8 20 -5 14 4 21 -1 26 -21 3 -14 11 -26 17 -26
14 0 2 -100 -23 -185 -11 -39 -26 -88 -32 -110 -6 -22 -19 -51 -28 -65 -28
-42 -30 -47 -15 -47 8 0 14 3 13 6 -2 21 4 31 15 25 6 -4 9 -3 4 1 -4 5 0 17
10 27 18 20 38 25 27 6 -4 -7 3 -4 16 7 16 14 24 16 27 8 3 -7 16 8 30 35 100
190 108 202 125 202 32 0 66 -29 91 -78 49 -95 55 -82 -93 -222 -73 -69 -131
-131 -129 -137 2 -6 54 31 114 84 61 52 137 118 171 146 l60 52 -30 50 c-49
80 -153 177 -230 215 -70 35 -186 54 -186 32z"/>
<path d="M5650 15903 c-79 -12 -200 -36 -197 -40 3 -2 47 3 98 11 120 19 199
25 199 15 0 -9 -89 -43 -140 -54 -19 -4 -57 -17 -85 -30 -27 -12 -93 -37 -145
-54 -141 -47 -278 -110 -337 -153 -59 -43 -119 -114 -115 -134 2 -8 -2 -23 -8
-35 -10 -17 -8 -25 8 -42 27 -30 62 -98 56 -109 -3 -4 -2 -14 3 -20 4 -7 8
-17 9 -23 0 -5 2 -16 2 -22 1 -7 7 -13 12 -13 6 0 10 34 10 82 0 75 10 104 15
41 5 -69 5 -69 25 -28 11 22 17 31 14 20 -29 -91 -34 -114 -33 -154 l0 -46 19
40 c10 22 19 48 19 57 2 52 107 252 128 246 5 -1 23 13 41 31 31 32 35 33 50
17 15 -15 14 -20 -16 -75 -46 -83 -62 -144 -62 -233 0 -88 9 -99 75 -95 l38 2
-1 -80 c-1 -52 1 -73 7 -60 10 25 44 210 69 380 12 77 28 148 41 175 22 47 87
128 77 98 -6 -21 4 -23 23 -5 11 10 12 7 6 -13 -4 -14 -14 -36 -23 -50 -14
-23 -14 -24 1 -11 23 18 21 11 -7 -39 -14 -25 -26 -36 -28 -28 -4 11 -18 -53
-32 -152 -2 -14 -4 -2 -5 26 0 28 4 75 9 104 6 29 8 55 6 57 -17 17 -43 -107
-66 -307 -6 -52 -13 -105 -16 -117 -2 -13 0 -23 5 -23 5 0 15 26 22 58 37 177
54 188 20 14 -16 -81 -50 -211 -87 -336 -4 -12 -2 -16 5 -12 16 10 13 -54 -4
-84 -32 -56 -12 -37 36 34 27 41 55 78 60 82 24 15 20 -12 -16 -103 -21 -53
-40 -119 -43 -147 -6 -74 15 -47 24 29 4 33 10 62 14 65 4 3 17 24 29 48 12
24 29 46 37 49 22 8 64 -16 57 -33 -4 -10 0 -12 12 -8 14 6 16 3 10 -14 -7
-25 10 -30 19 -6 12 31 6 76 -14 101 l-20 25 -10 -26 c-13 -36 -26 -33 -49 12
-18 35 -18 42 -5 117 8 44 24 104 36 134 30 75 38 47 31 -106 -5 -110 -4 -123
11 -123 10 0 16 8 16 25 0 14 6 25 13 25 8 0 12 20 12 68 0 76 33 232 45 213
5 -10 9 -9 13 3 15 38 57 -3 57 -54 0 -11 5 -20 10 -20 6 0 10 -11 10 -24 0
-48 33 -172 51 -188 32 -31 45 -20 40 34 -1 9 3 20 10 24 7 4 9 3 5 -4 -3 -6
-1 -16 6 -24 7 -7 20 -22 28 -33 15 -20 15 -20 -8 0 l-23 19 10 -26 c7 -19 7
-28 -2 -32 -9 -3 -9 -7 -1 -13 19 -14 22 -37 8 -54 -15 -17 -15 -17 46 -21 28
-1 33 -18 4 -18 -8 0 -14 -4 -14 -9 0 -6 20 -3 45 6 45 15 82 12 70 -6 -3 -6
-11 -9 -18 -7 -7 1 -9 1 -4 -1 14 -8 7 -32 -15 -53 -12 -11 -18 -20 -13 -20 5
0 -1 -7 -13 -16 -26 -18 -29 -34 -4 -34 9 0 13 -4 7 -8 -5 -4 -10 -16 -10 -27
-1 -40 -17 -100 -28 -107 -9 -5 -9 -10 1 -20 9 -9 12 -9 12 4 0 8 7 21 15 28
19 16 19 7 0 -31 -27 -51 -77 -208 -72 -226 2 -10 14 16 27 57 20 67 65 160
76 160 3 0 0 -8 -5 -18 -27 -50 -60 -242 -42 -242 20 0 77 101 64 113 -8 8 34
81 64 113 16 16 54 53 86 82 32 30 71 78 87 108 16 30 50 76 76 102 39 40 42
41 21 12 -13 -19 -33 -48 -43 -64 -18 -29 -18 -29 1 -18 11 5 40 39 64 74 25
34 38 57 29 50 -18 -14 -48 -6 -48 13 0 20 -25 36 -37 24 -14 -14 -53 6 -53
26 0 8 -3 15 -7 15 -5 0 -23 14 -42 30 -18 17 -37 30 -41 30 -12 0 -98 89 -91
96 3 3 1 4 -5 2 -5 -2 -27 8 -48 22 -27 19 -36 31 -33 47 3 14 0 20 -9 16 -8
-3 -14 10 -19 39 -4 24 -13 53 -20 64 -8 12 -14 32 -14 45 0 13 -1 33 -1 44
-1 11 -8 27 -17 37 -13 15 -13 18 -2 18 9 0 10 3 3 8 -16 11 -32 89 -34 162
-1 36 -2 76 -4 89 -1 13 2 47 7 75 5 28 10 58 11 66 8 51 71 96 151 107 28 3
45 11 45 19 0 19 2 18 70 -16 100 -51 294 -219 283 -246 -3 -8 0 -20 6 -27 46
-56 57 -216 21 -308 -13 -31 -20 -69 -18 -93 3 -37 6 -41 32 -44 16 -2 32 1
35 6 10 17 183 122 211 129 14 3 30 9 35 13 18 13 103 30 148 30 24 0 65 -6
90 -14 26 -8 47 -12 47 -10 0 11 63 -23 119 -64 94 -69 161 -132 167 -158 3
-12 13 -25 21 -28 14 -6 13 -3 -1 18 -19 30 -20 40 -3 30 6 -4 3 2 -7 14 -11
12 -21 20 -24 17 -7 -6 -42 25 -42 37 0 5 6 6 13 2 6 -4 -10 16 -38 45 -47 48
-72 69 -45 36 7 -8 8 -15 3 -15 -13 0 -55 45 -48 52 3 3 -2 11 -12 19 -11 9
-14 10 -9 2 4 -7 3 -13 -3 -13 -10 0 -26 19 -26 32 0 3 -4 10 -9 15 -5 5 -6 2
-1 -6 5 -9 3 -12 -6 -9 -8 3 -14 10 -14 15 0 6 -4 15 -9 20 -5 5 -6 3 -2 -4
10 -18 5 -17 -48 13 -48 27 -59 37 -28 28 9 -3 6 2 -8 10 -28 17 -53 21 -30 5
12 -9 12 -10 -3 -5 -10 3 -21 6 -23 6 -3 0 -2 5 2 11 4 8 -1 9 -16 4 -16 -5
-20 -4 -15 5 5 9 1 10 -15 5 -14 -4 -20 -3 -16 3 7 12 -77 36 -197 56 -48 9
-98 21 -110 28 -12 6 -24 10 -26 8 -6 -5 -91 71 -91 83 0 6 22 -9 48 -33 26
-25 -8 11 -77 80 -175 175 -287 243 -462 285 -59 13 -233 19 -299 8z"/>
<path d="M3794 14956 c-28 -29 -75 -72 -103 -95 -29 -22 -46 -41 -39 -41 34 0
110 34 130 58 13 17 19 20 15 9 -4 -10 -7 -22 -7 -27 0 -4 -29 -20 -65 -35
-36 -16 -64 -30 -62 -32 2 -1 27 4 56 12 28 9 57 13 63 9 7 -4 8 -3 4 4 -5 8
1 12 18 12 14 0 40 9 58 19 44 26 152 62 207 70 29 4 48 13 58 28 20 30 1 37
-31 12 -27 -21 -36 -14 -13 10 10 11 1 13 -49 8 -34 -4 -75 -2 -93 3 -19 5
-29 5 -26 -1 10 -16 -11 -10 -38 11 -14 11 -27 20 -29 20 -1 0 -26 -25 -54
-54z"/>
<path d="M6579 14920 c-12 -16 -27 -26 -32 -23 -6 3 -7 1 -3 -6 4 -6 -2 -22
-12 -36 -11 -14 -18 -34 -15 -44 3 -10 -1 -22 -8 -27 -9 -5 -11 -2 -6 9 14 37
-10 14 -31 -28 -28 -57 -28 -80 -1 -37 12 17 23 32 24 32 15 0 -30 -74 -105
-175 -49 -66 -108 -155 -130 -198 -22 -43 -40 -70 -41 -60 0 16 -1 16 -9 -2
-12 -28 -12 -57 0 -50 6 3 10 1 10 -4 0 -6 9 -11 20 -11 18 0 20 4 14 34 -3
20 -1 42 5 53 11 17 11 17 9 -2 -1 -11 1 -26 6 -34 6 -10 5 -12 -2 -7 -7 4
-12 2 -12 -3 0 -16 20 -13 26 4 4 8 11 12 16 9 15 -10 52 40 109 147 28 53 66
112 84 130 18 19 47 61 64 94 18 33 46 82 64 109 38 58 43 119 12 142 -26 19
-31 18 -56 -16z"/>
<path d="M7413 14842 c4 -5 -29 -12 -81 -15 -80 -6 -200 -32 -190 -43 3 -2 39
1 80 8 129 19 262 -15 264 -68 1 -48 -28 -78 -97 -100 -30 -9 -58 -20 -64 -24
-5 -4 -32 -10 -60 -14 -120 -16 -143 -26 -203 -86 -31 -31 -69 -73 -84 -92
-17 -22 -46 -42 -75 -53 -185 -69 -283 -138 -355 -252 -22 -35 -44 -63 -48
-63 -9 0 -70 -80 -70 -92 0 -15 35 13 64 53 32 42 70 58 42 17 -21 -30 -20
-41 4 -35 11 3 20 1 20 -4 0 -6 11 2 25 16 14 14 29 25 34 25 10 0 81 103 81
117 0 6 7 13 15 17 8 3 15 10 15 16 0 22 45 60 79 65 20 4 43 10 52 15 10 5
20 5 25 0 6 -6 35 -3 71 5 35 8 88 16 120 18 59 3 96 17 110 40 17 27 76 67
99 67 14 0 43 9 65 21 22 11 73 32 112 46 40 14 108 38 152 54 89 32 138 35
206 15 95 -29 122 -51 179 -146 18 -30 50 -75 71 -100 22 -26 39 -55 39 -66 0
-17 49 -120 114 -242 23 -43 37 -101 39 -162 2 -36 -6 -57 -35 -105 -28 -45
-33 -61 -22 -63 16 -4 20 -22 4 -22 -5 0 -10 -6 -10 -14 0 -9 15 -17 38 -21
29 -5 63 2 148 31 121 41 134 48 134 75 0 24 2 24 50 -1 l39 -20 10 38 c6 20
11 46 11 57 0 34 17 52 37 39 14 -9 40 -46 49 -72 2 -5 73 28 79 38 4 6 10 8
15 5 5 -3 31 4 58 14 27 11 52 18 54 16 2 -3 22 1 44 7 21 6 47 10 57 9 9 -1
17 2 17 6 0 5 8 9 18 10 51 4 162 28 162 35 0 4 16 8 35 8 20 0 52 7 72 15 19
8 48 15 64 15 16 0 29 3 29 8 0 4 40 8 89 9 48 1 107 6 129 12 22 6 96 13 164
16 68 2 168 7 223 10 145 10 301 -21 556 -110 126 -43 166 -50 125 -19 -32 23
-10 16 64 -20 115 -57 280 -181 280 -211 0 -15 -120 -30 -180 -22 -20 2 -7 4
33 5 38 1 66 6 63 11 -12 18 -197 22 -521 12 -399 -13 -482 -25 -752 -107 -46
-14 -83 -28 -83 -31 0 -2 8 -2 18 1 9 3 82 17 162 31 224 39 510 65 765 69
247 4 242 3 -45 -14 -319 -20 -600 -70 -813 -147 -37 -13 -72 -21 -77 -18 -6
3 -10 1 -10 -5 0 -7 -7 -9 -16 -6 -10 4 -13 2 -8 -6 5 -8 2 -9 -9 -5 -10 3
-17 2 -17 -3 0 -6 -5 -10 -11 -10 -18 0 -431 -161 -426 -167 2 -2 42 5 88 16
46 10 104 22 129 26 25 4 88 17 140 30 52 13 109 26 125 29 17 3 48 10 70 15
53 13 285 52 390 66 22 3 85 7 140 11 55 3 106 7 113 9 6 3 175 7 375 11 386
6 449 13 550 58 31 14 60 25 63 23 11 -4 31 47 26 67 -5 18 -3 19 11 8 14 -12
16 -11 14 7 -1 12 -5 21 -9 21 -15 0 -23 4 -36 17 -7 7 -23 13 -35 13 -28 0
-85 40 -91 64 -3 11 -8 17 -12 14 -3 -4 -13 0 -21 8 -9 8 -22 13 -29 10 -8 -3
-18 3 -24 14 -5 10 -19 18 -29 17 -11 0 -17 -5 -14 -11 4 -5 -6 -6 -23 -2 -23
6 -13 -5 44 -50 39 -31 72 -61 72 -66 0 -5 6 -6 13 -2 8 6 8 3 -1 -9 -8 -9
-10 -22 -6 -28 5 -9 2 -10 -10 -6 -10 4 -19 7 -22 7 -2 0 -1 6 2 14 16 41
-150 162 -369 270 -228 113 -452 174 -650 177 -104 2 -123 -6 -35 -15 105 -12
143 -26 48 -18 -47 4 -140 6 -207 5 -164 -3 -161 16 6 48 57 11 62 13 40 22
-13 6 -31 11 -39 12 -8 1 -26 5 -40 8 -41 10 -93 19 -117 19 -13 0 -23 4 -23
9 0 5 0 11 0 14 0 3 3 5 8 6 4 0 14 6 22 13 13 11 36 23 60 31 3 1 17 6 31 12
14 6 45 16 70 23 24 7 52 16 63 22 35 19 62 22 211 26 333 9 693 -53 1560
-267 44 -10 125 -33 180 -50 104 -33 170 -39 77 -7 -29 10 -51 20 -49 22 2 3
17 0 32 -6 15 -6 30 -9 32 -6 8 8 -247 87 -258 80 -7 -4 -9 -3 -6 3 14 22
-394 135 -805 222 -420 89 -556 105 -888 104 -272 -1 -450 -21 -700 -78 -395
-91 -469 -96 -640 -45 -96 29 -122 33 -295 39 -250 9 -256 12 -443 194 -119
116 -265 236 -222 182 15 -18 14 -18 -12 -1 -26 17 -41 35 -16 20 6 -4 8 -3 5
3 -5 9 -189 83 -214 86 -9 2 -35 22 -65 50 -10 9 -18 14 -18 11 0 -4 -12 1
-26 11 -15 9 -24 13 -21 7z"/>
<path d="M4502 14819 c-19 -6 -37 -20 -43 -33 -7 -14 -20 -24 -33 -24 -11 0
-70 -28 -131 -62 -60 -34 -103 -60 -95 -57 8 3 65 27 125 52 101 43 118 47
210 51 121 5 159 -9 190 -71 31 -61 28 -201 -4 -273 -26 -59 -121 -185 -246
-330 -69 -80 -91 -98 -155 -130 l-75 -37 -177 5 c-162 5 -178 7 -200 26 -28
26 -81 54 -103 54 -8 0 -24 -5 -34 -12 -17 -10 -18 -14 -5 -33 12 -19 12 -24
1 -33 -11 -9 -20 -5 -42 18 -31 33 -28 60 8 60 13 0 27 4 33 10 10 10 218 -26
316 -55 58 -17 97 -20 82 -6 -9 9 -162 54 -224 67 -19 3 -52 15 -72 25 -21 11
-48 19 -61 19 -14 0 -38 16 -61 39 -22 22 -52 45 -67 52 -34 14 -49 5 -85 -53
-18 -28 -31 -38 -51 -38 -29 0 -28 -16 -8 155 4 32 1 27 -15 -25 -25 -79 -30
-119 -19 -126 14 -8 0 -24 -22 -24 -26 0 -33 -20 -20 -66 15 -54 -5 -74 -72
-74 -39 0 -58 -6 -85 -26 -38 -29 -31 -44 21 -44 20 0 30 -6 34 -20 3 -11 10
-20 15 -20 5 0 6 -5 2 -11 -3 -6 -15 -9 -25 -6 -19 5 -47 -18 -35 -30 3 -3 6
-1 6 5 0 31 185 -25 274 -82 88 -57 113 -63 170 -37 61 26 87 70 82 133 -3 25
-9 56 -15 67 -6 11 -11 31 -11 45 0 48 34 30 107 -56 111 -133 117 -143 101
-175 -13 -26 -111 -84 -165 -98 -13 -3 -44 -25 -67 -49 l-44 -43 6 40 c4 29 2
38 -6 33 -7 -4 -12 -15 -12 -24 0 -15 -2 -15 -10 -2 -8 12 -10 10 -10 -9 0
-13 -9 -40 -19 -60 -30 -56 -40 -95 -29 -115 5 -9 8 -23 6 -31 -2 -12 -13 -8
-48 15 -69 47 -151 78 -105 40 8 -7 15 -17 15 -23 0 -5 -10 -2 -22 9 -13 10
-8 2 11 -19 19 -20 36 -35 38 -33 2 2 16 -8 32 -23 46 -42 195 -113 232 -109
29 3 33 8 49 61 26 82 44 106 108 134 86 38 110 59 170 151 67 103 67 103 77
-101 4 -81 11 -147 16 -147 4 0 14 -3 22 -6 10 -3 19 4 26 23 10 26 11 26 6
-12 -3 -22 -8 -60 -11 -85 l-6 -45 20 20 c11 11 34 67 52 124 17 57 53 149 80
205 55 116 78 185 54 165 -12 -10 -13 -9 -8 6 6 14 4 16 -6 10 -14 -9 -7 8 15
35 7 8 39 67 72 130 33 63 105 184 160 267 56 84 123 197 150 250 l48 98 0
110 c0 91 -4 118 -22 157 -22 49 -91 108 -125 108 -10 0 -29 7 -43 16 -23 15
-23 14 -18 -7 4 -12 2 -20 -3 -17 -71 38 -127 50 -172 37z"/>
<path d="M14444 14253 c-43 -49 -65 -76 -48 -60 17 15 34 27 39 27 5 0 26 17
47 37 21 20 38 33 38 27 0 -5 -5 -15 -10 -20 -6 -6 -13 -21 -15 -34 -3 -13
-36 -78 -74 -145 -78 -137 -95 -170 -106 -205 -7 -21 -6 -23 7 -13 8 7 17 10
21 7 3 -3 4 2 3 13 -4 24 5 38 14 23 4 -7 13 -9 20 -5 10 6 8 12 -6 23 -18 14
-18 14 2 8 16 -5 23 0 32 19 7 15 17 23 22 20 6 -3 10 -4 10 -2 0 9 101 302
109 318 9 16 -3 49 -18 49 -5 0 -44 -39 -87 -87z"/>
<path d="M14660 14145 c-24 -25 -49 -45 -56 -45 -7 0 -15 12 -19 28 -4 15 -10
21 -12 14 -9 -24 18 -101 33 -95 9 3 15 -10 20 -47 7 -55 24 -71 50 -49 31 26
56 90 79 201 4 16 -21 38 -42 38 -5 0 -29 -20 -53 -45z"/>
<path d="M5898 14064 c-15 -14 -8 -159 11 -249 10 -49 22 -103 25 -120 5 -22
2 -20 -9 10 -24 61 -55 223 -55 288 0 36 -4 56 -10 52 -6 -3 -11 -56 -11 -118
-1 -90 -3 -103 -10 -67 -4 25 -8 70 -8 100 -1 39 -4 51 -11 40 -5 -8 -10 -25
-10 -37 0 -20 -40 -55 -40 -36 0 4 -4 2 -9 -5 -8 -13 -4 -293 5 -301 2 -2 11
13 19 33 17 40 35 40 35 -1 0 -20 3 -23 14 -14 11 9 14 -3 19 -67 7 -89 51
-259 72 -282 8 -9 12 -19 9 -22 -3 -4 2 -20 10 -37 9 -17 16 -33 16 -36 0 -3
1 -7 1 -10 1 -3 2 -8 3 -12 12 -58 41 -141 47 -138 4 3 13 -8 21 -25 16 -37
28 -38 28 -2 1 34 25 80 32 61 3 -8 3 -40 1 -73 -2 -32 3 -111 12 -174 18
-141 19 -298 3 -354 -11 -34 -20 -44 -57 -61 -57 -25 -173 -21 -217 8 -16 11
-35 18 -41 17 -7 -2 -13 4 -13 13 0 9 5 13 11 9 8 -4 9 1 4 17 -12 38 -24 69
-27 69 -2 0 -3 -25 -3 -55 1 -43 -1 -51 -10 -38 -6 11 -10 91 -9 206 1 103 -3
187 -7 187 -5 0 -9 -5 -9 -12 0 -6 -3 -9 -6 -5 -9 9 29 68 41 64 5 -2 9 -18 7
-35 -2 -16 1 -33 6 -36 17 -11 19 139 1 160 -15 18 -3 51 22 57 16 4 18 9 11
24 -6 10 -18 38 -28 62 -10 24 -20 38 -22 32 -2 -7 -16 1 -32 19 l-28 31 -26
-26 c-14 -14 -26 -30 -26 -34 0 -5 -8 -11 -18 -13 -11 -3 -18 -16 -20 -34 -1
-15 -7 -33 -12 -38 -6 -6 -10 -23 -10 -39 0 -25 -3 -28 -22 -22 l-23 6 23 -19
c19 -14 28 -39 42 -113 24 -123 30 -179 20 -179 -4 0 -13 20 -19 44 -6 25 -18
51 -26 60 -9 8 -22 30 -31 48 l-15 33 5 -38 c7 -55 -9 -37 -28 33 -9 33 -20
60 -23 60 -11 0 5 -68 27 -111 21 -43 51 -141 45 -147 -4 -4 -37 55 -65 118
-13 30 -31 63 -39 73 -20 24 -27 10 -41 -81 -11 -67 -9 -87 15 -157 3 -11 -3
-4 -14 15 l-20 35 -1 -30 c-1 -29 -2 -29 -12 -7 -6 12 -17 22 -23 22 -7 0 -15
7 -19 15 -3 8 -15 15 -26 15 -23 0 -103 69 -128 112 -9 16 -22 26 -28 24 -12
-5 -24 15 -24 37 0 7 8 3 17 -8 15 -19 15 -19 9 -1 -25 71 -28 191 -10 331 l5
40 -17 -30 c-34 -61 -31 -293 6 -442 6 -23 4 -33 -5 -37 -9 -3 -16 6 -20 25
-4 16 -13 32 -21 37 -11 6 -14 41 -15 167 -1 88 2 178 6 200 6 39 6 39 -9 15
-8 -14 -15 -33 -16 -42 0 -10 -5 -18 -10 -18 -11 0 -6 29 17 94 15 45 11 61
-5 19 -24 -60 -41 -142 -46 -223 -5 -71 -2 -102 19 -187 13 -57 31 -119 40
-139 24 -57 17 -54 -16 6 -27 49 -29 51 -25 22 9 -54 83 -169 165 -256 49 -52
63 -71 39 -53 -83 61 -76 13 19 -120 24 -35 41 -63 38 -63 -3 0 15 -39 39 -87
24 -49 51 -122 60 -163 23 -101 86 -218 150 -279 97 -94 181 -154 275 -199 77
-35 92 -46 78 -54 -57 -31 -376 230 -550 450 -55 70 -85 91 -73 54 13 -39 -25
-17 -55 32 -17 28 -47 68 -67 89 -33 34 -35 53 -2 25 8 -7 4 -1 -9 15 -24 27
-51 36 -51 17 0 -5 -4 -10 -9 -10 -13 0 -63 129 -59 155 1 12 -6 34 -16 49
-15 23 -16 30 -5 37 8 5 19 7 24 5 6 -2 -1 22 -16 53 -15 32 -35 84 -44 117
-10 32 -22 65 -29 73 -8 11 -8 13 0 8 8 -5 9 6 3 36 -4 23 -8 60 -9 82 0 30
-3 36 -12 27 -7 -7 -19 -12 -28 -12 -23 0 -59 -88 -71 -176 -5 -44 -14 -91
-18 -106 -8 -25 -7 -26 11 -15 11 7 34 25 50 41 16 16 32 26 35 22 7 -7 5
-118 -3 -125 -3 -3 -14 0 -25 7 -39 25 -36 1 11 -113 61 -147 80 -178 184
-303 86 -104 100 -122 93 -122 -6 0 -171 190 -212 244 -22 29 -47 80 -61 124
-12 41 -32 83 -43 93 -12 11 -21 29 -21 39 0 31 -17 23 -22 -10 -3 -23 -1 -29
10 -28 9 2 18 -8 22 -22 13 -46 110 -232 167 -319 152 -234 330 -426 376 -408
7 4 3 8 -10 12 -13 4 -23 13 -23 20 0 7 -7 18 -15 25 -9 7 -26 27 -38 44 -11
17 24 -12 80 -64 55 -52 100 -96 99 -97 -6 -7 -114 40 -144 61 -41 29 -197
179 -195 186 1 3 -31 7 -70 8 -85 3 -150 31 -221 93 -60 53 -94 120 -104 206
l-8 68 -9 -60 c-4 -34 -4 -84 1 -117 8 -44 7 -59 -3 -62 -8 -4 -11 -16 -7 -38
6 -31 6 -32 -11 -16 -22 21 -35 166 -16 177 8 5 9 25 5 64 -9 75 -24 63 -24
-18 0 -53 -15 -147 -27 -164 -7 -10 -37 28 -64 81 -58 114 -108 367 -68 342
11 -7 23 41 16 69 -3 12 -14 58 -26 102 -25 95 -26 122 -5 78 25 -51 28 -48
69 72 4 14 2 13 -10 -5 l-16 -25 5 34 c3 18 6 42 6 52 0 11 7 19 15 19 8 0 15
-4 15 -10 0 -5 7 -10 15 -10 20 0 19 -17 -2 -29 -10 -6 -13 -11 -5 -11 20 0
54 62 39 72 -8 5 -6 8 6 8 12 0 24 14 34 40 9 22 21 40 28 40 15 0 49 37 69
77 31 63 66 208 76 318 11 127 6 177 -17 168 -12 -5 -13 -2 -5 13 5 10 13 42
17 69 4 28 12 56 18 63 14 17 0 29 -20 16 -23 -15 -88 -133 -118 -217 -42
-114 -87 -286 -94 -357 l-7 -65 -7 60 c-5 33 -12 101 -18 150 -21 193 -61 491
-67 505 -3 8 -9 -16 -12 -55 l-6 -70 -3 90 c-2 108 -10 100 -46 -46 -35 -144
-55 -327 -55 -503 0 -131 -2 -147 -15 -136 -19 15 -19 18 4 -63 11 -37 15 -65
10 -62 -13 8 -11 -1 5 -33 7 -15 17 -38 21 -52 l7 -25 -21 27 c-26 32 -63 115
-81 181 -7 26 -15 46 -17 44 -8 -8 30 -143 58 -205 15 -34 26 -68 24 -75 -3
-7 17 -36 45 -66 27 -30 47 -58 43 -64 -4 -6 -16 1 -30 17 -26 31 -30 27 -8
-8 21 -31 10 -166 -13 -166 -10 0 -13 -7 -8 -22 3 -13 6 -29 6 -36 0 -7 8 -12
17 -10 13 2 21 -15 38 -87 25 -104 61 -195 106 -268 25 -42 27 -48 9 -32 -26
24 -78 100 -91 133 -5 14 -12 22 -15 19 -4 -3 5 -27 20 -53 14 -25 23 -50 20
-55 -3 -5 1 -9 8 -10 7 -1 33 -24 58 -52 28 -32 38 -48 26 -43 -21 7 -36 -7
-36 -37 0 -12 6 -17 18 -15 13 2 16 -3 14 -22 -6 -58 -27 -129 -53 -189 -16
-35 -27 -66 -25 -69 6 -5 80 149 100 208 8 25 15 40 16 33 0 -6 9 -15 20 -18
11 -3 27 -14 37 -23 9 -9 21 -17 27 -17 6 -1 10 -6 8 -13 -1 -7 2 -12 8 -12 5
0 10 -7 10 -15 0 -8 7 -15 15 -15 8 0 15 -5 15 -11 0 -5 4 -8 9 -4 9 5 5 -40
-5 -56 -2 -4 0 -10 6 -14 6 -4 7 -11 4 -17 -5 -7 -2 -8 5 -4 8 5 14 0 18 -13
3 -11 9 -18 14 -15 5 3 9 -4 9 -15 0 -11 4 -22 9 -25 4 -3 6 -18 3 -33 -4 -23
-3 -26 9 -17 11 9 17 9 27 -2 7 -8 8 -14 3 -14 -9 0 -6 -68 4 -78 5 -5 -129
-165 -164 -196 -11 -11 -21 -23 -21 -27 0 -4 45 38 101 94 55 56 98 95 93 87
-4 -8 -16 -25 -27 -37 -18 -20 -18 -23 -4 -23 9 0 17 -7 17 -15 0 -12 3 -13
19 -3 11 7 18 15 16 18 -2 3 5 6 16 6 10 0 15 -3 11 -6 -47 -38 -84 -60 -92
-55 -6 4 -9 2 -8 -4 2 -5 -38 -47 -88 -93 -122 -112 -164 -161 -231 -276 -37
-62 -88 -129 -147 -191 -50 -53 -104 -117 -119 -142 -16 -25 -37 -51 -48 -57
-16 -10 -19 -9 -19 7 0 11 11 31 25 45 14 14 25 32 25 41 0 8 5 15 11 15 6 0
9 6 6 14 -7 17 17 50 77 108 l41 40 -42 -31 c-55 -41 -92 -86 -114 -137 -16
-39 -39 -66 -39 -47 1 63 43 358 55 387 9 21 14 40 12 43 -3 2 -17 -31 -32
-74 -38 -106 -92 -238 -120 -293 -28 -55 -79 -105 -96 -95 -7 5 -10 4 -6 -2 4
-6 -18 -27 -49 -48 -84 -58 -138 -125 -170 -208 -15 -39 -32 -78 -38 -86 -13
-17 -107 -77 -134 -85 -12 -4 -22 -12 -22 -17 0 -6 5 -7 12 -3 7 4 8 3 4 -5
-4 -6 -11 -9 -16 -6 -13 8 -153 -97 -170 -127 -12 -23 -13 -31 -2 -48 6 -11
12 -22 12 -24 0 -2 -30 -3 -67 -2 l-68 1 -3 47 c-2 32 3 59 17 87 25 47 26 74
6 91 -16 13 -63 6 -107 -16 -41 -21 -106 -113 -110 -154 -2 -28 -8 -36 -26
-38 -25 -4 -25 2 -4 57 3 8 1 12 -5 8 -6 -4 -14 -23 -18 -43 -6 -33 -9 -36
-36 -32 -16 3 -29 1 -29 -3 0 -13 58 -21 143 -18 45 1 123 -1 172 -6 174 -15
308 23 411 116 72 66 103 84 159 94 22 4 71 27 109 51 38 24 79 44 90 44 41 1
94 27 210 104 134 89 223 169 345 311 149 174 355 360 613 552 203 152 178
142 228 86 24 -26 58 -72 77 -100 18 -29 39 -53 46 -53 22 0 95 83 119 135 19
42 23 72 26 193 l4 142 25 0 c14 0 51 -6 82 -14 80 -20 212 -29 244 -17 33 13
33 20 3 93 l-23 57 36 5 c20 3 119 13 221 21 252 21 264 23 249 43 -6 10 5 -2
26 -26 42 -48 158 -147 320 -274 244 -190 362 -315 505 -530 157 -235 190
-318 155 -391 -9 -19 -28 -40 -43 -46 -42 -18 -140 -31 -227 -31 -107 -1 -144
-19 -225 -111 -133 -149 -181 -223 -179 -274 1 -16 2 -15 8 5 26 85 139 244
165 234 8 -3 19 4 26 15 6 12 15 21 21 21 6 0 7 -6 3 -12 -4 -7 3 -4 16 7 20
17 22 17 17 3 -4 -12 0 -19 14 -23 l21 -7 -21 -15 c-12 -8 -21 -21 -21 -29 0
-8 -5 -14 -11 -14 -12 0 -114 -108 -147 -156 -12 -19 -21 -34 -19 -34 2 0 39
39 82 88 71 78 122 123 143 122 4 0 16 -7 26 -15 16 -12 17 -17 6 -30 -11 -13
-3 -15 73 -15 60 0 88 -4 96 -14 9 -11 6 -15 -15 -20 -15 -4 -30 -3 -33 2 -7
12 -66 -6 -102 -31 -51 -36 -149 -142 -161 -174 -8 -22 -18 -33 -32 -33 -18 0
-18 2 5 27 22 25 22 26 1 9 l-22 -19 6 34 c5 30 4 32 -9 17 -8 -10 -18 -14
-22 -10 -4 4 -5 -3 -2 -16 3 -12 2 -20 -3 -17 -4 3 -11 -2 -14 -11 -8 -21 -63
-12 -82 14 -7 9 -14 12 -14 6 -1 -37 81 -64 197 -64 45 0 108 -7 139 -15 85
-22 491 -25 590 -5 77 16 107 32 174 93 30 28 114 88 185 135 202 131 219 152
218 272 0 123 -70 373 -184 657 -50 125 -68 163 -55 113 6 -23 5 -23 -10 4
-12 22 -18 26 -25 15 -11 -18 -11 -32 0 -24 5 3 20 -15 32 -39 12 -25 27 -42
32 -39 6 4 8 0 4 -11 -4 -9 -3 -15 1 -12 11 7 85 -202 122 -344 35 -133 35
-141 14 -114 -15 19 -16 19 -9 -1 27 -85 55 -192 55 -215 0 -16 -7 -30 -15
-34 -10 -4 -15 1 -15 14 0 30 -38 125 -60 150 -11 13 -20 30 -21 39 0 10 -2
12 -6 3 -2 -6 5 -31 16 -55 11 -23 23 -69 27 -102 l7 -60 -21 23 c-12 14 -22
44 -26 80 -9 72 -37 205 -43 199 -2 -3 1 -44 7 -93 16 -125 15 -182 -5 -226
-9 -22 -27 -24 -18 -2 5 14 3 14 -15 3 -11 -7 -19 -16 -16 -20 2 -5 -4 -13
-15 -18 -29 -16 -39 -13 -17 4 15 11 16 15 5 15 -8 0 -19 -4 -25 -9 -5 -5 -58
-26 -119 -46 -107 -35 -154 -62 -127 -72 19 -7 14 -27 -12 -52 -28 -27 -39
-68 -20 -75 20 -8 17 -46 -3 -62 -10 -7 -28 -14 -39 -14 -12 0 -36 -16 -53
-35 -28 -32 -35 -35 -86 -35 -36 0 -70 7 -95 20 -39 20 -48 37 -59 115 -1 6
-9 1 -17 -10 -16 -19 -16 -19 -9 5 11 37 32 57 89 85 41 19 46 24 26 25 -45 0
-124 -47 -184 -109 -68 -70 -96 -78 -96 -28 -1 31 -1 31 -13 9 -7 -12 -16 -20
-19 -17 -3 4 -12 -13 -20 -37 -16 -45 -40 -54 -64 -23 -8 11 -13 12 -22 3 -9
-9 -12 -5 -12 16 0 51 22 115 48 142 33 33 99 67 113 58 16 -10 -32 -56 -53
-50 -12 3 -27 -7 -44 -29 -33 -44 -22 -64 14 -25 15 16 50 42 79 59 l52 30
-10 -27 c-6 -15 -16 -30 -22 -35 -8 -6 -6 -7 5 -4 9 3 34 9 55 13 21 4 47 13
58 19 11 7 36 18 56 24 42 13 77 47 82 79 4 28 17 41 45 47 26 5 69 37 90 66
11 15 11 23 2 34 -11 13 -15 13 -33 0 -30 -21 -37 -19 -37 9 0 32 -16 42 -29
17 -10 -18 -12 -18 -44 12 -27 26 -32 37 -27 57 10 34 49 118 50 105 0 -5 4
-4 9 4 12 18 31 5 31 -21 0 -16 -5 -19 -21 -15 -21 6 -21 5 -3 -12 11 -10 23
-16 27 -14 11 6 6 95 -6 110 -6 9 -5 23 3 42 6 17 9 35 5 40 -3 6 -4 11 -1 11
3 0 17 -21 30 -47 14 -27 25 -40 26 -30 0 11 4 15 12 11 8 -5 9 2 4 27 -9 42
-20 199 -15 199 40 4 88 14 102 22 24 13 40 56 33 93 -3 17 -2 44 3 61 7 25 5
35 -7 48 -24 24 -5 32 21 9 12 -11 33 -19 47 -17 23 2 31 -9 82 -114 32 -65
65 -137 74 -162 20 -59 44 -173 44 -211 0 -19 4 -28 11 -24 17 11 3 248 -20
326 -10 37 -22 78 -26 90 -6 21 -3 20 14 -6 12 -16 21 -27 21 -24 0 8 -69 170
-86 202 -15 27 -28 88 -40 185 -8 63 10 72 20 10 9 -60 26 -108 37 -108 5 0 7
12 4 28 -4 17 4 8 21 -26 15 -28 29 -50 31 -48 3 2 0 13 -6 24 -6 12 -11 31
-11 44 1 21 2 21 11 5 6 -9 14 -15 20 -12 5 4 9 1 9 -6 0 -7 2 -10 5 -8 2 3
-2 23 -10 44 -24 68 -21 75 30 75 25 0 45 4 45 10 0 5 -11 43 -25 84 -14 41
-25 87 -25 101 0 25 2 26 28 20 51 -14 65 -11 81 20 9 17 16 31 16 32 1 1 109
7 240 13 345 16 445 30 765 110 191 47 328 91 442 140 l88 38 4 -32 c3 -17 21
-170 41 -341 43 -368 42 -363 43 -300 0 28 -3 74 -7 102 -4 29 -3 54 2 56 5 1
1 69 -8 155 -9 83 -15 160 -12 169 2 10 7 -14 12 -54 4 -41 12 -71 18 -70 10
2 73 -352 78 -433 1 -27 3 -29 6 -10 9 53 15 54 29 5 26 -97 11 -212 -39 -295
-16 -27 -17 -32 -4 -21 9 7 29 38 44 70 26 53 28 64 28 186 0 72 -4 150 -7
175 -4 25 -4 37 0 27 4 -10 10 -17 13 -15 3 2 13 -3 22 -11 19 -15 23 -1 5 17
-7 7 -8 12 -2 12 5 0 15 -5 22 -12 6 -6 32 -12 58 -13 26 -2 50 -8 55 -16 7
-12 9 -12 9 0 0 7 6 11 15 7 8 -3 15 0 15 6 0 6 3 9 6 5 4 -3 27 5 53 17 56
29 101 40 101 26 0 -21 20 -9 21 13 0 20 1 20 8 3 7 -18 8 -18 14 -2 4 10 13
16 21 13 7 -3 25 1 39 8 14 7 27 11 29 9 2 -2 14 27 26 65 29 90 71 190 72
171 0 -13 2 -13 11 0 10 13 10 13 6 -1 -3 -8 -16 -51 -30 -95 -14 -46 -28
-118 -31 -174 -9 -117 -15 -152 -27 -144 -5 3 -9 -3 -9 -12 0 -9 -21 -55 -46
-101 -77 -142 -103 -251 -73 -315 10 -22 15 -23 65 -18 30 3 56 4 58 1 5 -13
-6 -201 -12 -201 -17 0 -81 44 -89 62 -10 22 -12 21 -31 -23 -11 -26 -25 -50
-31 -53 -13 -9 -13 -9 -2 32 5 17 6 32 1 32 -5 0 -11 -10 -13 -22 -2 -13 -6 4
-7 37 -3 67 -5 89 -12 155 -3 25 -3 35 -1 23 2 -12 10 -26 17 -32 11 -9 14 0
15 44 0 30 5 74 11 98 12 55 12 67 -1 67 -6 0 -9 -6 -6 -14 7 -18 -10 -83 -24
-92 -13 -8 -10 162 3 188 12 26 21 115 10 103 -16 -17 -73 -187 -60 -179 8 5
9 2 4 -12 -20 -49 -23 -78 -19 -168 2 -54 0 -103 -5 -109 -14 -17 -45 -162
-40 -184 3 -11 8 -2 12 22 4 22 11 49 16 60 7 16 9 13 9 -16 1 -42 -25 -135
-40 -145 -8 -4 -9 1 -4 16 6 19 1 17 -24 -12 -34 -39 -42 -43 -189 -89 -75
-23 -116 -42 -152 -71 -28 -22 -50 -44 -50 -50 0 -6 6 -5 15 2 13 11 14 10 9
-4 -4 -10 -12 -15 -19 -12 -6 2 -25 -7 -41 -21 -17 -14 -22 -22 -11 -19 24 7
21 -1 -4 -15 -15 -8 -19 -8 -15 0 11 17 1 14 -60 -19 -42 -23 -59 -28 -69 -20
-8 7 -15 7 -19 1 -3 -5 -3 -11 1 -14 5 -2 2 -2 -6 0 -23 6 -142 -60 -169 -94
-27 -33 -77 -61 -90 -49 -3 4 1 27 9 51 12 33 13 42 3 38 -7 -2 -19 -23 -27
-46 -7 -23 -21 -43 -29 -45 -14 -3 -14 2 1 44 17 49 76 122 88 110 4 -4 -3
-16 -17 -26 -14 -11 -20 -20 -13 -20 6 0 14 4 18 9 3 5 29 17 58 27 28 9 62
24 75 32 12 8 22 10 22 6 0 -5 9 5 20 21 11 17 20 47 20 67 0 29 6 41 26 54
22 15 23 19 10 26 -9 5 -16 16 -16 23 0 9 -10 15 -25 15 -16 0 -25 6 -25 16 0
11 -6 14 -20 9 -11 -4 -20 -2 -20 4 0 6 4 11 9 11 5 0 14 15 21 34 6 19 21 38
36 45 14 6 22 16 19 21 -3 6 -1 10 5 10 7 0 19 8 28 18 10 10 13 11 7 2 -9
-13 -8 -13 8 -1 9 7 17 17 17 21 0 14 59 68 66 61 4 -3 4 -1 1 5 -4 7 3 24 16
40 22 29 -14 6 -178 -112 -49 -35 -49 -35 -15 -4 19 18 68 61 108 97 73 65
172 176 172 193 0 4 -42 -33 -92 -84 -106 -105 -336 -288 -275 -219 9 11 17
23 17 28 0 4 -8 2 -17 -5 -25 -18 63 67 122 118 28 23 12 14 -35 -21 -167
-126 -240 -157 -370 -157 -222 -1 -392 -101 -487 -289 -85 -164 -55 -205 162
-221 61 -5 144 -14 185 -20 41 -7 104 -9 140 -6 36 4 76 6 90 4 14 -1 86 -2
160 -2 207 -1 241 13 537 221 110 78 228 141 332 179 119 43 189 76 239 113
46 34 82 97 81 141 -1 24 -1 24 -14 -5 -12 -27 -14 -11 -13 138 1 92 5 167 9
167 4 0 9 -8 11 -17 2 -10 18 27 37 82 43 128 100 239 173 337 81 110 115 145
278 292 80 72 213 197 296 278 83 81 153 148 157 148 3 0 15 -20 26 -45 11
-24 34 -63 52 -85 30 -37 198 -195 393 -369 93 -83 260 -192 354 -232 67 -27
84 -31 153 -27 84 3 111 16 89 42 -10 13 -1 12 46 -5 33 -11 95 -29 138 -40
98 -25 114 -33 196 -99 74 -60 168 -107 232 -115 42 -6 43 -6 17 9 -38 22 -57
56 -52 93 5 29 7 31 30 22 43 -16 73 -11 73 12 0 21 3 21 103 16 56 -3 163
-10 237 -16 287 -24 364 -39 431 -84 76 -50 223 -326 224 -418 0 -100 -87
-169 -240 -189 -122 -16 -177 -35 -210 -71 -17 -18 -24 -29 -17 -24 11 6 12 3
3 -13 -6 -12 -17 -24 -24 -28 -7 -5 -6 0 3 12 14 18 14 18 -2 5 -10 -7 -15
-17 -12 -22 7 -12 -15 -51 -26 -44 -5 3 -12 0 -16 -6 -5 -8 -3 -9 6 -4 9 5 10
2 5 -14 -4 -12 -2 -21 4 -21 6 0 11 8 12 18 0 10 3 12 6 5 3 -9 16 -4 41 15
l37 27 -28 -37 c-28 -37 -34 -54 -18 -43 6 3 24 31 42 63 18 31 33 58 35 60 1
2 13 -2 26 -9 12 -7 26 -13 31 -14 9 0 9 -13 0 -40 -10 -32 -85 -135 -95 -129
-4 3 -5 -1 -2 -9 3 -8 0 -18 -7 -23 -8 -5 -10 -3 -4 6 5 9 4 11 -4 6 -20 -13
-42 -64 -30 -71 6 -4 12 -5 13 -4 2 2 31 45 64 96 34 50 66 94 72 98 5 3 10
15 10 25 0 16 4 18 23 11 29 -11 33 -37 10 -64 -18 -22 -18 -22 3 -5 11 10 24
18 29 18 5 0 36 21 69 47 l61 48 -40 -49 -40 -49 65 5 c104 9 290 59 306 83
19 29 -2 105 -29 105 -16 0 -18 6 -15 30 5 35 -2 38 -20 10 -14 -24 -40 -26
-48 -5 -4 10 -13 13 -25 10 -17 -6 -16 -1 7 38 15 24 40 52 55 63 15 10 32 28
38 39 8 17 10 14 10 -17 l1 -38 21 21 c20 20 23 20 31 5 8 -15 11 -14 29 8 10
13 19 36 19 49 0 40 -85 327 -119 402 -77 169 -131 199 -507 279 -162 35 -278
79 -291 112 -4 12 -52 44 -73 49 -3 1 -18 7 -35 14 -23 10 -42 10 -81 1 -70
-15 -359 -11 -469 6 -104 17 -269 71 -370 121 -87 44 -315 173 -315 179 0 3
35 -14 77 -38 42 -23 73 -37 69 -30 -9 15 -107 78 -118 75 -4 -2 -8 1 -8 7 0
5 -31 25 -69 44 -37 18 -104 58 -147 87 -44 29 -84 52 -90 51 -6 -1 -19 8 -30
20 -19 23 -19 23 2 8 11 -8 4 0 -15 17 -20 18 -41 33 -47 33 -7 0 -19 11 -28
25 -9 14 -21 23 -25 20 -5 -2 -11 5 -14 17 -4 12 -9 19 -12 16 -8 -7 -196 178
-221 218 -38 60 -126 164 -133 159 -8 -5 -61 50 -109 114 -24 32 -26 61 -5 68
6 2 84 -70 173 -161 290 -295 546 -538 620 -585 14 -8 29 -21 33 -28 4 -7 13
-13 20 -13 7 0 23 -10 37 -21 14 -11 19 -17 11 -13 -9 4 -12 3 -7 -4 4 -6 13
-9 20 -6 7 3 19 -3 27 -12 12 -15 12 -17 0 -9 -10 6 -12 4 -7 -4 5 -7 13 -10
20 -8 7 3 23 -4 37 -15 13 -11 18 -17 12 -13 -7 3 -13 4 -13 1 0 -3 10 -10 21
-17 17 -9 20 -8 14 3 -4 7 2 2 13 -12 12 -14 24 -22 28 -18 3 4 25 -4 49 -17
58 -35 262 -111 373 -140 117 -30 284 -49 382 -42 81 5 150 31 150 56 0 13 -2
13 -9 2 -6 -9 -11 -10 -15 -2 -4 6 -23 11 -42 11 -21 0 -48 9 -67 23 -18 13
-56 29 -86 35 -53 12 -255 101 -247 109 2 2 21 -3 42 -12 69 -30 114 -44 114
-37 0 4 -31 27 -69 50 -38 24 -72 50 -75 57 -2 7 -49 27 -103 45 -99 32 -169
66 -193 94 -11 14 -8 16 21 17 30 0 25 3 -33 23 -137 48 -238 123 -438 326
-85 86 -200 193 -255 237 -127 103 -177 150 -256 241 -65 75 -154 149 -222
184 -50 25 -38 5 16 -29 63 -39 93 -69 169 -173 41 -56 139 -164 241 -264 95
-93 150 -151 122 -129 -54 43 -138 101 -225 155 -30 19 -128 92 -218 162 -227
177 -213 171 -408 174 -197 4 -278 -8 -362 -53 -50 -26 -60 -29 -45 -13 18 21
18 21 -22 15 l-40 -7 30 20 c48 32 39 45 -30 44 -48 -1 -88 -12 -200 -58 -92
-37 -142 -53 -149 -46 -7 7 -3 10 11 10 29 0 85 25 76 34 -4 4 1 4 12 0 16 -6
18 -4 8 6 -10 11 -20 11 -53 1 -23 -7 -50 -9 -62 -5 -12 4 -18 2 -14 -4 8 -14
-30 -22 -43 -9 -8 8 -11 7 -11 -3 0 -9 -5 -8 -16 6 -15 18 -15 18 -9 -3 7 -24
-9 -33 -18 -10 -4 9 -6 8 -6 -2 -1 -11 -4 -11 -16 -1 -8 7 -20 8 -27 4 -7 -5
-21 -7 -32 -5 -12 2 -16 -1 -11 -9 6 -9 2 -9 -15 0 -18 10 -21 9 -15 -1 6 -9
3 -11 -8 -6 -9 3 -34 0 -54 -7 -21 -7 -44 -11 -51 -9 -8 3 -10 -1 -6 -12 6
-15 4 -15 -14 -4 -17 11 -24 10 -46 -5 -15 -9 -31 -14 -37 -10 -6 3 -19 -2
-29 -11 -10 -9 -23 -14 -29 -11 -5 3 -11 1 -13 -4 -2 -6 -15 -12 -29 -14 -14
-1 -36 -10 -49 -19 -17 -12 -28 -13 -42 -6 -16 9 -18 7 -14 -15 3 -15 0 -26
-6 -26 -5 0 -7 7 -4 16 4 10 1 14 -6 11 -7 -2 -12 -13 -10 -23 2 -18 2 -18 -8
-1 -13 20 -32 23 -24 3 11 -29 -244 -66 -456 -66 -259 0 -389 -27 -620 -125
-118 -51 -251 -85 -330 -85 -40 0 -80 -56 -52 -74 4 -2 8 8 7 22 0 27 1 27 80
33 114 10 161 23 304 84 230 99 326 117 620 119 143 1 223 -1 205 -6 -16 -5
-65 -10 -109 -11 -44 -1 -83 -6 -87 -12 -5 -6 -8 -5 -8 4 0 11 -3 11 -17 0
-11 -10 -14 -10 -9 -1 9 15 -6 16 -21 1 -8 -8 -13 -8 -18 1 -4 7 -15 1 -32
-17 -16 -19 -23 -22 -21 -11 2 9 -1 17 -7 17 -5 1 -10 -7 -10 -17 0 -9 -5 -16
-12 -15 -6 2 -24 -4 -39 -12 -17 -9 -32 -11 -39 -5 -6 5 -17 5 -24 1 -18 -11
-53 -2 -44 12 4 6 -9 1 -29 -11 -37 -23 -53 -28 -44 -13 3 5 -1 14 -9 21 -12
10 -15 10 -15 0 0 -10 -3 -10 -15 0 -13 11 -14 10 -8 -6 6 -17 5 -18 -12 -4
-17 14 -17 13 -10 -10 4 -14 4 -22 0 -18 -4 3 -15 -1 -26 -10 -14 -12 -15 -18
-6 -24 7 -5 0 -8 -18 -8 -17 0 -84 -16 -149 -35 -65 -19 -157 -42 -205 -51
-87 -16 -110 -31 -111 -69 0 -18 -1 -18 -16 3 -21 30 -38 28 -30 -3 10 -37 0
-31 -37 28 -40 62 -90 108 -188 174 -88 59 -99 65 -99 60 0 -2 43 -37 94 -76
91 -69 119 -102 179 -210 18 -33 30 -130 20 -157 -8 -21 -22 -7 -16 16 3 11 0
20 -6 20 -6 0 -11 -4 -11 -10 0 -5 -6 -7 -14 -4 -7 3 -16 -2 -19 -10 -4 -9
-17 -16 -30 -16 -14 0 -41 -7 -61 -15 -37 -16 -128 -26 -236 -27 -78 -1 -206
42 -383 130 -17 8 35 -80 70 -119 20 -22 68 -59 107 -82 127 -74 266 -236 266
-309 0 -15 5 -39 12 -53 9 -19 9 -28 0 -37 -7 -7 -12 -20 -12 -29 0 -30 -49
-21 -66 12 -8 16 -11 29 -7 29 5 0 1 4 -7 10 -8 5 -11 12 -8 15 11 11 30 -6
24 -21 -8 -21 40 -42 57 -25 10 11 7 12 -13 6 -15 -4 -20 -3 -13 2 10 7 10 15
0 36 -6 15 -15 27 -19 27 -5 0 -8 5 -8 11 0 6 8 8 18 5 15 -5 15 -4 -2 8 -16
13 -20 12 -40 -11 -20 -23 -23 -24 -29 -9 -4 9 -3 15 2 12 5 -3 11 1 14 9 5
11 1 12 -16 6 -17 -7 -29 -4 -46 10 -13 10 -30 19 -37 19 -8 0 -34 20 -57 44
-35 36 -57 48 -127 70 -87 26 -253 113 -245 127 6 9 -19 34 -91 94 -27 22 -57
50 -67 62 -11 12 -37 25 -58 28 -22 4 -39 11 -39 17 0 5 -6 8 -12 6 -21 -7
-44 25 -63 90 -14 46 -22 61 -33 57 -10 -4 -12 0 -8 11 4 9 2 22 -2 28 -15 19
-23 48 -11 41 6 -4 9 0 7 8 -2 9 1 16 7 16 18 -1 23 36 6 55 -16 18 -15 18 14
3 17 -8 49 -31 71 -51 41 -35 61 -62 204 -284 59 -91 89 -126 149 -175 73 -59
165 -117 186 -117 6 0 -19 16 -55 36 -36 20 -67 39 -70 43 -3 3 -30 27 -60 52
-53 45 -161 193 -241 333 -45 77 -101 140 -173 193 -67 49 -98 54 -122 18 -14
-22 -18 -23 -31 -10 -8 9 -16 23 -17 33 -2 9 -6 16 -9 15 -4 -2 -11 -3 -17 -3
-5 0 -10 -7 -10 -17 0 -21 -61 100 -71 141 l-7 31 -1 -36 c-1 -39 55 -187 95
-250 21 -34 22 -40 9 -46 -9 -3 -21 -1 -28 6 -17 17 -27 13 -20 -6 4 -11 -7
-5 -25 14 -23 24 -32 28 -36 17 -3 -9 -1 -12 4 -9 6 3 10 1 10 -4 0 -17 -15
-13 -35 9 -10 11 -15 20 -10 20 4 0 2 6 -4 13 -6 8 -8 17 -3 21 4 4 -1 12 -11
17 -9 6 -17 17 -17 24 0 8 -5 15 -12 15 -6 0 -8 3 -5 7 4 3 3 11 -2 17 -16 19
-38 93 -35 117 1 13 3 39 3 57 1 18 4 31 9 29 4 -2 23 1 42 9 l35 12 -31 1
c-26 1 -32 5 -33 24 -2 43 -5 67 -11 67 -3 0 -5 15 -6 33 -3 106 -8 164 -14
177 -5 8 -10 40 -13 70 -5 53 -15 94 -43 192 -8 26 -14 76 -14 111 0 35 -3 67
-6 70 -10 10 -46 -42 -38 -54 4 -8 3 -9 -4 -5 -11 7 -17 -11 -13 -41 1 -7 -2
-13 -6 -13 -4 0 -6 -27 -5 -60 3 -39 0 -60 -7 -60 -6 0 -11 -18 -11 -40 0 -22
-4 -40 -9 -40 -5 0 -14 -13 -21 -30 l-12 -29 -24 45 c-13 25 -24 53 -24 63 0
19 -41 134 -89 250 -34 81 -35 85 -22 77 10 -6 -17 93 -29 109 -4 6 -18 43
-30 84 -12 41 -29 85 -37 98 -11 16 -14 39 -11 78 4 50 2 58 -26 92 -27 33
-32 47 -36 116 -3 43 -8 75 -12 71z m-1435 -851 c-3 -62 1 -129 10 -183 8 -46
16 -138 16 -204 1 -66 4 -123 7 -128 3 -4 2 -24 -2 -44 -5 -25 -9 -32 -15 -22
-5 7 -6 21 -3 31 3 10 1 24 -6 32 -6 8 -7 16 -2 19 13 8 3 94 -14 128 -22 42
-16 468 6 468 4 0 5 -44 3 -97z m1822 -757 c9 -60 18 -114 22 -119 11 -18 23
19 23 76 0 31 5 57 10 57 6 0 10 -40 10 -99 0 -75 4 -101 15 -111 8 -7 15 -17
15 -22 0 -6 11 -19 24 -29 14 -11 42 -48 62 -82 21 -34 49 -78 63 -97 l26 -34
-27 19 c-14 11 -39 39 -55 62 -15 23 -30 40 -32 38 -9 -10 53 -95 103 -143 31
-29 56 -55 56 -57 0 -3 -12 1 -27 7 -34 15 -98 80 -119 121 -11 21 -18 26 -24
17 -4 -7 -12 -10 -18 -6 -6 3 -12 0 -15 -6 -3 -10 -10 -8 -25 6 -12 10 -19 22
-17 27 3 4 1 10 -4 13 -5 4 -11 -4 -13 -16 -3 -19 -8 -15 -26 25 -16 33 -25
79 -32 155 -14 165 -22 317 -16 312 2 -3 12 -54 21 -114z m-669 -13 c-3 -25
-2 -43 4 -43 6 0 10 12 10 28 0 18 3 23 9 14 12 -19 22 24 14 58 -11 48 11 9
33 -58 12 -37 33 -93 48 -124 24 -55 25 -58 7 -58 -11 0 -33 17 -50 37 -24 29
-31 48 -32 83 -1 29 -3 35 -6 18 -5 -34 -13 -35 -45 -5 -25 23 -26 35 -13 103
7 38 8 38 17 14 5 -14 7 -44 4 -67z m-90 -409 c25 -51 42 -98 39 -106 -16 -42
59 -130 211 -244 54 -41 77 -67 99 -110 16 -31 34 -58 42 -61 7 -3 11 -9 8
-13 -3 -5 -26 -1 -51 8 -37 14 -66 40 -149 132 -133 150 -158 191 -202 330
-19 63 -44 133 -55 155 -14 30 -15 35 -3 20 9 -11 36 -61 61 -111z m437 63 c2
-25 3 -25 25 -11 13 9 32 12 44 8 17 -5 19 -12 14 -43 -3 -20 -6 -46 -6 -59 0
-13 -4 -21 -9 -18 -5 4 -12 -7 -16 -23 -9 -43 -32 -47 -27 -5 3 21 0 34 -7 34
-6 0 -11 -11 -11 -25 0 -14 -7 -28 -15 -31 -20 -8 -19 -24 1 -24 8 0 13 -4 9
-9 -3 -5 5 -12 17 -14 13 -3 5 -5 -17 -5 -64 1 -65 1 -60 -34 l5 -33 -17 35
c-23 47 -23 183 0 225 9 17 21 43 28 58 10 25 13 27 26 14 8 -8 16 -26 16 -40z
m704 5 c-24 -28 -29 -58 -11 -72 8 -8 26 -34 39 -59 27 -54 120 -146 188 -185
78 -46 53 -39 -51 14 -136 70 -176 111 -186 193 -2 19 -9 44 -15 56 -9 16 -8
27 5 48 10 17 0 10 -24 -17 -28 -31 -41 -40 -42 -28 0 9 17 32 37 52 30 28 41
33 56 24 17 -8 17 -11 4 -26z m256 -205 c4 3 13 1 20 -5 8 -7 17 -9 20 -5 4 3
7 2 7 -3 0 -6 19 -21 43 -34 23 -13 78 -49 122 -80 105 -74 114 -79 90 -49
-11 13 4 2 33 -26 39 -37 57 -63 67 -99 8 -27 13 -52 10 -54 -10 -11 -55 22
-55 40 0 11 -5 28 -10 38 -13 25 -138 129 -182 153 l-33 18 30 -23 c71 -56
107 -95 110 -121 l3 -27 -29 21 c-16 11 -27 24 -25 28 6 9 -26 33 -159 122
-99 65 -125 90 -140 138 -7 24 -6 24 32 -7 22 -17 43 -29 46 -25z m-1520 -427
c62 -57 87 -74 71 -47 -5 8 -2 7 9 -2 10 -8 15 -16 13 -19 -3 -2 22 -35 54
-72 64 -71 72 -90 39 -90 -23 0 -109 85 -172 170 -22 30 -54 70 -71 88 -51 55
-10 35 57 -28z m3521 -1351 l-19 -21 34 7 c32 7 34 6 28 -16 -4 -13 -7 -32 -7
-42 0 -10 -11 -22 -25 -27 -14 -5 -25 -12 -25 -15 0 -11 40 2 59 19 10 9 21
13 22 7 2 -5 48 15 101 45 74 42 109 57 152 61 56 6 65 1 45 -27 -9 -13 -10
-12 -5 3 7 21 -27 23 -88 5 -50 -15 -148 -109 -230 -221 -77 -104 -110 -119
-82 -36 19 55 13 62 -15 15 -16 -28 -24 -34 -34 -26 -15 12 -30 -3 -20 -20 4
-6 -7 -10 -25 -10 -33 0 -90 28 -90 43 0 5 8 3 17 -4 15 -12 16 -12 10 3 -5
14 -1 17 16 15 17 -1 22 3 22 20 0 12 12 34 27 50 14 15 43 57 63 92 36 61 68
101 82 101 3 0 -2 -10 -13 -21z m490 -87 c-43 -29 -135 -132 -178 -200 -20
-31 -33 -42 -54 -44 -33 -1 -75 2 -81 7 -2 2 9 28 24 57 26 49 26 52 5 33 -12
-11 -29 -33 -37 -49 -12 -23 -17 -26 -24 -15 -7 11 -10 9 -15 -8 -7 -27 -54
-33 -54 -8 0 8 4 15 8 15 14 0 62 81 55 93 -3 7 -2 9 2 4 5 -4 22 6 39 22 34
33 149 84 127 57 -8 -9 -17 -13 -22 -10 -5 3 -6 -1 -3 -9 3 -10 -10 -22 -40
-37 -25 -12 -46 -23 -46 -25 0 -6 64 17 77 27 6 5 25 11 41 13 34 4 77 26 147
73 27 17 54 32 59 32 6 0 -7 -12 -30 -28z"/>
<path d="M4991 13738 c-16 -52 -20 -92 -26 -253 -5 -128 -15 -257 -30 -390 -2
-16 0 -32 5 -35 4 -3 4 -25 0 -50 -5 -25 -9 -70 -8 -100 l0 -55 10 45 c16 76
27 90 22 30 -3 -37 -1 -48 4 -35 8 17 10 14 15 -20 3 -22 12 -65 19 -95 21
-81 30 -37 13 61 -22 124 -5 249 52 389 32 80 99 210 108 210 2 0 -16 -43 -41
-95 -32 -70 -42 -100 -36 -116 7 -19 11 -15 31 32 13 30 50 107 82 172 54 108
64 148 25 95 -15 -20 -15 -21 -7 -2 6 11 17 26 25 34 29 23 18 38 -31 42 -55
5 -103 -8 -103 -28 0 -7 -10 -22 -22 -34 -15 -14 -18 -20 -7 -20 12 0 12 -2 0
-9 -8 -5 -16 -17 -17 -27 -2 -9 -6 -20 -11 -23 -4 -3 -9 -13 -11 -21 -2 -8
-12 -24 -21 -35 -16 -17 -31 -56 -36 -90 -1 -5 -5 -17 -8 -25 -3 -8 -8 -24
-10 -35 -2 -11 -2 68 1 175 2 107 10 226 18 264 15 75 13 98 -5 44z"/>
<path d="M14015 13489 c-4 -6 8 -40 25 -77 34 -68 68 -104 331 -357 82 -78
124 -127 144 -167 16 -31 32 -55 36 -52 4 2 13 -3 20 -12 10 -12 10 -17 1 -23
-8 -5 -9 -17 -2 -41 6 -19 11 -60 11 -90 1 -30 4 -43 6 -27 5 31 15 34 37 11
22 -22 18 -69 -11 -132 -14 -29 -23 -58 -20 -65 4 -11 19 18 62 116 19 43 22
158 6 200 -17 45 -12 56 8 17 16 -29 19 -31 24 -15 6 22 8 -23 9 -180 l1 -100
14 45 c21 65 11 196 -21 285 -13 39 -33 113 -44 167 -10 53 -28 111 -39 130
-19 33 -254 230 -345 289 -26 17 -61 32 -78 34 -17 2 -44 14 -60 25 -17 12
-30 16 -30 10 0 -6 -4 -9 -9 -6 -5 4 -12 0 -15 -6 -3 -9 -11 -6 -24 10 -23 25
-28 27 -37 11z"/>
<path d="M9305 13375 c-75 -24 -161 -46 -185 -49 -8 0 -17 -3 -20 -6 -3 -3
-39 -20 -80 -38 -289 -121 -305 -130 -308 -156 -4 -30 -9 -31 123 27 44 19
118 47 165 61 47 14 95 32 106 40 38 27 178 96 236 118 56 20 72 29 46 27 -7
-1 -44 -11 -83 -24z"/>
<path d="M12740 13386 c0 -5 31 -43 68 -85 37 -42 83 -95 102 -117 165 -197
262 -303 416 -454 309 -302 533 -447 774 -501 52 -11 139 -31 193 -45 121 -30
187 -31 243 -3 77 37 145 132 115 162 -6 6 -11 21 -11 34 0 23 -1 23 -26 7
-19 -13 -28 -14 -33 -6 -4 6 -17 10 -29 7 -18 -3 -21 0 -18 24 1 15 10 39 20
53 9 14 14 33 10 42 -9 24 -26 -2 -18 -28 4 -12 2 -16 -5 -12 -5 4 -17 -6 -25
-21 -20 -39 -94 -107 -141 -131 -44 -22 -118 -38 -210 -47 -44 -4 -55 -2 -40
5 15 8 10 9 -23 5 -32 -4 -42 -2 -36 6 5 9 2 10 -10 6 -10 -4 -21 -7 -24 -8
-4 0 9 -7 28 -14 65 -25 2 -15 -72 11 -102 37 -173 74 -284 150 -199 135 -351
276 -564 525 -68 79 -129 149 -135 154 -6 6 -30 35 -53 65 -44 59 -212 230
-212 216z"/>
<path d="M12813 12910 c19 -36 70 -153 112 -260 42 -107 143 -332 225 -500
111 -227 165 -351 211 -485 69 -201 70 -221 9 -241 -39 -13 -47 -26 -26 -43
11 -9 29 -9 77 0 35 6 74 12 86 13 18 1 21 5 16 26 -9 36 -40 116 -63 158 -76
143 -386 798 -464 982 -91 212 -169 366 -203 400 -9 8 0 -14 20 -50z"/>
<path d="M13181 12558 c6 -13 30 -54 52 -93 21 -38 50 -90 64 -115 l24 -45
-30 33 c-17 18 -31 39 -31 47 0 8 -18 40 -40 71 -42 60 -55 63 -20 6 11 -18
18 -37 15 -42 -8 -13 128 -281 191 -376 51 -78 173 -204 196 -204 6 0 95 -40
197 -89 202 -96 275 -124 385 -147 107 -22 118 -27 76 -34 -25 -5 -8 -8 65
-14 55 -4 125 -9 156 -12 31 -3 68 0 82 5 20 8 27 7 27 -2 0 -8 3 -8 9 2 13
20 156 10 196 -13 29 -17 30 -17 6 1 -14 10 -51 30 -84 44 -34 16 -54 29 -46
32 8 3 -2 3 -21 0 -28 -4 -32 -2 -20 7 12 9 8 11 -18 6 -18 -3 -31 -2 -28 2 3
5 -39 14 -92 21 -377 49 -600 125 -829 283 -80 56 -223 183 -223 200 0 15 45
3 270 -72 113 -38 249 -78 302 -89 332 -71 608 -10 732 162 24 34 60 77 81 94
20 18 34 37 30 43 -4 6 -14 1 -26 -12 l-20 -23 16 32 c23 48 18 50 -14 7 -50
-69 -84 -95 -178 -139 -109 -51 -126 -55 -309 -62 -164 -6 -252 7 -404 64
-213 79 -564 282 -677 392 -57 55 -82 66 -62 29z"/>
<path d="M13740 11401 c0 -21 122 -43 400 -71 331 -33 438 -63 523 -147 78
-76 91 -101 218 -430 23 -62 45 -111 47 -108 2 2 -7 39 -21 82 -14 43 -40 129
-57 192 -39 142 -97 260 -121 246 -5 -4 -6 2 -2 11 4 11 2 15 -4 11 -5 -3 -23
7 -39 24 -39 42 -130 86 -223 110 -42 11 -166 28 -276 39 -252 25 -382 39
-417 46 -16 3 -28 1 -28 -5z"/>
<path d="M15109 10313 c-53 -132 -148 -276 -201 -304 -16 -9 -19 -8 -12 2 4 7
-6 3 -23 -9 -34 -24 -93 -88 -93 -101 0 -4 -11 -13 -24 -19 -28 -13 -57 -56
-31 -46 16 6 19 -4 9 -30 -3 -9 -15 -16 -26 -16 -12 0 -17 4 -12 13 4 6 -1 5
-10 -4 -22 -21 -79 -13 -72 10 30 104 29 102 83 137 48 31 77 68 67 86 -6 9
-68 -9 -136 -39 -48 -21 -61 -33 -81 -72 -14 -26 -31 -66 -38 -89 -12 -43 -35
-61 -25 -19 l6 22 -12 -23 c-11 -22 -14 -23 -107 -16 -53 4 -98 8 -100 10 -2
2 4 22 13 46 l16 43 -29 -35 c-17 -19 -31 -38 -31 -42 0 -5 -12 -8 -26 -8
l-25 0 32 59 c36 70 55 88 98 101 41 12 39 -1 -6 -40 -21 -17 -31 -28 -23 -24
8 4 24 15 35 24 25 22 68 35 165 51 41 7 102 25 135 41 33 15 66 28 73 28 7 0
12 8 10 18 -1 9 1 22 5 29 5 7 -1 17 -15 24 -21 11 -22 11 -9 -4 20 -25 4 -21
-34 9 -32 24 -35 25 -64 10 -16 -9 -33 -21 -36 -27 -4 -6 -22 -8 -44 -4 -49 8
-215 -28 -256 -57 -37 -25 -61 -58 -108 -153 l-36 -70 -95 3 -96 3 6 25 7 25
-28 -25 c-32 -30 -60 -33 -69 -9 -6 14 -9 15 -16 3 -7 -11 -15 -7 -39 19 -17
18 -31 30 -31 27 0 -9 -37 30 -43 45 -3 8 -6 4 -6 -10 -1 -28 50 -80 104 -105
49 -23 237 -42 291 -30 28 7 53 6 89 -4 46 -13 207 -21 476 -23 115 -1 173 19
203 71 10 18 13 30 6 25 -9 -6 -10 -3 -1 14 7 11 14 21 17 21 3 0 2 -4 -1 -10
-3 -5 -4 -10 -2 -10 2 0 17 18 31 41 15 22 57 75 94 117 36 41 60 72 54 68
-13 -8 -17 6 -5 18 4 4 8 13 8 19 1 7 14 39 29 72 25 53 42 125 30 125 -3 0
-9 -12 -15 -27z"/>
<path d="M3150 10283 c43 -8 47 -23 6 -23 -28 0 -45 -7 -67 -29 -16 -16 -29
-35 -30 -43 0 -7 -25 -34 -55 -60 -30 -27 -49 -48 -43 -48 5 0 22 14 36 31 22
26 28 28 35 15 5 -9 6 -21 3 -26 -4 -6 20 -11 62 -12 37 0 73 -2 78 -3 6 -2
33 -3 60 -4 39 -1 46 -4 32 -12 -9 -5 -22 -7 -28 -3 -8 4 -8 0 0 -15 7 -12 8
-21 2 -21 -5 0 -11 5 -13 12 -3 7 -10 8 -17 4 -9 -6 -7 -11 11 -20 33 -17 34
-42 1 -61 -15 -9 -19 -13 -8 -9 46 16 124 21 191 11 40 -5 83 -7 98 -3 33 8
43 45 26 97 -12 36 -16 40 -44 37 -27 -3 -31 0 -34 25 -2 16 2 35 9 43 9 11 7
14 -14 14 -27 0 -52 23 -42 40 3 5 -1 10 -10 10 -9 0 -13 5 -10 11 4 5 -1 19
-11 30 -15 17 -30 19 -133 18 -64 -1 -105 -4 -91 -6z"/>
<path d="M3040 10046 c-25 -6 -67 -24 -94 -39 -60 -33 -62 -33 -42 1 10 15 -8
0 -38 -33 -31 -33 -73 -94 -95 -135 -39 -75 -39 -75 -77 -73 l-39 2 30 -17
c29 -16 50 -17 245 -9 14 0 34 -3 45 -7 l20 -8 -20 13 c-30 18 -36 31 -29 64
9 42 73 179 80 172 3 -3 15 2 25 12 11 10 44 26 74 36 29 10 52 22 49 27 -7
12 -82 9 -134 -6z"/>
<path d="M2730 9400 c-13 -8 -13 -11 -1 -19 8 -5 10 -14 6 -22 -5 -8 -5 -11
-1 -7 11 9 118 -211 110 -224 -5 -7 -2 -8 6 -3 10 6 12 4 7 -9 -5 -11 -3 -15
5 -10 8 5 9 2 5 -10 -5 -11 -3 -15 5 -10 8 5 9 2 5 -10 -5 -11 -3 -15 5 -10 8
5 9 2 5 -10 -5 -11 -3 -15 5 -10 8 5 9 2 5 -10 -5 -11 -3 -15 5 -10 8 5 9 2 5
-10 -5 -11 -3 -15 5 -10 8 5 9 2 5 -10 -5 -11 -3 -15 5 -10 8 5 9 2 5 -10 -5
-11 -3 -15 5 -10 8 5 9 2 5 -10 -5 -11 -3 -15 5 -10 8 5 9 2 5 -10 -5 -11 -3
-15 5 -10 8 5 9 2 5 -10 -4 -9 -3 -15 2 -12 12 8 23 -22 14 -37 -3 -7 -3 -9 2
-5 10 9 197 -371 189 -384 -5 -7 -2 -8 6 -3 10 6 12 4 7 -9 -5 -11 -3 -15 5
-10 8 5 9 2 5 -10 -5 -11 -3 -15 5 -10 8 5 9 2 5 -10 -5 -11 -3 -15 5 -10 8 5
9 2 5 -10 -5 -11 -3 -15 5 -10 8 5 9 2 5 -10 -5 -11 -3 -15 5 -10 8 5 9 2 5
-10 -5 -11 -3 -15 5 -10 8 5 9 2 5 -10 -5 -11 -3 -15 5 -10 8 5 9 2 5 -10 -5
-11 -3 -15 5 -10 8 5 9 2 5 -10 -4 -9 -3 -15 2 -12 11 7 23 -22 14 -36 -4 -7
-1 -8 7 -3 10 6 12 4 6 -11 -4 -10 -4 -15 0 -11 10 9 205 -393 197 -406 -4 -6
-1 -7 7 -2 10 6 12 4 7 -9 -5 -11 -3 -15 5 -10 8 5 9 2 5 -10 -5 -11 -3 -15 5
-10 8 5 9 2 5 -10 -5 -11 -3 -15 5 -10 8 5 9 2 5 -10 -5 -11 -3 -15 5 -10 8 5
9 2 5 -10 -5 -11 -3 -15 5 -10 8 5 9 2 5 -10 -5 -11 -3 -15 5 -10 8 5 9 2 5
-10 -5 -11 -3 -15 5 -10 8 5 9 2 5 -10 -5 -11 -3 -15 5 -10 8 5 9 2 5 -10 -5
-11 -3 -15 5 -10 8 5 9 2 5 -10 -5 -11 -3 -15 5 -10 8 5 9 2 5 -10 -5 -11 -3
-15 5 -10 8 5 9 2 5 -10 -5 -11 -3 -15 5 -10 8 5 9 2 5 -9 -3 -10 -2 -17 4
-17 6 0 7 -4 4 -10 -3 -5 -1 -10 5 -10 6 0 8 -4 5 -10 -3 -5 -1 -10 5 -10 6 0
8 -4 5 -10 -3 -5 -1 -10 5 -10 6 0 9 -4 6 -9 -4 -5 -2 -11 3 -13 15 -6 152
-288 145 -300 -5 -7 -2 -8 6 -3 10 6 12 4 7 -9 -5 -11 -3 -15 5 -10 8 5 9 2 5
-10 -5 -11 -3 -15 5 -10 8 5 9 2 5 -10 -5 -11 -3 -15 5 -10 8 5 9 2 5 -10 -5
-11 -3 -15 5 -10 8 5 9 2 5 -10 -5 -11 -3 -15 5 -10 8 5 9 2 5 -10 -5 -11 -3
-15 5 -10 8 5 9 2 5 -10 -5 -11 -3 -15 5 -10 8 5 9 2 5 -10 -5 -11 -3 -15 5
-10 8 5 9 2 5 -10 -5 -11 -3 -15 5 -10 8 5 9 2 5 -10 -5 -11 -3 -15 5 -10 8 5
9 2 5 -10 -5 -11 -3 -15 5 -10 8 5 9 2 5 -10 -5 -11 -3 -15 5 -10 8 5 9 2 5
-10 -5 -11 -3 -15 5 -10 7 5 9 2 6 -7 -3 -8 6 -25 19 -39 27 -28 -26 81 -731
1513 -267 543 -486 992 -486 998 0 6 6 7 13 3 8 -5 8 -2 -2 9 -7 9 -14 17 -15
17 0 0 -8 -5 -16 -10z"/>
<path d="M12340 9384 c0 -17 4 -23 12 -18 7 5 9 2 5 -9 -3 -9 -2 -17 2 -19 16
-6 162 -309 155 -320 -5 -7 -2 -8 6 -3 10 6 12 4 7 -9 -5 -11 -3 -15 5 -10 8
5 9 2 5 -10 -5 -11 -3 -15 5 -10 8 5 9 2 5 -10 -5 -11 -3 -15 5 -10 8 5 9 2 5
-10 -5 -11 -3 -15 5 -10 8 5 9 2 5 -10 -5 -11 -3 -15 5 -10 8 5 9 2 5 -10 -5
-11 -3 -15 5 -10 8 5 9 2 5 -10 -5 -11 -3 -15 5 -10 8 5 9 2 5 -10 -5 -11 -3
-15 5 -10 8 5 9 2 5 -10 -5 -11 -3 -15 5 -10 7 5 9 2 5 -9 -3 -9 -2 -17 3 -19
15 -5 211 -409 204 -420 -5 -7 -2 -8 6 -3 10 6 12 4 7 -9 -5 -11 -3 -15 5 -10
8 5 9 2 5 -10 -5 -11 -3 -15 5 -10 8 5 9 2 5 -10 -5 -11 -3 -15 5 -10 8 5 9 2
5 -10 -5 -11 -3 -15 5 -10 8 5 9 2 5 -10 -5 -11 -3 -15 5 -10 8 5 9 2 5 -10
-5 -11 -3 -15 5 -10 8 5 9 2 5 -10 -5 -11 -3 -15 5 -10 8 5 9 1 4 -12 -4 -10
-4 -15 0 -11 10 10 245 -473 237 -486 -4 -6 -1 -7 7 -2 10 6 12 4 7 -9 -5 -11
-3 -15 5 -10 8 5 9 2 5 -10 -5 -11 -3 -15 5 -10 8 5 9 2 5 -10 -5 -11 -3 -15
5 -10 8 5 9 2 5 -10 -5 -11 -3 -15 5 -10 8 5 9 2 5 -10 -5 -11 -3 -15 5 -10 8
5 9 2 5 -10 -5 -11 -3 -15 5 -10 8 5 9 2 5 -10 -5 -11 -3 -15 5 -10 8 5 9 1 4
-12 -4 -10 -4 -15 0 -11 10 10 245 -473 237 -486 -4 -6 -1 -7 7 -2 10 6 12 4
7 -9 -5 -11 -3 -15 5 -10 8 5 9 2 5 -10 -5 -11 -3 -15 5 -10 8 5 9 2 5 -10 -5
-11 -3 -15 5 -10 8 5 9 2 5 -10 -5 -11 -3 -15 5 -10 8 5 9 2 5 -10 -5 -11 -3
-15 5 -10 8 5 9 2 5 -10 -5 -11 -3 -15 5 -10 8 5 9 2 5 -10 -5 -11 -3 -15 5
-10 8 5 9 2 5 -10 -4 -9 -3 -15 2 -12 5 3 14 -8 21 -24 7 -17 17 -33 22 -36 5
-3 -2 16 -15 42 -40 80 -939 1906 -1083 2203 -74 150 -134 279 -134 287 0 8
-4 14 -10 14 -5 0 -10 -12 -10 -26z"/>
<path d="M12092 9370 c-12 -5 -30 -23 -40 -40 -9 -16 -20 -30 -24 -30 -4 0 -5
-7 -2 -15 4 -8 1 -15 -5 -15 -7 0 -9 -9 -5 -25 4 -16 2 -25 -6 -25 -8 0 -9
-10 -5 -30 4 -18 3 -30 -4 -30 -6 0 -10 -12 -10 -27 0 -16 -2 -41 -6 -58 -3
-16 -21 -147 -41 -290 -65 -483 -438 -2964 -455 -3027 -5 -20 -15 -40 -21 -44
-7 -5 -8 -2 -3 7 8 12 6 12 -8 0 -18 -15 -23 -26 -7 -16 6 3 10 2 10 -3 0 -6
-7 -12 -15 -16 -8 -3 -15 -10 -15 -16 0 -5 7 -10 15 -10 23 0 18 -20 -7 -29
-14 -5 -17 -10 -10 -15 24 -14 11 -25 -58 -47 -86 -28 -85 -36 1 -14 95 25
216 73 247 100 16 13 35 23 43 22 7 -1 15 2 16 7 1 5 6 12 11 15 5 3 15 71 21
151 27 356 280 2105 308 2130 7 6 2 -29 -36 -275 -69 -436 -121 -847 -111
-861 18 -20 -16 -424 -70 -844 -5 -41 -11 -104 -14 -140 -2 -36 -5 -69 -5 -74
-1 -4 -10 -6 -21 -3 -12 3 -20 0 -20 -8 0 -8 7 -11 18 -8 13 3 19 -1 19 -14 0
-10 -5 -21 -10 -25 -15 -9 37 -92 73 -118 26 -19 33 -20 47 -8 9 7 18 11 20
10 3 -2 13 5 23 16 16 17 17 21 4 26 -9 3 -12 1 -9 -4 3 -6 4 -10 1 -10 -3 0
-14 17 -25 38 -30 59 -34 141 -17 311 9 84 14 162 10 173 -4 12 -2 18 4 14 10
-6 27 128 18 143 -4 5 -2 11 2 13 5 1 21 95 36 208 82 607 127 968 123 992 -2
15 1 24 6 21 5 -3 8 13 6 40 -2 25 -1 43 2 41 3 -1 11 47 18 109 11 96 20 152
34 215 2 7 9 18 15 24 22 22 12 155 -10 142 -6 -4 -8 1 -4 12 3 11 1 26 -4 34
-8 12 -17 8 -50 -27 -22 -23 -40 -39 -40 -34 0 8 85 90 167 163 l43 38 -40
302 c-22 167 -52 389 -66 493 -15 105 -27 199 -28 210 -1 11 -5 26 -10 34 -5
8 -4 16 5 22 18 11 1 10 -29 -1z"/>
<path d="M2445 9345 c-8 -14 -21 -36 -29 -49 -19 -31 -28 -84 -76 -446 -41
-311 -102 -721 -325 -2195 -69 -456 -126 -845 -128 -862 -1 -18 -5 -33 -9 -33
-5 0 -8 -5 -8 -11 0 -6 -9 -23 -21 -37 -15 -19 -17 -28 -8 -31 7 -2 22 -13 34
-24 20 -19 20 -19 -15 -12 -19 3 -44 9 -55 12 -17 5 -18 4 -6 -11 11 -13 11
-19 0 -33 -12 -16 -11 -15 8 0 20 18 43 16 43 -2 0 -4 -44 -23 -97 -41 -81
-28 -113 -34 -185 -35 l-88 0 0 -28 0 -28 605 3 605 3 0 21 c0 19 -7 22 -92
28 -140 9 -236 8 -240 -5 -2 -6 -17 -11 -33 -10 -17 1 -38 2 -47 2 -10 0 -18
5 -18 10 0 6 -4 7 -10 4 -5 -3 -10 -1 -10 5 0 6 -4 9 -8 6 -5 -3 -14 4 -22 14
-8 10 -17 17 -22 14 -4 -3 -8 2 -8 11 0 10 -5 13 -12 9 -7 -4 -10 -4 -6 0 3 4
-4 23 -17 42 -42 61 -48 98 -42 233 11 257 272 2090 294 2068 2 -3 -3 -42 -11
-88 -18 -96 -91 -613 -136 -954 -16 -126 -33 -247 -36 -269 -4 -26 -3 -36 4
-32 6 4 9 13 5 21 -3 8 0 15 7 15 8 0 11 -9 8 -25 -3 -14 -1 -25 4 -25 5 0 6
-4 3 -10 -3 -5 -8 -42 -10 -82 -4 -95 -12 -170 -36 -357 -12 -94 -19 -205 -18
-284 1 -82 -3 -133 -10 -140 -8 -8 -11 -7 -11 3 0 7 -3 11 -6 8 -8 -9 14 -49
49 -85 29 -31 56 -45 42 -23 -3 5 6 17 20 26 19 13 23 20 14 30 -6 7 -7 19 -3
25 4 7 3 10 -2 7 -5 -4 -10 28 -11 70 -2 43 -5 104 -7 137 -4 45 -3 54 4 35 7
-18 9 -4 5 50 -3 52 -1 69 6 55 6 -14 8 -2 4 40 -3 44 -2 55 5 40 7 -15 9 -4
5 40 -3 44 -2 55 5 40 8 -15 9 -5 5 35 -4 41 -3 51 6 40 8 -11 9 -1 5 40 -5
41 -4 51 4 40 9 -11 10 -3 5 35 -4 38 -3 46 5 35 9 -12 11 -7 6 23 -3 23 -1
37 6 37 7 0 9 15 5 40 -3 24 -1 40 5 40 7 0 8 17 4 48 -4 35 -3 43 5 32 8 -11
9 -3 6 32 -3 31 -1 45 6 41 7 -4 8 10 4 43 -5 36 -4 45 4 34 8 -11 9 -3 5 33
-4 35 -3 46 6 41 8 -5 9 5 4 35 -5 31 -3 41 5 35 9 -5 11 5 7 39 -4 31 -2 44
5 40 6 -4 8 10 5 40 -4 31 -2 44 5 40 7 -4 8 10 4 41 -5 34 -4 45 5 40 8 -5 9
7 6 41 -4 32 -3 43 4 34 6 -10 8 0 5 29 -3 24 0 42 6 42 5 0 7 15 4 35 -3 20
-1 37 5 41 6 4 8 26 4 58 -5 38 -4 47 4 36 8 -11 10 -1 5 40 -5 42 -3 51 5 40
9 -11 10 -1 6 45 -4 43 -3 54 4 40 7 -15 9 -4 5 40 -3 44 -2 55 5 40 7 -15 9
-4 5 40 -3 43 -2 54 5 40 7 -15 8 -6 4 31 -4 35 -1 63 10 89 17 40 22 140 7
130 -5 -3 -11 7 -13 22 -4 37 -40 43 -62 11 -9 -12 -16 -18 -16 -12 0 19 90
111 153 158 l63 46 -13 98 c-8 53 -38 289 -67 523 -30 235 -57 432 -60 438
-12 19 -45 12 -61 -14z"/>
<path d="M5410 9355 c-7 -8 -17 -12 -23 -8 -6 3 -7 1 -3 -5 4 -6 -2 -20 -14
-32 -11 -11 -19 -23 -18 -26 3 -11 -26 -74 -34 -74 -5 0 -6 -4 -3 -10 3 -5 1
-10 -5 -10 -6 0 -8 -4 -5 -10 3 -5 1 -10 -5 -10 -6 0 -8 -4 -5 -10 3 -5 1 -10
-5 -10 -6 0 -8 -4 -5 -10 3 -5 1 -10 -5 -10 -6 0 -8 -4 -5 -10 3 -5 2 -10 -2
-10 -8 0 -33 -55 -32 -73 0 -4 -7 -15 -16 -23 -8 -9 -13 -20 -10 -25 4 -5 1
-9 -5 -9 -6 0 -8 -4 -5 -10 3 -5 1 -10 -5 -10 -6 0 -8 -4 -5 -10 3 -5 1 -10
-5 -10 -6 0 -8 -4 -5 -10 3 -5 1 -10 -5 -10 -6 0 -8 -4 -5 -10 3 -5 1 -10 -5
-10 -6 0 -8 -4 -5 -10 3 -5 2 -10 -2 -10 -9 0 -39 -69 -35 -82 1 -5 -3 -8 -9
-8 -5 0 -7 -4 -4 -10 3 -5 1 -10 -5 -10 -6 0 -8 -4 -5 -10 3 -5 1 -10 -6 -10
-7 0 -10 -3 -6 -6 3 -4 -1 -13 -9 -21 -8 -8 -12 -19 -9 -24 4 -5 1 -9 -5 -9
-6 0 -9 -4 -6 -9 4 -5 1 -11 -4 -13 -6 -2 -12 -10 -14 -18 -1 -8 -7 -25 -14
-36 -6 -12 -8 -24 -5 -28 3 -3 0 -6 -7 -6 -7 0 -11 -3 -7 -6 3 -4 -1 -13 -9
-21 -8 -8 -12 -19 -9 -24 4 -5 1 -9 -5 -9 -6 0 -8 -4 -5 -10 3 -5 1 -10 -5
-10 -6 0 -8 -4 -5 -10 3 -5 1 -10 -5 -10 -6 0 -8 -4 -5 -10 3 -5 1 -10 -5 -10
-6 0 -8 -4 -5 -10 3 -5 1 -10 -4 -10 -6 0 -10 -3 -9 -7 1 -5 -10 -31 -25 -59
-14 -28 -23 -54 -20 -58 4 -3 1 -6 -6 -6 -7 0 -9 -4 -6 -10 3 -5 1 -10 -5 -10
-6 0 -8 -4 -5 -10 3 -5 1 -10 -5 -10 -6 0 -8 -4 -5 -10 3 -5 1 -10 -5 -10 -6
0 -8 -4 -5 -10 3 -5 1 -10 -4 -10 -6 0 -10 -3 -9 -7 1 -5 -3 -18 -10 -29 -6
-12 -8 -24 -5 -28 3 -3 1 -6 -6 -6 -7 0 -9 -4 -6 -10 3 -5 1 -10 -5 -10 -6 0
-8 -4 -5 -10 3 -5 1 -10 -5 -10 -6 0 -8 -4 -5 -10 3 -5 1 -10 -5 -10 -6 0 -8
-4 -5 -10 3 -5 1 -10 -5 -10 -6 0 -8 -4 -5 -10 3 -5 1 -10 -5 -10 -6 0 -8 -4
-5 -10 3 -5 1 -10 -5 -10 -6 0 -8 -4 -5 -10 3 -5 1 -10 -4 -10 -6 0 -11 -11
-11 -25 0 -14 -5 -25 -11 -25 -5 0 -7 -4 -4 -10 3 -5 1 -10 -5 -10 -6 0 -8 -4
-5 -10 3 -5 1 -10 -5 -10 -6 0 -8 -4 -5 -10 3 -5 1 -10 -5 -10 -6 0 -8 -4 -5
-10 3 -5 1 -10 -5 -10 -6 0 -8 -4 -5 -10 3 -5 1 -10 -5 -10 -6 0 -8 -4 -5 -10
3 -5 2 -10 -4 -10 -6 0 -8 -6 -5 -14 3 -7 -2 -20 -10 -29 -8 -8 -12 -17 -9
-21 4 -3 1 -6 -6 -6 -7 0 -9 -4 -6 -10 3 -5 1 -10 -5 -10 -6 0 -8 -4 -5 -10 3
-5 1 -10 -5 -10 -6 0 -8 -4 -5 -10 3 -5 1 -10 -5 -10 -6 0 -8 -4 -5 -10 3 -5
2 -10 -4 -10 -6 0 -7 -7 -4 -17 4 -11 3 -14 -5 -9 -8 4 -10 2 -6 -7 3 -8 -1
-21 -8 -28 -7 -8 -14 -21 -16 -29 -2 -8 -8 -17 -13 -18 -5 -2 -7 -8 -3 -13 3
-5 0 -9 -6 -9 -6 0 -9 -4 -6 -9 9 -14 -5 -42 -17 -34 -5 3 -7 1 -3 -5 7 -12
-23 -82 -36 -82 -5 0 -7 -4 -4 -9 8 -13 -4 -42 -15 -35 -5 3 -6 -3 -2 -12 5
-13 3 -15 -7 -9 -8 5 -11 4 -6 -3 7 -12 -23 -82 -36 -82 -5 0 -7 -4 -4 -9 8
-13 -4 -42 -15 -35 -5 3 -6 -3 -2 -12 5 -13 3 -15 -7 -9 -8 5 -11 4 -7 -2 9
-14 -27 -95 -37 -86 -4 4 -4 -1 0 -11 5 -13 4 -17 -4 -12 -8 5 -10 1 -5 -10 5
-13 3 -15 -7 -9 -8 5 -11 4 -7 -2 9 -14 -33 -114 -44 -107 -5 3 -6 -3 -2 -12
4 -12 3 -15 -5 -10 -8 4 -10 2 -6 -8 3 -8 -4 -33 -16 -55 -11 -23 -17 -47 -13
-54 4 -7 -2 -5 -12 3 -17 14 -18 14 -7 -7 10 -18 9 -31 -6 -70 -10 -26 -34
-98 -52 -160 -33 -112 -41 -125 -110 -183 -37 -31 -50 -37 -50 -20 0 6 4 10 9
10 15 0 71 51 66 60 -8 13 6 40 20 40 7 0 15 8 19 18 3 9 9 24 12 32 4 8 -1 6
-11 -5 -14 -17 -16 -17 -11 -2 17 49 14 46 -20 -23 -47 -97 -60 -111 -93 -104
-39 10 -72 44 -65 67 4 12 2 17 -4 13 -6 -4 -15 1 -20 10 -6 10 -9 -18 -8 -80
0 -53 4 -96 9 -96 4 0 5 -5 2 -10 -4 -6 -1 -17 5 -25 7 -8 10 -29 7 -47 -2
-18 -1 -43 4 -55 6 -15 4 -23 -8 -27 -9 -4 -13 -9 -10 -12 12 -12 123 67 154
108 79 108 222 383 623 1202 72 147 133 266 136 264 6 -6 -341 -724 -499
-1032 -137 -267 -221 -409 -280 -473 -21 -23 -73 -60 -116 -82 -44 -23 -81
-47 -84 -55 -3 -8 -4 -57 -2 -108 3 -51 7 -160 10 -241 3 -82 9 -156 14 -165
13 -22 69 -24 67 -3 -1 9 4 15 11 14 8 -2 10 4 6 14 -4 11 -3 14 5 9 8 -5 10
-1 5 10 -4 12 -3 15 5 10 8 -5 10 -1 5 10 -4 12 -3 15 5 10 8 -5 10 -1 5 10
-4 12 -3 15 5 10 8 -5 10 -1 5 10 -4 12 -3 15 5 10 8 -5 10 -1 5 10 -5 13 -3
15 7 9 9 -5 11 -4 6 4 -10 15 13 73 25 65 5 -3 6 3 2 12 -5 13 -3 15 7 9 9 -5
11 -4 6 4 -10 15 13 73 25 65 5 -3 6 3 2 12 -4 12 -3 15 5 10 8 -5 10 -1 5 10
-4 12 -3 15 5 10 8 -5 10 -1 5 10 -5 13 -3 15 7 9 9 -5 11 -4 6 4 -10 15 13
73 25 65 5 -3 6 3 2 12 -4 12 -3 15 5 10 8 -5 10 -1 5 10 -4 12 -3 15 5 10 8
-5 10 -1 5 10 -5 13 -3 15 7 9 9 -5 11 -4 6 4 -10 15 13 73 25 65 5 -3 6 3 2
12 -4 12 -3 15 5 10 8 -5 10 -1 5 10 -4 12 -3 15 5 10 8 -5 10 -1 5 10 -4 12
-3 15 5 10 8 -5 10 -1 5 10 -5 13 -3 15 7 9 8 -5 11 -4 7 3 -10 15 3 43 16 35
6 -4 8 0 4 10 -8 21 2 49 14 41 5 -3 6 3 2 12 -4 12 -3 15 5 10 8 -5 10 -1 5
10 -4 12 -3 15 5 10 8 -5 10 -1 5 10 -4 12 -3 15 5 10 8 -5 10 -1 5 10 -5 13
-3 15 7 9 9 -6 11 -4 5 4 -9 15 24 93 36 85 5 -3 6 3 2 12 -4 12 -3 15 5 10 8
-5 10 -1 5 10 -4 12 -3 15 5 10 8 -5 10 -1 5 10 -4 12 -3 15 5 10 8 -5 10 -1
5 10 -5 13 -3 15 7 9 9 -5 11 -4 6 4 -10 15 13 73 25 65 5 -3 6 3 2 12 -4 12
-3 15 5 10 8 -5 10 -1 5 10 -5 13 -3 15 7 9 8 -5 11 -4 6 3 -7 12 15 92 26 92
5 0 8 -5 8 -12 0 -6 3 -9 6 -6 3 3 1 15 -5 27 -6 12 -16 31 -23 44 -10 20 -10
21 7 7 16 -14 17 -13 11 7 -4 12 -2 24 4 28 5 3 10 -1 10 -9 0 -9 4 -16 8 -16
7 0 12 24 15 68 0 7 6 11 13 8 26 -10 23 8 -3 20 -28 13 -28 13 -3 11 16 -1
25 3 26 13 1 8 3 20 4 25 6 21 8 31 9 48 0 9 6 17 12 17 5 0 8 -4 4 -9 -3 -5
0 -13 6 -17 9 -5 10 2 5 27 -5 28 -4 31 6 16 12 -15 16 -10 42 43 17 32 33 57
38 54 4 -3 5 3 1 12 -4 12 -3 15 5 10 8 -5 10 -1 5 10 -4 12 -3 15 5 10 8 -5
10 -1 5 10 -5 13 -3 15 7 9 8 -5 11 -4 7 3 -9 13 2 44 13 37 9 -6 23 25 15 33
-3 3 -5 -1 -5 -8 0 -7 -2 -11 -5 -8 -9 8 17 58 26 52 5 -3 6 3 2 12 -4 12 -3
15 5 10 8 -5 10 -1 5 10 -4 12 -3 15 5 10 8 -5 10 -1 5 10 -4 12 -3 15 5 10 8
-5 10 -1 5 10 -5 13 -3 15 7 9 8 -5 11 -4 7 3 -9 14 3 43 14 36 5 -3 10 1 10
8 1 7 3 20 4 28 1 8 3 21 4 28 0 7 5 11 10 7 9 -5 27 32 23 48 -1 4 3 7 9 7 5
0 7 5 4 10 -3 6 -2 10 4 10 10 0 27 38 23 53 -1 4 2 7 8 7 5 0 7 8 3 18 -3 9
-2 14 2 9 8 -7 77 125 78 151 0 6 4 12 9 12 5 0 6 5 3 10 -3 6 1 13 9 16 9 3
13 10 11 15 -9 13 26 60 38 52 6 -4 7 -1 2 7 -5 8 0 19 13 29 17 13 18 20 10
41 -6 14 -12 32 -13 40 -1 8 -6 27 -10 43 -5 19 -3 27 6 27 7 0 9 3 6 7 -4 3
-1 13 5 22 7 9 0 5 -15 -8 -26 -24 -27 -24 -27 -3 0 33 78 89 185 132 108 45
112 46 96 26 -9 -11 -9 -15 1 -19 8 -3 -6 -23 -40 -56 -34 -34 -68 -83 -100
-144 -53 -105 -60 -120 -38 -93 9 11 18 17 21 14 3 -3 -4 -17 -16 -31 -11 -15
-17 -32 -13 -38 3 -6 2 -14 -4 -18 -6 -4 13 -159 54 -441 35 -239 66 -457 69
-485 11 -99 113 -769 114 -748 1 12 -8 84 -19 160 -25 168 -70 555 -70 601 0
19 10 47 23 65 21 28 39 69 88 197 8 19 14 37 15 40 0 3 5 16 11 30 6 14 14
41 19 60 10 44 9 42 19 64 7 16 3 147 -10 351 -5 88 -51 321 -81 417 l-27 83
17 175 c32 339 77 740 87 792 6 29 11 59 12 67 3 20 -18 24 -33 6z"/>
<path d="M15002 9333 c-10 -16 -43 -79 -72 -140 -29 -62 -57 -113 -62 -113 -5
0 -7 -4 -4 -9 9 -14 -5 -42 -17 -34 -6 3 -7 1 -3 -5 7 -12 -60 -155 -75 -160
-5 -2 -7 -8 -3 -13 3 -5 0 -9 -6 -9 -6 0 -8 -4 -5 -10 3 -5 2 -10 -4 -10 -6 0
-7 -7 -4 -17 5 -12 3 -14 -7 -8 -8 5 -11 4 -6 -3 7 -12 -50 -135 -65 -140 -5
-2 -7 -8 -3 -13 3 -5 0 -9 -6 -9 -6 0 -8 -4 -5 -10 3 -5 1 -10 -5 -10 -6 0 -8
-4 -5 -10 3 -5 2 -10 -4 -10 -6 0 -7 -7 -4 -17 5 -12 3 -14 -7 -8 -8 5 -11 4
-6 -3 7 -12 -50 -135 -65 -140 -5 -2 -7 -8 -3 -13 3 -5 0 -9 -6 -9 -6 0 -8 -4
-5 -10 3 -5 2 -10 -4 -10 -6 0 -7 -7 -4 -17 5 -12 3 -14 -7 -8 -8 5 -11 4 -6
-3 7 -12 -40 -115 -55 -120 -5 -2 -7 -8 -3 -13 3 -5 0 -9 -6 -9 -6 0 -8 -4 -5
-10 3 -5 1 -10 -5 -10 -6 0 -8 -4 -5 -10 3 -5 1 -10 -5 -10 -6 0 -8 -4 -5 -10
3 -5 1 -10 -5 -10 -6 0 -9 -4 -5 -9 7 -12 -35 -101 -48 -101 -4 0 -5 -4 -2
-10 3 -5 1 -10 -5 -10 -6 0 -8 -4 -5 -10 3 -5 1 -10 -5 -10 -6 0 -8 -4 -5 -10
3 -5 2 -10 -4 -10 -6 0 -7 -7 -4 -17 5 -12 3 -14 -7 -8 -8 5 -11 4 -6 -3 7
-12 -33 -102 -47 -102 -4 0 -5 -4 -2 -10 3 -5 1 -10 -5 -10 -6 0 -9 -4 -6 -9
9 -14 -5 -42 -17 -34 -5 3 -7 1 -3 -5 7 -12 -33 -102 -47 -102 -4 0 -5 -4 -2
-10 3 -5 1 -10 -5 -10 -6 0 -9 -4 -6 -9 9 -14 -5 -42 -17 -34 -5 3 -7 1 -4 -4
9 -14 -47 -136 -57 -126 -4 4 -4 -1 0 -11 6 -15 4 -17 -6 -11 -8 5 -11 4 -7
-2 8 -14 -43 -134 -54 -127 -5 3 -6 -3 -2 -12 5 -13 3 -15 -7 -9 -8 5 -11 4
-6 -3 8 -13 -44 -133 -55 -126 -5 3 -6 -3 -2 -12 5 -13 3 -15 -7 -9 -9 5 -11
4 -6 -3 9 -14 -33 -114 -45 -106 -5 3 -6 -3 -2 -12 4 -12 3 -15 -5 -10 -7 4
-10 2 -7 -7 3 -7 -5 -38 -19 -67 -14 -30 -23 -57 -20 -62 3 -4 0 -8 -6 -8 -6
0 -9 -4 -6 -8 3 -5 0 -26 -5 -48 -11 -37 -78 -216 -84 -222 -7 -8 4 65 14 91
6 16 11 31 11 35 -1 17 -32 -54 -64 -147 -39 -116 -53 -140 -96 -171 -25 -18
-30 -19 -30 -5 0 9 -4 13 -10 10 -5 -3 -10 0 -10 7 0 7 -8 18 -18 25 -11 6
-29 36 -42 67 -12 31 -27 53 -32 50 -6 -4 -8 1 -4 12 3 11 2 25 -2 31 -5 8 -8
-1 -9 -23 -1 -19 -6 -47 -11 -62 -6 -15 -13 -36 -18 -47 -11 -31 -10 -78 3
-104 12 -25 8 -51 -10 -51 -6 0 -8 -3 -4 -6 3 -3 22 6 41 21 51 39 45 13 -11
-47 -30 -32 -41 -49 -28 -44 14 5 11 -2 -14 -28 -20 -21 -31 -39 -26 -48 8
-16 -35 32 -52 58 -7 11 -6 1 3 -21 16 -43 74 -110 83 -97 3 5 22 14 41 22 19
7 65 33 102 56 109 70 138 121 603 1058 177 358 330 660 339 671 42 53 -664
-1371 -761 -1534 -85 -143 -135 -195 -237 -244 l-78 -38 7 -237 c4 -130 11
-245 16 -254 6 -10 6 -18 2 -18 -10 0 19 -20 30 -20 5 0 5 5 2 10 -3 6 -1 10
6 10 6 0 9 -8 6 -19 -3 -13 0 -18 11 -17 8 2 16 13 17 25 1 12 8 27 15 34 10
9 11 9 6 0 -4 -7 -5 -13 -2 -13 10 0 47 81 41 90 -7 11 16 61 25 55 8 -5 126
254 124 272 -1 7 2 11 6 8 10 -6 22 24 14 36 -3 5 -1 9 3 9 14 0 54 90 47 102
-4 6 -2 8 3 5 13 -8 36 50 26 66 -3 5 -2 7 4 4 13 -8 36 41 27 55 -5 7 -2 8 6
3 10 -6 12 -4 6 11 -4 10 -4 15 1 11 10 -10 55 92 46 106 -3 5 -1 7 4 4 13 -8
26 20 16 35 -4 7 -1 8 7 3 10 -6 12 -4 7 9 -4 9 -3 15 2 12 10 -7 24 22 16 34
-7 11 16 61 25 55 9 -5 62 104 55 115 -7 11 16 61 25 55 3 -2 18 21 33 51 28
57 36 86 12 44 -8 -14 -14 -20 -14 -15 0 14 48 102 49 90 1 -12 59 96 59 110
0 6 -6 -1 -14 -15 -8 -14 -14 -20 -14 -15 0 14 48 102 49 90 1 -12 59 96 59
110 0 6 -6 -1 -14 -15 -20 -35 -19 -18 2 24 9 19 21 32 26 29 6 -3 7 -1 4 5
-8 12 2 44 12 37 4 -2 19 21 34 51 28 57 36 86 12 44 -19 -34 -19 -17 0 20 9
17 20 30 26 30 6 0 8 4 4 9 -7 12 15 62 25 56 3 -2 18 21 33 51 31 62 36 86 7
34 -29 -52 -24 -28 7 34 15 30 30 53 33 51 10 -6 51 85 44 97 -4 6 -3 8 3 5 5
-3 21 17 34 46 13 28 39 72 58 97 19 25 26 38 15 30 -18 -14 -18 -14 -5 3 7 9
19 17 26 17 20 0 30 77 14 107 -10 18 -10 33 -2 63 5 22 8 42 5 44 -3 3 -19
-4 -36 -16 l-31 -22 25 28 c14 15 43 38 65 51 52 31 195 86 195 75 0 -5 -6
-11 -12 -13 -8 -3 -6 -6 5 -6 9 -1 17 6 17 14 0 8 3 15 8 15 21 0 89 -288 138
-584 12 -70 21 -100 24 -85 3 13 4 42 3 64 -5 57 -5 55 2 109 3 26 10 57 16
68 8 15 8 19 0 14 -14 -9 -14 0 0 26 8 16 8 19 -1 13 -9 -6 -9 -3 -1 13 6 10
8 30 5 43 -10 44 -12 212 -3 237 8 19 6 23 -5 19 -11 -4 -13 0 -10 19 3 19 1
24 -8 19 -7 -4 -6 -1 2 7 17 15 22 71 5 64 -10 -3 -14 9 -17 52 -1 6 -5 12
-10 12 -4 0 -8 8 -8 19 0 10 -16 39 -36 66 -28 36 -37 58 -40 98 -3 28 -6 52
-8 54 -1 2 -11 -71 -21 -162 -10 -91 -21 -165 -25 -165 -3 0 -5 15 -3 33 21
216 82 814 98 945 6 51 -13 57 -43 15z"/>
<path d="M8754 9331 c5 -8 3 -11 -5 -10 -8 2 -44 -1 -81 -5 -66 -7 -89 -18
-68 -31 6 -4 8 -11 4 -16 -3 -6 4 -13 16 -16 16 -4 21 -12 18 -28 -4 -21 -2
-21 76 -18 167 7 271 16 247 22 -23 6 -23 7 -7 24 10 9 15 17 11 17 -3 0 3 14
15 30 l21 30 -110 0 c-60 0 -117 3 -127 7 -12 4 -15 3 -10 -6z"/>
<path d="M8275 9249 c-16 -5 -38 -7 -48 -5 -10 2 -14 0 -11 -6 5 -7 -2 -9 -19
-6 -16 3 -24 1 -20 -5 4 -6 -2 -8 -15 -5 -14 4 -20 2 -15 -5 4 -6 -2 -8 -15
-5 -12 4 -22 2 -22 -4 0 -6 -6 -8 -14 -5 -8 3 -17 3 -21 -1 -4 -4 -10 -7 -13
-7 -4 -1 -17 -6 -28 -13 -12 -6 -24 -8 -28 -5 -3 3 -6 1 -6 -5 0 -7 -5 -12
-12 -12 -20 0 -210 -100 -298 -157 -109 -71 -228 -165 -310 -244 -36 -35 -68
-62 -72 -61 -5 1 -7 -2 -5 -6 3 -11 -49 -72 -57 -66 -3 2 -4 1 -2 -2 2 -3 -25
-46 -60 -96 -35 -50 -64 -95 -64 -100 0 -5 -4 -7 -8 -4 -5 3 -9 0 -9 -7 -2
-23 -121 -246 -129 -239 -4 4 -4 2 0 -5 6 -12 -26 -107 -34 -99 -3 2 -5 -8 -6
-22 0 -15 -13 -72 -27 -128 -56 -213 -62 -270 -62 -554 1 -292 14 -408 76
-626 16 -58 26 -110 23 -116 -4 -6 -2 -8 4 -4 13 8 26 -29 16 -45 -4 -7 -3 -9
4 -5 13 8 26 -29 16 -45 -5 -8 -3 -9 6 -4 10 6 12 4 7 -9 -5 -11 -3 -15 5 -10
8 5 9 2 5 -10 -5 -11 -3 -15 5 -10 8 5 9 2 5 -10 -5 -11 -3 -15 5 -10 8 5 9 2
5 -10 -5 -11 -3 -15 5 -10 8 5 9 2 5 -10 -5 -11 -3 -15 5 -10 8 5 9 1 4 -12
-4 -10 -4 -15 0 -11 10 10 36 -31 28 -45 -5 -7 -3 -8 6 -3 10 6 12 4 7 -8 -4
-10 -2 -16 6 -14 7 1 11 -6 11 -15 -1 -10 2 -15 7 -12 8 5 13 -9 10 -29 0 -4
5 -6 11 -5 7 2 12 -5 12 -14 -1 -10 2 -16 6 -15 13 3 60 -65 53 -76 -3 -6 -1
-7 4 -4 13 8 44 -25 47 -50 2 -10 7 -18 12 -18 6 0 44 -31 86 -69 120 -107 97
-102 239 -50 l124 45 40 -20 c22 -12 65 -37 95 -56 62 -40 49 -28 -69 64 -110
86 -236 221 -311 332 -311 465 -399 1222 -209 1793 105 313 282 549 567 751
28 20 52 35 52 32 0 -3 -28 -25 -62 -50 -35 -24 -76 -57 -91 -73 -26 -26 -27
-29 -10 -35 30 -12 36 -10 22 8 -11 13 -11 15 -1 9 8 -5 21 -1 33 10 18 16 19
16 13 1 -3 -9 -10 -17 -15 -17 -5 0 -9 -7 -9 -15 0 -8 9 -15 20 -15 11 0 20
-4 20 -9 0 -13 42 -5 51 10 5 8 8 8 13 0 4 -6 3 -11 -2 -11 -5 0 -18 -12 -27
-27 -11 -17 4 -7 38 26 30 29 59 51 65 47 5 -3 15 1 22 9 7 8 9 15 5 15 -4 0
-2 7 5 15 7 9 20 13 29 10 8 -3 12 -3 8 1 -8 8 11 34 25 34 5 0 6 -6 2 -12 -4
-7 -3 -9 1 -5 15 13 15 39 0 33 -10 -3 -12 0 -8 11 4 11 2 14 -5 9 -18 -11
-14 6 7 34 l19 24 24 -19 23 -20 -20 25 c-11 14 -21 26 -22 28 0 2 -12 -2 -25
-8 -19 -10 -21 -10 -11 0 7 7 23 14 35 16 13 1 25 3 28 4 3 1 14 3 25 4 11 0
19 7 17 14 -1 7 2 22 8 32 9 16 8 19 -7 14 -52 -16 58 35 157 73 63 24 100 42
83 39 -19 -3 -33 -1 -33 4 0 6 9 10 21 10 19 0 19 1 4 16 -10 11 -13 20 -7 26
5 5 7 18 5 29 -6 21 -29 23 -78 8z"/>
<path d="M10350 8987 c0 -78 -3 -98 -16 -105 -9 -5 -20 -31 -25 -58 -5 -28
-19 -59 -33 -72 -22 -23 -24 -23 -41 -6 -17 17 -17 16 -10 -27 11 -65 0 -45
-28 51 -13 47 -28 94 -32 105 -5 16 -5 17 4 5 9 -13 11 -13 11 0 0 12 2 13 9
1 5 -7 14 -10 20 -6 14 8 6 40 -20 77 -11 14 -19 33 -19 42 0 20 -14 21 -29 2
-8 -10 -7 -24 4 -55 19 -55 9 -52 -16 5 -13 29 -30 49 -46 55 -14 5 -28 8 -30
5 -3 -2 5 -7 16 -11 13 -4 21 -15 21 -28 0 -16 -3 -18 -9 -9 -5 8 -21 12 -41
10 -35 -3 -67 -35 -75 -76 -2 -12 -7 -27 -11 -34 -4 -7 -3 -8 4 -4 7 4 12 2
12 -5 0 -7 -8 -9 -21 -6 -17 5 -18 3 -8 -9 7 -8 18 -13 25 -10 8 3 13 1 11 -3
-1 -5 17 -23 41 -40 23 -17 42 -36 42 -43 0 -6 -10 -3 -22 8 -13 10 -7 2 11
-19 36 -39 54 -50 30 -19 -8 10 -1 5 14 -10 15 -16 25 -33 22 -39 -4 -5 -1 -8
7 -7 7 2 13 -5 13 -14 0 -9 4 -20 9 -25 5 -4 6 -3 2 4 -3 6 -2 14 4 18 6 3 10
48 10 103 0 66 3 92 10 82 13 -20 13 -227 0 -235 -5 -3 -10 -11 -10 -16 0 -6
7 -4 15 5 8 8 15 19 15 25 0 5 4 12 9 15 4 3 2 -20 -5 -52 -16 -68 -17 -82 -3
-62 7 11 8 4 3 -24 -5 -30 -4 -37 6 -31 8 5 11 4 6 -3 -8 -13 4 -123 13 -117
4 2 5 -12 3 -32 -3 -25 -1 -34 7 -29 6 4 14 1 17 -7 4 -10 19 -14 52 -13 l47
1 7 415 c4 228 5 416 3 419 -3 2 -5 -39 -5 -92z"/>
<path d="M8680 8924 c0 -5 -17 -10 -38 -11 -20 -1 -75 -13 -122 -28 -94 -30
-290 -121 -290 -136 0 -5 -7 -9 -15 -9 -8 0 -15 -4 -15 -10 0 -5 -6 -10 -14
-10 -8 0 -16 -7 -20 -15 -3 -8 -9 -15 -14 -15 -9 0 -162 -150 -153 -150 3 -1
-4 -9 -16 -19 -12 -10 -19 -21 -16 -25 3 -3 -2 -8 -11 -12 -9 -3 -14 -9 -11
-14 2 -4 -4 -16 -15 -27 -10 -12 -16 -24 -13 -27 4 -3 1 -6 -6 -6 -7 0 -9 -4
-6 -10 3 -5 1 -10 -5 -10 -6 0 -8 -4 -5 -10 3 -5 1 -10 -5 -10 -6 0 -8 -4 -5
-10 3 -5 1 -10 -5 -10 -6 0 -8 -4 -5 -10 3 -5 2 -10 -2 -10 -5 0 -10 -10 -10
-22 -1 -13 -7 -24 -12 -26 -5 -2 -8 -9 -5 -16 3 -8 -1 -20 -9 -27 -7 -8 -12
-20 -9 -27 2 -6 -1 -12 -7 -12 -6 0 -8 -7 -5 -15 4 -8 2 -15 -4 -15 -6 0 -8
-10 -4 -22 3 -13 1 -19 -5 -15 -7 5 -9 -1 -5 -15 3 -13 1 -19 -5 -15 -6 4 -8
-4 -5 -20 3 -17 1 -24 -6 -19 -6 4 -8 -2 -5 -15 4 -16 17 12 43 92 70 217 149
356 267 470 145 141 343 239 581 289 48 10 77 19 65 19 -12 1 -28 4 -37 7 -9
3 -16 2 -16 -2z"/>
<path d="M12213 8873 c-6 -16 41 -473 57 -546 5 -25 23 -52 57 -85 27 -26 60
-60 72 -77 12 -16 20 -22 17 -13 -3 9 0 18 6 20 7 3 3 40 -12 108 -12 58 -24
119 -25 135 -7 64 -16 121 -22 139 -3 11 -7 40 -8 64 -2 25 -9 49 -17 53 -9 6
-8 9 7 9 18 1 18 2 4 13 -8 7 -16 21 -16 32 -2 28 -8 53 -15 61 -4 3 -4 13 -1
22 5 11 3 13 -6 7 -10 -5 -11 -2 -6 14 4 13 2 21 -5 21 -6 0 -8 5 -5 10 6 10
-21 7 -63 -6 -9 -3 -11 2 -7 16 8 24 -3 27 -12 3z"/>
<path d="M2610 8720 c0 -14 11 -116 24 -228 l25 -202 51 -48 c30 -28 76 -90
115 -157 36 -60 65 -107 65 -105 0 3 -9 37 -19 77 -10 40 -16 75 -12 79 3 4 0
4 -8 -1 -11 -6 -13 -3 -9 13 4 12 2 25 -3 28 -5 3 -7 9 -4 14 5 7 -7 44 -40
125 -4 11 -9 25 -11 30 -8 28 -38 113 -46 130 -9 20 -16 48 -17 71 -1 5 -9 19
-18 30 -21 23 -63 104 -63 120 0 5 -7 19 -15 30 -14 18 -14 18 -15 -6z"/>
<path d="M5474 8685 c-4 -8 -10 -12 -15 -9 -5 3 -9 1 -9 -5 0 -5 -9 -12 -19
-16 -11 -3 -23 -15 -26 -26 -9 -29 -23 -23 -19 9 4 26 3 26 -5 -3 -5 -16 -17
-97 -26 -178 -14 -117 -15 -154 -6 -175 19 -39 76 -282 102 -430 23 -125 38
-166 40 -104 0 15 2 45 4 67 2 22 7 85 10 140 7 108 12 169 15 173 2 1 3 8 4
15 1 6 10 11 21 9 18 -2 17 -1 -3 11 -23 13 -21 30 3 21 10 -4 11 3 5 32 -6
27 -5 41 6 51 16 16 19 27 5 19 -5 -3 -14 1 -21 9 -11 13 -10 14 5 8 14 -5 17
-3 12 10 -4 12 -2 14 10 10 12 -5 14 -3 7 8 -10 16 -13 59 -4 59 3 0 6 9 6 19
0 11 -5 17 -10 14 -5 -4 -7 1 -3 11 17 44 18 64 3 79 -11 10 -12 18 -6 22 14
9 2 46 -22 67 -11 9 -18 25 -16 35 2 13 -2 17 -16 15 -17 -3 -18 -2 -7 12 8 9
11 19 7 23 -3 3 -6 1 -6 -5 0 -7 -5 -12 -11 -12 -6 0 -9 7 -5 15 3 8 3 15 0
15 -2 0 -7 -7 -10 -15z"/>
<path d="M14898 8222 c-60 -59 -173 -246 -152 -250 15 -4 20 -22 5 -22 -6 0
-9 -8 -9 -17 1 -10 -2 -34 -6 -53 -6 -27 -5 -32 4 -20 9 12 10 3 5 -35 -4 -38
-3 -46 5 -35 9 12 10 5 6 -28 -5 -32 -3 -42 5 -36 9 5 10 -6 5 -41 -5 -29 -4
-45 2 -41 5 3 12 -26 16 -67 4 -39 10 -90 13 -112 3 -22 6 -52 7 -67 0 -16 3
-28 7 -28 3 0 7 -17 8 -37 1 -21 4 -56 7 -78 3 -22 6 -53 7 -70 1 -16 6 -36
11 -43 4 -7 5 -25 2 -38 -5 -17 -3 -23 4 -19 5 3 10 0 10 -7 0 -8 6 -65 14
-128 7 -63 14 -122 14 -130 1 -8 3 -24 6 -35 2 -11 5 -31 6 -45 1 -14 4 -20 6
-13 3 6 -2 74 -10 152 -20 174 -20 163 5 189 11 13 29 44 41 70 11 26 26 62
35 80 8 18 33 86 55 150 l41 117 -8 115 c-4 63 -8 144 -11 179 -6 107 -60 380
-64 326 -1 -11 -8 0 -16 25 -17 56 -17 75 1 35 8 -16 14 -26 15 -21 0 18 -33
126 -39 125 -3 0 -27 -22 -53 -47z"/>
<path d="M2699 8123 c-13 -14 -18 -23 -10 -18 11 6 13 3 9 -12 -3 -11 -1 -28
4 -37 5 -9 11 -25 14 -36 2 -11 6 -29 9 -40 12 -48 16 -68 20 -107 2 -24 6
-47 9 -52 4 -5 8 -33 11 -63 3 -29 11 -69 17 -88 15 -45 16 -101 3 -119 -8
-12 -7 -13 4 -6 11 6 13 4 8 -9 -4 -10 10 -51 39 -108 25 -49 43 -97 40 -105
-4 -9 -2 -11 6 -7 8 5 9 2 5 -10 -5 -11 -3 -15 5 -10 8 5 9 2 5 -10 -5 -11 -3
-15 5 -10 8 5 9 2 5 -10 -5 -11 -3 -15 5 -10 8 5 9 2 5 -10 -5 -11 -3 -15 5
-10 8 5 9 2 5 -10 -5 -11 -3 -15 5 -10 8 5 9 2 5 -10 -5 -11 -3 -15 5 -10 8 5
9 2 5 -10 -5 -11 -3 -15 5 -10 8 5 9 2 5 -10 -5 -11 -3 -15 5 -10 8 5 9 2 5
-10 -5 -11 -3 -15 5 -10 8 5 9 2 5 -10 -5 -11 -3 -15 5 -10 8 5 9 2 5 -10 -5
-11 -3 -15 5 -10 8 5 9 2 5 -10 -5 -11 -3 -15 5 -10 8 5 9 2 5 -10 -5 -11 -3
-15 5 -10 8 5 9 2 5 -10 -5 -11 -3 -15 5 -10 8 5 9 2 5 -10 -5 -11 -3 -15 5
-10 8 5 9 2 5 -10 -5 -11 -3 -15 5 -10 8 5 9 2 5 -10 -5 -11 -3 -15 5 -10 8 5
9 2 5 -10 -5 -11 -3 -15 5 -10 8 5 9 2 5 -10 -5 -11 -3 -15 5 -10 8 5 9 2 5
-10 -5 -11 -3 -15 5 -10 8 5 9 2 5 -10 -5 -11 -3 -15 5 -10 8 5 9 2 5 -10 -5
-11 -3 -15 5 -10 8 5 9 2 5 -10 -5 -11 -3 -15 5 -10 8 5 9 2 5 -10 -5 -11 -3
-15 5 -10 8 5 9 2 5 -10 -5 -11 -3 -15 5 -10 8 5 9 2 5 -10 -5 -11 -3 -15 5
-10 8 5 9 2 5 -10 -5 -11 -3 -15 5 -10 8 5 9 2 5 -10 -5 -11 -3 -15 5 -10 8 5
9 2 5 -10 -5 -11 -3 -15 5 -10 8 5 9 2 5 -10 -5 -11 -3 -15 5 -10 8 5 9 2 5
-10 -5 -11 -3 -15 5 -10 8 5 9 2 5 -10 -5 -11 -3 -15 5 -10 8 5 9 2 5 -10 -5
-11 -3 -15 5 -10 8 5 9 2 5 -10 -5 -11 -3 -15 5 -10 8 5 9 2 5 -10 -5 -11 -3
-15 5 -10 8 5 9 2 5 -10 -5 -11 -3 -15 5 -10 8 5 9 2 5 -10 -5 -11 -3 -15 5
-10 8 5 9 2 5 -10 -5 -11 -3 -15 5 -10 8 5 9 2 5 -10 -5 -11 -3 -15 5 -10 8 5
9 2 5 -10 -5 -11 -3 -15 5 -10 8 5 9 2 5 -10 -5 -11 -3 -15 5 -10 8 5 9 2 5
-10 -5 -11 -3 -15 5 -10 8 5 9 2 5 -10 -5 -11 -3 -15 5 -10 8 5 9 2 5 -10 -5
-11 -3 -15 5 -10 8 5 9 2 5 -9 -4 -10 -2 -16 6 -14 7 1 12 -8 11 -20 0 -12 4
-21 10 -20 6 1 11 -8 10 -20 0 -12 3 -20 7 -17 5 3 18 -15 30 -38 20 -38 23
-40 28 -21 6 21 6 21 29 3 12 -10 22 -22 22 -27 0 -5 9 -9 21 -10 16 -2 18 1
9 12 -8 10 -7 13 7 11 24 -2 22 42 -9 144 -14 47 -31 117 -37 155 -7 39 -14
81 -17 95 -2 14 1 32 6 40 9 13 11 13 20 0 5 -8 10 -12 10 -7 0 9 -198 403
-235 467 -23 40 -24 42 -3 17 13 -15 71 -121 130 -235 59 -114 108 -204 108
-200 0 11 -154 318 -322 643 -80 154 -196 381 -258 504 -62 124 -122 233 -132
243 -25 25 -50 23 -79 -9z"/>
<path d="M12390 8050 c0 -6 -11 -8 -25 -4 -23 6 -25 3 -26 -27 -3 -67 1 -134
11 -169 5 -19 10 -52 10 -73 0 -21 4 -36 8 -33 4 2 7 -18 6 -45 -3 -63 17
-142 63 -244 44 -98 632 -1277 643 -1288 16 -17 7 187 -11 247 -10 33 -16 62
-14 64 2 3 0 13 -6 24 -13 23 -19 54 -19 88 1 14 1 42 1 63 0 34 2 36 20 27
11 -7 19 -7 19 -1 0 5 -6 12 -12 15 -7 2 -2 3 12 2 18 -3 24 -9 22 -22 -2 -14
0 -15 6 -6 7 10 12 5 22 -18 7 -17 15 -29 17 -26 5 5 -181 379 -244 489 -24
44 -42 81 -40 84 3 2 17 -16 32 -41 64 -110 25 -25 -126 272 -236 463 -308
600 -325 617 -17 17 -44 20 -44 5z"/>
<path d="M5006 7538 c-8 -13 -51 -104 -97 -203 -45 -99 -86 -182 -91 -183 -4
-2 -6 -8 -2 -13 3 -5 0 -9 -5 -9 -6 0 -10 -3 -9 -7 4 -15 -24 -83 -33 -83 -6
0 -7 -4 -4 -10 3 -5 1 -10 -5 -10 -6 0 -8 -4 -5 -10 3 -5 1 -10 -5 -10 -6 0
-8 -4 -5 -10 3 -5 1 -10 -4 -10 -6 0 -10 -3 -9 -7 4 -15 -24 -83 -33 -83 -6 0
-7 -4 -4 -10 3 -5 1 -10 -5 -10 -6 0 -8 -4 -5 -10 3 -5 1 -10 -5 -10 -6 0 -8
-4 -5 -10 3 -5 2 -10 -3 -10 -5 0 -9 -6 -9 -14 0 -22 -25 -76 -35 -76 -5 0 -6
-4 -3 -10 3 -5 1 -10 -5 -10 -6 0 -8 -4 -5 -10 3 -5 1 -10 -5 -10 -6 0 -8 -4
-5 -10 3 -5 1 -10 -5 -10 -6 0 -9 -4 -5 -9 7 -12 -25 -81 -37 -81 -5 0 -6 -4
-3 -10 3 -5 1 -10 -5 -10 -6 0 -8 -4 -5 -10 3 -5 1 -10 -5 -10 -6 0 -8 -4 -5
-10 3 -5 1 -10 -5 -10 -6 0 -9 -4 -5 -9 7 -12 -25 -81 -37 -81 -5 0 -6 -4 -3
-10 3 -5 1 -10 -5 -10 -6 0 -8 -4 -5 -10 3 -5 1 -10 -5 -10 -6 0 -8 -4 -5 -10
3 -5 1 -10 -5 -10 -6 0 -9 -4 -5 -9 7 -12 -25 -81 -37 -81 -5 0 -6 -4 -3 -10
3 -5 1 -10 -5 -10 -6 0 -8 -4 -5 -10 3 -5 1 -10 -5 -10 -6 0 -8 -4 -5 -10 3
-5 1 -10 -5 -10 -6 0 -9 -4 -5 -9 7 -12 -25 -81 -37 -81 -5 0 -6 -4 -3 -10 3
-5 1 -10 -5 -10 -6 0 -8 -4 -5 -10 3 -5 1 -10 -5 -10 -6 0 -8 -4 -5 -10 3 -5
1 -10 -5 -10 -6 0 -9 -4 -5 -9 7 -12 -25 -81 -37 -81 -5 0 -6 -4 -3 -10 3 -5
1 -10 -5 -10 -6 0 -8 -4 -5 -10 3 -5 1 -10 -5 -10 -6 0 -8 -4 -5 -10 3 -5 1
-10 -5 -10 -6 0 -9 -4 -5 -9 7 -12 -25 -81 -37 -81 -5 0 -6 -4 -3 -10 3 -5 1
-10 -5 -10 -6 0 -8 -4 -5 -10 3 -5 1 -10 -5 -10 -6 0 -8 -4 -5 -10 3 -5 1 -10
-5 -10 -6 0 -9 -4 -5 -9 7 -12 -35 -101 -48 -101 -4 0 -5 -4 -2 -10 3 -5 2
-10 -4 -10 -6 0 -7 -7 -4 -17 5 -12 3 -14 -7 -8 -9 5 -11 4 -6 -3 4 -6 0 -25
-9 -42 -9 -17 -14 -37 -12 -43 3 -7 8 -4 12 8 5 11 213 459 463 995 250 536
457 982 460 990 3 8 10 18 16 22 8 5 7 8 -1 8 -7 0 -19 -10 -27 -22z"/>
<path d="M14626 7545 c-9 -9 -19 -27 -22 -41 -3 -13 -10 -24 -16 -24 -5 0 -6
-4 -3 -10 3 -5 1 -10 -4 -10 -6 0 -10 -3 -9 -7 4 -14 -26 -83 -35 -83 -4 0 -5
-4 -2 -10 3 -5 1 -10 -5 -10 -6 0 -8 -4 -5 -10 3 -5 1 -10 -5 -10 -6 0 -8 -4
-5 -10 3 -5 1 -10 -4 -10 -6 0 -10 -3 -9 -7 4 -14 -34 -103 -44 -103 -5 0 -6
-4 -3 -10 3 -5 1 -10 -5 -10 -6 0 -8 -4 -5 -10 3 -5 1 -10 -4 -10 -6 0 -10 -3
-9 -7 4 -14 -34 -103 -44 -103 -5 0 -6 -4 -3 -10 3 -5 1 -10 -5 -10 -6 0 -8
-4 -5 -10 3 -5 1 -10 -4 -10 -6 0 -10 -3 -9 -7 4 -12 -36 -103 -45 -103 -5 0
-5 -4 -2 -10 3 -5 1 -10 -5 -10 -6 0 -8 -4 -5 -10 3 -5 1 -10 -4 -10 -6 0 -10
-3 -9 -7 4 -12 -36 -103 -45 -103 -5 0 -5 -4 -2 -10 3 -5 1 -10 -5 -10 -6 0
-8 -4 -5 -10 3 -5 1 -10 -4 -10 -6 0 -10 -3 -9 -7 4 -12 -36 -103 -45 -103 -5
0 -5 -4 -2 -10 3 -5 1 -10 -5 -10 -6 0 -8 -4 -5 -10 3 -5 1 -10 -6 -10 -7 0
-10 -3 -6 -6 3 -4 -4 -25 -15 -48 -12 -22 -21 -44 -20 -48 1 -5 -3 -8 -9 -8
-5 0 -7 -4 -4 -10 3 -5 1 -10 -5 -10 -6 0 -8 -4 -5 -10 3 -5 1 -10 -6 -10 -7
0 -10 -3 -6 -6 3 -4 -4 -25 -15 -48 -12 -22 -23 -48 -24 -56 -2 -8 -8 -16 -14
-18 -5 -2 -8 -8 -4 -13 3 -5 0 -9 -5 -9 -6 0 -10 -3 -9 -7 4 -14 -44 -123 -54
-123 -5 0 -6 -4 -3 -10 3 -5 1 -10 -4 -10 -6 0 -10 -3 -9 -7 4 -14 -34 -103
-44 -103 -5 0 -6 -4 -3 -10 3 -5 1 -10 -5 -10 -6 0 -8 -4 -5 -10 3 -5 1 -10
-4 -10 -6 0 -10 -3 -9 -7 4 -14 -34 -103 -44 -103 -5 0 -6 -4 -3 -10 3 -5 1
-10 -5 -10 -6 0 -8 -4 -5 -10 3 -5 1 -10 -4 -10 -6 0 -10 -3 -9 -7 4 -12 -36
-103 -45 -103 -5 0 -5 -4 -2 -10 3 -5 1 -10 -5 -10 -6 0 -8 -4 -5 -10 3 -5 1
-10 -4 -10 -6 0 -10 -3 -9 -7 3 -13 -25 -83 -34 -83 -4 0 -4 -7 -1 -17 4 -11
3 -14 -5 -9 -7 4 -12 2 -12 -3 0 -6 7 -11 15 -11 8 0 15 5 15 11 0 13 865
1871 912 1959 22 43 28 48 24 25 -5 -28 -5 -29 6 -7 15 31 -3 50 -26 27z"/>
<path d="M5491 7445 c-2 -45 66 -581 154 -1206 46 -322 50 -363 39 -416 -4
-23 -12 -31 -27 -31 -12 0 -60 -12 -105 -27 -46 -14 -90 -24 -97 -21 -16 6
-26 54 -56 255 -13 84 -25 149 -27 143 -2 -6 11 -107 28 -223 18 -117 30 -221
28 -233 -4 -20 -1 -21 60 -18 48 3 62 1 57 -8 -5 -8 -24 -10 -54 -7 -25 3 -37
3 -26 0 42 -11 38 -23 -16 -47 -30 -14 -70 -28 -91 -31 -32 -6 -47 -23 -48
-55 0 -3 54 -4 121 -2 69 1 118 -2 115 -7 -4 -5 212 -8 517 -8 l522 1 -420 6
c-231 3 -382 7 -335 9 47 2 89 3 94 2 13 -3 25 20 19 36 -4 11 -8 10 -18 -3
-8 -11 -14 -13 -19 -6 -3 6 -2 13 4 17 6 4 8 11 5 16 -9 13 -45 11 -45 -3 0
-6 -2 -9 -5 -6 -3 3 -1 17 4 31 9 22 8 25 -6 20 -11 -4 -14 -2 -9 5 4 6 -11
30 -34 54 -94 98 -87 67 -200 888 -83 600 -127 903 -129 875z"/>
<path d="M15111 7407 c-2 -34 79 -670 140 -1102 53 -374 59 -436 50 -473 -8
-29 -17 -42 -30 -42 -9 0 -55 -11 -101 -25 -46 -14 -89 -25 -96 -25 -8 0 -20
21 -29 48 l-15 47 7 -60 c3 -33 6 -68 7 -77 0 -13 8 -18 28 -18 15 0 28 -4 28
-9 0 -5 12 -11 28 -13 25 -3 21 -6 -38 -41 -36 -21 -54 -35 -40 -31 62 17 183
93 253 158 28 26 36 41 33 58 -3 13 -8 52 -11 88 -7 67 -187 1383 -204 1480
-5 30 -9 47 -10 37z"/>
<path d="M9870 7169 c91 -74 101 -95 38 -85 -113 18 -124 18 -136 3 -10 -12
-13 -155 -12 -649 0 -707 6 -655 -72 -704 -22 -14 -46 -23 -54 -20 -9 3 -12 1
-9 -4 3 -6 -2 -10 -12 -11 -11 0 -13 -3 -5 -6 6 -2 10 -9 6 -14 -3 -5 0 -9 7
-9 7 0 10 -3 6 -6 -9 -9 14 -30 42 -39 18 -6 21 -9 10 -16 -30 -19 41 -8 107
15 114 42 246 150 275 226 10 27 14 164 19 601 4 451 8 569 18 582 8 9 11 24
8 35 -7 22 -81 66 -96 57 -5 -3 -10 -2 -10 4 0 5 -9 8 -20 6 -11 -2 -20 1 -20
6 0 6 -4 8 -8 5 -5 -3 -27 6 -51 20 -52 29 -65 31 -31 3z m-65 -197 c-4 -26
-9 -290 -11 -587 -2 -297 -4 -546 -4 -553 0 -7 -4 -11 -9 -8 -15 9 -14 1195 1
1213 19 23 31 -11 23 -65z"/>
<path d="M10661 7103 c-19 -9 -36 -25 -39 -35 -2 -10 -8 -18 -13 -18 -5 0 -6
-7 -3 -15 4 -8 2 -15 -4 -15 -5 0 -7 -11 -4 -25 3 -16 0 -25 -8 -25 -8 0 -10
-16 -7 -54 3 -30 3 -57 0 -60 -10 -10 -12 -766 -2 -766 5 0 6 -65 3 -145 -5
-130 -4 -147 12 -162 17 -17 17 -17 11 7 -13 46 -20 987 -9 1107 13 128 28
167 77 190 19 9 35 20 35 25 0 12 -11 10 -49 -9z"/>
<path d="M13000 4672 c0 -4 29 -47 65 -96 l65 -88 0 -364 c0 -319 -2 -365 -15
-371 -9 -3 -19 -2 -23 2 -4 4 -1 10 6 12 18 7 17 524 -2 614 -15 69 -54 156
-79 178 -13 10 -14 -34 -10 -373 6 -350 5 -386 -10 -392 -25 -9 -47 -60 -33
-74 8 -9 5 -16 -11 -30 -13 -10 -23 -21 -23 -24 0 -11 78 33 82 46 3 7 11 9
24 4 15 -7 16 -9 4 -14 -42 -15 -68 -70 -56 -117 6 -22 9 -24 26 -15 11 6 24
28 30 50 6 22 16 40 23 40 7 0 27 21 45 48 l32 47 0 373 0 373 -62 82 c-35 45
-62 85 -60 90 1 4 -2 7 -8 7 -5 0 -10 -4 -10 -8z"/>
<path d="M14172 4651 c-6 -17 -7 -31 -3 -31 26 0 41 -225 21 -331 -11 -59 -29
-109 -39 -109 -3 0 -17 20 -31 45 -14 25 -28 45 -32 45 -5 0 -8 10 -9 23 0 12
-8 -3 -18 -33 -49 -154 -227 -520 -341 -706 -13 -20 -18 -34 -11 -30 10 7 11
4 1 -13 -7 -15 -8 -26 -2 -34 11 -13 -9 -51 -21 -42 -4 3 -5 2 -3 -1 3 -3 -9
-27 -25 -54 -16 -26 -29 -51 -29 -56 0 -5 5 -1 11 9 6 9 14 15 20 12 5 -3 7 0
4 7 -2 7 9 28 24 46 23 26 30 30 34 18 4 -10 1 -16 -8 -16 -7 0 -17 -5 -20
-11 -4 -6 0 -9 8 -7 9 2 15 -1 14 -7 -1 -5 -6 -9 -10 -7 -5 1 -5 -3 -1 -10 5
-8 50 33 139 125 72 75 134 137 138 137 4 0 7 -7 7 -16 0 -12 9 -15 36 -12 32
2 41 -2 71 -37 l34 -40 -36 67 c-24 45 -34 74 -30 88 9 29 -13 25 -49 -7 l-29
-28 20 30 c12 17 31 40 43 53 11 12 18 26 15 31 -3 5 0 13 6 17 8 4 9 3 5 -4
-4 -7 -5 -12 -3 -12 2 0 17 19 32 43 20 29 23 37 10 27 -11 -8 6 11 38 44 31
32 54 62 51 67 -3 5 -2 15 3 22 4 6 8 32 9 56 1 27 7 48 17 55 8 6 24 16 34
23 17 12 17 12 -2 6 -11 -3 -26 -10 -32 -16 -9 -7 -13 -5 -13 7 0 9 5 16 11
16 5 0 7 5 4 10 -3 6 0 10 7 10 10 0 10 2 1 8 -10 6 -9 14 2 35 l14 28 -30
-18 c-18 -11 -48 -49 -75 -95 -24 -43 -47 -78 -49 -78 -3 0 8 26 24 58 16 32
59 132 95 222 l65 163 -50 116 c-28 64 -52 117 -54 119 -1 2 -7 -11 -13 -27z"/>
<path d="M4031 4528 c-65 -176 -179 -410 -227 -466 -21 -25 -50 -46 -72 -52
-23 -7 -123 -10 -270 -8 -127 2 -233 0 -235 -4 -1 -4 -22 -15 -47 -26 l-44
-19 88 -7 c49 -3 99 -9 112 -12 27 -7 31 -26 9 -44 -18 -15 -18 -20 0 -44 21
-27 91 -24 123 7 l24 22 16 -21 c16 -20 16 -20 56 19 59 57 88 68 184 73 84 4
87 5 112 36 13 18 36 44 50 58 13 14 24 28 22 33 -1 4 3 7 10 7 6 0 21 8 32
19 29 25 108 67 126 66 20 -2 41 15 34 27 -3 5 -14 6 -25 3 -11 -4 -19 -2 -19
4 0 6 4 11 9 11 5 0 12 8 15 17 4 10 4 14 0 11 -4 -4 -15 -3 -25 3 -13 6 -19
6 -19 -1 0 -5 6 -10 13 -10 8 0 7 -3 -3 -9 -8 -6 -18 -7 -22 -5 -4 3 -8 1 -8
-4 0 -6 -23 -34 -51 -63 l-51 -54 48 65 c26 36 62 86 81 113 37 50 57 65 28
21 -29 -45 -2 -51 40 -9 21 19 35 38 32 41 -2 3 3 22 13 42 13 25 15 42 9 54
-8 14 -6 16 8 11 15 -5 15 -2 -3 18 -12 13 -44 68 -71 122 l-49 98 -53 -143z"/>
<path d="M2665 4610 c-18 -20 -13 -56 6 -44 7 4 9 3 6 -3 -4 -6 17 -39 45 -74
98 -122 227 -348 242 -424 12 -62 34 -60 -499 -63 -267 -1 -485 -6 -485 -10 0
-4 19 -35 42 -69 l43 -63 17 34 c16 30 23 34 75 42 32 4 249 8 483 9 234 1
430 3 437 4 7 0 10 7 7 15 -3 7 -8 82 -12 167 l-7 154 -165 131 c-156 124
-217 185 -204 205 10 17 -13 9 -31 -11z"/>
<path d="M8790 4494 c0 -5 5 -15 12 -22 9 -9 7 -13 -6 -18 -24 -9 -126 4 -145
19 -9 7 -2 -6 15 -28 18 -22 48 -69 68 -105 20 -36 36 -60 36 -55 0 6 11 -10
25 -34 26 -45 34 -88 14 -75 -6 3 -3 -5 6 -19 9 -15 14 -31 10 -37 -10 -17 18
-11 45 10 14 11 31 20 39 20 21 0 6 169 -20 230 -19 44 -99 136 -99 114z"/>
<path d="M10233 4388 c-11 -13 -48 -60 -81 -105 -34 -45 -72 -89 -85 -98 -21
-15 -21 -16 -3 -30 11 -9 16 -20 12 -31 -10 -26 43 -11 143 38 91 46 105 65
91 119 -5 19 -15 55 -21 82 -14 52 -26 58 -56 25z"/>
<path d="M15279 4203 c-50 -60 -99 -112 -108 -117 -9 -5 -17 -10 -19 -11 -2
-2 0 -14 3 -28 l7 -25 141 0 c123 -1 137 0 107 11 -19 7 -33 16 -32 21 2 5 -2
13 -10 17 -10 7 -7 11 10 15 19 5 20 8 8 18 -21 16 -25 184 -5 197 9 6 10 9 2
9 -7 0 -54 -48 -104 -107z"/>
<path d="M4810 4234 c-79 -97 -178 -191 -224 -213 -42 -21 -55 -22 -324 -19
-154 2 -278 0 -275 -4 2 -5 3 -8 1 -8 -2 0 -28 -9 -58 -20 l-55 -19 390 2 390
2 63 27 c34 15 60 23 57 17 -4 -5 39 -9 107 -9 62 0 123 -3 136 -6 13 -4 22
-2 22 4 0 20 -83 34 -170 29 l-85 -5 52 22 c29 12 55 25 59 28 3 4 2 35 -4 70
-24 134 -25 151 -12 143 9 -5 11 -4 6 3 -13 22 -31 11 -76 -44z"/>
<path d="M8238 4053 c397 -2 1047 -2 1445 0 397 1 72 2 -723 2 -795 0 -1120
-1 -722 -2z"/>
<path d="M13417 3913 c-35 -54 -71 -104 -79 -111 -17 -14 -13 -48 6 -55 7 -3
39 6 71 20 57 24 89 48 80 63 -2 3 -5 45 -6 93 -1 48 -3 87 -5 87 -2 0 -32
-44 -67 -97z"/>
<path d="M9506 3928 c-13 -13 -47 -55 -74 -93 l-49 -71 60 -18 c45 -13 57 -20
46 -27 -10 -6 0 -9 31 -9 42 -1 44 -2 26 -15 -19 -15 -19 -15 2 -15 22 0 22 0
22 -223 0 -123 -3 -226 -6 -230 -10 -9 -106 42 -126 67 -12 14 -20 17 -25 10
-5 -6 -15 -13 -23 -16 -12 -5 -11 -7 5 -13 11 -4 29 -11 40 -16 17 -8 16 -8
-5 -3 -14 3 -33 8 -44 11 -11 3 -16 1 -12 -5 3 -6 20 -13 36 -17 38 -8 39 -25
3 -26 -44 -1 -15 -7 71 -14 43 -4 73 -10 67 -15 -10 -5 -9 -9 3 -13 38 -15 4
-65 -101 -149 -18 -14 -29 -28 -26 -31 3 -4 39 24 79 61 l74 67 0 310 c0 221
-5 337 -15 405 -8 52 -15 98 -15 103 0 13 -19 7 -44 -15z"/>
<path d="M8005 3930 c-12 -20 9 -85 46 -143 65 -100 82 -168 77 -310 -5 -137
-15 -165 -76 -218 l-37 -33 -3 -134 c-3 -130 1 -177 16 -156 4 5 45 43 91 83
l84 74 -1 324 0 325 -59 61 c-32 34 -73 79 -90 100 -35 40 -39 42 -48 27z"/>
<path d="M4507 3694 c-34 -48 -79 -109 -100 -135 l-37 -49 -308 -1 c-169 -1
-291 -5 -272 -9 30 -6 31 -8 10 -10 -18 -2 -20 -4 -7 -7 9 -2 17 -9 17 -14 0
-6 -5 -7 -12 -3 -7 4 -8 3 -4 -4 5 -9 93 -12 314 -12 280 0 311 2 349 19 23
11 67 23 98 26 37 5 52 11 44 16 -8 4 -25 6 -39 3 -19 -4 -16 0 13 16 20 11
37 24 37 28 0 4 -7 50 -16 102 -9 52 -16 101 -17 108 0 6 -2 12 -4 12 -2 0
-32 -39 -66 -86z"/>
<path d="M15209 3724 c-53 -57 -147 -123 -183 -130 -28 -5 -33 -9 -29 -27 9
-39 32 -47 125 -47 79 0 110 -10 76 -23 -7 -3 0 -4 17 -4 25 2 30 -2 36 -28 4
-16 5 42 2 130 -3 88 -6 161 -7 162 -2 2 -18 -14 -37 -33z"/>
<path d="M13055 3584 c-4 -36 -18 -89 -31 -118 -13 -29 -31 -93 -39 -142 -14
-75 -35 -134 -49 -134 -2 0 -11 24 -21 53 -31 96 -46 99 -64 15 -18 -90 -100
-331 -166 -488 -31 -74 -113 -247 -182 -385 -69 -137 -128 -263 -130 -280 -3
-16 -2 -28 1 -25 3 3 53 75 112 160 132 192 216 342 295 530 34 80 77 182 96
227 l35 82 34 -49 c19 -27 34 -52 34 -55 0 -4 6 -13 14 -20 11 -11 13 -133 10
-717 -2 -387 -6 -790 -8 -896 l-3 -192 24 36 c14 20 37 61 51 92 27 57 27 58
29 317 9 1396 9 1308 -10 1343 -17 32 -25 36 -59 33 -28 -3 -21 22 17 64 32
34 38 37 51 23 8 -8 19 -43 24 -79 l9 -64 -4 75 c-3 41 -16 131 -30 200 -22
103 -26 154 -27 293 -1 92 -2 167 -4 167 -1 0 -5 -30 -9 -66z"/>
<path d="M3360 3569 c0 -6 -11 -21 -25 -34 l-24 -25 -518 -1 c-285 0 -535 -3
-556 -7 l-37 -7 45 -67 c25 -38 48 -68 51 -68 3 0 11 15 19 34 14 32 17 34 92
45 81 12 938 16 981 4 29 -7 24 -23 -16 -48 -36 -23 -37 -25 -19 -49 13 -17
16 -17 65 8 63 32 90 33 102 4 6 -16 9 16 8 97 0 66 -3 109 -7 95 -10 -36 -40
-36 -105 -1 -31 16 -56 25 -56 20z"/>
<path d="M14492 3293 c38 -75 51 -119 65 -221 19 -141 29 -183 45 -202 7 -9
12 -13 11 -11 -2 2 6 10 17 18 22 15 60 128 60 177 0 17 -10 51 -21 76 -26 58
-97 152 -110 145 -5 -4 -19 1 -31 9 -24 17 -42 21 -36 9z"/>
<path d="M4886 3184 c-77 -90 -112 -122 -161 -145 -37 -17 -73 -19 -500 -19
-266 -1 -452 -5 -440 -10 11 -5 14 -9 7 -9 -7 -1 -10 -5 -7 -11 3 -5 0 -10 -7
-10 -9 0 -9 -3 2 -10 9 -6 205 -10 505 -10 466 1 493 2 545 21 63 23 77 26
145 29 48 2 48 2 17 10 -18 4 -43 6 -55 3 -13 -2 -7 4 16 17 20 11 37 24 37
28 0 4 -11 47 -23 96 l-23 88 -58 -68z"/>
<path d="M13408 3220 c20 -22 14 -30 -22 -30 l-35 0 34 -56 c19 -31 50 -104
70 -163 43 -129 57 -151 93 -150 l27 1 -29 7 c-16 3 -32 13 -34 21 -5 13 -3
13 11 1 15 -12 17 -11 17 8 0 12 -4 19 -10 16 -14 -9 -13 8 2 23 8 8 8 12 1
12 -7 0 -8 14 -2 43 16 85 11 126 -22 172 -17 24 -50 58 -73 76 -22 18 -35 26
-28 19z"/>
<path d="M3353 3061 c-40 -41 -36 -41 -775 -41 -392 0 -719 -4 -727 -9 -11 -7
-10 -14 5 -37 34 -55 76 -104 87 -104 8 0 8 3 -1 8 -9 6 -10 16 -3 34 17 44
77 48 753 48 338 0 637 3 663 7 49 6 165 74 173 101 2 7 -7 2 -21 -12 l-26
-26 -49 25 c-60 30 -57 30 -79 6z"/>
<path d="M9981 2998 c-23 -28 -55 -61 -71 -73 -16 -12 -26 -25 -22 -30 4 -4
-3 -4 -16 0 -23 7 -23 6 -8 -23 8 -16 12 -33 8 -37 -4 -4 36 -6 88 -4 82 4 95
2 98 -12 2 -12 -10 -21 -40 -32 l-43 -15 66 2 66 1 -24 44 c-13 24 -23 61 -23
81 0 48 -21 150 -31 150 -4 0 -26 -23 -48 -52z"/>
<path d="M15497 2968 c-118 -162 -151 -217 -130 -219 4 0 19 -2 33 -3 14 -2
48 3 75 12 40 12 46 16 30 22 -17 6 -15 9 19 25 32 16 37 22 33 44 -3 14 -9
54 -13 89 -3 34 -10 62 -15 62 -4 0 -19 -15 -32 -32z"/>
<path d="M13130 2120 l-5 -795 -67 -103 c-38 -57 -68 -105 -68 -108 0 -16 26
18 84 111 l66 105 -2 792 -3 793 -5 -795z"/>
<path d="M3331 2878 c-5 -13 -5 -25 0 -28 4 -3 15 -23 24 -44 13 -31 14 -47 5
-92 -11 -51 -30 -84 -51 -84 -5 0 -9 6 -9 13 -1 6 -12 -30 -25 -82 -14 -52
-30 -100 -35 -105 -8 -8 -222 -12 -670 -14 -435 -2 -660 -6 -660 -13 0 -6 18
-37 40 -70 31 -44 46 -59 63 -58 l22 2 -22 4 c-26 5 -30 30 -9 58 13 18 39 19
564 23 303 3 580 1 617 -3 l67 -7 -23 -24 c-12 -13 -28 -24 -35 -24 -7 0 -10
-8 -7 -18 6 -25 -77 -217 -143 -329 -178 -303 -410 -479 -849 -644 -55 -21
-94 -38 -86 -38 7 -1 11 -7 7 -16 -6 -17 9 -21 19 -5 3 6 11 10 18 10 7 0 8
-3 1 -10 -16 -16 -123 -41 -149 -34 -16 4 -30 0 -42 -11 -13 -13 -27 -16 -63
-12 -42 5 -46 4 -47 -16 -1 -12 1 -17 5 -11 4 7 25 12 47 12 78 1 306 56 480
114 443 150 708 372 898 753 82 165 145 331 183 482 19 74 36 139 39 143 3 5
-7 21 -21 37 -15 15 -53 59 -85 96 -56 64 -60 67 -68 45z"/>
<path d="M10160 2770 c-12 -8 -12 -10 3 -16 20 -7 22 -35 5 -52 -7 -7 -8 -12
-4 -12 5 0 2 -8 -5 -17 -10 -11 -10 -14 -1 -9 6 4 12 2 12 -3 0 -6 7 -11 16
-11 8 0 12 5 9 10 -10 16 5 12 23 -6 15 -15 16 -15 23 2 6 17 7 16 11 -6 5
-23 5 -23 7 -3 0 13 17 34 37 50 56 43 80 65 64 57 -13 -7 -13 -5 -1 9 12 16
6 17 -85 17 -55 0 -106 -4 -114 -10z"/>
<path d="M7759 2600 c-4 -295 -12 -333 -19 -95 -3 106 -7 -105 -8 -481 l-2
-670 -31 -30 c-66 -62 -150 -164 -144 -173 3 -6 44 34 92 89 47 55 88 100 91
100 3 0 -3 -10 -14 -22 -34 -39 -54 -76 -60 -114 -4 -28 -3 -34 8 -28 7 4 10
3 5 -2 -5 -5 -23 -14 -40 -21 -18 -6 -25 -12 -17 -12 21 -1 208 84 232 105 10
10 16 24 13 32 -3 7 -5 58 -6 113 0 54 -5 99 -10 99 -5 0 -9 5 -9 11 0 5 4 8
9 4 8 -4 8 66 1 85 -1 3 -2 8 -1 13 1 4 -5 22 -12 40 -12 27 -12 34 -1 45 15
14 19 37 6 28 -4 -2 -8 4 -8 15 0 10 4 19 8 19 4 0 5 15 2 33 -3 17 -5 37 -4
42 6 58 5 237 -1 241 -5 3 -1 17 8 31 13 20 15 31 6 54 -6 16 -7 29 -2 29 5 0
7 72 4 168 -6 206 -4 194 -27 210 -13 9 -16 18 -9 29 5 9 4 27 -3 44 -8 22
-15 28 -30 23 -14 -5 -18 -2 -13 8 3 8 1 21 -4 29 -5 9 -9 -25 -10 -91z"/>
<path d="M4745 2555 l-108 -116 -493 3 c-272 2 -494 0 -494 -4 0 -5 -5 -8 -11
-8 -6 0 -22 -9 -36 -20 l-26 -20 564 0 564 0 50 30 c28 16 67 37 88 46 l38 17
-7 76 c-3 42 -7 81 -9 88 -2 6 1 14 8 17 7 2 5 5 -4 5 -10 1 -65 -51 -124
-114z"/>
<path d="M9250 2564 c-70 -70 -88 -83 -135 -95 l-30 -7 32 -1 c17 -1 34 -5 38
-10 3 -5 19 -12 35 -16 17 -4 30 -11 30 -16 0 -5 33 -9 73 -9 63 -1 70 -2 54
-14 -15 -12 -16 -14 -2 -20 13 -5 15 -39 15 -241 0 -267 7 -250 -90 -211 -33
14 -62 21 -65 16 -3 -5 12 -14 32 -21 21 -6 54 -20 73 -30 19 -11 40 -19 47
-19 7 0 13 -5 13 -12 0 -9 3 -9 12 0 8 8 8 15 0 24 -7 9 -11 104 -12 284 0
149 -5 296 -10 326 -12 76 -29 138 -38 138 -4 0 -37 -30 -72 -66z"/>
<path d="M14395 2501 c41 -82 78 -232 94 -380 7 -65 16 -100 27 -110 9 -9 14
-11 11 -5 -4 6 2 19 13 29 11 10 32 55 46 99 22 70 24 86 14 125 -23 93 -125
251 -166 257 -9 1 -30 15 -46 31 l-30 28 37 -74z"/>
<path d="M3680 2308 c5 -13 27 -81 49 -153 44 -141 95 -240 188 -364 118 -158
300 -322 479 -433 115 -71 387 -218 403 -218 6 0 38 19 69 41 71 52 82 62 60
54 -10 -4 -18 -2 -18 4 0 6 -17 20 -38 32 -32 19 -38 27 -35 48 4 22 2 23 -7
9 -10 -16 -12 -16 -40 0 -16 9 -30 24 -30 34 0 11 -37 34 -113 71 -135 65
-323 180 -452 277 -160 121 -330 318 -401 467 -19 41 -33 78 -30 81 4 3 -1 14
-11 24 -9 10 -13 18 -8 18 4 0 2 7 -5 15 -7 8 -25 15 -41 15 -26 0 -28 -2 -19
-22z"/>
<path d="M8281 2148 c-1 -59 3 -99 9 -99 6 -1 16 -2 23 -3 6 -1 17 -8 24 -16
6 -8 14 -12 17 -9 9 9 12 206 3 215 -5 5 -21 1 -37 -8 -27 -15 -29 -15 -33 0
-3 9 -5 -27 -6 -80z"/>
<path d="M15419 2058 c-41 -62 -79 -112 -85 -111 -6 1 -11 -3 -11 -10 0 -7 -3
-22 -7 -34 -7 -21 -5 -22 44 -18 29 2 48 0 45 -6 -4 -5 4 -9 17 -9 18 0 20 2
8 10 -12 8 -9 10 12 10 14 0 33 3 42 6 26 10 7 24 -32 24 l-36 0 35 25 34 26
5 99 c3 55 5 100 4 100 0 0 -34 -51 -75 -112z"/>
<path d="M15152 1981 c-15 -216 -39 -390 -58 -418 -17 -27 -28 -28 -90 -7 -33
11 -49 13 -57 5 -6 -6 -19 -11 -29 -11 -10 0 -20 -6 -22 -12 -2 -7 -10 -35
-16 -61 -9 -32 -17 -46 -26 -43 -9 4 -11 -4 -7 -31 6 -35 6 -36 -23 -29 -27 7
-27 6 -10 -7 18 -13 18 -14 -3 -20 -18 -4 -21 -9 -12 -24 8 -17 4 -21 -34 -31
l-44 -12 23 -52 c13 -29 26 -61 29 -70 4 -10 14 -18 24 -17 15 0 16 1 2 7 -14
6 -13 14 4 72 18 59 20 63 29 40 7 -20 11 -22 18 -10 7 12 13 13 28 4 15 -10
18 -8 18 10 0 11 -5 25 -10 29 -6 5 -1 6 11 2 15 -4 26 1 37 16 8 12 13 25 11
29 -2 4 11 6 30 5 25 0 31 2 24 11 -6 8 -5 14 6 18 9 3 15 0 15 -8 0 -22 32
-79 39 -69 3 6 14 10 23 10 16 0 16 -12 0 -12 -21 -1 -31 -17 -22 -34 5 -10 6
-22 2 -26 -4 -4 3 -2 16 4 26 14 29 23 5 15 -15 -5 -15 -3 1 10 22 18 40 21
31 6 -10 -16 1 -11 16 7 12 15 12 16 -1 8 -13 -8 -13 -7 -1 8 16 20 36 23 25
5 -5 -9 -3 -9 9 1 9 7 14 17 11 22 -7 11 26 60 36 54 5 -3 12 0 16 6 4 8 3 9
-4 5 -6 -4 -16 4 -23 16 -6 13 -23 36 -37 51 -21 22 -32 26 -55 21 -28 -6 -28
-6 -14 23 20 38 34 112 51 268 16 141 32 385 24 385 -2 0 -9 -76 -16 -169z"/>
<path d="M13941 2050 c-3 -50 -12 -53 -81 -27 l-63 23 -50 -30 c-67 -41 -108
-81 -102 -98 6 -15 69 -15 212 -2 l63 6 16 54 c8 30 13 64 11 76 -4 22 -4 22
-6 -2z"/>
<path d="M13998 1873 c-14 -3 -18 -15 -18 -51 0 -26 3 -57 6 -70 l7 -23 25 23
c15 13 22 16 17 8 -6 -9 -2 -7 7 3 10 11 15 23 12 28 -3 5 0 8 8 7 7 -2 13 4
12 12 -1 13 48 15 380 15 l381 0 -372 2 c-357 3 -373 4 -373 22 0 28 -40 38
-92 24z"/>
<path d="M10100 1561 c0 -59 -27 -64 -117 -22 -35 17 -65 26 -68 20 -4 -5 -18
-9 -33 -10 -15 0 -22 -3 -15 -6 15 -5 23 -47 26 -128 2 -64 10 -70 62 -50 19
8 19 8 2 -12 -14 -16 -15 -22 -5 -27 7 -3 4 -4 -6 -3 -10 1 -21 -4 -23 -11 -3
-8 1 -10 14 -5 10 3 15 3 11 -2 -4 -4 0 -14 8 -22 8 -8 12 -19 9 -24 -4 -5 -1
-9 5 -9 6 0 8 -5 5 -10 -5 -8 -12 -7 -23 2 -13 11 -14 11 -4 -8 6 -12 23 -24
36 -26 16 -3 23 -1 19 5 -4 6 0 8 11 4 9 -4 15 -3 12 2 -3 4 6 13 20 20 14 6
23 7 19 1 -3 -6 1 -7 9 -4 9 3 13 10 10 15 -3 5 1 7 8 4 16 -6 98 67 125 110
10 16 12 26 6 22 -9 -6 -13 0 -13 22 0 17 5 31 12 31 6 0 -5 14 -25 31 -20 17
-35 35 -32 39 6 10 -36 0 -51 -12 -8 -6 -10 4 -6 37 2 25 2 45 -2 45 -3 0 -6
-9 -6 -19z"/>
</g>
</svg>
