<?xml version="1.0" encoding="utf-8"?>
<!-- Generator: Adobe Illustrator 19.1.0, SVG Export Plug-In . SVG Version: 6.00 Build 0)  -->
<svg version="1.1" id="Layer_1" xmlns="http://www.w3.org/2000/svg" xmlns:xlink="http://www.w3.org/1999/xlink" x="0px" y="0px"
	 viewBox="0 0 143 104" style="enable-background:new 0 0 143 104;" xml:space="preserve">
<style type="text/css">
	.st0{fill:none;stroke:#BA9155;stroke-width:4;stroke-linecap:round;stroke-miterlimit:10;}
	.st1{fill:none;stroke:#BA9155;stroke-width:4;stroke-miterlimit:10;}
</style>
<g id="XMLID_1186_">
	<path id="XMLID_1191_" class="st0" d="M98,47H53.8c-5.4,0-10,4.4-10,9.8l0,0c0,5.5,4.4,11.2,9.9,11.2l24.2,0
		c0,0,7.6,13.7,29.4,11.4"/>
	<path id="XMLID_1190_" class="st0" d="M66,26c0,0,18.5,0,23.6,0c6.9,0,12.5,3.2,20.6,11.3C122.3,49.5,141,68.5,141,68.5"/>
	<path id="XMLID_1189_" class="st0" d="M73.5,85.1c4.2,4.3,10.4,9.4,20.8,11.6c10.4,2.2,12,4.3,13,5.3"/>
	<path id="XMLID_1188_" class="st1" d="M84.5,74L62.2,96.3c-1.6,1.6-4.1,1.6-5.6,0L3.2,42.7c-1.6-1.6-1.6-4.1,0-5.6L36.9,3.2
		c1.6-1.6,4.1-1.6,5.6,0l43.6,43.7"/>
	<line id="XMLID_1187_" class="st1" x1="25.7" y1="14.5" x2="58" y2="46.9"/>
</g>
</svg>
