<?xml version="1.0" encoding="utf-8"?>
<!-- Generator: Adobe Illustrator 19.0.0, SVG Export Plug-In . SVG Version: 6.00 Build 0)  -->
<svg version="1.1" id="Layer_1" xmlns="http://www.w3.org/2000/svg" xmlns:xlink="http://www.w3.org/1999/xlink" x="0px" y="0px"
	 viewBox="13 -13 36 36" style="enable-background:new 13 -13 36 36;" xml:space="preserve">
<style type="text/css">
	.st0{clip-path:url(#SVGID_2_);}
	.st1{fill:#FF562D;}
	.st2{opacity:0.4;fill:url(#XMLID_3_);enable-background:new    ;}
	.st3{opacity:0.4;fill:url(#XMLID_4_);enable-background:new    ;}
	.st4{opacity:0.5;fill:#B3B3B3;enable-background:new    ;}
	.st5{fill:#BB9156;}
</style>
<g id="XMLID_2_">
	<g>
		<defs>
			<rect id="SVGID_1_" x="13" y="-13" width="36" height="36"/>
		</defs>
		<clipPath id="SVGID_2_">
			<use xlink:href="#SVGID_1_"  style="overflow:visible;"/>
		</clipPath>
		<g id="XMLID_2384_" class="st0">
			<circle id="XMLID_2421_" class="st1" cx="26.5" cy="5.5" r="12.5"/>
			
				<linearGradient id="XMLID_3_" gradientUnits="userSpaceOnUse" x1="32" y1="4.6" x2="39" y2="4.6" gradientTransform="matrix(1 0 0 -1 0 10)">
				<stop  offset="0" style="stop-color:#FFFFFF"/>
				<stop  offset="1" style="stop-color:#9C1C23"/>
			</linearGradient>
			<path id="XMLID_2415_" class="st2" d="M35,3l-3,10h4.5c1.6-2.1,2.5-4.7,2.5-7.5c0-2.9-1-5.5-2.6-7.7C35.8-1.3,35,0,35,1V3z"/>
			
				<linearGradient id="XMLID_4_" gradientUnits="userSpaceOnUse" x1="14" y1="4.5" x2="39" y2="4.5" gradientTransform="matrix(1 0 0 -1 0 10)">
				<stop  offset="0" style="stop-color:#FFFFFF"/>
				<stop  offset="1" style="stop-color:#9C1C23"/>
			</linearGradient>
			<circle id="XMLID_2412_" class="st3" cx="26.5" cy="5.5" r="12.5"/>
			<path id="XMLID_2404_" class="st4" d="M35,3l-3,10h4.5c1.6-2.1,2.5-4.7,2.5-7.5c0-2.9-1-5.5-2.6-7.7C35.8-1.3,35,0,35,1V3z"/>
			<g id="XMLID_2389_">
				<g id="XMLID_2394_">
					<path id="XMLID_14_" class="st5" d="M38,13.5c0,1.4,1.3,2.5,3,2.5s3-1.1,3-2.5c0-0.2,0-0.3-0.1-0.5H38C38,13.2,38,13.3,38,13.5
						z"/>
				</g>
				<path id="XMLID_2393_" class="st5" d="M46,5V2c0-2.1-1.3-3.8-3-4.6c0-0.1,0-0.3,0-0.4c0-1.1-0.9-2-2-2s-2,0.9-2,2
					c0,0.1,0,0.3,0,0.4c-1.8,0.8-3,2.5-3,4.6v3l-2,7h14L46,5z"/>
			</g>
		</g>
	</g>
</g>
</svg>
