<svg id="a62a7c42-737b-4be0-b1cc-113aba9fdfeb" data-name="Layer 1" xmlns="http://www.w3.org/2000/svg" viewBox="0 0 12.44 12.44"><title>icon-topology-inactive</title><g id="656fb606-26d6-44f2-9499-76e82620d7aa" data-name="Page-1"><g id="d02c0643-6747-4ca2-9de6-7dac99ed9ab9" data-name="Table-inactive-icon"><g id="54d73435-eb9e-43d3-aea8-c627ec6f92a0" data-name="18x18-Gaming-Day-cross"><path id="22d6f1ce-cb05-421e-ba0a-ecde062293f1" data-name="Active-icon-18x18" d="M.78,7A6.23,6.23,0,0,1,7,.78H7A6.23,6.23,0,0,1,13.22,7h0A6.23,6.23,0,0,1,7,13.22H7A6.23,6.23,0,0,1,.78,7Z" transform="translate(-0.78 -0.78)" fill="#f80"/><polygon id="52b0e51f-3be9-411a-af57-3afcdae3d668" data-name="x" points="3.11 9.33 5.26 6.13 3.2 3.11 5.13 3.11 6.18 4.82 7.29 3.11 9.15 3.11 7.13 6.06 9.33 9.33 7.4 9.33 6.18 7.41 4.96 9.33 3.11 9.33" fill="#fff"/></g></g></g></svg>