<?xml version="1.0" encoding="UTF-8" standalone="no"?>
<svg width="22px" height="21px" viewBox="0 0 22 21" version="1.1" xmlns="http://www.w3.org/2000/svg" xmlns:xlink="http://www.w3.org/1999/xlink">
    <!-- Generator: Sketch 3.8.2 (29753) - http://www.bohemiancoding.com/sketch -->
    <title>Combined Shape Copy</title>
    <desc>Created with Sketch.</desc>
    <defs></defs>
    <g id="Symbols" stroke="none" stroke-width="1" fill="none" fill-rule="evenodd">
        <g id="Icon-thumb-up" fill="#BB9156">
            <path d="M0,7.29291062 L3.28497056,7.29291062 L3.28497056,20.980288 L0,20.980288 L0,7.29291062 Z M4.48268425,19.6522373 C4.48271991,15.3890327 4.48279123,7.41011862 4.48279123,7.41011862 C4.48279123,7.41011862 5.01921863,6.25835873 6.00342267,5.20854097 C6.9876267,4.15872321 8.29591758,3.84345049 8.62796677,3.43697376 C9.80007679,2.00213982 9.71346179,0.972527985 10.5146768,0.205366376 C10.5146768,0.205366376 11.8617557,-0.256707975 12.7616241,0.205366383 C13.2945736,0.479031163 13.3572214,2.34120705 13.5026408,2.71522387 C13.8935962,3.7207563 10.9884945,7.35426783 10.9884945,7.35426783 C10.9884945,7.35426783 15.2059462,7.35426773 17.4754716,7.35426767 C17.7915816,7.35426767 18.8558372,7.91687197 19.0718551,8.19817413 C19.5900859,8.8730232 20.8973989,10.0856745 21.6480613,10.763849 C21.978443,11.0623273 22.0950545,11.9294268 21.9167631,12.4915395 C21.3282989,14.3468347 19.9516934,18.1852149 18.9949163,19.6522379 C18.2075529,20.6277377 17.0860104,20.9818618 16.8952808,20.9818618 C14.2348492,20.981862 6.15831502,20.9818609 5.4881055,20.9818613 C4.81789597,20.9818616 4.48268207,19.9129469 4.48268425,19.6522373 Z" id="Combined-Shape-Copy"></path>
        </g>
    </g>
</svg>