<svg id="3786a99c-975a-4aac-bffb-682e27da8c4c" data-name="Layer 1" xmlns="http://www.w3.org/2000/svg" viewBox="0 0 30 30"><title>icon-ask-illust</title><g id="86e9001a-7858-4bf8-92d3-3f7cd95df1de" data-name="Convert-Closed-Session-updates"><g id="5fa7fdbe-c2b8-43cd-ab95-a7f79d5bee57" data-name="icon-ask"><g id="44993d93-cb2b-4881-8770-77ca1b546d89" data-name="q-icon-copy"><circle id="c25b5934-265a-4cab-af02-ca16fbb14c8d" data-name="Oval" cx="15" cy="15" r="15" fill="#dc3522"/><path id="8c38ed17-6200-4018-8860-b73a37ff9849" data-name="?" d="M9,10.4a4.67,4.67,0,0,1,.79-2.49,6.07,6.07,0,0,1,2.3-2.09A7.24,7.24,0,0,1,15.62,5a7.54,7.54,0,0,1,3.31.69,5.37,5.37,0,0,1,2.22,1.88,4.61,4.61,0,0,1,.78,2.59,4,4,0,0,1-.45,1.93,5.9,5.9,0,0,1-1.06,1.43q-0.61.6-2.2,2a9,9,0,0,0-.7.7,2.86,2.86,0,0,0-.39.56,2.73,2.73,0,0,0-.2.5q-0.07.25-.21,0.89a1.44,1.44,0,0,1-1.54,1.34A1.57,1.57,0,0,1,14,19.09a1.73,1.73,0,0,1-.46-1.31,4.58,4.58,0,0,1,1.23-3.28,20.47,20.47,0,0,1,1.5-1.43q0.83-.72,1.2-1.09a3.71,3.71,0,0,0,.62-0.82,2,2,0,0,0,.25-1,2.28,2.28,0,0,0-.77-1.75,2.81,2.81,0,0,0-2-.71,2.75,2.75,0,0,0-2.09.72,5.72,5.72,0,0,0-1.14,2.11A1.71,1.71,0,0,1,10.72,12a1.64,1.64,0,0,1-1.22-.51A1.56,1.56,0,0,1,9,10.4H9Zm6.31,14.17a2,2,0,0,1-1.38-.51,1.79,1.79,0,0,1-.59-1.43,1.84,1.84,0,0,1,.57-1.37,1.92,1.92,0,0,1,1.4-.56,1.9,1.9,0,0,1,1.93,1.93,1.81,1.81,0,0,1-.58,1.42,2,2,0,0,1-1.34.52h0Z" transform="translate(0 0)" fill="#fff"/></g></g></g></svg>