<?xml version="1.0" encoding="UTF-8" standalone="no"?>
<svg width="36px" height="42px" viewBox="0 0 36 42" version="1.1" xmlns="http://www.w3.org/2000/svg" xmlns:xlink="http://www.w3.org/1999/xlink">
    <!-- Generator: Sketch 3.7.1 (28215) - http://www.bohemiancoding.com/sketch -->
    <title>icon-lock</title>
    <desc>Created with Sketch.</desc>
    <defs>
        <rect id="path-1" x="285" y="128" width="454" height="413"></rect>
        <mask id="mask-2" maskContentUnits="userSpaceOnUse" maskUnits="objectBoundingBox" x="0" y="0" width="454" height="413" fill="white">
            <use xlink:href="#path-1"></use>
        </mask>
        <rect id="path-3" x="285" y="204" width="454" height="360"></rect>
        <mask id="mask-4" maskContentUnits="userSpaceOnUse" maskUnits="objectBoundingBox" x="0" y="0" width="454" height="360" fill="white">
            <use xlink:href="#path-3"></use>
        </mask>
    </defs>
    <g id="Current" stroke="none" stroke-width="1" fill="none" fill-rule="evenodd">
        <g id="Casino-Manager-Login-Screen" transform="translate(-362.000000, -339.000000)">
            <use id="Rectangle-650-Copy" stroke="#979797" mask="url(#mask-2)" stroke-width="2" fill="#F0F0F0" xlink:href="#path-1"></use>
            <use id="Rectangle-650" stroke="#979797" mask="url(#mask-4)" stroke-width="2" fill="#FFFFFF" xlink:href="#path-3"></use>
            <g id="Group-4" transform="translate(362.000000, 221.000000)">
                <g id="icon-add-player">
                    <g id="Group-4-Copy" transform="translate(0.000000, 118.000000)">
                        <g id="icon-lock" transform="translate(2.000000, 2.000000)">
                            <g id="Layer_1">
                                <g id="XMLID_2_">
                                    <g id="XMLID_491_">
                                        <path d="M6.94736842,19 L6.94736842,8.46363636 C7.64210526,3.8 10.4210526,0 15.1105263,0 L16.1526316,0 C20.8421053,0 24.3157895,3.8 24.3157895,8.46363636 L24.3157895,19" id="XMLID_495_" stroke="#4A4A4A" stroke-width="4"></path>
                                        <path d="M15,25.9090909 L15,32.8181818" id="XMLID_494_" stroke="#4A4A4A" stroke-width="4"></path>
                                        <ellipse id="XMLID_493_" fill="#4A4A4A" cx="15.6315789" cy="26.7727273" rx="4.34210526" ry="4.31818182"></ellipse>
                                        <path d="M31.2631579,34.2 C31.2631579,36.2727273 29.3526316,38 26.9210526,38 L4.34210526,38 C1.91052632,38 0,36.2727273 0,34.2 L0,21.2454545 C0,19 1.91052632,17.2727273 4.34210526,17.2727273 L27.0947368,17.2727273 C29.5263158,17.2727273 31.4368421,19 31.4368421,21.0727273 L31.4368421,34.2 L31.2631579,34.2 Z" id="XMLID_492_" stroke="#4A4A4A" stroke-width="4"></path>
                                    </g>
                                </g>
                            </g>
                        </g>
                    </g>
                </g>
            </g>
        </g>
    </g>
</svg>