<?xml version="1.0" encoding="UTF-8" standalone="no"?>
<svg width="64px" height="64px" viewBox="0 0 64 64" version="1.1" xmlns="http://www.w3.org/2000/svg" xmlns:xlink="http://www.w3.org/1999/xlink">
    <!-- Generator: Sketch 3.7.2 (28276) - http://www.bohemiancoding.com/sketch -->
    <title>icon-player-dash</title>
    <desc>Created with Sketch.</desc>
    <defs></defs>
    <g id="Symbols" stroke="none" stroke-width="1" fill="none" fill-rule="evenodd">
        <g id="icon-player-dash" fill="#BB9156">
            <path d="M20.3934905,55.9129126 C23.3608658,57.0928732 27.3820345,58 32.7324725,58 C37.03085,58 39.4969367,57.4223635 42.2223206,56.5915734 C49.2002617,54.4644585 51.490566,50.67782 51.490566,50.67782 C50.3095702,49.8842832 49.8077029,49.2891307 48.0362092,48.8923623 C39.5724059,47.3052888 39.5724059,44.6271023 39.5724059,42.9408367 L39.5724059,41.9489157 C41.6391485,40.1634581 43.1153933,37.4852715 44.0011402,34.4103166 C46.5599644,34.4103166 47.1504623,29.0539436 47.1504623,28.1612147 C47.1504623,27.367678 47.2488787,24.0943389 44.5916381,24.0943389 C50.2013682,8.71956437 35.3405042,2.56965457 24.1210439,10.40583 C19.495477,10.40583 19.1018117,17.2500844 20.8733054,24.0943389 C18.2160649,24.0943389 18.4128975,27.367678 18.4128975,28.1612147 C18.4128975,28.9547515 19.0033954,34.4103166 21.5622197,34.4103166 C22.3495502,37.4852715 23.9242113,40.064266 25.990954,41.9489157 L25.990954,42.9408367 C25.990954,44.6271023 25.990954,47.4044809 17.5271506,48.8923623 C15.7556569,49.1899386 14.2794121,49.8842832 13,50.5786279 C13,50.5786279 14.8733502,53.7178589 20.3934905,55.9129126 Z" id="XMLID_565_"></path>
        </g>
    </g>
</svg>