<?xml version="1.0" encoding="utf-8"?>
<!-- Generator: Adobe Illustrator 21.1.0, SVG Export Plug-In . SVG Version: 6.00 Build 0)  -->
<svg version="1.1" id="Layer_1" xmlns="http://www.w3.org/2000/svg" xmlns:xlink="http://www.w3.org/1999/xlink" x="0px" y="0px"
	 viewBox="0 0 49 42" style="enable-background:new 0 0 49 42;" xml:space="preserve">
<style type="text/css">
	.st0{fill:#BB9156;}
</style>
<title>Combined Shape Copy</title>
<desc>Created with Sketch.</desc>
<g id="Convert-Open-Session">
	<g id="Game-Details-Ranked-new-hovered-rate" transform="translate(-348.000000, -378.000000)">
		<g id="Player-details-card-Copy" transform="translate(231.000000, 224.000000)">
			<g id="Hovered-icons-style2" transform="translate(8.000000, 92.000000)">
				<g id="icon-update" transform="translate(92.000000, 53.000000)">
					<path id="Combined-Shape-Copy" class="st0" d="M60.7,30l4.4-0.2l-6.8,10.8l-7.3-10.2l4.3-0.2c-0.3-4.2-2-8-4.8-10.8
						c-3-3-7.1-4.9-11.6-4.9s-8.6,1.9-11.6,4.9s-4.8,7.2-4.8,11.9c0,2.2,0.4,4.4,1.2,6.4l-4.2,4.1l0,0c-1.6-3.1-2.5-6.7-2.5-10.4
						c0-6.2,2.4-11.8,6.4-15.8S32.8,9,38.9,9s11.5,2.5,15.5,6.6C58,19.3,60.4,24.4,60.7,30z M42.2,38.2c0,2.7,1.3,3.9,5.2,5.4
						c4,1.5,6.5,3,6.5,4V51h-15h-15v-3.4c0-1,2.6-2.5,6.5-4c3.9-1.5,5.2-2.7,5.2-5.4c0-1.6-1.2-1.1-1.7-4c-0.2-1.2-1.3,0-1.5-2.8
						c0-1.1,0.6-1.4,0.6-1.4s-0.3-1.6-0.4-2.9c-0.1-1.6,0.9-5.6,6.4-5.6s6.5,4,6.4,5.6c-0.1,1.3-0.4,2.9-0.4,2.9s0.6,0.3,0.6,1.4
						c-0.2,2.8-1.3,1.6-1.5,2.8C43.4,37.1,42.2,36.6,42.2,38.2z"/>
				</g>
			</g>
		</g>
	</g>
</g>
</svg>
