<?xml version="1.0" encoding="UTF-8" standalone="no"?>
<svg width="36px" height="42px" viewBox="0 0 36 42" version="1.1" xmlns="http://www.w3.org/2000/svg" xmlns:xlink="http://www.w3.org/1999/xlink">
    <!-- Generator: Sketch 3.7.1 (28215) - http://www.bohemiancoding.com/sketch -->
    <title>XMLID_6529_</title>
    <desc>Created with Sketch.</desc>
    <defs>
        <rect id="path-1" x="285" y="128" width="454" height="413"></rect>
        <mask id="mask-2" maskContentUnits="userSpaceOnUse" maskUnits="objectBoundingBox" x="0" y="0" width="454" height="413" fill="">
            <use xlink:href="#path-1"></use>
        </mask>
        <rect id="path-3" x="285" y="204" width="454" height="360"></rect>
        <mask id="mask-4" maskContentUnits="userSpaceOnUse" maskUnits="objectBoundingBox" x="0" y="0" width="454" height="360" fill="">
            <use xlink:href="#path-3"></use>
        </mask>
    </defs>
    <g id="Current" stroke="none" stroke-width="1" fill="none" fill-rule="evenodd">
        <g id="Casino-Manager-Login-Screen" transform="translate(-362.000000, -221.000000)">
            <use id="Rectangle-650-Copy" stroke="#979797" mask="url(#mask-2)" stroke-width="2" fill="#F0F0F0" xlink:href="#path-1"></use>
            <use id="Rectangle-650" stroke="#979797" mask="url(#mask-4)" stroke-width="2" fill="#eee7dd" xlink:href="#path-3"></use>
            <g id="Group-4" transform="translate(362.000000, 221.000000)" fill="#4A4A4A">
                <g id="icon-add-player">
                    <path d="M23.1969292,26.9682 L23.1969292,26.2416 C23.1969292,24.8922 25.8993324,22.92 26.522964,20.6364 C28.4977971,20.6364 28.9135514,16.5882 28.9135514,15.9654 C28.9135514,15.3426 28.9135514,12.9552 26.9387183,12.9552 C31.2002003,1.4334 19.8708945,-3.2376 11.4518692,2.679 C7.91795728,2.679 7.71008011,7.7652 8.95734312,12.9552 C6.98251001,12.9552 7.0864486,16.0692 7.0864486,16.5882 C7.0864486,17.211 7.50220294,21.882 9.47703605,21.882 C10.1006676,22.92 12.6991322,24.8922 12.6991322,26.2416 L12.6991322,26.9682 C12.6991322,28.2138 12.6991322,30.2898 6.3588785,31.4316 C3.24072096,31.9506 1.36982644,33.7152 0.330440587,35.376 C5.0076769,39.4242 11.243992,41.9154 18,41.9154 C24.756008,41.9154 30.8883845,39.4242 35.6695594,35.376 C34.526235,33.819 32.6553405,32.0544 29.5371829,31.4316 C23.1969292,30.2898 23.1969292,28.3176 23.1969292,26.9682 Z" id="XMLID_6529_"></path>
                </g>
            </g>
        </g>
    </g>
</svg>
