<?xml version="1.0" encoding="utf-8"?>
<!-- Generator: Adobe Illustrator 19.1.0, SVG Export Plug-In . SVG Version: 6.00 Build 0)  -->
<svg version="1.1" id="Layer_1" xmlns="http://www.w3.org/2000/svg" xmlns:xlink="http://www.w3.org/1999/xlink" x="0px" y="0px"
	 viewBox="0 0 32 31" style="enable-background:new 0 0 32 31;" xml:space="preserve">
<style type="text/css">
	.st0{fill:none;stroke:#333333;stroke-width:2;stroke-miterlimit:10;}
	.st1{fill:none;stroke:#333333;stroke-width:2;stroke-linecap:round;stroke-miterlimit:10;}
</style>
<g id="XMLID_1738_">
	<rect id="XMLID_2081_" x="26" y="18" class="st0" width="5" height="11"/>
	<path id="XMLID_2076_" class="st0" d="M26,27"/>
	<path id="XMLID_2056_" class="st0" d="M26,27.1c-1,0-7.5,2.9-11,2.9c-2.1,0-4-1.1-8-3c-1.9-0.9-6-3.3-6-5c0-2,5.4,0.5,10,2"/>
	<path id="XMLID_1988_" class="st0" d="M10.6,23.3"/>
	<circle id="XMLID_1958_" class="st0" cx="17" cy="5" r="4"/>
	<circle id="XMLID_1954_" class="st0" cx="10" cy="14" r="4"/>
	<path id="XMLID_1922_" class="st1" d="M18,26h-5c-1.1,0-2-0.9-2-2l0,0c0-1.1,0.9-2,2-2h2c6,0,4-3,11-3"/>
</g>
</svg>
