<?xml version="1.0" encoding="UTF-8" standalone="no"?>
<svg width="34px" height="37px" viewBox="0 0 34 37" version="1.1" xmlns="http://www.w3.org/2000/svg" xmlns:xlink="http://www.w3.org/1999/xlink">
    <!-- Generator: Sketch 3.7.2 (28276) - http://www.bohemiancoding.com/sketch -->
    <title>Approval acknowledged</title>
    <desc>Created with Sketch.</desc>
    <defs></defs>
    <g id="Current" stroke="none" stroke-width="1" fill="none" fill-rule="evenodd">
        <g id="Independent-Bets-UI" transform="translate(-680.000000, -647.000000)">
            <g id="Approval-Icon-Copy-2" transform="translate(680.000000, 647.000000)">
                <g id="Icon-thumb-up" transform="translate(2.000000, 0.000000)" fill="#BB9156">
                    <path d="M1,10.0712661 L5.53643469,10.0712661 L5.53643469,28.9730773 L1,28.9730773 L1,10.0712661 Z M7.19043732,27.1390837 C7.19048656,21.2517405 7.19058505,10.2331265 7.19058505,10.2331265 C7.19058505,10.2331265 7.93137338,8.6425845 9.2905263,7.19282121 C10.6496792,5.74305793 12.4563853,5.30767682 12.9149341,4.74634604 C14.5335789,2.76488826 14.4139665,1.34302868 15.5204177,0.28360411 C15.5204177,0.28360411 17.3806887,-0.354505144 18.6233769,0.28360412 C19.3593623,0.661526045 19.4458769,3.23312878 19.6466962,3.74963352 C20.1865926,5.13824025 16.1747441,10.1559984 16.1747441,10.1559984 C16.1747441,10.1559984 21.9989042,10.1559982 25.133043,10.1559982 C25.5695803,10.1559982 27.0392817,10.9329359 27.3375952,11.3214048 C28.0532547,12.2533488 29.8586103,13.9279797 30.8952501,14.8645161 C31.3514961,15.2767047 31.5125328,16.4741402 31.2663182,17.2503991 C30.4536688,19.8124998 28.5526225,25.1131748 27.2313454,27.1390845 C26.1440227,28.4862172 24.59521,28.9752507 24.3318188,28.9752508 C20.6578515,28.9752511 9.50442747,28.9752495 8.57889049,28.97525 C7.65335351,28.9752505 7.1904343,27.499115 7.19043732,27.1390837 Z" id="Combined-Shape-Copy"></path>
                </g>
                <path d="M11.5,35.7931703 C17.2989899,35.7931703 22,31.0921601 22,25.2931703 C22,19.4941804 17.2989899,14.7931703 11.5,14.7931703 C5.70101013,14.7931703 1,19.4941804 1,25.2931703 C1,31.0921601 5.70101013,35.7931703 11.5,35.7931703 Z" id="Oval-206-Copy" stroke="#22B573" stroke-width="1" fill="#FFFFFF"></path>
                <polyline id="Path-694" stroke="#22B573" stroke-width="2" fill="#FFFFFF" points="4.51356272 25.1382627 9.12425666 30.2157415 18.1748786 21.0797361"></polyline>
            </g>
        </g>
    </g>
</svg>