<?xml version="1.0" encoding="UTF-8" standalone="no"?>
<svg width="64px" height="64px" viewBox="0 0 64 64" version="1.1" xmlns="http://www.w3.org/2000/svg" xmlns:xlink="http://www.w3.org/1999/xlink">
    <!-- Generator: Sketch 3.7.2 (28276) - http://www.bohemiancoding.com/sketch -->
    <title>icon-casino-manager</title>
    <desc>Created with Sketch.</desc>
    <defs></defs>
    <g id="Symbols" stroke="none" stroke-width="1" fill="none" fill-rule="evenodd">
        <g id="icon-casino-manager">
            <g id="icon-application-placeholder" transform="translate(2.000000, 10.000000)">
                <path d="M34.5787106,32.6421249 L16.8013493,40.9599254 C15.1281859,41.7287978 13.1761619,41.0298229 12.4092954,39.3522833 L0.418290855,13.5601118 C-0.557721139,11.4631873 0.348575712,8.94687791 2.44002999,7.96831314 L18.613943,0.419384902 C20.7053973,-0.55917987 23.2151424,0.349487418 24.1911544,2.44641193 L36.1821589,28.2385834 C36.9490255,29.916123 36.2518741,31.8732526 34.5787106,32.6421249 L34.5787106,32.6421249 Z" id="Shape" stroke="#BA9155" stroke-width="2"></path>
                <path d="M23.005997,15.5172414 L23.005997,15.4473439 L23.005997,15.4473439 C22.0997001,13.6300093 20.0082459,12.861137 18.3350825,13.6300093 C17.149925,14.1891892 16.3830585,15.4473439 16.3830585,16.7753961 C15.3373313,15.9366263 13.9430285,15.6570363 12.7578711,16.2162162 C11.0847076,16.9850885 10.3178411,19.1519105 11.1544228,20.9692451 L11.1544228,20.9692451 C11.1544228,20.9692451 11.1544228,21.0391426 11.2241379,21.0391426 L11.2241379,21.1090401 C11.3635682,21.4585275 11.5727136,21.8080149 11.8515742,22.0876048 C13.8733133,24.6039143 18.0562219,25.722274 20.7751124,26.0717614 C22.3088456,23.7651445 24.1214393,19.7809879 23.494003,16.7054986 C23.3545727,16.2861137 23.2151424,15.9366263 23.005997,15.5172414 L23.005997,15.5172414 L23.005997,15.5172414 Z" id="XMLID_4104_" fill="#BA9155"></path>
                <path d="M7.3898051,11.1136999 L7.3898051,11.1136999 L7.3898051,11.1136999 C7.11094453,10.55452 6.48350825,10.3448276 5.99550225,10.55452 C5.64692654,10.694315 5.43778111,11.1136999 5.43778111,11.4631873 C5.15892054,11.1835974 4.74062969,11.1136999 4.39205397,11.3233924 C3.90404798,11.5330848 3.69490255,12.1621622 3.90404798,12.721342 L3.90404798,12.721342 L3.90404798,12.721342 L3.90404798,12.721342 C3.97376312,12.861137 4.04347826,12.9310345 4.1131934,13.000932 C4.67091454,13.6999068 5.92578711,14.0493942 6.76236882,14.1891892 C7.18065967,13.4902144 7.73838081,12.3718546 7.52923538,11.3932898 C7.45952024,11.3233924 7.45952024,11.2534949 7.3898051,11.1136999 L7.3898051,11.1136999 L7.3898051,11.1136999 Z" id="XMLID_4102_" fill="#BA9155"></path>
                <path d="M29.1409295,30.5452004 C29.1409295,30.6150979 29.1409295,30.6150979 29.1409295,30.5452004 L29.1409295,30.5452004 C29.4197901,31.1043802 30.0472264,31.3140727 30.5352324,31.1043802 C30.8838081,30.9645853 31.0929535,30.5452004 31.0929535,30.195713 C31.3718141,30.4753029 31.7901049,30.5452004 32.1386807,30.3355079 C32.6266867,30.1258155 32.8358321,29.4967381 32.6266867,28.9375582 L32.6266867,28.9375582 L32.6266867,28.9375582 L32.6266867,28.9375582 C32.5569715,28.7977633 32.4872564,28.7278658 32.4175412,28.6579683 C31.8598201,27.9589935 30.6049475,27.6095061 29.7683658,27.4697111 C29.350075,28.1686859 28.7923538,29.2870457 29.0014993,30.2656104 C29.0712144,30.3355079 29.1409295,30.4753029 29.1409295,30.5452004 L29.1409295,30.5452004 L29.1409295,30.5452004 Z" id="XMLID_4095_" fill="#BA9155"></path>
                <path d="M32.9752624,10.7642125 L36.2518741,3.63466915 C36.8793103,2.30661696 38.4130435,1.74743709 39.7376312,2.37651445 L58.7698651,11.2534949 C60.0944528,11.8825722 60.6521739,13.4203169 60.0247376,14.7483691 L46.9182909,43.1267474 C46.4302849,44.1752097 45.1754123,44.5945946 44.1994003,44.1053122 L32.4872564,38.6533085" id="Shape" stroke="#BA9155" stroke-width="2"></path>
                <polygon id="XMLID_4083_" fill="#BA9155" points="39.7376312 28.2385834 37.3673163 18.8723206 46.011994 14.6784716 48.452024 24.0447344"></polygon>
                <polygon id="XMLID_3921_" fill="#BA9155" points="38.2736132 10.83411 37.5764618 8.10810811 40.155922 6.91985089 40.8530735 9.64585275"></polygon>
                <polygon id="XMLID_3915_" fill="#BA9155" points="45.035982 35.7875116 45.8028486 38.583411 43.2233883 39.7716682 42.5262369 37.0456664"></polygon>
            </g>
        </g>
    </g>
</svg>