<?xml version="1.0" encoding="utf-8"?>
<!-- Generator: Adobe Illustrator 19.1.0, SVG Export Plug-In . SVG Version: 6.00 Build 0)  -->
<svg version="1.1" id="Layer_1" xmlns="http://www.w3.org/2000/svg" xmlns:xlink="http://www.w3.org/1999/xlink" x="0px" y="0px"
	 viewBox="0 0 33.7 44.2" style="enable-background:new 0 0 33.7 44.2;" xml:space="preserve">
<style type="text/css">
	.st0{fill:#FFFFFF;}
	.st1{fill:none;stroke:#FFFFFF;stroke-width:2;stroke-miterlimit:10;}
</style>
<g id="XMLID_320_">
	<g id="XMLID_333_">
		<path id="XMLID_436_" class="st0" d="M25.5,26.5C25.5,26.5,25.5,26.5,25.5,26.5L25.5,26.5c0.4-1.7-0.5-3.3-2-3.7
			c-1.1-0.3-2.2,0.1-2.9,0.9c-0.2-1.1-1-2-2.1-2.3c-1.5-0.4-3.1,0.5-3.6,2.1l0,0c0,0,0,0,0,0.1c0,0,0,0,0,0
			c-0.1,0.3-0.1,0.6-0.1,0.9c0,2.6,2,5.5,3.6,7.2c2.2-0.6,5.5-2.1,6.7-4.4C25.3,27.2,25.4,26.9,25.5,26.5
			C25.5,26.6,25.5,26.5,25.5,26.5z"/>
	</g>
	<g id="XMLID_326_">
		<polyline id="XMLID_331_" class="st1" points="5.1,29.3 1.2,28.3 8.5,1.2 26.8,6.1 25.8,10 		"/>
		<polyline id="XMLID_330_" class="st1" points="7.9,34.2 4.1,33.2 11.3,6.1 29.7,11 28.6,14.9 		"/>
		
			<rect id="XMLID_328_" x="10.2" y="13" transform="matrix(0.9659 0.2588 -0.2588 0.9659 7.6599 -4.1738)" class="st1" width="19" height="28"/>
	</g>
</g>
</svg>
