<?xml version="1.0" encoding="UTF-8" standalone="no"?>
<svg width="34px" height="25px" viewBox="0 0 34 25" version="1.1" xmlns="http://www.w3.org/2000/svg" xmlns:xlink="http://www.w3.org/1999/xlink">
    <!-- Generator: Sketch 39 (31667) - http://www.bohemiancoding.com/sketch -->
    <title>icon-alert-disable</title>
    <desc>Created with Sketch.</desc>
    <defs>
        <linearGradient x1="0%" y1="50%" x2="100%" y2="50%" id="linearGradient-1">
            <stop stop-color="#FFFFFF" offset="0%"></stop>
            <stop stop-color="#BBBBBB" offset="100%"></stop>
        </linearGradient>
    </defs>
    <g id="Page-1" stroke="none" stroke-width="1" fill="none" fill-rule="evenodd">
        <g id="icon-alert-disable">
            <g id="XMLID_2_">
                <g id="XMLID_2384_">
                    <circle id="XMLID_2421_" fill="#DDDDDD" cx="12.5" cy="12.5" r="12.5"></circle>
                    <path d="M21,10 L18,20 L22.5,20 C24.1,17.9 25,15.3 25,12.5 C25,9.6 24,7 22.4,4.8 C21.8,5.7 21,7 21,8 L21,10 L21,10 Z" id="XMLID_2415_" fill="url(#linearGradient-1)" opacity="0.4"></path>
                    <path d="M12.5,25 C19.4035594,25 25,19.4035594 25,12.5 C25,5.59644063 19.4035594,0 12.5,0 C5.59644063,0 0,5.59644063 0,12.5 C0,19.4035594 5.59644063,25 12.5,25 Z" id="XMLID_2412_" fill="url(#linearGradient-1)" opacity="0.4"></path>
                    <path d="M21,10 L18,20 L22.5,20 C24.1,17.9 25,15.3 25,12.5 C25,9.6 24,7 22.4,4.8 C21.8,5.7 21,7 21,8 L21,10 L21,10 Z" id="XMLID_2404_" fill="#B3B3B3" opacity="0.5"></path>
                    <g id="XMLID_2389_" transform="translate(20.000000, 2.000000)" fill="#AAAAAA">
                        <g id="XMLID_2394_" transform="translate(4.000000, 18.000000)">
                            <path d="M0,0.5 C0,1.9 1.3,3 3,3 C4.7,3 6,1.9 6,0.5 C6,0.3 6,0.2 5.9,0 L0,0 L0,0.5 L0,0.5 Z" id="XMLID_14_"></path>
                        </g>
                        <path d="M12,10 L12,7 C12,4.9 10.7,3.2 9,2.4 L9,2 C9,0.9 8.1,0 7,0 C5.9,0 5,0.9 5,2 L5,2.4 C3.2,3.2 2,4.9 2,7 L2,10 L0,17 L14,17 L12,10 L12,10 Z" id="XMLID_2393_"></path>
                    </g>
                </g>
            </g>
        </g>
    </g>
</svg>