<?xml version="1.0" encoding="utf-8"?>
<!-- Generator: Adobe Illustrator 19.0.0, SVG Export Plug-In . SVG Version: 6.00 Build 0)  -->
<svg version="1.1" id="Layer_1" xmlns="http://www.w3.org/2000/svg" xmlns:xlink="http://www.w3.org/1999/xlink" x="0px" y="0px"
	 viewBox="0 0 36 36" style="enable-background:new 0 0 36 36;" xml:space="preserve">
<style type="text/css">
	.st0{clip-path:url(#XMLID_4_);}
	.st1{fill:#BB9156;}
</style>
<g id="XMLID_2_">
	<defs>
		<rect id="XMLID_1_" width="36" height="36"/>
	</defs>
	<clipPath id="XMLID_4_">
		<use xlink:href="#XMLID_1_"  style="overflow:visible;"/>
	</clipPath>
	<g id="XMLID_2384_" class="st0">
		<g id="XMLID_2389_">
			<g id="XMLID_2394_">
				<path id="XMLID_14_" class="st1" d="M25,26.5c0,1.4,1.3,2.5,3,2.5s3-1.1,3-2.5c0-0.2,0-0.3-0.1-0.5h-5.9
					C25,26.2,25,26.3,25,26.5z"/>
			</g>
			<path id="XMLID_2393_" class="st1" d="M33,18v-3c0-2.1-1.3-3.8-3-4.6c0-0.1,0-0.3,0-0.4c0-1.1-0.9-2-2-2s-2,0.9-2,2
				c0,0.1,0,0.3,0,0.4c-1.8,0.8-3,2.5-3,4.6v3l-2,7h14L33,18z"/>
		</g>
	</g>
</g>
</svg>
