<?xml version="1.0" encoding="utf-8"?>
<!-- Generator: Adobe Illustrator 19.0.0, SVG Export Plug-In . SVG Version: 6.00 Build 0)  -->
<svg version="1.1" id="Layer_1" xmlns="http://www.w3.org/2000/svg" xmlns:xlink="http://www.w3.org/1999/xlink" x="0px" y="0px"
	 viewBox="0 0 26 26" style="enable-background:new 0 0 26 26;" xml:space="preserve">
<style type="text/css">
	.st0{clip-path:url(#XMLID_15_);}
	.st1{fill:none;stroke:#BB9156;stroke-width:2;stroke-linecap:round;stroke-miterlimit:10;}
	.st2{fill:none;stroke:#BB9156;stroke-width:2;stroke-miterlimit:10;}
	.st3{fill:#BB9156;}
</style>
<g id="XMLID_10_">
	<defs>
		<rect id="XMLID_2_" width="26" height="26"/>
	</defs>
	<clipPath id="XMLID_15_">
		<use xlink:href="#XMLID_2_"  style="overflow:visible;"/>
	</clipPath>
	<g id="XMLID_1_" class="st0">
		<g id="XMLID_3_">
			<line id="XMLID_19_" class="st1" x1="3" y1="12" x2="8" y2="12"/>
			<line id="XMLID_18_" class="st2" x1="4" y1="12" x2="4" y2="20"/>
			<line id="XMLID_17_" class="st2" x1="7" y1="12" x2="7" y2="20"/>
			<line id="XMLID_13_" class="st1" x1="11" y1="12" x2="16" y2="12"/>
			<line id="XMLID_12_" class="st2" x1="12" y1="12" x2="12" y2="20"/>
			<line id="XMLID_11_" class="st2" x1="15" y1="12" x2="15" y2="20"/>
			<line id="XMLID_9_" class="st1" x1="19" y1="12" x2="24" y2="12"/>
			<line id="XMLID_8_" class="st2" x1="20" y1="12" x2="20" y2="20"/>
			<line id="XMLID_7_" class="st1" x1="3" y1="20" x2="24" y2="20"/>
			<line id="XMLID_6_" class="st1" x1="1" y1="23" x2="25" y2="23"/>
			<path id="XMLID_5_" class="st2" d="M4,20"/>
			<line id="XMLID_4_" class="st2" x1="23" y1="13" x2="23" y2="21"/>
		</g>
		<g id="XMLID_20_">
			<path id="XMLID_28_" class="st3" d="M13.3,4.3L19.1,8H7.2L13.3,4.3 M13.3,2L0,10h26L13.3,2L13.3,2z"/>
		</g>
	</g>
</g>
</svg>
