<?xml version="1.0" encoding="utf-8"?>
<!-- Generator: Adobe Illustrator 19.1.0, SVG Export Plug-In . SVG Version: 6.00 Build 0)  -->
<svg version="1.1" id="Layer_1" xmlns="http://www.w3.org/2000/svg" xmlns:xlink="http://www.w3.org/1999/xlink" x="0px" y="0px"
	 viewBox="0 0 36.9 27" style="enable-background:new 0 0 36.9 27;" xml:space="preserve">
<style type="text/css">
	.st0{fill:none;stroke:#FFFFFF;stroke-width:2;stroke-linecap:round;stroke-miterlimit:10;}
	.st1{fill:none;stroke:#FFFFFF;stroke-width:2;stroke-miterlimit:10;}
</style>
<g id="XMLID_10238_">
	<path id="XMLID_10371_" class="st0" d="M25.1,12.2l-11.1,0c-1.4,0-2.5,1.1-2.5,2.5l0,0c0,1.4,1.1,2.5,2.5,2.5l6.1,0
		c0,0,1.9,3.8,7.4,3.2"/>
	<path id="XMLID_10368_" class="st0" d="M16.8,6.9c0,0,4.9,0,6.2,0c1.7,0,3.1,0.8,5.2,2.8c3,3,7.8,7.8,7.8,7.8"/>
	<path id="XMLID_10354_" class="st0" d="M19,21.8c1.1,1.1,2.6,2.4,5.2,2.9c2.6,0.6,3,1.1,3.3,1.3"/>
	<path id="XMLID_10353_" class="st1" d="M21.7,19l-5.6,5.6c-0.4,0.4-1,0.4-1.4,0L1.3,11.2c-0.4-0.4-0.4-1,0-1.4l8.5-8.5
		c0.4-0.4,1-0.4,1.4,0l11,11"/>
	<line id="XMLID_10350_" class="st1" x1="7" y1="4.1" x2="15.1" y2="12.2"/>
</g>
</svg>
