<?xml version="1.0" encoding="utf-8"?>
<!-- Generator: Adobe Illustrator 19.1.0, SVG Export Plug-In . SVG Version: 6.00 Build 0)  -->
<svg version="1.1" id="Layer_1" xmlns="http://www.w3.org/2000/svg" xmlns:xlink="http://www.w3.org/1999/xlink" x="0px" y="0px"
	 viewBox="0 0 38 30" style="enable-background:new 0 0 38 30;" xml:space="preserve">
<style type="text/css">
	.st0{fill:none;stroke:#FFFFFF;stroke-width:2;stroke-miterlimit:10;}
	.st1{fill:none;stroke:#FFFFFF;stroke-width:2;stroke-linecap:round;stroke-miterlimit:10;}
</style>
<circle id="XMLID_10300_" class="st0" cx="30" cy="22" r="7"/>
<line id="XMLID_10299_" class="st1" x1="27.5" y1="19.5" x2="32.5" y2="24.5"/>
<line id="XMLID_10298_" class="st1" x1="27.5" y1="24.5" x2="32.5" y2="19.5"/>
<g id="XMLID_10291_">
	<path id="XMLID_10297_" class="st0" d="M22,20.8c-3.9-0.6-7.4-2.8-12-2.8c-5.4,0-9,1.8-9,1.8V3.1C1,3.1,3,1,9,1s7.6,3,14,3
		c3.9,0,8-1.2,8-1.2V14"/>
	<path id="XMLID_10295_" class="st0" d="M21,10.8c0.5,2.8-1.3,5-4,5c-2.7,0-5.3-2.2-5.8-5c-0.5-2.8,1.3-5,4-5
		C17.9,5.8,20.5,8,21,10.8z"/>
	<path id="XMLID_10294_" class="st0" d="M5.9,1.2C6,1.5,6,1.7,6,2c0,2.8-2.2,5-5,5"/>
	<path id="XMLID_10293_" class="st0" d="M1,14c2.5,0,4.6,1.9,5,4.3"/>
	<path id="XMLID_10292_" class="st0" d="M31,8c-2.5,0-4.6-1.8-4.9-4.2"/>
</g>
</svg>
