<?xml version="1.0" encoding="utf-8"?>
<!-- Generator: Adobe Illustrator 19.1.0, SVG Export Plug-In . SVG Version: 6.00 Build 0)  -->
<svg version="1.1" id="Layer_1" xmlns="http://www.w3.org/2000/svg" xmlns:xlink="http://www.w3.org/1999/xlink" x="0px" y="0px"
	 viewBox="0 0 26 27" style="enable-background:new 0 0 26 27;" xml:space="preserve">
<style type="text/css">
	.st0{fill:none;stroke:#9D1D24;stroke-width:2;stroke-miterlimit:10;}
	.st1{fill:#9D1D24;}
	.st2{fill:none;stroke:#9D1D24;stroke-width:2;stroke-linecap:round;stroke-miterlimit:10;}
</style>
<g id="XMLID_1088_">
	<polygon id="XMLID_1104_" class="st0" points="25,26 1,26 1,4 16.2,4 25,4 	"/>
	<rect id="XMLID_1103_" x="4" y="10" class="st1" width="3" height="3"/>
	<rect id="XMLID_1102_" x="9" y="10" class="st1" width="3" height="3"/>
	<rect id="XMLID_1101_" x="14" y="10" class="st1" width="3" height="3"/>
	<rect id="XMLID_1100_" x="4" y="15" class="st1" width="3" height="3"/>
	<rect id="XMLID_1099_" x="9" y="15" class="st1" width="3" height="3"/>
	<rect id="XMLID_1098_" x="14" y="15" class="st1" width="3" height="3"/>
	<rect id="XMLID_1097_" x="4" y="20" class="st1" width="3" height="3"/>
	<rect id="XMLID_1096_" x="9" y="20" class="st1" width="3" height="3"/>
	<rect id="XMLID_1095_" x="14" y="20" class="st1" width="3" height="3"/>
	<rect id="XMLID_1094_" x="19" y="10" class="st1" width="3" height="3"/>
	<rect id="XMLID_1093_" x="19" y="15" class="st1" width="3" height="3"/>
	<rect id="XMLID_1092_" x="19" y="20" class="st1" width="3" height="3"/>
	<line id="XMLID_1091_" class="st2" x1="7" y1="1" x2="7" y2="7"/>
	<line id="XMLID_1090_" class="st2" x1="13" y1="1" x2="13" y2="7"/>
	<line id="XMLID_1089_" class="st2" x1="19" y1="1" x2="19" y2="7"/>
</g>
</svg>
