<?xml version="1.0" encoding="utf-8"?>
<!-- Generator: Adobe Illustrator 19.1.0, SVG Export Plug-In . SVG Version: 6.00 Build 0)  -->
<svg version="1.1" id="Layer_1" xmlns="http://www.w3.org/2000/svg" xmlns:xlink="http://www.w3.org/1999/xlink" x="0px" y="0px"
	 viewBox="0 0 68 68" style="enable-background:new 0 0 68 68;" xml:space="preserve">
<style type="text/css">
	.st0{fill:none;stroke:#BA9155;stroke-width:4;stroke-linecap:round;stroke-linejoin:round;stroke-miterlimit:10;}
	.st1{fill:#BA9155;}
</style>
<g id="XMLID_274_">
	<path id="XMLID_565_" class="st0" d="M54,58.8c-1.2-0.8-2.7-1.4-4.5-1.8c-8.6-1.6-8.6-4.3-8.6-6v-1c2.1-1.8,3.6-4.5,4.5-7.6
		c0,0,0,0,0,0c2.6,0,3.2-5.4,3.2-6.3c0-0.8,0.1-4.1-2.6-4.1c5.7-15.5-9.4-21.7-20.8-13.8c-4.7,0-5.1,6.9-3.3,13.8
		c-2.7,0-2.5,3.3-2.5,4.1c0,0.8,0.6,6.3,3.2,6.3c0,0,0,0,0,0c0.8,3.1,2.4,5.7,4.5,7.6v1c0,1.7,0,4.5-8.6,6c-1.8,0.3-3.3,1-4.6,1.7"
		/>
	<g id="XMLID_282_">
		<path class="st1" d="M34,4c16.5,0,30,13.5,30,30S50.5,64,34,64S4,50.5,4,34S17.5,4,34,4 M34,0C15.2,0,0,15.2,0,34
			c0,18.8,15.2,34,34,34c18.8,0,34-15.2,34-34C68,15.2,52.8,0,34,0L34,0z"/>
	</g>
</g>
</svg>
