<?xml version="1.0" encoding="UTF-8" standalone="no"?>
<svg width="49px" height="64px" viewBox="0 0 49 64" version="1.1" xmlns="http://www.w3.org/2000/svg" xmlns:xlink="http://www.w3.org/1999/xlink">
    <!-- Generator: Sketch 3.7.2 (28276) - http://www.bohemiancoding.com/sketch -->
    <title>icon-dealer-display</title>
    <desc>Created with Sketch.</desc>
    <defs>
        <path d="M34.5,69 C53.5538239,69 69,53.5538239 69,34.5 C69,15.4461761 53.5538239,0 34.5,0 C15.4461761,0 0,15.4461761 0,34.5 C0,53.5538239 15.4461761,69 34.5,69 Z" id="path-1"></path>
        <path d="M10.8552107,17.1761818 C10.4541534,16.011427 11.0800682,14.7397387 12.2285105,14.3442983 L29.5174931,8.39122416 C30.6770029,7.99197291 31.942656,8.6141729 32.3431497,9.77729105 L41.5780796,36.5974748 C41.9791369,37.7622297 41.3532221,39.033918 40.2047797,39.4293584 L22.9157972,45.3824325 C21.7562874,45.7816837 20.4906342,45.1594837 20.0901405,43.9963656 L10.8552107,17.1761818 L10.8552107,17.1761818 Z" id="path-3"></path>
        <mask id="mask-4" maskContentUnits="userSpaceOnUse" maskUnits="objectBoundingBox" x="0" y="0" width="30.9659124" height="37.2330088" fill="white">
            <use xlink:href="#path-3"></use>
        </mask>
        <rect id="path-5" x="20.0122658" y="7.89028395" width="22.7260888" height="32.8265727" rx="2"></rect>
        <mask id="mask-6" maskContentUnits="userSpaceOnUse" maskUnits="objectBoundingBox" x="0" y="0" width="22.7260888" height="32.8265727" fill="white">
            <use xlink:href="#path-5"></use>
        </mask>
        <path d="M29.5753572,7.06331413 C29.8941884,5.87342021 31.1242143,5.16914993 32.2974436,5.48351578 L49.9595765,10.21607 C51.1441122,10.5334654 51.8454564,11.7570368 51.5270733,12.9452587 L44.1855207,40.344306 C43.8666896,41.5341999 42.6366637,42.2384702 41.4634343,41.9241044 L23.8013014,37.1915501 C22.6167657,36.8741547 21.9154216,35.6505833 22.2338046,34.4623614 L29.5753572,7.06331413 L29.5753572,7.06331413 Z" id="path-7"></path>
        <mask id="mask-8" maskContentUnits="userSpaceOnUse" maskUnits="objectBoundingBox" x="0" y="0" width="29.4467358" height="36.5902905" fill="white">
            <use xlink:href="#path-7"></use>
        </mask>
        <path d="M39.0080043,6.41781659 C39.6239387,5.3509869 40.9943311,4.98906818 42.0462197,5.59637637 L57.8816549,14.7389691 C58.9436805,15.3521299 59.3044434,16.7155304 58.6893745,17.780861 L44.506584,42.3461747 C43.8906496,43.4130044 42.5202572,43.7749232 41.4683685,43.167615 L25.6329334,34.0250222 C24.5709078,33.4118614 24.2101449,32.048461 24.8252138,30.9831304 L39.0080043,6.41781659 L39.0080043,6.41781659 Z" id="path-9"></path>
        <mask id="mask-10" maskContentUnits="userSpaceOnUse" maskUnits="objectBoundingBox" x="0" y="0" width="34.4641245" height="38.1594354" fill="white">
            <use xlink:href="#path-9"></use>
        </mask>
    </defs>
    <g id="Current" stroke="none" stroke-width="1" fill="none" fill-rule="evenodd">
        <g id="Apps-Dashboard-colored" transform="translate(-735.000000, -291.000000)">
            <g id="Group-12" transform="translate(661.000000, 271.000000)">
                <g id="icon-dealer-display" transform="translate(75.000000, 20.000000)">
                    <g id="Group-15" stroke-width="1" transform="translate(-11.000000, -5.000000)">
                        <mask id="mask-2" fill="white">
                            <use xlink:href="#path-1"></use>
                        </mask>
                        <g id="Oval-208-Copy-6"></g>
                        <polygon id="Rectangle-1002" fill="#BB9156" mask="url(#mask-2)" points="23.1977014 62 40 62 40 68.860681 23.1977014 68.860681"></polygon>
                        <path d="M43.0827019,18.2803215 C39.3246285,19.3900069 31.3121846,36.1557458 27.5529729,43.2261194 C26.0304773,46.0896486 26,48.839382 26,49.4625686 C26.0000001,52.8926158 26,61 26,61 L39.0449723,61 C39.0449723,61 44.0144856,55.0753721 45.8780531,52.8926148 C47.7416205,50.7098575 49.605188,46.9679879 49.605188,42.6024733 L49.605188,20.7749013 C49.605188,20.7749013 48.3628097,16.7212092 43.0827019,18.2803215 Z" id="Combined-Shape" stroke="#FFFFFF" fill="#BB9156" mask="url(#mask-2)"></path>
                        <g id="Rectangle-1005-Copy-4" mask="url(#mask-2)" stroke-width="2" stroke="#BB9156" fill="#FFFFFF">
                            <use mask="url(#mask-4)" xlink:href="#path-3"></use>
                        </g>
                        <path d="M17.8668812,17.4494316 C17.8583621,17.3513425 17.8498429,17.2532534 17.8109706,17.1403601 C17.6010603,16.5307362 16.9332916,16.2050437 16.3236678,16.4149541 C15.7140439,16.6248644 15.3883514,17.292633 15.5982617,17.9022569 C15.6293595,17.9925715 15.6908105,18.0976904 15.744487,18.1802306 C15.2259225,18.4345535 14.9601915,19.0564201 15.1467784,19.598308 C15.3644632,20.2305106 16.0322318,20.5562031 16.6418557,20.3462927 C16.890221,20.2607737 17.0849098,20.0927145 17.2188924,19.8950469 C17.2896072,20.1737653 17.2996158,20.4228753 17.1811821,20.6657002 L18.2875366,20.2847518 C18.0447116,20.1663182 17.899231,19.9638549 17.7833589,19.7006854 C17.9880563,19.7817362 18.2449407,19.7943063 18.493306,19.7087873 C19.1029299,19.4988769 19.4286224,18.8311083 19.2187121,18.2214844 C19.0243507,17.6570179 18.4320925,17.3305807 17.8668812,17.4494316 L17.8668812,17.4494316 L17.8668812,17.4494316 Z" id="XMLID_1728_" fill="#BB9156" mask="url(#mask-2)"></path>
                        <g id="Rectangle-1005-Copy-4" mask="url(#mask-2)" stroke-width="2" stroke="#BB9156" fill="#FFFFFF">
                            <use mask="url(#mask-6)" xlink:href="#path-5"></use>
                        </g>
                        <path d="M26.2452529,13.322181 C26.0077756,12.3722719 24.9153801,11.4936059 24.1554528,11.0423991 C23.3955255,11.5173536 22.3268777,12.3722719 22.0656527,13.3459287 C22.041905,13.4409196 22.0181572,13.5596583 22.0181572,13.6783969 L22.0181572,13.7021446 L22.0181572,13.7258924 C22.041905,14.367081 22.5406073,14.8657833 23.1580482,14.8657833 C23.4430209,14.8657833 23.6804982,14.7707924 23.8942278,14.6045583 L23.8942278,14.6520538 C23.87048,14.9370265 23.7992368,15.1745038 23.609255,15.3644856 L24.7253983,15.3644856 C24.5354164,15.1745038 24.4641732,14.9370265 24.4404255,14.6520538 L24.4404255,14.6045583 C24.6304073,14.7707924 24.8916323,14.8657833 25.1766051,14.8657833 C25.794046,14.8657833 26.2927483,14.367081 26.316496,13.7496401 C26.2927483,13.7258924 26.2927483,13.7258924 26.2927483,13.6783969 C26.2927483,13.5596583 26.2690006,13.4409196 26.2452529,13.322181 Z" id="XMLID_598_" fill="#BB9156" mask="url(#mask-2)"></path>
                        <g id="Rectangle-1005-Copy-4" mask="url(#mask-2)" stroke-width="2" stroke="#BB9156" fill="#FFFFFF">
                            <use mask="url(#mask-8)" xlink:href="#path-7"></use>
                        </g>
                        <polygon id="XMLID_672_" fill="#BB9156" mask="url(#mask-2)" points="32.2814906 13.6726919 30.8629194 10.6177429 33.6189126 8.68136504 35.0147959 11.7302349"></polygon>
                        <g id="Rectangle-1005-Copy-4" mask="url(#mask-2)" stroke-width="2" stroke="#BB9156" fill="#FFFFFF">
                            <use mask="url(#mask-10)" xlink:href="#path-9"></use>
                        </g>
                        <path d="M47.9423673,25.3297564 C48.7524021,23.8121126 48.2699231,22.0114763 46.8305678,21.1804642 C45.8379089,20.6073523 44.6006489,20.687147 43.6381518,21.3226396 C43.7072559,20.1713463 43.1577301,19.0599504 42.1650713,18.4868385 C40.725716,17.6558264 38.8964241,18.1879383 38.015779,19.598638 L37.9871234,19.648271 L37.9584678,19.6979039 C37.7865343,19.9957016 37.6928892,20.2725219 37.5705886,20.5989751 C36.8766823,23.1763246 38.1547945,26.6936877 39.3398129,28.7675808 C41.7283663,28.7568903 45.4135482,28.1050864 47.2986451,26.2154711 C47.491556,25.995962 47.7131225,25.72682 47.9137117,25.3793894 L47.9423673,25.3297564 L47.9423673,25.3297564 Z" id="XMLID_1752_" fill="#BB9156" mask="url(#mask-2)"></path>
                        <path d="M44.1710366,11.8029784 L44.1817824,11.784366 L44.1817824,11.784366 C44.4855455,11.2152496 44.3046158,10.540011 43.7648576,10.2283814 C43.3926105,10.0134645 42.928638,10.0433875 42.5677016,10.2816972 C42.5936157,9.84996224 42.3875435,9.43318876 42.0152964,9.21827182 C41.4755382,8.90664226 40.7895537,9.10618425 40.4593118,9.63519664 L40.4593118,9.63519664 L40.448566,9.65380899 L40.4378201,9.67242134 C40.373345,9.78409546 40.3382282,9.88790307 40.2923654,10.010323 C40.0321505,10.9768291 40.5114426,12.2958403 40.9558245,13.0735502 C41.851532,13.0695413 43.2334753,12.8251148 43.9403866,12.1165091 C44.0127282,12.0341931 44.0958156,11.9332649 44.1710366,11.8029784 C44.1602907,11.8215907 44.1602907,11.8215907 44.1710366,11.8029784 L44.1710366,11.8029784 L44.1710366,11.8029784 Z" id="XMLID_1752_-Copy" fill="#BB9156" mask="url(#mask-2)"></path>
                        <path d="M41.8210981,38.7849496 L41.8103522,38.8035619 L41.8103522,38.8035619 C41.4693645,39.3511867 40.7941259,39.5321163 40.2543676,39.2204867 C39.8821206,39.0055698 39.6760484,38.5887963 39.7019625,38.1570613 C39.341026,38.3953711 38.8770535,38.4252941 38.5048065,38.2103771 C37.9650482,37.8987476 37.7948644,37.2048966 38.0878816,36.6543925 L38.0878816,36.6543925 L38.0986275,36.6357802 L38.1093733,36.6171678 C38.1738484,36.5054937 38.24619,36.4231778 38.3292774,36.3222495 C39.0361888,35.6136438 40.418132,35.3692173 41.3138395,35.3652084 C41.7582214,36.1429183 42.2375135,37.4619295 41.9772986,38.4284355 C41.9421818,38.5322431 41.896319,38.6546631 41.8210981,38.7849496 C41.8318439,38.7663372 41.8318439,38.7663372 41.8210981,38.7849496 L41.8210981,38.7849496 L41.8210981,38.7849496 Z" id="XMLID_1752_-Copy" fill="#BB9156" mask="url(#mask-2)"></path>
                    </g>
                    <path d="M20.555192,51.9557349 C20.555192,51.9557349 17.8503876,48.3903108 19.0798442,42.1200823 C20.3093007,35.8498538 22.1534856,35.9727995 23.6288335,31.1779189 C25.1041813,26.3830383 27.3184148,21.834049 30.0220076,21.834049 C32.7256005,21.834049 33.5874317,24.4159078 33.41789,28.0185012 L31.3626018,47.0086469" id="Rectangle-1003-Copy-2" stroke="#FFFFFF" stroke-width="2" fill="#BB9156"></path>
                </g>
            </g>
        </g>
    </g>
</svg>