<?xml version="1.0" encoding="utf-8"?>
<!-- Generator: Adobe Illustrator 19.1.0, SVG Export Plug-In . SVG Version: 6.00 Build 0)  -->
<svg version="1.1" id="Layer_1" xmlns="http://www.w3.org/2000/svg" xmlns:xlink="http://www.w3.org/1999/xlink" x="0px" y="0px"
	 viewBox="0 0 44 31.3" style="enable-background:new 0 0 44 31.3;" xml:space="preserve">
<style type="text/css">
	.st0{fill:#FFFFFF;}
	.st1{fill:none;stroke:#FFFFFF;stroke-width:2;stroke-miterlimit:10;}
</style>
<path id="XMLID_10451_" class="st0" d="M29.3,26.9c-4-0.8-4.1-2-4.1-2.8v-0.8c1-0.9,1.7-2.1,2.1-3.5c0,0,0,0,0,0
	c1.2,0,1.5-2.5,1.5-2.9c0-0.4,0-1.9-1.2-1.9c2.7-7.2-4.4-10.1-9.8-6.4c-2.2,0-2.4,3.2-1.6,6.4c-1.2,0-1.2,1.5-1.2,1.9
	c0,0.4,0.3,2.9,1.5,2.9l0,0c0.4,1.4,1.1,2.7,2.1,3.5v0.8c0,0.8,0,2-4.1,2.8C10,27.8,10,31.3,10,31.3h24C34,31.3,34,27.9,29.3,26.9z"
	/>
<path id="XMLID_10450_" class="st1" d="M20.3,20.9c-4-0.8-4.1-2-4.1-2.8v-0.8c1-0.9,1.7-2.1,2.1-3.5c0,0,0,0,0,0
	c1.2,0,1.5-2.5,1.5-2.9c0-0.4,0-1.9-1.2-1.9c2.7-7.2-4.4-10.1-9.8-6.4C6.7,2.6,6.5,5.8,7.3,9c-1.2,0-1.2,1.5-1.2,1.9
	c0,0.4,0.3,2.9,1.5,2.9l0,0c0.4,1.4,1.1,2.7,2.1,3.5v0.8c0,0.8,0,2-4.1,2.8C1,21.8,1,25.3,1,25.3h24C25,25.3,25,21.9,20.3,20.9z"/>
<path id="XMLID_10449_" class="st1" d="M38.3,20.9c-4-0.8-4.1-2-4.1-2.8v-0.8c1-0.9,1.7-2.1,2.1-3.5c0,0,0,0,0,0
	c1.2,0,1.5-2.5,1.5-2.9c0-0.4,0-1.9-1.2-1.9c2.7-7.2-4.4-10.1-9.8-6.4c-2.2,0-2.4,3.2-1.6,6.4c-1.2,0-1.2,1.5-1.2,1.9
	c0,0.4,0.3,2.9,1.5,2.9l0,0c0.4,1.4,1.1,2.7,2.1,3.5v0.8c0,0.8,0,2-4.1,2.8C19,21.8,19,25.3,19,25.3h24C43,25.3,43,21.9,38.3,20.9z"
	/>
</svg>
