<?xml version="1.0" encoding="UTF-8" standalone="no"?>
<svg width="34px" height="25px" viewBox="0 0 34 25" version="1.1" xmlns="http://www.w3.org/2000/svg" xmlns:xlink="http://www.w3.org/1999/xlink">
    <!-- Generator: Sketch 3.8.2 (29753) - http://www.bohemiancoding.com/sketch -->
    <title>icon-alert-high</title>
    <desc>Created with Sketch.</desc>
    <defs>
        <linearGradient x1="0%" y1="50%" x2="100%" y2="50%" id="linearGradient-1">
            <stop stop-color="#FFFFFF" offset="0%"></stop>
            <stop stop-color="#9C1C23" offset="100%"></stop>
        </linearGradient>
        <linearGradient x1="0%" y1="50%" x2="100%" y2="50%" id="linearGradient-2">
            <stop stop-color="#FFFFFF" offset="0%"></stop>
            <stop stop-color="#E6CA17" offset="100%"></stop>
        </linearGradient>
    </defs>
    <g id="Symbols" stroke="none" stroke-width="1" fill="none" fill-rule="evenodd">
        <g id="icon-alert-high">
            <g>
                <circle id="XMLID_2421_" fill="#FFDE00" cx="12.5" cy="12.5" r="12.5"></circle>
                <path d="M21,10 L18,20 L22.5,20 C24.1,17.9 25,15.3 25,12.5 C25,9.6 24,7 22.4,4.8 C21.8,5.7 21,7 21,8 L21,10 L21,10 Z" id="XMLID_2415_" fill="url(#linearGradient-1)" opacity="0.4"></path>
                <circle id="XMLID_2412_" fill="url(#linearGradient-2)" opacity="0.4" cx="12.5" cy="12.5" r="12.5"></circle>
                <path d="M21,10 L18,20 L22.5,20 C24.1,17.9 25,15.3 25,12.5 C25,9.6 24,7 22.4,4.8 C21.8,5.7 21,7 21,8 L21,10 L21,10 Z" id="XMLID_2404_" fill="#B3B3B3" opacity="0.5"></path>
                <path d="M24,20.5 C24,21.9 25.3,23 27,23 C28.7,23 30,21.9 30,20.5 C30,20.3 30,20.2 29.9,20 L24,20 L24,20.5 L24,20.5 Z" id="XMLID_14_" fill="#BB9156"></path>
                <path d="M32,12 L32,9 C32,6.9 30.7,5.2 29,4.4 L29,4 C29,2.9 28.1,2 27,2 C25.9,2 25,2.9 25,4 L25,4.4 C23.2,5.2 22,6.9 22,9 L22,12 L20,19 L34,19 L32,12 L32,12 Z" id="XMLID_2393_" fill="#BB9156"></path>
            </g>
        </g>
    </g>
</svg>