<?xml version="1.0" encoding="utf-8"?>
<!-- Generator: Adobe Illustrator 19.1.0, SVG Export Plug-In . SVG Version: 6.00 Build 0)  -->
<svg version="1.1" id="Layer_1" xmlns="http://www.w3.org/2000/svg" xmlns:xlink="http://www.w3.org/1999/xlink" x="0px" y="0px"
	 viewBox="0 0 32 32" style="enable-background:new 0 0 32 32;" xml:space="preserve">
<style type="text/css">
	.st0{fill:none;stroke:#333333;stroke-width:2;stroke-miterlimit:10;}
	.st1{fill:none;stroke:#333333;stroke-width:2;stroke-linecap:round;stroke-miterlimit:10;}
</style>
<g id="XMLID_475_">
	<g id="XMLID_611_">
		<path id="XMLID_627_" class="st0" d="M18.2,20c-2-0.7-2-1.6-2-2.2V17c1-0.9,1.7-2.1,2.1-3.5c0,0,0,0,0,0c1.2,0,1.5-2.5,1.5-2.9
			c0-0.4,0-1.9-1.2-1.9c2.6-6.4-4.5-9.8-9.8-6.1c-2.2,0-2.4,2.9-1.5,6.1c-1.2,0-1.2,1.5-1.2,1.9c0,0.4,0.3,2.9,1.5,2.9l0,0
			c0.4,1.4,1.1,2.7,2.1,3.5v0.8c0,0.8,0,2-4.1,2.8C1,21.5,1,25,1,25h16.1"/>
	</g>
	<circle id="XMLID_527_" class="st0" cx="24" cy="24" r="7"/>
	<line id="XMLID_486_" class="st1" x1="21.5" y1="21.5" x2="26.5" y2="26.5"/>
	<line id="XMLID_476_" class="st1" x1="21.5" y1="26.5" x2="26.5" y2="21.5"/>
</g>
</svg>
