<?xml version="1.0" encoding="utf-8"?>
<!-- Generator: Adobe Illustrator 19.0.0, SVG Export Plug-In . SVG Version: 6.00 Build 0)  -->
<svg version="1.1" id="Layer_1" xmlns="http://www.w3.org/2000/svg" xmlns:xlink="http://www.w3.org/1999/xlink" x="0px" y="0px"
	 viewBox="0 0 20 20" style="enable-background:new 0 0 20 20;" xml:space="preserve">
<style type="text/css">
	.st0{clip-path:url(#XMLID_5_);fill:#BB9156;}
</style>
<g id="XMLID_2_">
	<defs>
		<rect id="XMLID_1_" width="20" height="20"/>
	</defs>
	<clipPath id="XMLID_5_">
		<use xlink:href="#XMLID_1_"  style="overflow:visible;"/>
	</clipPath>
	<path id="XMLID_8_" class="st0" d="M18.7,17.3l-5.8-5.8c0.7-1,1.1-2.2,1.1-3.5c0-3.3-2.7-6-6-6S2,4.7,2,8c0,3.3,2.7,6,6,6
		c1.3,0,2.5-0.4,3.5-1.1l5.8,5.8c0.2,0.2,0.5,0.3,0.7,0.3s0.5-0.1,0.7-0.3C19.1,18.3,19.1,17.7,18.7,17.3z M8,12c-2.2,0-4-1.8-4-4
		c0-2.2,1.8-4,4-4s4,1.8,4,4C12,10.2,10.2,12,8,12z"/>
</g>
</svg>
