<svg id="17abecb3-3991-4413-a069-192935ef7ff0" data-name="Layer 1" xmlns="http://www.w3.org/2000/svg" xmlns:xlink="http://www.w3.org/1999/xlink" viewBox="0 0 28 28"><defs><clipPath id="cfbe1089-dd2d-4223-a448-61484d1157a3" transform="translate(-386 -286)"><rect x="391" y="291" width="18" height="18" rx="3.99" ry="3.99" fill="#f4f4f4"/></clipPath><clipPath id="117a43e5-359d-41ab-b764-9389920e2f86" transform="translate(-386 -286)"><rect x="391" y="291" width="18" height="18" fill="#f4f4f4"/></clipPath><clipPath id="cb4aa666-5e4e-4a09-97f1-1ac321278bf0" transform="translate(-386 -286)"><path d="M392,300a8,8,0,1,1,8,8A8,8,0,0,1,392,300Z" fill="none" clip-rule="evenodd"/></clipPath><clipPath id="fe1721d1-7573-4846-9960-870c4113ea4f" transform="translate(-386 -286)"><rect x="391" y="291" width="18" height="18" fill="none"/></clipPath><clipPath id="9835bb76-46cb-4232-908e-a14abde0b44f" transform="translate(-386 -286)"><polygon points="396 304 398.76 299.88 396.12 296 398.59 296 399.95 298.2 401.38 296 403.76 296 401.16 299.79 404 304 401.51 304 399.95 301.52 398.38 304 396 304" fill="none" clip-rule="evenodd"/></clipPath></defs><title>Icon-Inactive</title><rect x="5" y="5" width="18" height="18" rx="3.99" ry="3.99" fill="#f4f4f4"/><g clip-path="url(#cfbe1089-dd2d-4223-a448-61484d1157a3)"><rect x="5" y="5" width="18" height="18" fill="#f4f4f4"/><g clip-path="url(#117a43e5-359d-41ab-b764-9389920e2f86)"><rect width="28" height="28" fill="#f4f4f4"/></g></g><g clip-path="url(#cb4aa666-5e4e-4a09-97f1-1ac321278bf0)"><g clip-path="url(#fe1721d1-7573-4846-9960-870c4113ea4f)"><path d="M392,300a8,8,0,1,1,8,8A8,8,0,0,1,392,300Z" transform="translate(-386 -286)" fill="#f80"/></g></g><g clip-path="url(#cb4aa666-5e4e-4a09-97f1-1ac321278bf0)"><g clip-path="url(#fe1721d1-7573-4846-9960-870c4113ea4f)"><path d="M392,300a8,8,0,1,1,8,8A8,8,0,0,1,392,300Z" transform="translate(-386 -286)" fill="none" stroke="#c60" stroke-miterlimit="10" stroke-width="4"/></g></g><g clip-path="url(#9835bb76-46cb-4232-908e-a14abde0b44f)"><g clip-path="url(#fe1721d1-7573-4846-9960-870c4113ea4f)"><rect x="5" y="5" width="18" height="18" fill="#fff"/></g></g></svg>