<?xml version="1.0" encoding="utf-8"?>
<!-- Generator: Adobe Illustrator 19.1.0, SVG Export Plug-In . SVG Version: 6.00 Build 0)  -->
<svg version="1.1" id="Layer_1" xmlns="http://www.w3.org/2000/svg" xmlns:xlink="http://www.w3.org/1999/xlink" x="0px" y="0px"
	 viewBox="0 0 23 15" style="enable-background:new 0 0 23 15;" xml:space="preserve">
<style type="text/css">
	.st0{fill:#D8CA9E;}
</style>
<g id="XMLID_988_">
	<path id="XMLID_991_" class="st0" d="M21.5,3h-20C0.7,3,0,2.3,0,1.5v0C0,0.7,0.7,0,1.5,0h20C22.3,0,23,0.7,23,1.5v0
		C23,2.3,22.3,3,21.5,3z"/>
	<path id="XMLID_990_" class="st0" d="M21.5,9h-20C0.7,9,0,8.3,0,7.5v0C0,6.7,0.7,6,1.5,6h20C22.3,6,23,6.7,23,7.5v0
		C23,8.3,22.3,9,21.5,9z"/>
	<path id="XMLID_989_" class="st0" d="M21.5,15h-20C0.7,15,0,14.3,0,13.5v0C0,12.7,0.7,12,1.5,12h20c0.8,0,1.5,0.7,1.5,1.5v0
		C23,14.3,22.3,15,21.5,15z"/>
</g>
</svg>
