<?xml version="1.0" encoding="utf-8"?>
<!-- Generator: Adobe Illustrator 19.1.0, SVG Export Plug-In . SVG Version: 6.00 Build 0)  -->
<svg version="1.1" id="Layer_1" xmlns="http://www.w3.org/2000/svg" xmlns:xlink="http://www.w3.org/1999/xlink" x="0px" y="0px"
	 viewBox="0 0 38.1 24" style="enable-background:new 0 0 38.1 24;" xml:space="preserve">
<style type="text/css">
	.st0{fill:none;stroke:#D8CA9E;stroke-width:2;stroke-linecap:round;stroke-miterlimit:10;}
	.st1{fill:#D8CA9E;}
</style>
<g id="XMLID_727_">
	<g id="XMLID_721_">
		<line id="XMLID_730_" class="st0" x1="18.6" y1="7.2" x2="28.3" y2="16.8"/>
		<line id="XMLID_729_" class="st0" x1="18.7" y1="16.8" x2="28.3" y2="7.2"/>
	</g>
	<g id="XMLID_734_">
		<path class="st1" d="M36.1,2v9v2v9H9.7c0,0-0.1,0-0.1-0.1L2.1,12l7.5-9.9c0,0,0.1,0,0.1-0.1H36.1 M37.6,0h-28C9.1,0,8.4,0.4,8,0.8
			L0.2,11.2c-0.3,0.4-0.3,1.2,0,1.6L8,23.2C8.4,23.6,9.1,24,9.6,24h28c0.5,0,0.5-0.5,0.5-1V13c0-0.5,0-1.5,0-2V1c0-0.5-0.2-1-0.8-1
			H37.6z"/>
	</g>
</g>
</svg>
