<?xml version="1.0" encoding="utf-8"?>
<!-- Generator: Adobe Illustrator 19.1.0, SVG Export Plug-In . SVG Version: 6.00 Build 0)  -->
<svg version="1.1" id="Layer_1" xmlns="http://www.w3.org/2000/svg" xmlns:xlink="http://www.w3.org/1999/xlink" x="0px" y="0px"
	 viewBox="0 0 32 32" style="enable-background:new 0 0 32 32;" xml:space="preserve">
<style type="text/css">
	.st0{fill:none;stroke:#FFFFFF;stroke-width:2;stroke-miterlimit:10;}
</style>
<g id="XMLID_3675_">
	<ellipse id="XMLID_3864_" class="st0" cx="22" cy="3.5" rx="9" ry="2.5"/>
	<path id="XMLID_3863_" class="st0" d="M13,7.5c0,1.4,4,2.5,9,2.5s9-1.1,9-2.5"/>
	<path id="XMLID_3857_" class="st0" d="M13,11.5c0,1.4,4,2.5,9,2.5s9-1.1,9-2.5"/>
	<path id="XMLID_3854_" class="st0" d="M13,15.5c0,1.4,4,2.5,9,2.5s9-1.1,9-2.5"/>
	<path id="XMLID_3815_" class="st0" d="M19,21.9c0.9,0.1,2,0.1,3,0.1c5,0,9-1.1,9-2.5"/>
	<line id="XMLID_3788_" class="st0" x1="13" y1="18.1" x2="13" y2="3.7"/>
	<path id="XMLID_3777_" class="st0" d="M31,3.5v19.9c0,1.4-4,2.5-9,2.5c-1.1,0-2.1-0.1-3-0.1"/>
	<ellipse id="XMLID_3772_" class="st0" cx="10" cy="20.5" rx="9" ry="2.5"/>
	<path id="XMLID_3762_" class="st0" d="M1,24.5c0,1.4,4,2.5,9,2.5s9-1.1,9-2.5"/>
	<path id="XMLID_3676_" class="st0" d="M19,20.5v8c0,1.4-4,2.5-9,2.5s-9-1.1-9-2.5v-7.8"/>
</g>
</svg>
