<?xml version="1.0" encoding="utf-8"?>
<!-- Generator: Adobe Illustrator 19.1.0, SVG Export Plug-In . SVG Version: 6.00 Build 0)  -->
<svg version="1.1" id="Layer_1" xmlns="http://www.w3.org/2000/svg" xmlns:xlink="http://www.w3.org/1999/xlink" x="0px" y="0px"
	 viewBox="0 0 90.6 67.4" style="enable-background:new 0 0 90.6 67.4;" xml:space="preserve">
<style type="text/css">
	.st0{fill:none;stroke:#BA9155;stroke-width:4;stroke-miterlimit:10;}
	.st1{fill:#BA9155;}
	.st2{fill:none;stroke:#BA9155;stroke-width:4;stroke-linecap:round;stroke-linejoin:round;stroke-miterlimit:10;}
</style>
<g id="XMLID_3906_">
	<g id="XMLID_4093_">
		<g id="XMLID_4105_">
			<path class="st0" d="M51.6,48.7L26.1,60.6c-2.4,1.1-5.2,0.1-6.3-2.3L2.6,21.4c-1.4-3-0.1-6.6,2.9-8L28.7,2.6c3-1.4,6.6-0.1,8,2.9
				l17.2,36.9C55,44.8,54,47.6,51.6,48.7z"/>
		</g>
		<g id="XMLID_4103_">
			<path id="XMLID_4104_" class="st1" d="M35,24.2c0,0,0-0.1,0-0.1l0,0c-1.3-2.6-4.3-3.7-6.7-2.6c-1.7,0.8-2.8,2.6-2.8,4.5
				c-1.5-1.2-3.5-1.6-5.2-0.8c-2.4,1.1-3.5,4.2-2.3,6.8l0,0c0,0,0,0.1,0.1,0.1c0,0,0,0.1,0,0.1c0.2,0.5,0.5,1,0.9,1.4
				c2.9,3.6,8.9,5.2,12.8,5.7c2.2-3.3,4.8-9,3.9-13.4C35.5,25.3,35.3,24.8,35,24.2C35.1,24.2,35.1,24.2,35,24.2z"/>
		</g>
		<g id="XMLID_4101_">
			<path id="XMLID_4102_" class="st1" d="M12.6,17.9C12.6,17.9,12.6,17.9,12.6,17.9L12.6,17.9c-0.4-0.8-1.3-1.1-2-0.8
				c-0.5,0.2-0.8,0.8-0.8,1.3c-0.4-0.4-1-0.5-1.5-0.2c-0.7,0.3-1,1.2-0.7,2l0,0c0,0,0,0,0,0c0,0,0,0,0,0c0.1,0.2,0.2,0.3,0.3,0.4
				c0.8,1,2.6,1.5,3.8,1.7c0.6-1,1.4-2.6,1.1-4C12.7,18.2,12.7,18.1,12.6,17.9C12.6,17.9,12.6,17.9,12.6,17.9z"/>
		</g>
		<g id="XMLID_4094_">
			<path id="XMLID_4095_" class="st1" d="M43.8,45.7C43.8,45.8,43.8,45.8,43.8,45.7L43.8,45.7c0.4,0.8,1.3,1.1,2,0.8
				c0.5-0.2,0.8-0.8,0.8-1.3c0.4,0.4,1,0.5,1.5,0.2c0.7-0.3,1-1.2,0.7-2l0,0c0,0,0,0,0,0c0,0,0,0,0,0c-0.1-0.2-0.2-0.3-0.3-0.4
				c-0.8-1-2.6-1.5-3.8-1.7c-0.6,1-1.4,2.6-1.1,4C43.7,45.4,43.8,45.6,43.8,45.7C43.8,45.7,43.8,45.7,43.8,45.7z"/>
		</g>
	</g>
	<g id="XMLID_3909_">
		<g id="XMLID_4084_">
			<path class="st2" d="M49.3,17.4l4.7-10.2c0.9-1.9,3.1-2.7,5-1.8l27.3,12.7c1.9,0.9,2.7,3.1,1.8,5L69.3,63.7
				c-0.7,1.5-2.5,2.1-3.9,1.4l-16.8-7.8"/>
		</g>
		<g id="XMLID_3924_">
			<polygon id="XMLID_4083_" class="st1" points="59,42.4 55.6,29 68,23 71.5,36.4 			"/>
		</g>
		<g id="XMLID_3919_">
			<polygon id="XMLID_3921_" class="st1" points="56.9,17.5 55.9,13.6 59.6,11.9 60.6,15.8 			"/>
		</g>
		<g id="XMLID_3912_">
			<polygon id="XMLID_3915_" class="st1" points="66.6,53.2 67.7,57.2 64,58.9 63,55 			"/>
		</g>
	</g>
</g>
</svg>
