<?xml version="1.0" encoding="UTF-8"?>
<svg width="20px" height="20px" viewBox="0 0 20 20" version="1.1" xmlns="http://www.w3.org/2000/svg" xmlns:xlink="http://www.w3.org/1999/xlink">
    <!-- Generator: Sketch 63.1 (92452) - https://sketch.com -->
    <title>*icon/cm-promotion/void</title>
    <desc>Created with Sketch.</desc>
    <g id="*icon/cm-promotion/void" stroke="none" stroke-width="1" fill="none" fill-rule="evenodd">
        <g id="*icon/status/completed-copy-6">
            <circle id="Oval" stroke="#737373" stroke-width="2" fill="#BDBDBD" cx="10" cy="10" r="9"></circle>
            <path d="M10,3 C10.5522847,3 11,3.44771525 11,4 L11,9 L16,9 C16.5522847,9 17,9.44771525 17,10 C17,10.5522847 16.5522847,11 16,11 L11,11 L11,16 C11,16.5522847 10.5522847,17 10,17 C9.44771525,17 9,16.5522847 9,16 L9,11 L4,11 C3.44771525,11 3,10.5522847 3,10 C3,9.44771525 3.44771525,9 4,9 L9,9 L9,4 C9,3.44771525 9.44771525,3 10,3 Z" id="Combined-Shape" fill="#737373" transform="translate(10.000000, 10.000000) rotate(-315.000000) translate(-10.000000, -10.000000) "></path>
        </g>
    </g>
</svg>