<?xml version="1.0" encoding="UTF-8" standalone="no"?>
<svg width="64px" height="64px" viewBox="0 0 64 64" version="1.1" xmlns="http://www.w3.org/2000/svg" xmlns:xlink="http://www.w3.org/1999/xlink">
    <!-- Generator: Sketch 3.7.2 (28276) - http://www.bohemiancoding.com/sketch -->
    <title>icon-alert-landing</title>
    <desc>Created with Sketch.</desc>
    <defs></defs>
    <g id="Symbols" stroke="none" stroke-width="1" fill="none" fill-rule="evenodd">
        <g id="icon-alert-landing">
            <g id="Group-2" transform="translate(16.000000, 7.000000)">
                <path d="M16.1764706,48 C20.105042,48 23.1092437,46.1666667 23.1092437,43.8333333 C23.1092437,43.5 23.1092437,43.3333333 22.8781513,43 L9.24369748,43 L9.24369748,43.8333333 C9.24369748,46.1666667 12.2478992,48 16.1764706,48 Z" id="XMLID_14_" fill="#BB9156"></path>
                <path d="M27.7310924,23.3333333 L27.7310924,16.3333333 C27.7310924,11.4333333 24.7268908,7.46666667 20.7983193,5.6 L20.7983193,4.66666667 C20.7983193,2.1 18.7184874,0 16.1764706,0 C13.6344538,0 11.5546218,2.1 11.5546218,4.66666667 L11.5546218,5.6 C7.39495798,7.46666667 4.62184874,11.4333333 4.62184874,16.3333333 L4.62184874,23.3333333 L0,39.6666667 L32.3529412,39.6666667 L27.7310924,23.3333333 L27.7310924,23.3333333 Z" id="XMLID_2393_" stroke="#BB9156" stroke-width="2"></path>
            </g>
        </g>
    </g>
</svg>