<?xml version="1.0" encoding="utf-8"?>
<!-- Generator: Adobe Illustrator 19.1.0, SVG Export Plug-In . SVG Version: 6.00 Build 0)  -->
<svg version="1.1" id="Layer_1" xmlns="http://www.w3.org/2000/svg" xmlns:xlink="http://www.w3.org/1999/xlink" x="0px" y="0px"
	 viewBox="0 0 18 18" style="enable-background:new 0 0 18 18;" xml:space="preserve">
<style type="text/css">
	.st0{fill:#232323;}
</style>
<g id="XMLID_1727_">
	<path id="XMLID_1728_" class="st0" d="M13.7,6.2c0.1-0.4,0.2-0.8,0.2-1.3C13.9,2.2,11.7,0,9,0S4.1,2.2,4.1,4.9
		c0,0.4,0.1,0.9,0.2,1.3C1.9,6.5,0,8.6,0,11C0,13.8,2.2,16,4.9,16C6,16,7,15.6,7.8,15c-0.1,1.2-0.4,2.2-1.2,3h4.9
		c-0.8-0.8-1.1-1.8-1.2-3C11,15.6,12,16,13.1,16c2.7,0,4.9-2.2,4.9-4.9C18,8.6,16.1,6.5,13.7,6.2z"/>
</g>
</svg>
