<?xml version="1.0" encoding="UTF-8" standalone="no"?>
<svg width="64px" height="64px" viewBox="0 0 64 64" version="1.1" xmlns="http://www.w3.org/2000/svg" xmlns:xlink="http://www.w3.org/1999/xlink">
    <!-- Generator: Sketch 3.7.2 (28276) - http://www.bohemiancoding.com/sketch -->
    <title>icon-cashier</title>
    <desc>Created with Sketch.</desc>
    <defs></defs>
    <g id="Symbols" stroke="none" stroke-width="1" fill="none" fill-rule="evenodd">
        <g id="icon-cashier">
            <g id="icon-dealer-buy-in" transform="translate(32.500000, 32.000000) scale(-1, 1) translate(-32.500000, -32.000000) translate(1.000000, 4.000000)">
                <g id="chip-denom-1-copy">
                    <ellipse id="545a0e15-130c-492a-abc4-02c58df5b935" fill="#FFFFFF" cx="12" cy="12.1263158" rx="12" ry="12.1263158"></ellipse>
                    <path d="M12,3.03157895 C16.9705627,3.03157895 21,7.10343133 21,12.1263158 C21,17.1492003 16.9705627,21.2210526 12,21.2210526 C7.02943725,21.2210526 3,17.1492003 3,12.1263158 C3,7.10343133 7.02943725,3.03157895 12,3.03157895 L12,3.03157895 Z M12,1.51578947 C6.20101013,1.51578947 1.5,6.26628392 1.5,12.1263158 C1.5,17.9863477 6.20101013,22.7368421 12,22.7368421 C17.7989899,22.7368421 22.5,17.9863477 22.5,12.1263158 C22.5,6.26628392 17.7989899,1.51578947 12,1.51578947 L12,1.51578947 L12,1.51578947 Z" id="44ba5fdb-e859-402d-a709-27743707b7f9" fill="#BB9156"></path>
                    <path d="M12,6.82105263 C14.8994949,6.82105263 17.25,9.19629985 17.25,12.1263158 C17.25,15.0563317 14.8994949,17.4315789 12,17.4315789 C9.10050506,17.4315789 6.75,15.0563317 6.75,12.1263158 C6.75,9.19629985 9.10050506,6.82105263 12,6.82105263 L12,6.82105263 Z M12,5.30526316 C8.27207794,5.30526316 5.25,8.35915244 5.25,12.1263158 C5.25,15.8934791 8.27207794,18.9473684 12,18.9473684 C15.7279221,18.9473684 18.75,15.8934791 18.75,12.1263158 C18.75,8.35915244 15.7279221,5.30526316 12,5.30526316 L12,5.30526316 L12,5.30526316 Z" id="3b8a849a-dfaf-438f-be83-905bce767927" fill="#BB9156"></path>
                    <path d="M11.25,2.27368421 L11.25,6.06315789" id="3f1591c2-abff-4c7a-85e8-22c257d19b89" stroke="#BB9156"></path>
                    <path d="M12,18.1894737 L12,21.9789474" id="800e8a22-53f3-478f-be5f-3d9a6cb98823" stroke="#BB9156"></path>
                    <path d="M18,12.1263158 L21.75,12.1263158" id="678d244f-b88f-42b2-95bf-f595db3cb404" stroke="#BB9156"></path>
                    <path d="M2.25,12.1263158 L6,12.1263158" id="51f30a13-00da-4f03-87b8-6b91c7c51367" stroke="#BB9156"></path>
                    <path d="M19.2,4.85052632 L15.9375,8.14736842" id="5c9594bf-492b-4d8f-9f1f-3d275a2ad2e3" stroke="#BB9156"></path>
                    <path d="M7.9575,16.2113684 L4.905,19.296" id="16e3e135-1169-4e04-87ce-a5bc71f06f98" stroke="#BB9156"></path>
                    <path d="M15.915,16.0825263 L19.2225,19.4172632" id="831465b8-b8e1-41a3-8673-bb8ff6bd1c03" stroke="#BB9156"></path>
                    <path d="M4.8,4.85052632 L8.0625,8.14736842" id="67dcd8c4-fc1d-4c24-8850-c3ca9c2a1769" stroke="#BB9156"></path>
                </g>
                <g id="chip-denom-1-copy-2" transform="translate(15.000000, 22.000000)">
                    <ellipse id="545a0e15-130c-492a-abc4-02c58df5b935" fill="#FFFFFF" cx="11.6577157" cy="11.7804285" rx="11.6577157" ry="11.7804285"></ellipse>
                    <path d="M11.6577157,2.94510713 C16.4864997,2.94510713 20.4010025,6.90081525 20.4010025,11.7804285 C20.4010025,16.6600418 16.4864997,20.6157499 11.6577157,20.6157499 C6.82893176,20.6157499 2.91442893,16.6600418 2.91442893,11.7804285 C2.91442893,6.90081525 6.82893176,2.94510713 11.6577157,2.94510713 L11.6577157,2.94510713 Z M11.6577157,1.47255356 C6.02413444,1.47255356 1.45721446,6.08754638 1.45721446,11.7804285 C1.45721446,17.4733107 6.02413444,22.0883035 11.6577157,22.0883035 C17.291297,22.0883035 21.858217,17.4733107 21.858217,11.7804285 C21.858217,6.08754638 17.291297,1.47255356 11.6577157,1.47255356 L11.6577157,1.47255356 L11.6577157,1.47255356 Z" id="44ba5fdb-e859-402d-a709-27743707b7f9" fill="#BB9156"></path>
                    <path d="M11.6577157,6.62649104 C14.4745064,6.62649104 16.7579663,8.93398745 16.7579663,11.7804285 C16.7579663,14.6268696 14.4745064,16.934366 11.6577157,16.934366 C8.84092508,16.934366 6.55746509,14.6268696 6.55746509,11.7804285 C6.55746509,8.93398745 8.84092508,6.62649104 11.6577157,6.62649104 L11.6577157,6.62649104 Z M11.6577157,5.15393748 C8.03612775,5.15393748 5.10025063,8.12071857 5.10025063,11.7804285 C5.10025063,15.4401385 8.03612775,18.4069196 11.6577157,18.4069196 C15.2793037,18.4069196 18.2151808,15.4401385 18.2151808,11.7804285 C18.2151808,8.12071857 15.2793037,5.15393748 11.6577157,5.15393748 L11.6577157,5.15393748 L11.6577157,5.15393748 Z" id="3b8a849a-dfaf-438f-be83-905bce767927" fill="#BB9156"></path>
                    <path d="M10.9291085,2.20883035 L10.9291085,5.89021426" id="3f1591c2-abff-4c7a-85e8-22c257d19b89" stroke="#BB9156"></path>
                    <path d="M11.6577157,17.6706428 L11.6577157,21.3520267" id="800e8a22-53f3-478f-be5f-3d9a6cb98823" stroke="#BB9156"></path>
                    <path d="M17.4865736,11.7804285 L21.1296097,11.7804285" id="678d244f-b88f-42b2-95bf-f595db3cb404" stroke="#BB9156"></path>
                    <path d="M2.1858217,11.7804285 L5.82885786,11.7804285" id="51f30a13-00da-4f03-87b8-6b91c7c51367" stroke="#BB9156"></path>
                    <path d="M18.6523451,4.71217141 L15.4829037,7.91497541" id="5c9594bf-492b-4d8f-9f1f-3d275a2ad2e3" stroke="#BB9156"></path>
                    <path d="M7.73052274,15.7489604 L4.7650913,18.7456069" id="16e3e135-1169-4e04-87ce-a5bc71f06f98" stroke="#BB9156"></path>
                    <path d="M15.4610455,15.6237933 L18.6742034,18.8634112" id="831465b8-b8e1-41a3-8673-bb8ff6bd1c03" stroke="#BB9156"></path>
                    <path d="M4.66308629,4.71217141 L7.83252775,7.91497541" id="67dcd8c4-fc1d-4c24-8850-c3ca9c2a1769" stroke="#BB9156"></path>
                </g>
                <g id="Group-5" transform="translate(2.000000, 31.736842)" fill="#BB9156">
                    <rect id="XMLID_2081_" stroke="#FFFFFF" x="51" y="0.252631579" width="10" height="22.2315789"></rect>
                    <path d="M33.75,1.84199312 C33.75,1.84199312 37.0883193,3.47598571 38.7542583,4.82763906 C42.3250987,7.72482692 49.4603382,14.5885167 49.4603382,14.5885167 C49.4603382,14.5885167 41.3162301,17.1379812 38.2993257,17.6314668 C36.1097795,17.9896185 33.8409865,17.1434285 33.8409865,17.1434285 L33.75,1.84199312 Z" id="Path-869" transform="translate(41.605169, 9.780915) scale(-1, 1) translate(-41.605169, -9.780915) "></path>
                    <path d="M50,17.6442105 C48,17.6442105 35,23.5052632 28,23.5052632 C23.8,23.5052632 20,21.2821053 12,17.4421053 C8.2,15.6231579 0,10.7726316 0,7.33684211 C0,3.29473684 10.8,8.34736842 20,11.3789474" id="XMLID_2056_" stroke="#FFFFFF"></path>
                    <path d="M34,15.4210526 L24,15.4210526 C21.8,15.4210526 20,13.6021053 20,11.3789474 C20,9.15578947 21.8,7.33684211 24,7.33684211 L28,7.33684211 C40,7.33684211 36,1.27368421 50,1.27368421" id="XMLID_1922_" stroke="#FFFFFF"></path>
                </g>
            </g>
        </g>
    </g>
</svg>