<?xml version="1.0" encoding="utf-8"?>
<!-- Generator: Adobe Illustrator 19.1.0, SVG Export Plug-In . SVG Version: 6.00 Build 0)  -->
<svg version="1.1" id="Layer_1" xmlns="http://www.w3.org/2000/svg" xmlns:xlink="http://www.w3.org/1999/xlink" x="0px" y="0px"
	 viewBox="0 0 64 64" style="enable-background:new 0 0 64 64;" xml:space="preserve">
<style type="text/css">
	.st0{fill:none;stroke:#BA9155;stroke-width:4;stroke-linecap:round;stroke-linejoin:round;stroke-miterlimit:10;}
	.st1{fill:#BA9155;}
</style>
<g id="XMLID_4129_">
	<g id="XMLID_4154_">
		<line id="XMLID_4161_" class="st0" x1="8" y1="24" x2="8" y2="62"/>
		<line id="XMLID_4160_" class="st0" x1="8" y1="2" x2="8" y2="11"/>
		<g id="XMLID_4155_">
			<path class="st1" d="M8,14c2.2,0,4,1.8,4,4s-1.8,4-4,4s-4-1.8-4-4S5.8,14,8,14 M8,10c-4.4,0-8,3.6-8,8s3.6,8,8,8s8-3.6,8-8
				S12.4,10,8,10L8,10z"/>
		</g>
	</g>
	<g id="XMLID_4142_">
		<line id="XMLID_4152_" class="st0" x1="32" y1="38" x2="32" y2="62"/>
		<line id="XMLID_4150_" class="st0" x1="32" y1="2" x2="32" y2="26"/>
		<g id="XMLID_4143_">
			<path class="st1" d="M32,28c2.2,0,4,1.8,4,4s-1.8,4-4,4s-4-1.8-4-4S29.8,28,32,28 M32,24c-4.4,0-8,3.6-8,8s3.6,8,8,8s8-3.6,8-8
				S36.4,24,32,24L32,24z"/>
		</g>
	</g>
	<g id="XMLID_4131_">
		<line id="XMLID_4141_" class="st0" x1="56" y1="52" x2="56" y2="62"/>
		<line id="XMLID_4139_" class="st0" x1="56" y1="2" x2="56" y2="38"/>
		<g id="XMLID_4133_">
			<path class="st1" d="M56,42c2.2,0,4,1.8,4,4s-1.8,4-4,4s-4-1.8-4-4S53.8,42,56,42 M56,38c-4.4,0-8,3.6-8,8s3.6,8,8,8s8-3.6,8-8
				S60.4,38,56,38L56,38z"/>
		</g>
	</g>
</g>
</svg>
