<?xml version="1.0" encoding="UTF-8" standalone="no"?>
<svg width="59px" height="55px" viewBox="0 0 59 55" version="1.1" xmlns="http://www.w3.org/2000/svg" xmlns:xlink="http://www.w3.org/1999/xlink">
    <!-- Generator: Sketch 3.7.2 (28276) - http://www.bohemiancoding.com/sketch -->
    <title>icon-chart</title>
    <desc>Created with Sketch.</desc>
    <defs></defs>
    <g id="Current" stroke="none" stroke-width="1" fill="none" fill-rule="evenodd">
        <g id="Apps-Dashboard-colored" transform="translate(-741.000000, -293.000000)" fill="#BB9156">
            <g id="Group-12" transform="translate(661.000000, 271.000000)">
                <g id="icon-chart" transform="translate(75.000000, 20.000000)">
                    <polygon id="Combined-Shape" points="31.7298117 33.2598204 20.8263346 26.2915039 5.2360026 44.8330078 5.15266927 39.4996745 20.3585279 21.6529298 31.4513346 28.7498372 55.9086044 6.38167205 54 4.38194444 63.4743774 2 60.3885568 11.0755124 58.3946752 8.98643622"></polygon>
                    <polygon id="Path" points="58 15.75 58 57 52 57 52 21.25"></polygon>
                    <polygon id="Path" points="21.7333333 32.3333333 23.499939 33.53125 23.5 57 17.5 57 17.5 37.4666667"></polygon>
                    <polygon id="Path" points="32.3123779 39.40625 35 36.890625 35 57 29 57 29 37.171875"></polygon>
                    <polygon id="Path" points="46.5 26.3125 46.5 57 40.5 57 40.5 31.875"></polygon>
                    <polygon id="Path" points="6.05433813 51.0914096 12.0564723 43.8888487 12 57 6 57"></polygon>
                </g>
            </g>
        </g>
    </g>
</svg>