<?xml version="1.0" encoding="UTF-8" standalone="no"?>
<svg width="64px" height="64px" viewBox="0 0 64 64" version="1.1" xmlns="http://www.w3.org/2000/svg" xmlns:xlink="http://www.w3.org/1999/xlink">
    <!-- Generator: Sketch 3.7.2 (28276) - http://www.bohemiancoding.com/sketch -->
    <title>icon-cam</title>
    <desc>Created with Sketch.</desc>
    <defs></defs>
    <g id="Symbols" stroke="none" stroke-width="1" fill="none" fill-rule="evenodd">
        <g id="icon-cam">
            <g id="Group-5-Copy" transform="translate(31.500000, 33.000000) scale(1, -1) rotate(-180.000000) translate(-31.500000, -33.000000) translate(1.000000, 16.000000)">
                <g id="Group-5" transform="translate(30.500000, 16.634390) scale(-1, -1) translate(-30.500000, -16.634390) translate(0.000000, 0.134390)">
                    <path d="M48.360805,23.2425168 C46.412753,23.2425168 38.442275,29.5251686 31.6240932,29.5251686 C27.5331841,29.5251686 19.4487685,27.3971737 15.9990932,26.1811765 C11.7749921,24.6921974 0.982859426,20.4700434 0.982859426,17.1625312 C0.982859426,13.2713405 8.6570712,15.2574691 17.6181102,18.1758622 C17.6181102,18.1758622 25.0098686,16.8675822 28.7057478,16.2134422 C30.3534833,15.9218066 33.6489543,17.3385356 33.6489543,17.3385356 L48.360805,15.4745471" id="XMLID_2056_-Copy" fill="#8A6B3F"></path>
                    <path d="M51.1985307,28.7326819 C49.2504788,28.7326819 39.0072101,32.7411657 32.1890283,32.7411657 C28.0981192,32.7411657 20.0137036,30.6131708 16.5640283,29.3971737 C14.0548454,28.5126965 6.6780293,26.6519828 3.0868664,24.6008939 C0.632461445,23.1990631 0.237362788,20.775954 0.689089881,19.4456744 C2.10118974,15.2872176 16.6814853,21.923098 22.6473944,23.7957336 L33.5564853,22.1784574 C33.5564853,22.1784574 35.5210953,20.7151369 35.5167125,19.0290249 C35.5129303,17.5739607 34.7275332,15.5388372 35.6303806,14.9065413 C39.2278606,12.3870993 51.6246671,11.6236024 51.6246671,11.6236024 L58.5605754,20.1758622" id="XMLID_2056_" stroke="#FFFFFF" stroke-width="2" fill="#BB9156"></path>
                    <g id="chip-denom-1-copy-7" transform="translate(18.454545, 15.612852) scale(1, -1) translate(-18.454545, -15.612852) translate(6.454545, 0.112852)">
                        <path d="M11.711049,30.3071281 C18.1788828,30.3071281 23.422098,27.4823834 23.422098,23.9978842 C23.422098,20.513385 18.1788828,17.6886403 11.711049,17.6886403 C5.24321524,17.6886403 0,20.513385 0,23.9978842 C0,27.4823834 5.24321524,30.3071281 11.711049,30.3071281 Z" id="545a0e15-130c-492a-abc4-02c58df5b935-copy-15" fill="#BB9156"></path>
                        <ellipse id="545a0e15-130c-492a-abc4-02c58df5b935-copy-14" fill="#FFFFFF" cx="11.711049" cy="21.7336042" rx="11.711049" ry="6.30924388"></ellipse>
                        <ellipse id="545a0e15-130c-492a-abc4-02c58df5b935-copy-19" fill="#BB9156" cx="11.711049" cy="20.3240524" rx="11.711049" ry="6.30924388"></ellipse>
                        <ellipse id="545a0e15-130c-492a-abc4-02c58df5b935-copy-18" fill="#FFFFFF" cx="11.711049" cy="18.0597723" rx="11.711049" ry="6.30924388"></ellipse>
                        <path d="M11.711049,22.8977193 C18.1788828,22.8977193 23.422098,20.0729746 23.422098,16.5884754 C23.422098,13.1039763 18.1788828,10.2792316 11.711049,10.2792316 C5.24321524,10.2792316 7.10542736e-15,13.1039763 7.10542736e-15,16.5884754 C7.10542736e-15,20.0729746 5.24321524,22.8977193 11.711049,22.8977193 Z" id="545a0e15-130c-492a-abc4-02c58df5b935-copy-17" fill="#BB9156"></path>
                        <ellipse id="545a0e15-130c-492a-abc4-02c58df5b935-copy-16" fill="#FFFFFF" cx="11.711049" cy="14.3241954" rx="11.711049" ry="6.30924388"></ellipse>
                        <ellipse id="545a0e15-130c-492a-abc4-02c58df5b935-copy-21" fill="#BB9156" cx="11.711049" cy="12.9146436" rx="11.711049" ry="6.30924388"></ellipse>
                        <ellipse id="545a0e15-130c-492a-abc4-02c58df5b935-copy-20" fill="#FFFFFF" cx="11.711049" cy="10.6503636" rx="11.711049" ry="6.30924388"></ellipse>
                        <g id="Group-4" transform="translate(0.000000, 0.000000)">
                            <ellipse id="545a0e15-130c-492a-abc4-02c58df5b935-copy-3" fill="#BB9156" cx="11.711049" cy="8.57352392" rx="11.711049" ry="6.30924388"></ellipse>
                            <ellipse id="545a0e15-130c-492a-abc4-02c58df5b935-copy-2" fill="#FFFFFF" cx="11.711049" cy="6.30924388" rx="11.711049" ry="6.30924388"></ellipse>
                            <path d="M11.711049,0.797558904 C16.5619244,0.797558904 20.4943358,2.91611743 20.4943358,5.52949182 C20.4943358,8.1428662 16.5619244,10.2614247 11.711049,10.2614247 C6.86017369,10.2614247 2.92776226,8.1428662 2.92776226,5.52949182 C2.92776226,2.91611743 6.86017369,0.797558904 11.711049,0.797558904 L11.711049,0.797558904 Z M11.711049,0.00890341902 C6.05169447,0.00890341902 1.46388113,2.48055503 1.46388113,5.52949182 C1.46388113,8.5784286 6.05169447,11.0500802 11.711049,11.0500802 C17.3704036,11.0500802 21.9582169,8.5784286 21.9582169,5.52949182 C21.9582169,2.48055503 17.3704036,0.00890341902 11.711049,0.00890341902 L11.711049,0.00890341902 L11.711049,0.00890341902 Z" id="44ba5fdb-e859-402d-a709-27743707b7f9" fill="#BB9156"></path>
                            <path d="M11.711049,2.76919762 C14.5407263,2.76919762 16.834633,4.00502342 16.834633,5.52949182 C16.834633,7.05396021 14.5407263,8.28978601 11.711049,8.28978601 C8.88137174,8.28978601 6.58746508,7.05396021 6.58746508,5.52949182 C6.58746508,4.00502342 8.88137174,2.76919762 11.711049,2.76919762 L11.711049,2.76919762 Z M11.711049,1.98054213 C8.07289252,1.98054213 5.12358395,3.56946103 5.12358395,5.52949182 C5.12358395,7.4895226 8.07289252,9.0784415 11.711049,9.0784415 C15.3492055,9.0784415 18.2985141,7.4895226 18.2985141,5.52949182 C18.2985141,3.56946103 15.3492055,1.98054213 11.711049,1.98054213 L11.711049,1.98054213 L11.711049,1.98054213 Z" id="3b8a849a-dfaf-438f-be83-905bce767927" fill="#BB9156"></path>
                            <path d="M11.711049,0.403231162 L11.711049,2.37486987" id="3f1591c2-abff-4c7a-85e8-22c257d19b89" stroke="#BB9156"></path>
                            <path d="M11.3500467,8.68411376 L11.3500467,10.6557525" id="800e8a22-53f3-478f-be5f-3d9a6cb98823" stroke="#BB9156"></path>
                            <path d="M17.5665735,5.15835982 L21.2262764,5.15835982" id="678d244f-b88f-42b2-95bf-f595db3cb404" stroke="#BB9156"></path>
                            <path d="M2.19582169,5.15835982 L5.85552451,5.15835982" id="51f30a13-00da-4f03-87b8-6b91c7c51367" stroke="#BB9156"></path>
                            <path d="M18.7376784,1.74394549 L15.553737,3.45927117" id="5c9594bf-492b-4d8f-9f1f-3d275a2ad2e3" stroke="#BB9156"></path>
                            <path d="M7.76588938,7.65491835 L4.78689129,9.25983226" id="16e3e135-1169-4e04-87ce-a5bc71f06f98" stroke="#BB9156"></path>
                            <path d="M15.5317788,7.58788263 L18.7596367,9.3229247" id="831465b8-b8e1-41a3-8673-bb8ff6bd1c03" stroke="#BB9156"></path>
                            <path d="M4.68441961,1.74394549 L7.86836106,3.45927117" id="67dcd8c4-fc1d-4c24-8850-c3ca9c2a1769" stroke="#BB9156"></path>
                        </g>
                    </g>
                    <path d="M37.9745148,16.8081202 C35.9364047,14.5302325 32.3043538,13.9593062 32.3043538,13.9593062 L24.4164228,14.6050426 C22.2735656,14.6050426 16.6578021,13.4427171 16.7871124,9.95574054 C16.9164228,6.46876398 21.0781447,5.41983508 24.9336642,5.56473302 C28.7891836,5.70963096 35.5371124,3.7566711 35.5371124,3.7566711 C45.106078,4.78984934 46.8963924,12.5106108 53.5848944,12.0492014" id="XMLID_1922_" stroke="#FFFFFF" stroke-width="2" fill="#BB9156"></path>
                    <rect id="XMLID_2081_" stroke="#FFFFFF" stroke-width="2" fill="#BB9156" x="51.2597403" y="8.46333994" width="9.74025974" height="21.4015493"></rect>
                </g>
            </g>
        </g>
    </g>
</svg>