<?xml version="1.0" encoding="UTF-8"?>
<svg width="20px" height="20px" viewBox="0 0 20 20" version="1.1" xmlns="http://www.w3.org/2000/svg" xmlns:xlink="http://www.w3.org/1999/xlink">
    <!-- Generator: Sketch 63.1 (92452) - https://sketch.com -->
    <title>*icon/cm-promotion/expired</title>
    <desc>Created with Sketch.</desc>
    <g id="*icon/cm-promotion/expired" stroke="none" stroke-width="1" fill="none" fill-rule="evenodd">
        <g id="*icon/status/completed-copy-6">
            <circle id="Oval" stroke="#960012" stroke-width="2" fill="#FFFFFF" cx="10" cy="10" r="9"></circle>
            <path d="M8.54304636,10.4076923 L8.1192053,6.2625 C8.0397347,5.45480365 8,4.87500176 8,4.52307692 C8,4.04422837 8.19205106,3.67067442 8.57615894,3.40240385 C8.96026682,3.13413327 9.46578053,3 10.0927152,3 C10.8521009,3 11.3598221,3.1716329 11.615894,3.51490385 C11.871966,3.85817479 12,4.35288138 12,4.99903846 C12,5.3798096 11.9690952,5.76634419 11.9072848,6.15865385 L11.3377483,10.425 C11.2759379,10.9326948 11.1434889,11.322114 10.9403974,11.5932692 C10.7373058,11.8644244 10.4017683,12 9.93377483,12 C9.45695126,12 9.12582874,11.8687513 8.94039735,11.60625 C8.75496596,11.3437487 8.62251695,10.9442335 8.54304636,10.4076923 Z M10.013245,17 C9.47461099,17 9.00441702,16.8238591 8.60264901,16.4715719 C8.20088099,16.1192847 8,15.6265361 8,14.993311 C8,14.440354 8.19205106,13.9699016 8.57615894,13.5819398 C8.96026682,13.193978 9.43046079,13 9.98675497,13 C10.5430491,13 11.0176581,13.193978 11.410596,13.5819398 C11.803534,13.9699016 12,14.440354 12,14.993311 C12,15.6176174 11.8013265,16.1081365 11.4039735,16.4648829 C11.0066205,16.8216294 10.543049,17 10.013245,17 Z" id="!" fill="#FF0101"></path>
        </g>
    </g>
</svg>