<?xml version="1.0" encoding="utf-8"?>
<!-- Generator: Adobe Illustrator 19.1.0, SVG Export Plug-In . SVG Version: 6.00 Build 0)  -->
<svg version="1.1" id="Layer_1" xmlns="http://www.w3.org/2000/svg" xmlns:xlink="http://www.w3.org/1999/xlink" x="0px" y="0px"
	 viewBox="0 0 18 18" style="enable-background:new 0 0 18 18;" xml:space="preserve">
<style type="text/css">
	.st0{fill:#232323;}
</style>
<g id="XMLID_585_">
	<path id="XMLID_598_" class="st0" d="M18,11c0-0.5-0.1-1-0.2-1.5c-1-4-5.6-7.7-8.8-9.6C5.8,1.9,1.3,5.5,0.2,9.6C0.1,10,0,10.5,0,11
		c0,0,0,0.1,0,0.1c0,0,0,0.1,0,0.1l0,0C0.1,13.9,2.2,16,4.8,16c1.2,0,2.2-0.4,3.1-1.1c0,0.1,0,0.1,0,0.2c-0.1,1.2-0.4,2.2-1.2,3h4.7
		c-0.8-0.8-1.1-1.8-1.2-3c0-0.1,0-0.1,0-0.2c0.8,0.7,1.9,1.1,3.1,1.1c2.6,0,4.7-2.1,4.8-4.7l0,0C18,11.2,18,11.2,18,11
		C18,11.1,18,11.1,18,11z"/>
</g>
</svg>
