<?xml version="1.0" encoding="utf-8"?>
<!-- Generator: Adobe Illustrator 19.1.0, SVG Export Plug-In . SVG Version: 6.00 Build 0)  -->
<svg version="1.1" id="Layer_1" xmlns="http://www.w3.org/2000/svg" xmlns:xlink="http://www.w3.org/1999/xlink" x="0px" y="0px"
	 viewBox="0 0 20 18" style="enable-background:new 0 0 20 18;" xml:space="preserve">
<style type="text/css">
	.st0{fill:#DC3727;}
</style>
<g id="XMLID_1751_">
	<path id="XMLID_1752_" class="st0" d="M20,5.4c0,0,0-0.1,0-0.1l0,0c-0.1-3-2.4-5.3-5.3-5.3c-2,0-3.8,1.2-4.7,3C9.1,1.2,7.3,0,5.3,0
		C2.4,0,0.1,2.4,0,5.3l0,0c0,0,0,0.1,0,0.1c0,0,0,0.1,0,0.1c0,0.6,0.1,1.1,0.2,1.7C1.4,11.7,6.4,15.9,10,18
		c3.6-2.1,8.6-6.3,9.8-10.8C19.9,6.7,20,6.1,20,5.4C20,5.5,20,5.5,20,5.4z"/>
</g>
</svg>
