<?xml version="1.0" encoding="UTF-8" standalone="no"?>
<svg width="64px" height="64px" viewBox="0 0 64 64" version="1.1" xmlns="http://www.w3.org/2000/svg" xmlns:xlink="http://www.w3.org/1999/xlink">
    <!-- Generator: Sketch 3.7.2 (28276) - http://www.bohemiancoding.com/sketch -->
    <title>icon-configurations-landing</title>
    <desc>Created with Sketch.</desc>
    <defs></defs>
    <g id="Symbols" stroke="none" stroke-width="1" fill="none" fill-rule="evenodd">
        <g id="icon-configurations-landing" fill="#BB9156">
            <g id="Group" transform="translate(5.000000, 3.000000)">
                <path d="M48.333827,49.5791192 L48.333827,56.5361063 C48.333827,56.5361063 48.333827,57.917141 46.9527923,57.917141 C45.5717577,57.917141 45.5717577,56.5361063 45.5717577,56.5361063 L45.5717577,49.5791192 C42.4199047,48.9393268 40.047619,46.1527391 40.047619,42.8120744 C40.047619,39.4714097 42.4199047,36.684822 45.5717577,36.0450296 L45.5717577,1.38103466 C45.5717577,1.38103466 45.5717577,2.45306421e-15 46.9527923,0 C48.333827,0 48.333827,1.38103466 48.333827,1.38103466 L48.333827,36.0450296 C51.48568,36.684822 53.8579656,39.4714097 53.8579656,42.8120744 C53.8579656,46.1527391 51.48568,48.9393268 48.333827,49.5791192 L48.333827,49.5791192 L48.333827,49.5791192 Z M46.9527923,46.9551784 C49.2409655,46.9551784 51.0958963,45.1002475 51.0958963,42.8120744 C51.0958963,40.5239012 49.2409655,38.6689704 46.9527923,38.6689704 C44.6646192,38.6689704 42.8096884,40.5239012 42.8096884,42.8120744 C42.8096884,45.1002475 44.6646192,46.9551784 46.9527923,46.9551784 L46.9527923,46.9551784 L46.9527923,46.9551784 Z" id="Combined-Shape"></path>
                <path d="M29.0004937,34.387738 L29.0004937,56.5361063 C29.0004937,56.5361063 29.0004937,57.917141 27.619459,57.917141 C26.2384243,57.917141 26.2384243,56.5361063 26.2384243,56.5361063 L26.2384243,34.387738 C23.0865714,33.7479456 20.7142857,30.9613579 20.7142857,27.6206932 C20.7142857,24.2800284 23.0865714,21.4934407 26.2384243,20.8536484 L26.2384243,1.38103466 C26.2384243,1.38103466 26.2384243,2.45306421e-15 27.619459,0 C29.0004937,0 29.0004937,1.38103466 29.0004937,1.38103466 L29.0004937,20.8536484 C32.1523466,21.4934407 34.5246323,24.2800284 34.5246323,27.6206932 C34.5246323,30.9613579 32.1523466,33.7479456 29.0004937,34.387738 L29.0004937,34.387738 L29.0004937,34.387738 Z M27.619459,31.7637971 C29.9076321,31.7637971 31.762563,29.9088663 31.762563,27.6206932 C31.762563,25.33252 29.9076321,23.4775892 27.619459,23.4775892 C25.3312859,23.4775892 23.476355,25.33252 23.476355,27.6206932 C23.476355,29.9088663 25.3312859,31.7637971 27.619459,31.7637971 L27.619459,31.7637971 L27.619459,31.7637971 Z" id="Combined-Shape-Copy"></path>
                <path d="M8.28620795,20.5773914 L8.28620795,56.5361063 C8.28620795,56.5361063 8.28620795,57.917141 6.90517329,57.917141 C5.52413863,57.917141 5.52413863,56.5361063 5.52413863,56.5361063 L5.52413863,20.5773914 C2.37228565,19.937599 1.77635684e-15,17.1510113 1.77635684e-15,13.8103466 C1.77635684e-15,10.4696819 2.37228565,7.68309416 5.52413863,7.04330177 L5.52413863,1.38103466 C5.52413863,1.38103466 5.52413863,2.45306421e-15 6.90517329,0 C8.28620795,0 8.28620795,1.38103466 8.28620795,1.38103466 L8.28620795,7.04330177 C11.4380609,7.68309416 13.8103466,10.4696819 13.8103466,13.8103466 C13.8103466,17.1510113 11.4380609,19.937599 8.28620795,20.5773914 L8.28620795,20.5773914 L8.28620795,20.5773914 Z M6.90517329,17.9534506 C9.19334643,17.9534506 11.0482773,16.0985197 11.0482773,13.8103466 C11.0482773,11.5221734 9.19334643,9.6672426 6.90517329,9.6672426 C4.61700015,9.6672426 2.76206932,11.5221734 2.76206932,13.8103466 C2.76206932,16.0985197 4.61700015,17.9534506 6.90517329,17.9534506 L6.90517329,17.9534506 L6.90517329,17.9534506 Z" id="Combined-Shape-Copy-2"></path>
            </g>
        </g>
    </g>
</svg>