<?xml version="1.0" encoding="utf-8"?>
<!-- Generator: Adobe Illustrator 22.1.0, SVG Export Plug-In . SVG Version: 6.00 Build 0)  -->
<svg version="1.1" id="Layer_1" xmlns="http://www.w3.org/2000/svg" xmlns:xlink="http://www.w3.org/1999/xlink" x="0px" y="0px"
	 viewBox="0 0 60 60" style="enable-background:new 0 0 60 60;" xml:space="preserve">
<style type="text/css">
	.st0{fill:#BB9156;}
</style>
<title>icon-chart</title>
<desc>Created with Sketch.</desc>
<g id="Current">
	<g id="Apps-Dashboard-colored" transform="translate(-741.000000, -293.000000)">
		<g id="Group-12" transform="translate(661.000000, 271.000000)">
			<g id="icon-chart" transform="translate(75.000000, 20.000000)">
				<polygon id="Combined-Shape" class="st0" points="32.2,35.8 21.3,28.8 5.7,47.3 5.7,42 20.9,24.2 32,31.2 56.4,8.9 54.5,6.9 
					64,4.5 60.9,13.6 58.9,11.5 				"/>
				<polygon id="Path" class="st0" points="58.5,18.2 58.5,59.5 52.5,59.5 52.5,23.8 				"/>
				<polygon id="Path_1_" class="st0" points="22.2,34.8 24,36 24,59.5 18,59.5 18,40 				"/>
				<polygon id="Path_2_" class="st0" points="32.8,41.9 35.5,39.4 35.5,59.5 29.5,59.5 29.5,39.7 				"/>
				<polygon id="Path_3_" class="st0" points="47,28.8 47,59.5 41,59.5 41,34.4 				"/>
				<polygon id="Path_4_" class="st0" points="6.6,53.6 12.6,46.4 12.5,59.5 6.5,59.5 				"/>
			</g>
		</g>
	</g>
</g>
</svg>
