<?xml version="1.0" encoding="utf-8"?>
<!-- Generator: Adobe Illustrator 22.1.0, SVG Export Plug-In . SVG Version: 6.00 Build 0)  -->
<svg version="1.1" id="Layer_1" xmlns="http://www.w3.org/2000/svg" xmlns:xlink="http://www.w3.org/1999/xlink" x="0px" y="0px"
	 viewBox="0 0 60 60" style="enable-background:new 0 0 60 60;" xml:space="preserve">
<style type="text/css">
	.st0{fill:#BB9156;}
	.st1{fill:none;stroke:#BB9156;stroke-width:2;}
</style>
<title>icon-alert-landing</title>
<desc>Created with Sketch.</desc>
<g id="Symbols">
	<g id="icon-alert-landing">
		<g id="Group-2" transform="translate(16.000000, 7.000000)">
			<path id="XMLID_14_" class="st0" d="M14.2,46c3.9,0,6.9-1.8,6.9-4.2c0-0.3,0-0.5-0.2-0.8H7.2v0.8C7.2,44.2,10.2,46,14.2,46z"/>
			<path id="XMLID_2393_" class="st1" d="M25.7,21.3v-7c0-4.9-3-8.9-6.9-10.7V2.7c0-2.6-2.1-4.7-4.6-4.7S9.6,0.1,9.6,2.7v0.9
				C5.4,5.5,2.6,9.4,2.6,14.3v7L-2,37.7h32.4L25.7,21.3L25.7,21.3z"/>
		</g>
	</g>
</g>
</svg>
