<?xml version="1.0" encoding="utf-8"?>
<!-- Generator: Adobe Illustrator 22.1.0, SVG Export Plug-In . SVG Version: 6.00 Build 0)  -->
<svg version="1.1" id="Layer_1" xmlns="http://www.w3.org/2000/svg" xmlns:xlink="http://www.w3.org/1999/xlink" x="0px" y="0px"
	 viewBox="0 0 50 62" style="enable-background:new 0 0 50 62;" xml:space="preserve">
<style type="text/css">
	.st0{fill:#BB9156;}
	.st1{fill:#FFFFFF;}
	.st2{fill:none;stroke:#BB9156;}
</style>
<title>icon-treasury-manager</title>
<desc>Created with Sketch.</desc>
<g id="Current">
	<g id="Apps-Dashboard-colored" transform="translate(-508.000000, -292.000000)">
		<g id="Group-10" transform="translate(431.000000, 271.000000)">
			<g id="icon-treasury-manager" transform="translate(68.000000, 20.000000)">
				<g id="Group-9" transform="translate(9.000000, 1.000000)">
					<g id="chip-denom-1-copy-7">
						<ellipse id="_x35_45a0e15-130c-492a-abc4-02c58df5b935-copy-5" class="st0" cx="19.7" cy="41.5" rx="17.7" ry="9.5"/>
						<ellipse id="_x35_45a0e15-130c-492a-abc4-02c58df5b935-copy-4" class="st1" cx="19.7" cy="38.1" rx="17.7" ry="9.5"/>
						<ellipse id="_x35_45a0e15-130c-492a-abc4-02c58df5b935-copy-7" class="st0" cx="19.7" cy="35.9" rx="17.7" ry="9.5"/>
						<ellipse id="_x35_45a0e15-130c-492a-abc4-02c58df5b935-copy-6" class="st1" cx="19.7" cy="32.5" rx="17.7" ry="9.5"/>
						<ellipse id="_x35_45a0e15-130c-492a-abc4-02c58df5b935-copy-11" class="st0" cx="19.7" cy="30.3" rx="17.7" ry="9.5"/>
						<ellipse id="_x35_45a0e15-130c-492a-abc4-02c58df5b935-copy-10" class="st1" cx="19.7" cy="27" rx="17.7" ry="9.5"/>
						<ellipse id="_x35_45a0e15-130c-492a-abc4-02c58df5b935-copy-15" class="st0" cx="19.7" cy="24.8" rx="17.7" ry="9.5"/>
						<ellipse id="_x35_45a0e15-130c-492a-abc4-02c58df5b935-copy-14" class="st1" cx="19.7" cy="21.5" rx="17.7" ry="9.5"/>
						<ellipse id="_x35_45a0e15-130c-492a-abc4-02c58df5b935-copy-19" class="st0" cx="19.7" cy="19.3" rx="17.7" ry="9.5"/>
						<ellipse id="_x35_45a0e15-130c-492a-abc4-02c58df5b935-copy-18" class="st1" cx="19.7" cy="16" rx="17.7" ry="9.5"/>
						<g id="Group-4">
							<ellipse id="_x35_45a0e15-130c-492a-abc4-02c58df5b935-copy-3" class="st0" cx="19.7" cy="12.8" rx="17.7" ry="9.5"/>
							<ellipse id="_x35_45a0e15-130c-492a-abc4-02c58df5b935-copy-2" class="st1" cx="19.7" cy="9.5" rx="17.7" ry="9.5"/>
							<path id="_x34_4ba5fdb-e859-402d-a709-27743707b7f9" class="st0" d="M19.7,1.2c7.3,0,13.2,3.2,13.2,7.1s-5.9,7.1-13.2,7.1
								S6.4,12.2,6.4,8.3S12.3,1.2,19.7,1.2L19.7,1.2z M19.7,0C11.1,0,4.2,3.7,4.2,8.3s6.9,8.3,15.5,8.3s15.5-3.7,15.5-8.3
								S28.2,0,19.7,0L19.7,0L19.7,0z"/>
							<path id="_x33_b8a849a-dfaf-438f-be83-905bce767927" class="st0" d="M19.7,4.1c4.3,0,7.7,1.9,7.7,4.1s-3.5,4.1-7.7,4.1
								s-7.7-1.9-7.7-4.1S15.4,4.1,19.7,4.1L19.7,4.1z M19.7,3c-5.5,0-9.9,2.4-9.9,5.3s4.4,5.3,9.9,5.3s9.9-2.4,9.9-5.3
								S25.2,3,19.7,3L19.7,3L19.7,3z"/>
							<path id="_x33_f1591c2-abff-4c7a-85e8-22c257d19b89" class="st2" d="M19.7,0.6v3"/>
							<path id="_x38_00e8a22-53f3-478f-be5f-3d9a6cb98823" class="st2" d="M19.1,13v3"/>
							<path id="_x36_78d244f-b88f-42b2-95bf-f595db3cb404" class="st2" d="M28.5,7.7H34"/>
							<path id="_x35_1f30a13-00da-4f03-87b8-6b91c7c51367" class="st2" d="M5.3,7.7h5.5"/>
							<path id="_x35_c9594bf-492b-4d8f-9f1f-3d275a2ad2e3" class="st2" d="M30.3,2.6l-4.8,2.6"/>
							<path id="_x31_6e3e135-1169-4e04-87ce-a5bc71f06f98" class="st2" d="M13.7,11.5l-4.5,2.4"/>
							<path id="_x38_31465b8-b8e1-41a3-8673-bb8ff6bd1c03" class="st2" d="M25.4,11.4l4.9,2.6"/>
							<path id="_x36_7dcd8c4-fc1d-4c24-8850-c3ca9c2a1769" class="st2" d="M9.1,2.6l4.8,2.6"/>
						</g>
					</g>
					<g id="chip-denom-1-copy-8" transform="translate(10.599650, 26.862908)">
						<ellipse id="_x35_45a0e15-130c-492a-abc4-02c58df5b935-copy-4_1_" class="st1" cx="19.7" cy="24.7" rx="17.7" ry="9.5"/>
						<ellipse id="_x35_45a0e15-130c-492a-abc4-02c58df5b935-copy-7_1_" class="st0" cx="19.7" cy="24.8" rx="17.7" ry="9.5"/>
						<ellipse id="_x35_45a0e15-130c-492a-abc4-02c58df5b935-copy-6_1_" class="st1" cx="19.7" cy="21.4" rx="17.7" ry="9.5"/>
						<ellipse id="_x35_45a0e15-130c-492a-abc4-02c58df5b935-copy-9" class="st0" cx="19.7" cy="19.1" rx="17.7" ry="9.5"/>
						<ellipse id="_x35_45a0e15-130c-492a-abc4-02c58df5b935-copy-8" class="st1" cx="19.7" cy="15.7" rx="17.7" ry="9.5"/>
						<g id="Group-4_1_">
							<ellipse id="_x35_45a0e15-130c-492a-abc4-02c58df5b935-copy-3_1_" class="st0" cx="19.7" cy="12.8" rx="17.7" ry="9.5"/>
							<ellipse id="_x35_45a0e15-130c-492a-abc4-02c58df5b935-copy-2_1_" class="st1" cx="19.7" cy="9.5" rx="17.7" ry="9.5"/>
							<path id="_x34_4ba5fdb-e859-402d-a709-27743707b7f9_1_" class="st0" d="M19.7,2.3c7.3,0,13.2,3,13.2,6.8s-5.9,6.8-13.2,6.8
								s-13.2-3-13.2-6.8S12.3,2.3,19.7,2.3L19.7,2.3z M19.7,1.2c-8.5,0-15.5,3.6-15.5,7.9s6.9,7.9,15.5,7.9s15.5-3.6,15.5-7.9
								S28.2,1.2,19.7,1.2L19.7,1.2L19.7,1.2z"/>
							<path id="_x33_b8a849a-dfaf-438f-be83-905bce767927_1_" class="st0" d="M19.7,5.1c4.3,0,7.7,1.8,7.7,4s-3.5,4-7.7,4
								s-7.7-1.8-7.7-4S15.4,5.1,19.7,5.1L19.7,5.1z M19.7,4c-5.5,0-9.9,2.3-9.9,5.1s4.4,5.1,9.9,5.1s9.9-2.3,9.9-5.1S25.2,4,19.7,4
								L19.7,4L19.7,4z"/>
							<path id="_x33_f1591c2-abff-4c7a-85e8-22c257d19b89_1_" class="st2" d="M19.7,1.7v2.8"/>
							<path id="_x38_00e8a22-53f3-478f-be5f-3d9a6cb98823_1_" class="st2" d="M19.1,13.7v2.8"/>
							<path id="_x36_78d244f-b88f-42b2-95bf-f595db3cb404_1_" class="st2" d="M28.5,8.2H34"/>
							<path id="_x35_1f30a13-00da-4f03-87b8-6b91c7c51367_1_" class="st2" d="M5.3,8.2h5.5"/>
							<path id="_x35_c9594bf-492b-4d8f-9f1f-3d275a2ad2e3_1_" class="st2" d="M30.3,3.7l-4.8,2.5"/>
							<path id="_x31_6e3e135-1169-4e04-87ce-a5bc71f06f98_1_" class="st2" d="M13.7,12.2l-4.5,2.3"/>
							<path id="_x38_31465b8-b8e1-41a3-8673-bb8ff6bd1c03_1_" class="st2" d="M25.4,12.1l4.9,2.5"/>
							<path id="_x36_7dcd8c4-fc1d-4c24-8850-c3ca9c2a1769_1_" class="st2" d="M9.1,3.7l4.8,2.5"/>
						</g>
					</g>
				</g>
			</g>
		</g>
	</g>
</g>
</svg>
