<?xml version="1.0" encoding="UTF-8" standalone="no"?>
<svg width="46px" height="62px" viewBox="0 0 46 62" version="1.1" xmlns="http://www.w3.org/2000/svg" xmlns:xlink="http://www.w3.org/1999/xlink">
    <!-- Generator: Sketch 3.7.2 (28276) - http://www.bohemiancoding.com/sketch -->
    <title>icon-treasury-manager</title>
    <desc>Created with Sketch.</desc>
    <defs></defs>
    <g id="Current" stroke="none" stroke-width="1" fill="none" fill-rule="evenodd">
        <g id="Apps-Dashboard-colored" transform="translate(-508.000000, -292.000000)">
            <g id="Group-10" transform="translate(431.000000, 271.000000)">
                <g id="icon-treasury-manager" transform="translate(68.000000, 20.000000)">
                    <g id="Group-9" transform="translate(9.000000, 1.000000)">
                        <g id="chip-denom-1-copy-7">
                            <ellipse id="545a0e15-130c-492a-abc4-02c58df5b935-copy-5" fill="#BB9156" cx="17.6660839" cy="41.5240808" rx="17.6660839" ry="9.45030805"></ellipse>
                            <ellipse id="545a0e15-130c-492a-abc4-02c58df5b935-copy-4" fill="#FFFFFF" cx="17.6660839" cy="38.1325264" rx="17.6660839" ry="9.45030805"></ellipse>
                            <ellipse id="545a0e15-130c-492a-abc4-02c58df5b935-copy-7" fill="#BB9156" cx="17.6660839" cy="35.852773" rx="17.6660839" ry="9.45030805"></ellipse>
                            <ellipse id="545a0e15-130c-492a-abc4-02c58df5b935-copy-6" fill="#FFFFFF" cx="17.6660839" cy="32.4612186" rx="17.6660839" ry="9.45030805"></ellipse>
                            <ellipse id="545a0e15-130c-492a-abc4-02c58df5b935-copy-11" fill="#BB9156" cx="17.6660839" cy="30.3499198" rx="17.6660839" ry="9.45030805"></ellipse>
                            <ellipse id="545a0e15-130c-492a-abc4-02c58df5b935-copy-10" fill="#FFFFFF" cx="17.6660839" cy="26.9583654" rx="17.6660839" ry="9.45030805"></ellipse>
                            <ellipse id="545a0e15-130c-492a-abc4-02c58df5b935-copy-15" fill="#BB9156" cx="17.6660839" cy="24.8470666" rx="17.6660839" ry="9.45030805"></ellipse>
                            <ellipse id="545a0e15-130c-492a-abc4-02c58df5b935-copy-14" fill="#FFFFFF" cx="17.6660839" cy="21.4555122" rx="17.6660839" ry="9.45030805"></ellipse>
                            <ellipse id="545a0e15-130c-492a-abc4-02c58df5b935-copy-19" fill="#BB9156" cx="17.6660839" cy="19.3442135" rx="17.6660839" ry="9.45030805"></ellipse>
                            <ellipse id="545a0e15-130c-492a-abc4-02c58df5b935-copy-18" fill="#FFFFFF" cx="17.6660839" cy="15.952659" rx="17.6660839" ry="9.45030805"></ellipse>
                            <g id="Group-4">
                                <ellipse id="545a0e15-130c-492a-abc4-02c58df5b935-copy-3" fill="#BB9156" cx="17.6660839" cy="12.8418625" rx="17.6660839" ry="9.45030805"></ellipse>
                                <ellipse id="545a0e15-130c-492a-abc4-02c58df5b935-copy-2" fill="#FFFFFF" cx="17.6660839" cy="9.45030805" rx="17.6660839" ry="9.45030805"></ellipse>
                                <path d="M17.6660839,1.1946245 C24.9836155,1.1946245 30.9156469,4.36790978 30.9156469,8.28235554 C30.9156469,12.1968013 24.9836155,15.3700866 17.6660839,15.3700866 C10.3485524,15.3700866 4.41652098,12.1968013 4.41652098,8.28235554 C4.41652098,4.36790978 10.3485524,1.1946245 17.6660839,1.1946245 L17.6660839,1.1946245 Z M17.6660839,0.0133359962 C9.12896377,0.0133359962 2.20826049,3.71550215 2.20826049,8.28235554 C2.20826049,12.8492089 9.12896377,16.5513751 17.6660839,16.5513751 C26.2032041,16.5513751 33.1239073,12.8492089 33.1239073,8.28235554 C33.1239073,3.71550215 26.2032041,0.0133359962 17.6660839,0.0133359962 L17.6660839,0.0133359962 L17.6660839,0.0133359962 Z" id="44ba5fdb-e859-402d-a709-27743707b7f9" fill="#BB9156"></path>
                                <path d="M17.6660839,4.14784577 C21.934644,4.14784577 25.3949956,5.99892885 25.3949956,8.28235554 C25.3949956,10.5657822 21.934644,12.4168653 17.6660839,12.4168653 C13.3975238,12.4168653 9.9371722,10.5657822 9.9371722,8.28235554 C9.9371722,5.99892885 13.3975238,4.14784577 17.6660839,4.14784577 L17.6660839,4.14784577 Z M17.6660839,2.96655726 C12.1779353,2.96655726 7.72891171,5.34652122 7.72891171,8.28235554 C7.72891171,11.2181899 12.1779353,13.5981538 17.6660839,13.5981538 C23.1542326,13.5981538 27.6032561,11.2181899 27.6032561,8.28235554 C27.6032561,5.34652122 23.1542326,2.96655726 17.6660839,2.96655726 L17.6660839,2.96655726 L17.6660839,2.96655726 Z" id="3b8a849a-dfaf-438f-be83-905bce767927" fill="#BB9156"></path>
                                <path d="M17.6660839,0.60398025 L17.6660839,3.55720152" id="3f1591c2-abff-4c7a-85e8-22c257d19b89" stroke="#BB9156"></path>
                                <path d="M17.1140188,13.0075096 L17.1140188,15.9607308" id="800e8a22-53f3-478f-be5f-3d9a6cb98823" stroke="#BB9156"></path>
                                <path d="M26.4991259,7.72645507 L32.0197771,7.72645507" id="678d244f-b88f-42b2-95bf-f595db3cb404" stroke="#BB9156"></path>
                                <path d="M3.31239073,7.72645507 L8.83304196,7.72645507" id="51f30a13-00da-4f03-87b8-6b91c7c51367" stroke="#BB9156"></path>
                                <path d="M28.2657343,2.61217071 L23.4627677,5.18147321" id="5c9594bf-492b-4d8f-9f1f-3d275a2ad2e3" stroke="#BB9156"></path>
                                <path d="M11.7148219,11.4659281 L7.2210118,13.8698502" id="16e3e135-1169-4e04-87ce-a5bc71f06f98" stroke="#BB9156"></path>
                                <path d="M23.4296438,11.3655185 L28.2988582,13.9643533" id="831465b8-b8e1-41a3-8673-bb8ff6bd1c03" stroke="#BB9156"></path>
                                <path d="M7.06643357,2.61217071 L11.8694001,5.18147321" id="67dcd8c4-fc1d-4c24-8850-c3ca9c2a1769" stroke="#BB9156"></path>
                            </g>
                        </g>
                        <g id="chip-denom-1-copy-8" transform="translate(10.599650, 26.862908)">
                            <ellipse id="545a0e15-130c-492a-abc4-02c58df5b935-copy-4" fill="#FFFFFF" cx="17.6660839" cy="24.7010726" rx="17.6660839" ry="9.45030805"></ellipse>
                            <ellipse id="545a0e15-130c-492a-abc4-02c58df5b935-copy-7" fill="#BB9156" cx="17.6660839" cy="24.7572241" rx="17.6660839" ry="9.45030805"></ellipse>
                            <ellipse id="545a0e15-130c-492a-abc4-02c58df5b935-copy-6" fill="#FFFFFF" cx="17.6660839" cy="21.3656697" rx="17.6660839" ry="9.45030805"></ellipse>
                            <ellipse id="545a0e15-130c-492a-abc4-02c58df5b935-copy-9" fill="#BB9156" cx="17.6660839" cy="19.0859163" rx="17.6660839" ry="9.45030805"></ellipse>
                            <ellipse id="545a0e15-130c-492a-abc4-02c58df5b935-copy-8" fill="#FFFFFF" cx="17.6660839" cy="15.6943619" rx="17.6660839" ry="9.45030805"></ellipse>
                            <g id="Group-4">
                                <ellipse id="545a0e15-130c-492a-abc4-02c58df5b935-copy-3" fill="#BB9156" cx="17.6660839" cy="12.8418625" rx="17.6660839" ry="9.45030805"></ellipse>
                                <ellipse id="545a0e15-130c-492a-abc4-02c58df5b935-copy-2" fill="#FFFFFF" cx="17.6660839" cy="9.45030805" rx="17.6660839" ry="9.45030805"></ellipse>
                                <path d="M17.6660839,2.31509065 C24.9836155,2.31509065 30.9156469,5.36081371 30.9156469,9.11790351 C30.9156469,12.8749933 24.9836155,15.9207164 17.6660839,15.9207164 C10.3485524,15.9207164 4.41652098,12.8749933 4.41652098,9.11790351 C4.41652098,5.36081371 10.3485524,2.31509065 17.6660839,2.31509065 L17.6660839,2.31509065 Z M17.6660839,1.18128851 C9.12896377,1.18128851 2.20826049,4.73463208 2.20826049,9.11790351 C2.20826049,13.5011749 9.12896377,17.0545185 17.6660839,17.0545185 C26.2032041,17.0545185 33.1239073,13.5011749 33.1239073,9.11790351 C33.1239073,4.73463208 26.2032041,1.18128851 17.6660839,1.18128851 L17.6660839,1.18128851 L17.6660839,1.18128851 Z" id="44ba5fdb-e859-402d-a709-27743707b7f9" fill="#BB9156"></path>
                                <path d="M17.6660839,5.14959601 C21.934644,5.14959601 25.3949956,6.92626779 25.3949956,9.11790351 C25.3949956,11.3095392 21.934644,13.086211 17.6660839,13.086211 C13.3975238,13.086211 9.9371722,11.3095392 9.9371722,9.11790351 C9.9371722,6.92626779 13.3975238,5.14959601 17.6660839,5.14959601 L17.6660839,5.14959601 Z M17.6660839,4.01579386 C12.1779353,4.01579386 7.72891171,6.30008616 7.72891171,9.11790351 C7.72891171,11.9357209 12.1779353,14.2200131 17.6660839,14.2200131 C23.1542326,14.2200131 27.6032561,11.9357209 27.6032561,9.11790351 C27.6032561,6.30008616 23.1542326,4.01579386 17.6660839,4.01579386 L17.6660839,4.01579386 L17.6660839,4.01579386 Z" id="3b8a849a-dfaf-438f-be83-905bce767927" fill="#BB9156"></path>
                                <path d="M17.6660839,1.74818958 L17.6660839,4.58269494" id="3f1591c2-abff-4c7a-85e8-22c257d19b89" stroke="#BB9156"></path>
                                <path d="M17.0772145,13.6531121 L17.0772145,16.4876174" id="800e8a22-53f3-478f-be5f-3d9a6cb98823" stroke="#BB9156"></path>
                                <path d="M26.4991259,8.17566757 L32.0197771,8.17566757" id="678d244f-b88f-42b2-95bf-f595db3cb404" stroke="#BB9156"></path>
                                <path d="M3.31239073,8.17566757 L8.83304196,8.17566757" id="51f30a13-00da-4f03-87b8-6b91c7c51367" stroke="#BB9156"></path>
                                <path d="M28.2657343,3.67565322 L23.4627677,6.14167288" id="5c9594bf-492b-4d8f-9f1f-3d275a2ad2e3" stroke="#BB9156"></path>
                                <path d="M11.7148219,12.1735003 L7.2210118,14.4807876" id="16e3e135-1169-4e04-87ce-a5bc71f06f98" stroke="#BB9156"></path>
                                <path d="M23.4296438,12.0771271 L28.2988582,14.5714918" id="831465b8-b8e1-41a3-8673-bb8ff6bd1c03" stroke="#BB9156"></path>
                                <path d="M7.06643357,3.67565322 L11.8694001,6.14167288" id="67dcd8c4-fc1d-4c24-8850-c3ca9c2a1769" stroke="#BB9156"></path>
                            </g>
                        </g>
                    </g>
                </g>
            </g>
        </g>
    </g>
</svg>